<svg width="250" height="350" viewBox="0 0 250 350" fill="none" xmlns="http://www.w3.org/2000/svg">
<rect width="250" height="350" rx="12.5" fill="white"/>
<path d="M197.649 267.924H196.928C197.581 269.425 197.882 271.047 197.809 272.673C197.735 274.3 197.29 275.89 196.505 277.33C195.72 278.77 194.615 280.023 193.27 280.998C191.924 281.974 190.372 282.648 188.725 282.971C187.078 283.295 185.377 283.26 183.745 282.87C182.114 282.479 180.592 281.743 179.29 280.713C177.988 279.683 176.938 278.387 176.217 276.916C175.495 275.446 175.119 273.838 175.117 272.21C175.115 270.737 175.421 269.279 176.018 267.924H175.327C173.4 267.92 171.506 267.441 169.823 266.532C168.139 265.622 166.723 264.313 165.707 262.727C164.69 261.141 164.108 259.33 164.014 257.465C163.919 255.6 164.317 253.743 165.168 252.068C166.02 250.394 167.298 248.957 168.881 247.892C170.465 246.828 172.302 246.172 174.219 245.986C176.137 245.8 178.072 246.09 179.842 246.828C181.612 247.567 183.158 248.73 184.336 250.208C182.294 246.552 179.862 242.77 175.748 240.831V238.319H197.229V240.831C194.076 241.936 191.563 245.437 189.381 249.364C190.67 248.037 192.28 247.04 194.065 246.465C195.85 245.889 197.755 245.753 199.608 246.067C201.461 246.382 203.204 247.138 204.681 248.267C206.158 249.396 207.322 250.863 208.068 252.536C208.815 254.209 209.12 256.035 208.957 257.851C208.794 259.667 208.168 261.415 207.135 262.938C206.102 264.461 204.694 265.711 203.038 266.577C201.382 267.442 199.531 267.895 197.649 267.895V267.924Z" fill="black"/>
<path d="M51.3509 82.0759H52.0716C51.4189 80.5755 51.1183 78.9535 51.1915 77.3269C51.2646 75.7003 51.7097 74.1097 52.4946 72.67C53.2796 71.2303 54.3847 69.9774 55.7302 69.0018C57.0758 68.0263 58.6282 67.3523 60.2753 67.0286C61.9224 66.705 63.6232 66.7397 65.2548 67.1302C66.8864 67.5208 68.4081 68.2575 69.71 69.2871C71.012 70.3167 72.0617 71.6135 72.7833 73.0839C73.505 74.5543 73.8806 76.1617 73.883 77.7898C73.885 79.2628 73.5785 80.7209 72.9821 82.0759H73.6728C75.5999 82.0798 77.4943 82.559 79.1774 83.4683C80.8606 84.3776 82.277 85.687 83.2933 87.2733C84.3096 88.8595 84.8923 90.6703 84.9864 92.535C85.0806 94.3997 84.6832 96.2569 83.8316 97.9317C82.9799 99.6064 81.7022 101.044 80.1187 102.108C78.5353 103.172 76.6982 103.828 74.7807 104.014C72.8631 104.2 70.9282 103.91 69.1583 103.172C67.3883 102.433 65.8416 101.27 64.6639 99.7924C66.7059 103.448 69.1383 107.23 73.2524 109.169V111.681H51.7713V109.169C54.9244 108.064 57.4368 104.563 59.619 100.636C58.3299 101.964 56.7204 102.96 54.9353 103.535C53.1502 104.111 51.2454 104.247 49.3923 103.933C47.5392 103.618 45.7958 102.863 44.3189 101.733C42.8421 100.604 41.6781 99.1373 40.9317 97.4643C40.1852 95.7914 39.8797 93.9649 40.0426 92.1492C40.2056 90.3334 40.8318 88.5854 41.865 87.0623C42.8982 85.5392 44.3061 84.2887 45.9619 83.4234C47.6176 82.5581 49.4695 82.105 51.3509 82.105V82.0759Z" fill="black"/>
<path d="M176.351 82.0759H177.072C176.419 80.5755 176.118 78.9535 176.191 77.3269C176.265 75.7003 176.71 74.1097 177.495 72.67C178.28 71.2303 179.385 69.9774 180.73 69.0018C182.076 68.0263 183.628 67.3523 185.275 67.0286C186.922 66.705 188.623 66.7397 190.255 67.1302C191.886 67.5208 193.408 68.2575 194.71 69.2871C196.012 70.3167 197.062 71.6135 197.783 73.0839C198.505 74.5543 198.881 76.1617 198.883 77.7898C198.885 79.2628 198.579 80.7209 197.982 82.0759H198.673C200.6 82.0798 202.494 82.559 204.177 83.4683C205.861 84.3776 207.277 85.687 208.293 87.2733C209.31 88.8595 209.892 90.6703 209.986 92.535C210.081 94.3997 209.683 96.2569 208.832 97.9317C207.98 99.6064 206.702 101.044 205.119 102.108C203.535 103.172 201.698 103.828 199.781 104.014C197.863 104.2 195.928 103.91 194.158 103.172C192.388 102.433 190.842 101.27 189.664 99.7924C191.706 103.448 194.138 107.23 198.252 109.169V111.681H176.771V109.169C179.924 108.064 182.437 104.563 184.619 100.636C183.33 101.964 181.72 102.96 179.935 103.535C178.15 104.111 176.245 104.247 174.392 103.933C172.539 103.618 170.796 102.863 169.319 101.733C167.842 100.604 166.678 99.1373 165.932 97.4643C165.185 95.7914 164.88 93.9649 165.043 92.1492C165.206 90.3334 165.832 88.5854 166.865 87.0623C167.898 85.5392 169.306 84.2887 170.962 83.4234C172.618 82.5581 174.469 82.105 176.351 82.105V82.0759Z" fill="black"/>
<path d="M113.351 167.831H114.072C113.419 166.33 113.118 164.708 113.191 163.082C113.265 161.455 113.71 159.865 114.495 158.425C115.28 156.985 116.385 155.732 117.73 154.757C119.076 153.781 120.628 153.107 122.275 152.784C123.922 152.46 125.623 152.495 127.255 152.885C128.886 153.276 130.408 154.012 131.71 155.042C133.012 156.072 134.062 157.368 134.783 158.839C135.505 160.309 135.881 161.917 135.883 163.545C135.885 165.018 135.579 166.476 134.982 167.831H135.673C137.6 167.835 139.494 168.314 141.177 169.223C142.861 170.133 144.277 171.442 145.293 173.028C146.31 174.614 146.892 176.425 146.986 178.29C147.081 180.155 146.683 182.012 145.832 183.687C144.98 185.361 143.702 186.799 142.119 187.863C140.535 188.927 138.698 189.583 136.781 189.769C134.863 189.955 132.928 189.665 131.158 188.927C129.388 188.188 127.842 187.025 126.664 185.547C128.706 189.203 131.138 192.985 135.252 194.924V197.436H113.771V194.924C116.924 193.819 119.437 190.318 121.619 186.391C120.33 187.718 118.72 188.715 116.935 189.29C115.15 189.866 113.245 190.002 111.392 189.688C109.539 189.373 107.796 188.617 106.319 187.488C104.842 186.359 103.678 184.892 102.932 183.219C102.185 181.546 101.88 179.72 102.043 177.904C102.206 176.088 102.832 174.34 103.865 172.817C104.898 171.294 106.306 170.044 107.962 169.178C109.618 168.313 111.469 167.86 113.351 167.86V167.831Z" fill="black"/>
<path d="M73.6491 267.924H72.9284C73.5811 269.425 73.8817 271.047 73.8085 272.673C73.7354 274.3 73.2903 275.89 72.5054 277.33C71.7204 278.77 70.6153 280.023 69.2698 280.998C67.9242 281.974 66.3718 282.648 64.7247 282.971C63.0776 283.295 61.3768 283.26 59.7452 282.87C58.1136 282.479 56.5919 281.743 55.29 280.713C53.988 279.683 52.9383 278.387 52.2167 276.916C51.495 275.446 51.1194 273.838 51.117 272.21C51.115 270.737 51.4215 269.279 52.0179 267.924H51.3272C49.4001 267.92 47.5057 267.441 45.8226 266.532C44.1394 265.622 42.723 264.313 41.7067 262.727C40.6904 261.141 40.1077 259.33 40.0136 257.465C39.9194 255.6 40.3168 253.743 41.1684 252.068C42.0201 250.394 43.2978 248.957 44.8813 247.892C46.4647 246.828 48.3018 246.172 50.2193 245.986C52.1369 245.8 54.0718 246.09 55.8417 246.828C57.6117 247.567 59.1584 248.73 60.3361 250.208C58.2941 246.552 55.8617 242.77 51.7476 240.831V238.319H73.2287V240.831C70.0756 241.936 67.5632 245.437 65.381 249.364C66.6701 248.037 68.2796 247.04 70.0647 246.465C71.8498 245.889 73.7546 245.753 75.6077 246.067C77.4608 246.382 79.2042 247.138 80.6811 248.267C82.1579 249.396 83.3219 250.863 84.0683 252.536C84.8148 254.209 85.1203 256.035 84.9574 257.851C84.7944 259.667 84.1682 261.415 83.135 262.938C82.1018 264.461 80.6939 265.711 79.0381 266.577C77.3824 267.442 75.5305 267.895 73.6491 267.895V267.924Z" fill="black"/>
<path d="M15.7227 38.0273C15.293 37.4544 15.2344 36.9596 15.5469 36.543L16.9141 34.668C17.4609 33.9128 18.125 33.8932 18.9062 34.6094C19.375 35.0391 20.0977 35.4297 21.0742 35.7812C22.0508 36.1198 23.0273 36.2891 24.0039 36.2891C25.4883 36.2891 26.7383 35.8724 27.7539 35.0391C28.7826 34.2057 29.2969 32.9883 29.2969 31.3867C29.2969 29.8633 28.9714 28.6328 28.3203 27.6953C27.6693 26.7578 26.8815 26.2891 25.957 26.2891C25.1628 26.2891 24.4336 26.3542 23.7695 26.4844C23.1055 26.6016 22.4154 26.9727 21.6992 27.5977C21.2044 28.0273 20.6055 28.2422 19.9023 28.2422H17.7734C16.9271 28.2422 16.5039 27.819 16.5039 26.9727V13.4961C16.5039 12.6497 16.9271 12.2266 17.7734 12.2266H31.8359C32.6823 12.2266 33.1055 12.6497 33.1055 13.4961V15.8008C33.1055 16.6471 32.6823 17.0703 31.8359 17.0703H21.9727V21.8555C21.9727 22.3763 21.9466 22.8971 21.8945 23.418H22.0117C22.7018 22.819 23.4701 22.4219 24.3164 22.2266C25.1628 22.0182 26.0677 21.9141 27.0312 21.9141C29.3099 21.9141 31.2305 22.6953 32.793 24.2578C34.3685 25.8073 35.1562 28.2096 35.1562 31.4648C35.1562 34.4596 34.1536 36.7448 32.1484 38.3203C30.1562 39.8828 27.7865 40.6641 25.0391 40.6641C22.7474 40.6641 20.7617 40.4167 19.082 39.9219C17.4154 39.4141 16.2956 38.7826 15.7227 38.0273Z" fill="black"/>
<path d="M234.277 311.973C234.707 312.546 234.766 313.04 234.453 313.457L233.086 315.332C232.539 316.087 231.875 316.107 231.094 315.391C230.625 314.961 229.902 314.57 228.926 314.219C227.949 313.88 226.973 313.711 225.996 313.711C224.512 313.711 223.262 314.128 222.246 314.961C221.217 315.794 220.703 317.012 220.703 318.613C220.703 320.137 221.029 321.367 221.68 322.305C222.331 323.242 223.118 323.711 224.043 323.711C224.837 323.711 225.566 323.646 226.23 323.516C226.895 323.398 227.585 323.027 228.301 322.402C228.796 321.973 229.395 321.758 230.098 321.758H232.227C233.073 321.758 233.496 322.181 233.496 323.027V336.504C233.496 337.35 233.073 337.773 232.227 337.773H218.164C217.318 337.773 216.895 337.35 216.895 336.504V334.199C216.895 333.353 217.318 332.93 218.164 332.93H228.027V328.145C228.027 327.624 228.053 327.103 228.105 326.582H227.988C227.298 327.181 226.53 327.578 225.684 327.773C224.837 327.982 223.932 328.086 222.969 328.086C220.69 328.086 218.77 327.305 217.207 325.742C215.632 324.193 214.844 321.79 214.844 318.535C214.844 315.54 215.846 313.255 217.852 311.68C219.844 310.117 222.214 309.336 224.961 309.336C227.253 309.336 229.238 309.583 230.918 310.078C232.585 310.586 233.704 311.217 234.277 311.973Z" fill="black"/>
<path d="M232.433 288.967H231.952C232.387 289.968 232.588 291.049 232.539 292.133C232.49 293.218 232.194 294.278 231.67 295.238C231.147 296.198 230.41 297.033 229.513 297.683C228.616 298.334 227.581 298.783 226.483 298.999C225.385 299.215 224.251 299.192 223.163 298.931C222.076 298.671 221.061 298.18 220.193 297.493C219.325 296.807 218.626 295.942 218.144 294.962C217.663 293.982 217.413 292.91 217.411 291.825C217.41 290.843 217.614 289.871 218.012 288.967H217.551C216.267 288.965 215.004 288.645 213.882 288.039C212.76 287.433 211.815 286.56 211.138 285.503C210.46 284.445 210.072 283.238 210.009 281.995C209.946 280.752 210.211 279.513 210.779 278.397C211.347 277.28 212.199 276.322 213.254 275.613C214.31 274.904 215.535 274.466 216.813 274.342C218.091 274.218 219.381 274.411 220.561 274.904C221.741 275.396 222.772 276.171 223.557 277.156C222.196 274.719 220.574 272.198 217.832 270.905V269.231H232.152V270.905C230.05 271.642 228.375 273.976 226.921 276.594C227.78 275.709 228.853 275.045 230.043 274.661C231.233 274.278 232.503 274.186 233.738 274.396C234.974 274.606 236.136 275.11 237.121 275.862C238.105 276.615 238.881 277.593 239.379 278.708C239.877 279.824 240.08 281.041 239.972 282.252C239.863 283.462 239.445 284.628 238.757 285.643C238.068 286.659 237.129 287.492 236.025 288.069C234.922 288.646 233.687 288.948 232.433 288.948V288.967Z" fill="black"/>
<path d="M17.5672 60.0354H18.0477C17.6126 59.0351 17.4122 57.9538 17.461 56.8694C17.5098 55.785 17.8065 54.7246 18.3298 53.7648C18.853 52.805 19.5898 51.9697 20.4868 51.3193C21.3838 50.669 22.4188 50.2196 23.5169 50.0039C24.6149 49.7881 25.7488 49.8112 26.8365 50.0716C27.9242 50.332 28.9387 50.8231 29.8067 51.5095C30.6747 52.1959 31.3745 53.0604 31.8556 54.0407C32.3367 55.021 32.5871 56.0926 32.5887 57.178C32.59 58.16 32.3857 59.1321 31.9881 60.0354H32.4485C33.7333 60.038 34.9962 60.3575 36.1183 60.9637C37.2404 61.5698 38.1847 62.4428 38.8622 63.5003C39.5397 64.5578 39.9282 65.765 39.991 67.0081C40.0537 68.2512 39.7888 69.4894 39.221 70.6059C38.6533 71.7224 37.8015 72.6805 36.7458 73.3899C35.6902 74.0993 34.4655 74.5366 33.1871 74.6607C31.9087 74.7848 30.6188 74.5916 29.4388 74.0992C28.2589 73.6068 27.2278 72.8315 26.4426 71.8464C27.804 74.2836 29.4255 76.8048 32.1682 78.0977V79.7721H17.8475V78.0977C19.9496 77.3607 21.6246 75.027 23.0793 72.4088C22.2199 73.2938 21.1469 73.958 19.9569 74.3416C18.7668 74.7253 17.4969 74.8164 16.2615 74.6067C15.0261 74.397 13.8638 73.8932 12.8793 73.1404C11.8947 72.3877 11.1187 71.4097 10.6211 70.2943C10.1235 69.179 9.91982 67.9614 10.0284 66.7509C10.137 65.5404 10.5545 64.3751 11.2433 63.3596C11.9322 62.3442 12.8707 61.5106 13.9746 60.9337C15.0784 60.3568 16.313 60.0548 17.5672 60.0548V60.0354Z" fill="black"/>
</svg>
