<svg width="250" height="350" viewBox="0 0 250 350" fill="none" xmlns="http://www.w3.org/2000/svg">
<rect width="250" height="350" rx="12.5" fill="white"/>
<path d="M16.1914 40.9971C15.2799 40.9971 14.8242 40.5089 14.8242 39.5323V14.4542C14.8242 13.4776 15.2799 12.9893 16.1914 12.9893H19.1602C20.0716 12.9893 20.5273 13.4776 20.5273 14.4542V22.2276C20.5273 23.0089 20.4948 23.7901 20.4297 24.5714H20.5664L30.0586 14.1417C30.7617 13.3734 31.3607 12.9893 31.8555 12.9893H35.7812C37.3047 12.9893 37.5521 13.5492 36.5234 14.669L27.6367 24.3956L37.1484 39.3174C37.8646 40.4372 37.6172 40.9971 36.4062 40.9971H32.7539C32.0768 40.9971 31.4909 40.613 30.9961 39.8448L23.8086 28.5753L20.5273 32.2667V39.5323C20.5273 40.5089 20.0716 40.9971 19.1602 40.9971H16.1914Z" fill="black"/>
<path d="M233.309 310C234.22 310 234.676 310.488 234.676 311.465V336.543C234.676 337.52 234.22 338.008 233.309 338.008H230.34C229.428 338.008 228.973 337.52 228.973 336.543V328.77C228.973 327.988 229.005 327.207 229.07 326.426H228.934L219.441 336.855C218.738 337.624 218.139 338.008 217.645 338.008H213.719C212.195 338.008 211.948 337.448 212.977 336.328L221.863 326.602L212.352 311.68C211.635 310.56 211.883 310 213.094 310H216.746C217.423 310 218.009 310.384 218.504 311.152L225.691 322.422L228.973 318.73V311.465C228.973 310.488 229.428 310 230.34 310H233.309Z" fill="black"/>
<path d="M132.937 68.6751C130.912 70.7429 130.84 71.3695 132.503 73.2493C134.311 75.4424 134.6 74.7531 129.104 81.7711C127.513 83.7762 125.705 86.3452 125.126 87.4104L124.042 89.4156L118.256 85.656C111.892 81.5204 111.313 80.8938 111.747 79.0767C112.037 77.4475 110.446 75.3797 108.421 74.9411C107.408 74.6905 106.323 75.0664 105.166 76.069C102.924 78.0115 102.997 79.3273 105.239 80.2672C107.264 81.0191 108.565 83.2122 110.301 88.601C110.952 90.6688 111.964 93.6138 112.543 95.1176C114.423 100.005 112.76 105.77 106.613 116.297C104.443 119.994 102.708 123.189 102.708 123.503C102.708 123.753 103.431 124.004 104.299 124.004C105.094 124.004 106.83 124.693 108.131 125.508C109.65 126.51 111.603 127.074 114.279 127.262C116.448 127.45 119.775 127.951 121.655 128.39C123.535 128.891 125.271 129.079 125.56 128.829C126.428 128.077 123.246 124.317 120.787 123.189C118.907 122.375 116.737 122.124 112.471 122.187C105.745 122.312 105.89 122.625 109.867 115.858C113.049 110.407 114.929 105.77 115.58 101.572C115.942 99.8171 116.448 98.6266 117.027 98.6892C117.461 98.7519 120.353 98.8145 123.318 98.8145C129.176 98.9399 130.044 99.6291 127.296 101.76C125.488 103.201 125.416 106.522 127.151 107.9C127.802 108.402 129.321 109.592 130.406 110.469L132.431 112.098L131.057 113.665C128.959 115.983 129.827 118.114 134.673 122.249C136.987 124.192 138.867 126.134 138.867 126.51C138.867 127.889 145.593 129.831 150.077 129.831C154.199 129.831 159.767 128.202 160.852 126.573C161.141 126.26 160.563 124.505 159.695 122.625C158.249 119.68 158.104 118.239 158.104 109.592C158.032 100.506 158.249 99.3785 160.418 92.3606C162.877 84.7787 164.323 81.959 167.072 79.8286C168.952 78.3248 168.88 76.6956 166.927 75.5051C163.745 73.5626 161.431 74.5025 160.924 77.8861C160.418 81.2071 160.129 81.5204 154.054 85.5306C148.992 88.9143 148.63 89.0396 147.762 87.9117C147.256 87.2851 144.797 84.0895 142.338 80.8938L137.927 75.0664L139.518 73.6879C141.543 71.7455 141.471 70.4923 139.156 68.9258C136.77 67.2966 134.383 67.234 132.937 68.6751Z" fill="black"/>
<path d="M90.6304 100.318L88.6778 103.639L88.7501 133.842C88.8948 160.221 88.7501 164.169 87.81 165.046C87.1591 165.547 86.2913 165.986 85.7127 165.986C84.5556 165.986 83.6155 167.866 84.8449 167.928C85.3511 167.991 87.0145 167.928 88.5332 167.866L91.3536 167.74L90.9197 175.009L90.5581 182.278H93.017C95.7651 182.278 95.4758 183.28 95.8374 172.565C95.9097 170.498 96.0544 168.492 96.0544 168.054C96.1267 167.615 97.2115 167.49 99.0195 167.678C102.418 168.054 103.503 166.989 100.538 166.111L98.4409 165.422L98.2239 134.531L98.007 103.639L96.199 100.569C95.1865 98.8773 94.0294 97.3735 93.5232 97.2481C93.017 97.0602 91.7875 98.5013 90.6304 100.318Z" fill="black"/>
<path d="M108.493 134.719C108.493 137.726 108.782 140.358 109.144 140.546C110.301 141.173 115.146 137.413 117.46 133.967C119.052 131.586 117.75 130.458 112.687 129.769L108.493 129.205V134.719Z" fill="black"/>
<path d="M138.289 132.15C134.745 132.839 131.129 135.283 128.453 138.729C123.969 144.494 123.246 152.577 126.645 158.78C128.815 162.665 130.406 162.853 130.912 159.344C131.418 156.086 133.082 153.893 136.77 151.637C142.845 147.752 149.353 147.815 155.5 151.637L158.61 153.579L158.176 148.88C157.525 141.298 153.982 135.909 148.052 133.528C144.219 131.962 141.326 131.586 138.289 132.15Z" fill="black"/>
<path d="M125.126 134.468C121.366 135.784 108.276 145.496 106.323 148.567C104.515 151.198 104.515 151.512 104.515 166.237V181.15L110.373 182.841C117.533 184.847 119.413 185.912 122.595 189.671C129.682 198.068 130.55 211.414 124.62 221.816C123.246 224.26 122.306 226.39 122.523 226.578C123.608 227.581 139.156 216.239 142.628 211.853L145.014 208.908L145.231 194.872C145.376 187.165 145.303 180.21 145.086 179.458C144.725 178.33 144.002 177.954 141.326 177.641C136.914 177.139 132.575 175.385 129.176 172.879C122.595 167.866 119.268 156.086 121.583 146.436C122.451 143.052 125.922 136.285 127.296 135.596C129.249 134.531 127.585 133.653 125.126 134.468Z" fill="black"/>
<path d="M142.41 157.402C142.049 158.153 140.747 159.281 139.517 159.845C138.36 160.409 137.42 161.412 137.42 162.038C137.42 162.978 143.784 168.492 144.941 168.492C145.665 168.492 151.884 162.54 151.884 161.788C151.884 161.412 151.233 160.848 150.438 160.66C149.642 160.409 148.413 159.469 147.689 158.592C145.52 155.584 143.64 155.146 142.41 157.402Z" fill="black"/>
<path d="M154.271 177.703C153.62 177.891 153.331 180.022 153.331 185.223V192.428L150.945 192.053C147.69 191.551 147.184 192.178 149.354 194.183L151.089 195.812L151.306 226.139L151.523 256.53L153.331 259.6C154.344 261.354 155.501 262.858 156.007 262.983C156.513 263.109 157.743 261.668 158.9 259.85L160.852 256.53L161.069 226.453C161.214 209.911 161.286 196 161.286 195.561C161.286 195.123 162.082 194.434 163.094 194.058C165.408 193.118 165.625 191.363 163.311 191.99C158.683 193.243 158.755 193.306 158.9 185.411C159.117 178.142 158.827 177.202 156.224 177.327C155.645 177.327 154.705 177.515 154.271 177.703Z" fill="black"/>
<path d="M103.069 192.93C102.418 193.995 101.116 195.186 100.176 195.561C99.2361 195.937 98.296 196.627 98.079 197.065C97.6451 198.005 104.515 204.459 105.456 204.083C106.323 203.77 112.109 198.131 112.109 197.629C112.109 197.128 105.094 191.05 104.515 191.05C104.371 191.05 103.648 191.927 103.069 192.93Z" fill="black"/>
<path d="M118.98 199.634C118.112 203.081 116.955 204.898 114.207 207.342C109.217 211.79 100.394 212.417 94.4635 208.72C92.7278 207.592 91.0645 206.715 90.8475 206.715C90.1966 206.715 91.0645 212.668 92.2939 216.49C93.668 221.001 96.85 224.448 101.334 226.39C110.012 230.15 118.256 227.142 122.813 218.62C125.488 213.608 125.561 205.838 122.957 201.389C120.788 197.755 119.558 197.191 118.98 199.634Z" fill="black"/>
<path d="M136.119 221.44C133.588 223.32 132.141 226.014 132.503 228.395C132.72 229.962 133.154 230.275 135.829 230.714C140.819 231.528 141.036 231.278 141.036 225.2C141.036 220.375 140.892 219.873 139.662 219.873C138.867 219.873 137.276 220.563 136.119 221.44Z" fill="black"/>
<path d="M92.7273 231.466C90.63 232.28 88.7497 233.408 88.5328 233.909C88.3158 234.473 88.8943 235.914 89.8345 237.23C91.4255 239.486 91.4978 240.175 91.4978 250.263C91.4255 260.728 91.4255 261.041 88.7497 268.247C85.7123 276.894 85.0614 278.022 82.5303 279.776C80.9392 280.967 80.7946 281.343 81.3732 282.909C81.9517 284.413 82.6026 284.789 84.6998 284.914C86.8694 285.102 87.3756 284.852 88.0988 283.473C88.6051 282.596 88.9667 281.28 88.9667 280.591C88.9667 279.839 90.1961 278.398 91.6425 277.333C93.0889 276.205 95.6923 274.262 97.3557 272.946C99.0913 271.631 100.755 270.691 101.189 270.879C101.55 271.067 103.214 273.322 104.805 275.829C106.468 278.272 108.493 281.092 109.361 282.095C110.807 283.661 110.879 283.975 110.012 285.854C108.565 288.925 108.71 290.115 110.735 291.431C112.832 292.81 114.278 292.622 117.171 290.679L118.979 289.489L117.171 286.669L115.435 283.849L116.954 282.408C118.256 281.155 120.859 277.771 124.692 272.257L125.994 270.503L128.236 272.382C129.538 273.385 131.924 274.951 133.588 275.891C137.493 277.959 139.011 280.027 138.722 282.659C138.505 284.601 138.65 284.726 141.109 284.914C142.917 285.04 144.002 284.726 144.942 283.912C146.099 282.721 146.026 282.533 143.206 278.711C140.313 274.826 138.433 270.503 136.697 263.61C135.829 260.414 135.902 259.474 137.059 255.778C138.65 250.765 143.351 241.742 145.809 238.859C147.907 236.478 147.979 236.165 146.171 236.165C143.857 236.165 142.483 236.854 142.483 238.045C142.483 238.671 141.036 241.742 139.301 244.812C137.565 247.882 135.612 252.394 134.889 254.712C132.792 262.169 133.298 261.73 126.79 261.354C123.68 261.229 121.004 260.978 120.859 260.853C120.642 260.665 121.293 259.725 122.161 258.66C124.692 255.715 124.403 253.835 120.859 251.203C117.605 248.76 117.388 248.07 118.979 245.94C120.715 243.684 119.341 241.491 112.687 236.04C104.805 229.46 100.248 228.395 92.7273 231.466Z" fill="black"/>
<path d="M124.403 232.343C124.403 236.353 133.66 239.298 140.241 237.356C142.772 236.604 142.917 236.29 141.543 234.599C140.82 233.784 138.795 233.283 134.094 232.719C130.55 232.28 126.934 231.716 126.067 231.466C124.693 231.09 124.403 231.215 124.403 232.343Z" fill="black"/>
<path d="M232.433 289.965H231.952C232.387 290.965 232.588 292.046 232.539 293.131C232.49 294.215 232.194 295.275 231.67 296.235C231.147 297.195 230.41 298.03 229.513 298.681C228.616 299.331 227.581 299.78 226.483 299.996C225.385 300.212 224.251 300.189 223.163 299.928C222.076 299.668 221.061 299.177 220.193 298.491C219.325 297.804 218.626 296.94 218.144 295.959C217.663 294.979 217.413 293.907 217.411 292.822C217.41 291.84 217.614 290.868 218.012 289.965H217.551C216.267 289.962 215.004 289.643 213.882 289.036C212.76 288.43 211.815 287.557 211.138 286.5C210.46 285.442 210.072 284.235 210.009 282.992C209.946 281.749 210.211 280.511 210.779 279.394C211.347 278.278 212.199 277.32 213.254 276.61C214.31 275.901 215.535 275.463 216.813 275.339C218.091 275.215 219.381 275.408 220.561 275.901C221.741 276.393 222.772 277.168 223.557 278.154C222.196 275.716 220.574 273.195 217.832 271.902V270.228H232.152V271.902C230.05 272.639 228.375 274.973 226.921 277.591C227.78 276.706 228.853 276.042 230.043 275.658C231.233 275.275 232.503 275.184 233.738 275.393C234.974 275.603 236.136 276.107 237.121 276.86C238.105 277.612 238.881 278.59 239.379 279.706C239.877 280.821 240.08 282.039 239.972 283.249C239.863 284.46 239.445 285.625 238.757 286.64C238.068 287.656 237.129 288.489 236.025 289.066C234.922 289.643 233.687 289.945 232.433 289.945V289.965Z" fill="black"/>
<path d="M17.5672 61.0325H18.0477C17.6126 60.0323 17.4122 58.9509 17.461 57.8665C17.5098 56.7821 17.8065 55.7217 18.3298 54.7619C18.853 53.8021 19.5898 52.9669 20.4868 52.3165C21.3838 51.6661 22.4188 51.2168 23.5169 51.001C24.6149 50.7852 25.7488 50.8083 26.8365 51.0687C27.9242 51.3291 28.9387 51.8202 29.8067 52.5066C30.6747 53.193 31.3745 54.0576 31.8556 55.0379C32.3367 56.0181 32.5871 57.0897 32.5887 58.1751C32.59 59.1571 32.3857 60.1292 31.9881 61.0325H32.4485C33.7333 61.0351 34.9962 61.3546 36.1183 61.9608C37.2404 62.567 38.1847 63.4399 38.8622 64.4974C39.5397 65.5549 39.9282 66.7621 39.991 68.0052C40.0537 69.2484 39.7888 70.4865 39.221 71.603C38.6533 72.7195 37.8015 73.6776 36.7458 74.387C35.6902 75.0964 34.4655 75.5338 33.1871 75.6579C31.9087 75.782 30.6188 75.5887 29.4388 75.0963C28.2589 74.604 27.2278 73.8287 26.4426 72.8435C27.804 75.2807 29.4255 77.8019 32.1682 79.0949V80.7692H17.8475V79.0949C19.9496 78.3579 21.6246 76.0241 23.0793 73.4059C22.2199 74.2909 21.1469 74.9551 19.9569 75.3388C18.7668 75.7224 17.4969 75.8135 16.2615 75.6038C15.0261 75.3942 13.8638 74.8903 12.8793 74.1375C11.8947 73.3848 11.1187 72.4068 10.6211 71.2915C10.1235 70.1762 9.91982 68.9585 10.0284 67.748C10.137 66.5375 10.5545 65.3722 11.2433 64.3568C11.9322 63.3414 12.8707 62.5077 13.9746 61.9309C15.0784 61.354 16.313 61.0519 17.5672 61.0519V61.0325Z" fill="black"/>
</svg>
