<svg width="250" height="350" viewBox="0 0 250 350" fill="none" xmlns="http://www.w3.org/2000/svg">
<rect width="250" height="350" rx="12.5" fill="white"/>
<path d="M17.5 40.626C16.8099 40.2224 16.5495 39.7341 16.7188 39.1612L17.5391 36.4854C17.7734 35.7172 18.3854 35.6391 19.375 36.251C20.2214 36.7849 21.1654 37.0518 22.207 37.0518C23.6393 37.0518 24.5703 36.557 25 35.5674C25.4427 34.5779 25.6641 32.9307 25.6641 30.626V14.4542C25.6641 13.4776 26.1198 12.9893 27.0312 12.9893H30C30.9115 12.9893 31.3672 13.4776 31.3672 14.4542V30.2354C31.3672 35.0271 30.5599 38.1325 28.9453 39.5518C27.3438 40.9581 25.1172 41.6612 22.2656 41.6612C20.2734 41.6612 18.6849 41.3161 17.5 40.626Z" fill="black"/>
<path d="M232 310.371C232.69 310.775 232.951 311.263 232.781 311.836L231.961 314.512C231.727 315.28 231.115 315.358 230.125 314.746C229.279 314.212 228.335 313.945 227.293 313.945C225.861 313.945 224.93 314.44 224.5 315.43C224.057 316.419 223.836 318.066 223.836 320.371V336.543C223.836 337.52 223.38 338.008 222.469 338.008H219.5C218.589 338.008 218.133 337.52 218.133 336.543V320.762C218.133 315.97 218.94 312.865 220.555 311.445C222.156 310.039 224.383 309.336 227.234 309.336C229.227 309.336 230.815 309.681 232 310.371Z" fill="black"/>
<path d="M127.028 68.4887C122.584 69.5976 119.557 71.3304 118.59 73.2017C117.56 75.281 118.848 76.0434 122.455 75.5582C124.001 75.3503 130.893 75.2117 137.72 75.2117C151.182 75.2117 151.826 75.0037 148.67 71.8155C145.385 68.4887 133.985 66.756 127.028 68.4887Z" fill="black"/>
<path d="M111.183 76.1821C110.925 76.8059 111.57 79.7168 112.536 82.6278C113.759 86.4398 114.21 88.727 113.953 90.6677C113.566 93.4401 108.735 105.015 106.417 108.48C104.742 111.045 104.806 111.253 107.125 111.253C111.054 111.253 111.505 112.015 111.119 118.183C110.861 122.065 110.99 124.005 111.57 124.768C113.18 126.847 121.94 125.6 124.194 122.896C125.225 121.718 125.225 121.649 124.194 121.649C123.614 121.649 122.068 122.134 120.78 122.689C118.011 123.936 114.532 124.005 113.631 122.827C113.244 122.411 112.987 120.193 112.987 117.976L113.051 113.886L116.658 114.163C119.428 114.302 120.265 114.163 120.265 113.401C120.265 112.292 118.848 111.738 113.373 110.559C110.861 110.005 109.637 109.45 109.637 108.757C109.637 108.203 110.797 105.292 112.214 102.312C113.566 99.262 115.048 95.3807 115.499 93.648C115.949 91.4994 116.594 90.4598 117.302 90.3905C121.618 90.2518 125.74 90.3905 126.32 90.8063C126.706 91.0142 127.028 93.1628 127.028 95.5193C127.028 100.44 127.994 108.272 129.025 112.015C130.764 118.183 136.561 121.649 145.127 121.718C149.25 121.788 155.304 120.055 156.142 118.669C156.335 118.253 155.948 116.659 155.176 115.134C154.016 112.569 153.823 111.114 153.823 100.856C153.759 89.6974 153.823 89.2815 155.884 82.9744C156.979 79.4396 157.945 76.1821 157.945 75.7662C157.945 75.0038 156.915 75.1424 149.894 76.5286C143.002 77.9841 119.75 77.291 113.373 75.5583C112.02 75.2117 111.505 75.3504 111.183 76.1821Z" fill="black"/>
<path d="M94.5007 98.9155C93.9854 100.302 93.7922 102.45 93.9854 104.46C94.243 107.094 94.1142 107.856 93.3413 108.203C91.6666 108.896 84.5814 104.322 81.7474 100.718C78.9133 97.0442 77.6251 96.559 77.1098 98.9155C74.5334 111.599 74.3401 118.807 76.4013 128.095C77.7539 134.263 78.2692 134.402 82.1338 129.689C84.195 127.124 86.6426 125.045 88.7037 124.005C92.6328 121.995 93.921 121.926 94.3719 123.659C94.5007 124.421 94.6939 136.966 94.7583 151.59C94.8227 166.215 95.0804 178.344 95.338 178.621C95.5957 178.898 96.433 178.968 97.2704 178.76L98.6874 178.344L98.7518 152.214C98.8162 121.995 99.1383 103.975 99.6535 101.688C99.9112 100.579 99.5247 99.6086 98.4297 98.4303C96.3042 96.1431 95.5957 96.2818 94.5007 98.9155Z" fill="black"/>
<path d="M133.791 124.352C132.181 125.114 127.479 130.52 126.191 133.223C123.808 138.144 123.679 147.917 125.933 153.67C127.286 157.066 129.154 157.204 130.184 154.086C131.408 150.343 134.629 147.363 139.137 145.907C144.161 144.244 146.351 144.174 150.731 145.838L154.081 147.085V144.244C154.081 138.006 151.697 131.699 147.897 127.748C144.612 124.283 137.72 122.619 133.791 124.352Z" fill="black"/>
<path d="M122.842 127.54C119.299 129.897 110.604 139.253 109.315 142.164C108.414 144.174 108.22 147.709 108.156 165.036L108.027 185.552L111.57 186.73C120.394 189.71 125.096 194.285 127.672 202.394C130.442 211.058 129.798 221.038 125.998 230.395C124.13 234.9 124.13 234.831 125.933 233.86C129.927 231.573 137.398 224.019 140.426 219.098L142.165 216.395L142.358 195.81L142.616 175.225L137.592 173.354C129.476 170.235 124.967 165.868 122.713 158.868C121.811 156.096 121.553 153.185 121.553 146.184V137.105L124.001 131.976C127.286 124.976 127.221 124.699 122.842 127.54Z" fill="black"/>
<path d="M141.52 152.076C141.005 153.185 140.039 154.294 139.331 154.571C136.368 155.541 136.561 156.65 140.361 160.739L143.968 164.621L147.446 160.739L150.989 156.858L148.67 154.848C147.446 153.739 146.222 152.214 146.029 151.452C145.385 149.303 142.744 149.65 141.52 152.076Z" fill="black"/>
<path d="M151.827 182.087C151.311 184.027 151.054 261.515 151.633 262.624C152.406 264.149 153.63 264.01 155.111 262.277C156.078 261.099 156.271 259.921 156.142 256.732C156.013 252.782 156.078 252.643 157.624 252.643C161.231 252.643 169.217 258.812 170.312 262.347C170.892 264.356 172.567 262.277 173.791 258.119C175.465 251.95 175.401 237.534 173.597 231.504C172.245 226.93 170.57 225.751 169.604 228.524C168.187 232.474 158.268 239.474 156.722 237.672C156.4 237.326 156.013 224.712 155.82 209.672C155.498 183.958 155.434 182.364 154.274 181.879C152.535 181.116 152.149 181.185 151.827 182.087Z" fill="black"/>
<path d="M105.129 196.434C105.129 196.919 103.969 198.582 102.552 200.246C101.135 201.909 99.9758 203.572 99.9758 203.988C99.9758 204.404 100.813 205.236 101.844 205.86C102.874 206.414 103.969 207.592 104.227 208.424C104.485 209.325 104.935 210.226 105.322 210.503C106.095 210.988 112.858 204.889 112.858 203.711C112.858 203.226 111.892 201.978 110.797 200.869C109.637 199.76 108.349 198.236 107.963 197.473C107.19 196.018 105.129 195.255 105.129 196.434Z" fill="black"/>
<path d="M120.008 206.414C118.397 211.612 112.536 215.147 105.58 215.216C102.874 215.216 100.491 214.801 99.2673 214.177C96.4332 212.583 95.8535 213.345 96.3044 218.405C97.0773 227.068 101.779 234.415 107.705 236.078C112.149 237.326 117.173 235.94 120.265 232.682C126.255 226.237 127.994 215.702 124.387 207.87C122.455 203.642 120.974 203.157 120.008 206.414Z" fill="black"/>
<path d="M130.893 235.039C129.282 235.524 127.35 236.009 126.513 236.009C123.936 236.009 125.353 237.742 128.123 237.95C129.862 238.088 130.957 237.811 131.537 237.049C132.632 235.593 135.208 235.732 136.046 237.326C136.368 238.088 136.69 240.098 136.69 241.831C136.69 244.811 137.398 245.92 138.3 244.326C139.008 243.079 138.751 235.94 137.913 234.9C137.012 233.722 134.693 233.722 130.893 235.039Z" fill="black"/>
<path d="M97.6569 239.682C95.8534 240.653 94.1788 241.762 93.9211 242.108C93.7279 242.524 94.1788 244.049 94.9517 245.504C96.3043 247.93 96.4331 248.901 96.4331 259.574C96.3687 270.04 96.2399 271.495 94.6296 276.832C92.2464 284.872 92.3108 285.426 95.3382 284.803C96.6264 284.525 98.1722 284.11 98.8163 283.763C99.396 283.417 106.739 283.139 115.241 283.07C127.286 283.07 131.344 283.278 134.307 284.11C140.232 285.842 140.104 286.12 137.592 277.595C136.497 273.852 136.046 271.079 136.239 269.485C136.69 266.713 142.1 253.822 143.904 251.326L145.128 249.594L142.487 248.762C141.07 248.277 139.524 247.653 139.073 247.237C137.978 246.336 129.605 245.574 129.605 246.405C129.605 247.445 133.147 249.178 136.819 249.871C138.687 250.287 140.426 250.841 140.748 251.188C141.134 251.604 140.426 253.475 139.073 255.901C137.785 258.119 135.981 262.347 135.015 265.327L133.276 270.802L128.703 270.317C126.191 270.04 123.937 269.693 123.679 269.485C123.357 269.347 123.164 266.505 123.164 263.178C123.099 245.712 118.397 238.92 105.773 238.296C101.65 238.088 100.427 238.296 97.6569 239.682Z" fill="black"/>
<path d="M100.105 286.397C101.2 292.773 123.679 294.367 130.506 288.615C131.408 287.852 132.181 286.743 132.181 286.189C132.181 285.357 129.605 285.219 116.014 285.219C101.135 285.219 99.9114 285.288 100.105 286.397Z" fill="black"/>
<path d="M232.433 289.965H231.952C232.387 290.965 232.588 292.046 232.539 293.131C232.49 294.215 232.194 295.275 231.67 296.235C231.147 297.195 230.41 298.03 229.513 298.681C228.616 299.331 227.581 299.78 226.483 299.996C225.385 300.212 224.251 300.189 223.163 299.928C222.076 299.668 221.061 299.177 220.193 298.491C219.325 297.804 218.626 296.94 218.144 295.959C217.663 294.979 217.413 293.907 217.411 292.822C217.41 291.84 217.614 290.868 218.012 289.965H217.551C216.267 289.962 215.004 289.643 213.882 289.036C212.76 288.43 211.815 287.557 211.138 286.5C210.46 285.442 210.072 284.235 210.009 282.992C209.946 281.749 210.211 280.511 210.779 279.394C211.347 278.278 212.199 277.32 213.254 276.61C214.31 275.901 215.535 275.463 216.813 275.339C218.091 275.215 219.381 275.408 220.561 275.901C221.741 276.393 222.772 277.168 223.557 278.154C222.196 275.716 220.574 273.195 217.832 271.902V270.228H232.152V271.902C230.05 272.639 228.375 274.973 226.921 277.591C227.78 276.706 228.853 276.042 230.043 275.658C231.233 275.275 232.503 275.184 233.738 275.393C234.974 275.603 236.136 276.107 237.121 276.86C238.105 277.612 238.881 278.59 239.379 279.706C239.877 280.821 240.08 282.039 239.972 283.249C239.863 284.46 239.445 285.625 238.757 286.64C238.068 287.656 237.129 288.489 236.025 289.066C234.922 289.643 233.687 289.945 232.433 289.945V289.965Z" fill="black"/>
<path d="M17.5672 61.0325H18.0477C17.6126 60.0323 17.4122 58.9509 17.461 57.8665C17.5098 56.7821 17.8065 55.7217 18.3298 54.7619C18.853 53.8021 19.5898 52.9669 20.4868 52.3165C21.3838 51.6661 22.4188 51.2168 23.5169 51.001C24.6149 50.7852 25.7488 50.8083 26.8365 51.0687C27.9242 51.3291 28.9387 51.8202 29.8067 52.5066C30.6747 53.193 31.3745 54.0576 31.8556 55.0379C32.3367 56.0181 32.5871 57.0897 32.5887 58.1751C32.59 59.1571 32.3857 60.1292 31.9881 61.0325H32.4485C33.7333 61.0351 34.9962 61.3546 36.1183 61.9608C37.2404 62.567 38.1847 63.4399 38.8622 64.4974C39.5397 65.5549 39.9282 66.7621 39.991 68.0052C40.0537 69.2484 39.7888 70.4865 39.221 71.603C38.6533 72.7195 37.8015 73.6776 36.7458 74.387C35.6902 75.0964 34.4655 75.5338 33.1871 75.6579C31.9087 75.782 30.6188 75.5887 29.4388 75.0963C28.2589 74.604 27.2278 73.8287 26.4426 72.8435C27.804 75.2807 29.4255 77.8019 32.1682 79.0949V80.7692H17.8475V79.0949C19.9496 78.3579 21.6246 76.0241 23.0793 73.4059C22.2199 74.2909 21.1469 74.9551 19.9569 75.3388C18.7668 75.7224 17.4969 75.8135 16.2615 75.6038C15.0261 75.3942 13.8638 74.8903 12.8793 74.1375C11.8947 73.3848 11.1187 72.4068 10.6211 71.2915C10.1235 70.1762 9.91982 68.9585 10.0284 67.748C10.137 66.5375 10.5545 65.3722 11.2433 64.3568C11.9322 63.3414 12.8707 62.5077 13.9746 61.9309C15.0784 61.354 16.313 61.0519 17.5672 61.0519V61.0325Z" fill="black"/>
</svg>
