<svg width="250" height="350" viewBox="0 0 250 350" fill="none" xmlns="http://www.w3.org/2000/svg">
<rect width="250" height="350" rx="12.5" fill="white"/>
<path d="M197.649 267.924H196.928C197.581 269.425 197.882 271.047 197.809 272.673C197.735 274.3 197.29 275.89 196.505 277.33C195.72 278.77 194.615 280.023 193.27 280.998C191.924 281.974 190.372 282.648 188.725 282.971C187.078 283.295 185.377 283.26 183.745 282.87C182.114 282.479 180.592 281.743 179.29 280.713C177.988 279.683 176.938 278.387 176.217 276.916C175.495 275.446 175.119 273.838 175.117 272.21C175.115 270.737 175.421 269.279 176.018 267.924H175.327C173.4 267.92 171.506 267.441 169.823 266.532C168.139 265.622 166.723 264.313 165.707 262.727C164.69 261.141 164.108 259.33 164.014 257.465C163.919 255.6 164.317 253.743 165.168 252.068C166.02 250.394 167.298 248.957 168.881 247.892C170.465 246.828 172.302 246.172 174.219 245.986C176.137 245.8 178.072 246.09 179.842 246.828C181.612 247.567 183.158 248.73 184.336 250.208C182.294 246.552 179.862 242.77 175.748 240.831V238.319H197.229V240.831C194.076 241.936 191.563 245.437 189.381 249.364C190.67 248.037 192.28 247.04 194.065 246.465C195.85 245.889 197.755 245.753 199.608 246.067C201.461 246.382 203.204 247.138 204.681 248.267C206.158 249.396 207.322 250.863 208.068 252.536C208.815 254.209 209.12 256.035 208.957 257.851C208.794 259.667 208.168 261.415 207.135 262.938C206.102 264.461 204.694 265.711 203.038 266.577C201.382 267.442 199.531 267.895 197.649 267.895V267.924Z" fill="black"/>
<path d="M15.7617 33.9062C14.9154 33.9062 14.4922 33.4831 14.4922 32.6367V30.0586C14.4922 29.3164 14.6875 28.6719 15.0781 28.125L25.8984 12.8906C26.3802 12.2135 26.9857 11.875 27.7148 11.875H30.5859C31.4453 11.875 31.875 12.2982 31.875 13.1445V29.0625H34.2383C35.0846 29.0625 35.5078 29.4857 35.5078 30.332V32.6367C35.5078 33.4831 35.0911 33.9062 34.2578 33.9062H31.875V38.7305C31.875 39.5768 31.4518 40 30.6055 40H27.6758C26.8294 40 26.4062 39.5768 26.4062 38.7305V33.9062H15.7617ZM19.9414 29.0625H26.4062V21.5039C26.4062 20.9831 26.4323 20.4622 26.4844 19.9414H26.4062L19.9414 29.0625Z" fill="black"/>
<path d="M234.238 316.094C235.085 316.094 235.508 316.517 235.508 317.363V319.941C235.508 320.684 235.312 321.328 234.922 321.875L224.102 337.109C223.62 337.786 223.014 338.125 222.285 338.125H219.414C218.555 338.125 218.125 337.702 218.125 336.855V320.938H215.762C214.915 320.938 214.492 320.514 214.492 319.668V317.363C214.492 316.517 214.909 316.094 215.742 316.094H218.125V311.27C218.125 310.423 218.548 310 219.395 310H222.324C223.171 310 223.594 310.423 223.594 311.27V316.094H234.238ZM230.059 320.938H223.594V328.496C223.594 329.017 223.568 329.538 223.516 330.059H223.594L230.059 320.938Z" fill="black"/>
<path d="M51.3509 82.0759H52.0716C51.4189 80.5755 51.1183 78.9535 51.1915 77.3269C51.2646 75.7003 51.7097 74.1097 52.4946 72.67C53.2796 71.2303 54.3847 69.9774 55.7302 69.0018C57.0758 68.0263 58.6282 67.3523 60.2753 67.0286C61.9224 66.705 63.6232 66.7397 65.2548 67.1302C66.8864 67.5208 68.4081 68.2575 69.71 69.2871C71.012 70.3167 72.0617 71.6135 72.7833 73.0839C73.505 74.5543 73.8806 76.1617 73.883 77.7898C73.885 79.2628 73.5785 80.7209 72.9821 82.0759H73.6728C75.5999 82.0798 77.4943 82.559 79.1774 83.4683C80.8606 84.3776 82.277 85.687 83.2933 87.2733C84.3096 88.8595 84.8923 90.6703 84.9864 92.535C85.0806 94.3997 84.6832 96.2569 83.8316 97.9317C82.9799 99.6064 81.7022 101.044 80.1187 102.108C78.5353 103.172 76.6982 103.828 74.7807 104.014C72.8631 104.2 70.9282 103.91 69.1583 103.172C67.3883 102.433 65.8416 101.27 64.6639 99.7924C66.7059 103.448 69.1383 107.23 73.2524 109.169V111.681H51.7713V109.169C54.9244 108.064 57.4368 104.563 59.619 100.636C58.3299 101.964 56.7204 102.96 54.9353 103.535C53.1502 104.111 51.2454 104.247 49.3923 103.933C47.5392 103.618 45.7958 102.863 44.3189 101.733C42.8421 100.604 41.6781 99.1373 40.9317 97.4643C40.1852 95.7914 39.8797 93.9649 40.0426 92.1492C40.2056 90.3334 40.8318 88.5854 41.865 87.0623C42.8982 85.5392 44.3061 84.2887 45.9619 83.4234C47.6176 82.5581 49.4695 82.105 51.3509 82.105V82.0759Z" fill="black"/>
<path d="M175.351 82.0759H176.072C175.419 80.5755 175.118 78.9535 175.191 77.3269C175.265 75.7003 175.71 74.1097 176.495 72.67C177.28 71.2303 178.385 69.9774 179.73 69.0018C181.076 68.0263 182.628 67.3523 184.275 67.0286C185.922 66.705 187.623 66.7397 189.255 67.1302C190.886 67.5208 192.408 68.2575 193.71 69.2871C195.012 70.3167 196.062 71.6135 196.783 73.0839C197.505 74.5543 197.881 76.1617 197.883 77.7898C197.885 79.2628 197.579 80.7209 196.982 82.0759H197.673C199.6 82.0798 201.494 82.559 203.177 83.4683C204.861 84.3776 206.277 85.687 207.293 87.2733C208.31 88.8595 208.892 90.6703 208.986 92.535C209.081 94.3997 208.683 96.2569 207.832 97.9317C206.98 99.6064 205.702 101.044 204.119 102.108C202.535 103.172 200.698 103.828 198.781 104.014C196.863 104.2 194.928 103.91 193.158 103.172C191.388 102.433 189.842 101.27 188.664 99.7924C190.706 103.448 193.138 107.23 197.252 109.169V111.681H175.771V109.169C178.924 108.064 181.437 104.563 183.619 100.636C182.33 101.964 180.72 102.96 178.935 103.535C177.15 104.111 175.245 104.247 173.392 103.933C171.539 103.618 169.796 102.863 168.319 101.733C166.842 100.604 165.678 99.1373 164.932 97.4643C164.185 95.7914 163.88 93.9649 164.043 92.1492C164.206 90.3334 164.832 88.5854 165.865 87.0623C166.898 85.5392 168.306 84.2887 169.962 83.4234C171.618 82.5581 173.469 82.105 175.351 82.105V82.0759Z" fill="black"/>
<path d="M73.6491 267.924H72.9284C73.5811 269.425 73.8817 271.047 73.8085 272.673C73.7354 274.3 73.2903 275.89 72.5054 277.33C71.7204 278.77 70.6153 280.023 69.2698 280.998C67.9242 281.974 66.3718 282.648 64.7247 282.971C63.0776 283.295 61.3768 283.26 59.7452 282.87C58.1136 282.479 56.5919 281.743 55.29 280.713C53.988 279.683 52.9383 278.387 52.2167 276.916C51.495 275.446 51.1194 273.838 51.117 272.21C51.115 270.737 51.4215 269.279 52.0179 267.924H51.3272C49.4001 267.92 47.5057 267.441 45.8226 266.532C44.1394 265.622 42.723 264.313 41.7067 262.727C40.6904 261.141 40.1077 259.33 40.0136 257.465C39.9194 255.6 40.3168 253.743 41.1684 252.068C42.0201 250.394 43.2978 248.957 44.8813 247.892C46.4647 246.828 48.3018 246.172 50.2193 245.986C52.1369 245.8 54.0718 246.09 55.8417 246.828C57.6117 247.567 59.1584 248.73 60.3361 250.208C58.2941 246.552 55.8617 242.77 51.7476 240.831V238.319H73.2287V240.831C70.0756 241.936 67.5632 245.437 65.381 249.364C66.6701 248.037 68.2796 247.04 70.0647 246.465C71.8498 245.889 73.7546 245.753 75.6077 246.067C77.4608 246.382 79.2042 247.138 80.6811 248.267C82.1579 249.396 83.3219 250.863 84.0683 252.536C84.8148 254.209 85.1203 256.035 84.9574 257.851C84.7944 259.667 84.1682 261.415 83.135 262.938C82.1018 264.461 80.6939 265.711 79.0381 266.577C77.3824 267.442 75.5305 267.895 73.6491 267.895V267.924Z" fill="black"/>
<path d="M232.433 288.967H231.952C232.387 289.968 232.588 291.049 232.539 292.133C232.49 293.218 232.194 294.278 231.67 295.238C231.147 296.198 230.41 297.033 229.513 297.683C228.616 298.334 227.581 298.783 226.483 298.999C225.385 299.215 224.251 299.192 223.163 298.931C222.076 298.671 221.061 298.18 220.193 297.493C219.325 296.807 218.626 295.942 218.144 294.962C217.663 293.982 217.413 292.91 217.411 291.825C217.41 290.843 217.614 289.871 218.012 288.967H217.551C216.267 288.965 215.004 288.645 213.882 288.039C212.76 287.433 211.815 286.56 211.138 285.503C210.46 284.445 210.072 283.238 210.009 281.995C209.946 280.752 210.211 279.513 210.779 278.397C211.347 277.28 212.199 276.322 213.254 275.613C214.31 274.904 215.535 274.466 216.813 274.342C218.091 274.218 219.381 274.411 220.561 274.904C221.741 275.396 222.772 276.171 223.557 277.156C222.196 274.719 220.574 272.198 217.832 270.905V269.231H232.152V270.905C230.05 271.642 228.375 273.976 226.921 276.594C227.78 275.709 228.853 275.045 230.043 274.661C231.233 274.278 232.503 274.186 233.738 274.396C234.974 274.606 236.136 275.11 237.121 275.862C238.105 276.615 238.881 277.593 239.379 278.708C239.877 279.824 240.08 281.041 239.972 282.252C239.863 283.462 239.445 284.628 238.757 285.643C238.068 286.659 237.129 287.492 236.025 288.069C234.922 288.646 233.687 288.948 232.433 288.948V288.967Z" fill="black"/>
<path d="M17.5672 60.0354H18.0477C17.6126 59.0351 17.4122 57.9538 17.461 56.8694C17.5098 55.785 17.8065 54.7246 18.3298 53.7648C18.853 52.805 19.5898 51.9697 20.4868 51.3193C21.3838 50.669 22.4188 50.2196 23.5169 50.0039C24.6149 49.7881 25.7488 49.8112 26.8365 50.0716C27.9242 50.332 28.9387 50.8231 29.8067 51.5095C30.6747 52.1959 31.3745 53.0604 31.8556 54.0407C32.3367 55.021 32.5871 56.0926 32.5887 57.178C32.59 58.16 32.3857 59.1321 31.9881 60.0354H32.4485C33.7333 60.038 34.9962 60.3575 36.1183 60.9637C37.2404 61.5698 38.1847 62.4428 38.8622 63.5003C39.5397 64.5578 39.9282 65.765 39.991 67.0081C40.0537 68.2512 39.7888 69.4894 39.221 70.6059C38.6533 71.7224 37.8015 72.6805 36.7458 73.3899C35.6902 74.0993 34.4655 74.5366 33.1871 74.6607C31.9087 74.7848 30.6188 74.5916 29.4388 74.0992C28.2589 73.6068 27.2278 72.8315 26.4426 71.8464C27.804 74.2836 29.4255 76.8048 32.1682 78.0977V79.7721H17.8475V78.0977C19.9496 77.3607 21.6246 75.027 23.0793 72.4088C22.2199 73.2938 21.1469 73.958 19.9569 74.3416C18.7668 74.7253 17.4969 74.8164 16.2615 74.6067C15.0261 74.397 13.8638 73.8932 12.8793 73.1404C11.8947 72.3877 11.1187 71.4097 10.6211 70.2943C10.1235 69.179 9.91982 67.9614 10.0284 66.7509C10.137 65.5404 10.5545 64.3751 11.2433 63.3596C11.9322 62.3442 12.8707 61.5106 13.9746 60.9337C15.0784 60.3568 16.313 60.0548 17.5672 60.0548V60.0354Z" fill="black"/>
</svg>
