<svg width="250" height="350" viewBox="0 0 250 350" fill="none" xmlns="http://www.w3.org/2000/svg">
<rect width="250" height="350" rx="12.5" fill="white"/>
<path d="M113.351 81.0788H114.072C113.419 79.5784 113.118 77.9563 113.191 76.3297C113.265 74.7031 113.71 73.1126 114.495 71.6729C115.28 70.2332 116.385 68.9803 117.73 68.0047C119.076 67.0291 120.628 66.3552 122.275 66.0315C123.922 65.7078 125.623 65.7425 127.255 66.1331C128.886 66.5236 130.408 67.2603 131.71 68.2899C133.012 69.3195 134.062 70.6164 134.783 72.0868C135.505 73.5572 135.881 75.1645 135.883 76.7927C135.885 78.2657 135.579 79.7238 134.982 81.0788H135.673C137.6 81.0827 139.494 81.5619 141.177 82.4712C142.861 83.3805 144.277 84.6899 145.293 86.2761C146.31 87.8624 146.892 89.6731 146.986 91.5379C147.081 93.4026 146.683 95.2598 145.832 96.9345C144.98 98.6093 143.702 100.046 142.119 101.111C140.535 102.175 138.698 102.831 136.781 103.017C134.863 103.203 132.928 102.913 131.158 102.175C129.388 101.436 127.842 100.273 126.664 98.7952C128.706 102.451 131.138 106.233 135.252 108.172V110.684H113.771V108.172C116.924 107.067 119.437 103.566 121.619 99.6389C120.33 100.966 118.72 101.963 116.935 102.538C115.15 103.114 113.245 103.25 111.392 102.936C109.539 102.621 107.796 101.865 106.319 100.736C104.842 99.6072 103.678 98.1402 102.932 96.4672C102.185 94.7942 101.88 92.9678 102.043 91.152C102.206 89.3363 102.832 87.5883 103.865 86.0652C104.898 84.542 106.306 83.2916 107.962 82.4263C109.618 81.561 111.469 81.1079 113.351 81.1079V81.0788Z" fill="black"/>
<path d="M135.649 266.927H134.928C135.581 268.427 135.882 270.049 135.809 271.676C135.735 273.303 135.29 274.893 134.505 276.333C133.72 277.773 132.615 279.025 131.27 280.001C129.924 280.977 128.372 281.651 126.725 281.974C125.078 282.298 123.377 282.263 121.745 281.873C120.114 281.482 118.592 280.745 117.29 279.716C115.988 278.686 114.938 277.389 114.217 275.919C113.495 274.449 113.119 272.841 113.117 271.213C113.115 269.74 113.421 268.282 114.018 266.927H113.327C111.4 266.923 109.506 266.444 107.823 265.535C106.139 264.625 104.723 263.316 103.707 261.73C102.69 260.143 102.108 258.333 102.014 256.468C101.919 254.603 102.317 252.746 103.168 251.071C104.02 249.396 105.298 247.959 106.881 246.895C108.465 245.831 110.302 245.175 112.219 244.989C114.137 244.803 116.072 245.093 117.842 245.831C119.612 246.57 121.158 247.733 122.336 249.21C120.294 245.555 117.862 241.773 113.748 239.833V237.322H135.229V239.833C132.076 240.939 129.563 244.44 127.381 248.367C128.67 247.039 130.28 246.043 132.065 245.468C133.85 244.892 135.755 244.755 137.608 245.07C139.461 245.385 141.204 246.14 142.681 247.269C144.158 248.399 145.322 249.866 146.068 251.539C146.815 253.212 147.12 255.038 146.957 256.854C146.794 258.669 146.168 260.417 145.135 261.941C144.102 263.464 142.694 264.714 141.038 265.579C139.382 266.445 137.531 266.898 135.649 266.898V266.927Z" fill="black"/>
<path d="M16.4648 40C15.4883 40 15 39.5768 15 38.7305V37.793C15 37.1159 15.3125 36.4453 15.9375 35.7812L21.7773 29.6289C23.5352 27.7669 25.1432 26.1133 26.6016 24.668C28.0599 23.2096 28.7891 21.7383 28.7891 20.2539C28.7891 18.7695 28.418 17.6823 27.6758 16.9922C26.9466 16.2891 26.0156 15.9375 24.8828 15.9375C23.0859 15.9375 21.8359 16.3542 21.1328 17.1875C20.4297 18.0208 19.9219 18.9128 19.6094 19.8633C19.3099 20.7878 18.763 21.1198 17.9688 20.8594L15.9961 20.1953C15.3581 19.974 15.1758 19.362 15.4492 18.3594C15.957 16.4974 16.9922 14.9023 18.5547 13.5742C20.1172 12.2331 22.4349 11.5625 25.5078 11.5625C28.7109 11.5625 31.0352 12.3893 32.4805 14.043C33.9258 15.6836 34.6484 17.4674 34.6484 19.3945C34.6484 21.9206 33.5938 24.1406 31.4844 26.0547C29.375 27.9557 27.4609 29.8112 25.7422 31.6211L22.4219 35.1172V35.2344C23.2031 35.1823 23.8542 35.1562 24.375 35.1562H33.4961C34.4727 35.1562 34.9609 35.5794 34.9609 36.4258V38.7305C34.9609 39.5768 34.4727 40 33.4961 40H16.4648Z" fill="black"/>
<path d="M233.535 309.003C234.512 309.003 235 309.426 235 310.272V311.21C235 311.887 234.688 312.558 234.062 313.222L228.223 319.374C226.465 321.236 224.857 322.89 223.398 324.335C221.94 325.793 221.211 327.265 221.211 328.749C221.211 330.233 221.582 331.321 222.324 332.011C223.053 332.714 223.984 333.065 225.117 333.065C226.914 333.065 228.164 332.649 228.867 331.815C229.57 330.982 230.078 330.09 230.391 329.14C230.69 328.215 231.237 327.883 232.031 328.143L234.004 328.808C234.642 329.029 234.824 329.641 234.551 330.643C234.043 332.505 233.008 334.101 231.445 335.429C229.883 336.77 227.565 337.44 224.492 337.44C221.289 337.44 218.965 336.614 217.52 334.96C216.074 333.319 215.352 331.535 215.352 329.608C215.352 327.082 216.406 324.862 218.516 322.948C220.625 321.047 222.539 319.192 224.258 317.382L227.578 313.886V313.768C226.797 313.821 226.146 313.847 225.625 313.847H216.504C215.527 313.847 215.039 313.423 215.039 312.577V310.272C215.039 309.426 215.527 309.003 216.504 309.003H233.535Z" fill="black"/>
<path d="M232.433 288.967H231.952C232.387 289.968 232.588 291.049 232.539 292.134C232.49 293.218 232.194 294.278 231.67 295.238C231.147 296.198 230.41 297.033 229.513 297.684C228.616 298.334 227.581 298.783 226.483 298.999C225.385 299.215 224.251 299.192 223.163 298.931C222.076 298.671 221.061 298.18 220.193 297.493C219.325 296.807 218.626 295.942 218.144 294.962C217.663 293.982 217.413 292.91 217.411 291.825C217.41 290.843 217.614 289.871 218.012 288.967H217.551C216.267 288.965 215.004 288.645 213.882 288.039C212.76 287.433 211.815 286.56 211.138 285.503C210.46 284.445 210.072 283.238 210.009 281.995C209.946 280.752 210.211 279.513 210.779 278.397C211.347 277.28 212.199 276.322 213.254 275.613C214.31 274.904 215.535 274.466 216.813 274.342C218.091 274.218 219.381 274.411 220.561 274.904C221.741 275.396 222.772 276.171 223.557 277.157C222.196 274.719 220.574 272.198 217.832 270.905V269.231H232.152V270.905C230.05 271.642 228.375 273.976 226.921 276.594C227.78 275.709 228.853 275.045 230.043 274.661C231.233 274.278 232.503 274.186 233.738 274.396C234.974 274.606 236.136 275.11 237.121 275.862C238.105 276.615 238.881 277.593 239.379 278.709C239.877 279.824 240.08 281.041 239.972 282.252C239.863 283.462 239.445 284.628 238.757 285.643C238.068 286.659 237.129 287.492 236.025 288.069C234.922 288.646 233.687 288.948 232.433 288.948V288.967Z" fill="black"/>
<path d="M17.5672 60.0354H18.0477C17.6126 59.0351 17.4122 57.9538 17.461 56.8694C17.5098 55.785 17.8065 54.7246 18.3298 53.7648C18.853 52.805 19.5898 51.9697 20.4868 51.3193C21.3838 50.669 22.4188 50.2196 23.5169 50.0039C24.6149 49.7881 25.7488 49.8112 26.8365 50.0716C27.9242 50.332 28.9387 50.8231 29.8067 51.5095C30.6747 52.1959 31.3745 53.0604 31.8556 54.0407C32.3367 55.021 32.5871 56.0926 32.5887 57.178C32.59 58.16 32.3857 59.1321 31.9881 60.0354H32.4485C33.7333 60.038 34.9962 60.3575 36.1183 60.9637C37.2404 61.5698 38.1847 62.4428 38.8622 63.5003C39.5397 64.5578 39.9282 65.765 39.991 67.0081C40.0537 68.2512 39.7888 69.4894 39.221 70.6059C38.6533 71.7224 37.8015 72.6805 36.7458 73.3899C35.6902 74.0993 34.4655 74.5366 33.1871 74.6607C31.9087 74.7848 30.6188 74.5916 29.4388 74.0992C28.2589 73.6068 27.2278 72.8315 26.4426 71.8464C27.804 74.2836 29.4255 76.8048 32.1682 78.0977V79.7721H17.8475V78.0977C19.9496 77.3607 21.6246 75.027 23.0793 72.4088C22.2199 73.2938 21.1469 73.958 19.9569 74.3416C18.7668 74.7253 17.4969 74.8164 16.2615 74.6067C15.0261 74.397 13.8638 73.8932 12.8793 73.1404C11.8947 72.3877 11.1187 71.4097 10.6211 70.2943C10.1235 69.179 9.91982 67.9614 10.0284 66.7509C10.137 65.5404 10.5545 64.3751 11.2433 63.3596C11.9322 62.3442 12.8707 61.5106 13.9746 60.9337C15.0784 60.3568 16.313 60.0548 17.5672 60.0548V60.0354Z" fill="black"/>
</svg>
