<svg width="250" height="350" viewBox="0 0 250 350" fill="none" xmlns="http://www.w3.org/2000/svg">
<rect width="250" height="350" rx="12.5" fill="white"/>
<path d="M198.649 266.927H197.928C198.581 268.427 198.882 270.049 198.809 271.676C198.735 273.303 198.29 274.893 197.505 276.333C196.72 277.773 195.615 279.025 194.27 280.001C192.924 280.977 191.372 281.651 189.725 281.974C188.078 282.298 186.377 282.263 184.745 281.873C183.114 281.482 181.592 280.745 180.29 279.716C178.988 278.686 177.938 277.389 177.217 275.919C176.495 274.449 176.119 272.841 176.117 271.213C176.115 269.74 176.421 268.282 177.018 266.927H176.327C174.4 266.923 172.506 266.444 170.823 265.535C169.139 264.625 167.723 263.316 166.707 261.73C165.69 260.143 165.108 258.333 165.014 256.468C164.919 254.603 165.317 252.746 166.168 251.071C167.02 249.396 168.298 247.959 169.881 246.895C171.465 245.831 173.302 245.175 175.219 244.989C177.137 244.803 179.072 245.093 180.842 245.831C182.612 246.57 184.158 247.733 185.336 249.21C183.294 245.555 180.862 241.773 176.748 239.833V237.322H198.229V239.833C195.076 240.939 192.563 244.44 190.381 248.367C191.67 247.039 193.28 246.043 195.065 245.468C196.85 244.892 198.755 244.755 200.608 245.07C202.461 245.385 204.204 246.14 205.681 247.269C207.158 248.399 208.322 249.866 209.068 251.539C209.815 253.212 210.12 255.038 209.957 256.854C209.794 258.669 209.168 260.417 208.135 261.941C207.102 263.464 205.694 264.714 204.038 265.579C202.382 266.445 200.531 266.898 198.649 266.898V266.927Z" fill="black"/>
<path d="M197.649 210.089H196.928C197.581 211.59 197.882 213.212 197.809 214.838C197.735 216.465 197.29 218.056 196.505 219.495C195.72 220.935 194.615 222.188 193.27 223.163C191.924 224.139 190.372 224.813 188.725 225.137C187.078 225.46 185.377 225.426 183.745 225.035C182.114 224.645 180.592 223.908 179.29 222.878C177.988 221.849 176.938 220.552 176.217 219.081C175.495 217.611 175.119 216.004 175.117 214.375C175.115 212.902 175.421 211.444 176.018 210.089H175.327C173.4 210.085 171.506 209.606 169.823 208.697C168.139 207.788 166.723 206.478 165.707 204.892C164.69 203.306 164.108 201.495 164.014 199.63C163.919 197.766 164.317 195.908 165.168 194.234C166.02 192.559 167.298 191.122 168.881 190.058C170.465 188.994 172.302 188.337 174.219 188.151C176.137 187.965 178.072 188.255 179.842 188.994C181.612 189.732 183.158 190.895 184.336 192.373C182.294 188.717 179.862 184.935 175.748 182.996V180.484H197.229V182.996C194.076 184.101 191.563 187.602 189.381 191.529C190.67 190.202 192.28 189.205 194.065 188.63C195.85 188.055 197.755 187.918 199.608 188.232C201.461 188.547 203.204 189.303 204.681 190.432C206.158 191.561 207.322 193.028 208.068 194.701C208.815 196.374 209.12 198.2 208.957 200.016C208.794 201.832 208.168 203.58 207.135 205.103C206.102 206.626 204.694 207.877 203.038 208.742C201.382 209.607 199.531 210.06 197.649 210.06V210.089Z" fill="black"/>
<path d="M175.351 138.913H176.072C175.419 137.413 175.118 135.791 175.191 134.164C175.265 132.538 175.71 130.947 176.495 129.508C177.28 128.068 178.385 126.815 179.73 125.839C181.076 124.864 182.628 124.19 184.275 123.866C185.922 123.543 187.623 123.577 189.255 123.968C190.886 124.358 192.408 125.095 193.71 126.125C195.012 127.154 196.062 128.451 196.783 129.922C197.505 131.392 197.881 132.999 197.883 134.627C197.885 136.1 197.579 137.559 196.982 138.913H197.673C199.6 138.917 201.494 139.397 203.177 140.306C204.861 141.215 206.277 142.525 207.293 144.111C208.31 145.697 208.892 147.508 208.986 149.373C209.081 151.237 208.683 153.094 207.832 154.769C206.98 156.444 205.702 157.881 204.119 158.945C202.535 160.009 200.698 160.665 198.781 160.852C196.863 161.038 194.928 160.748 193.158 160.009C191.388 159.271 189.842 158.108 188.664 156.63C190.706 160.286 193.138 164.068 197.252 166.007V168.519H175.771V166.007C178.924 164.902 181.437 161.401 183.619 157.474C182.33 158.801 180.72 159.797 178.935 160.373C177.15 160.948 175.245 161.085 173.392 160.77C171.539 160.456 169.796 159.7 168.319 158.571C166.842 157.442 165.678 155.975 164.932 154.302C164.185 152.629 163.88 150.802 164.043 148.987C164.206 147.171 164.832 145.423 165.865 143.9C166.898 142.377 168.306 141.126 169.962 140.261C171.618 139.396 173.469 138.943 175.351 138.943V138.913Z" fill="black"/>
<path d="M175.351 81.0787H176.072C175.419 79.5783 175.118 77.9563 175.191 76.3297C175.265 74.7031 175.71 73.1125 176.495 71.6728C177.28 70.2331 178.385 68.9802 179.73 68.0047C181.076 67.0291 182.628 66.3551 184.275 66.0314C185.922 65.7078 187.623 65.7425 189.255 66.133C190.886 66.5236 192.408 67.2603 193.71 68.2899C195.012 69.3195 196.062 70.6163 196.783 72.0867C197.505 73.5571 197.881 75.1645 197.883 76.7926C197.885 78.2656 197.579 79.7237 196.982 81.0787H197.673C199.6 81.0826 201.494 81.5618 203.177 82.4711C204.861 83.3804 206.277 84.6899 207.293 86.2761C208.31 87.8623 208.892 89.6731 208.986 91.5378C209.081 93.4025 208.683 95.2597 207.832 96.9345C206.98 98.6092 205.702 100.046 204.119 101.11C202.535 102.175 200.698 102.831 198.781 103.017C196.863 103.203 194.928 102.913 193.158 102.174C191.388 101.436 189.842 100.273 188.664 98.7952C190.706 102.451 193.138 106.233 197.252 108.172V110.684H175.771V108.172C178.924 107.067 181.437 103.566 183.619 99.6388C182.33 100.966 180.72 101.963 178.935 102.538C177.15 103.114 175.245 103.25 173.392 102.936C171.539 102.621 169.796 101.865 168.319 100.736C166.842 99.6071 165.678 98.1401 164.932 96.4672C164.185 94.7942 163.88 92.9677 164.043 91.152C164.206 89.3362 164.832 87.5882 165.865 86.0651C166.898 84.542 168.306 83.2915 169.962 82.4262C171.618 81.5609 173.469 81.1078 175.351 81.1078V81.0787Z" fill="black"/>
<path d="M113.351 122.959H114.072C113.419 121.459 113.118 119.837 113.191 118.21C113.265 116.583 113.71 114.993 114.495 113.553C115.28 112.113 116.385 110.861 117.73 109.885C119.076 108.909 120.628 108.235 122.275 107.912C123.922 107.588 125.623 107.623 127.255 108.013C128.886 108.404 130.408 109.141 131.71 110.17C133.012 111.2 134.062 112.497 134.783 113.967C135.505 115.438 135.881 117.045 135.883 118.673C135.885 120.146 135.579 121.604 134.982 122.959H135.673C137.6 122.963 139.494 123.442 141.177 124.351C142.861 125.261 144.277 126.57 145.293 128.156C146.31 129.743 146.892 131.553 146.986 133.418C147.081 135.283 146.683 137.14 145.832 138.815C144.98 140.49 143.702 141.927 142.119 142.991C140.535 144.055 138.698 144.711 136.781 144.897C134.863 145.083 132.928 144.793 131.158 144.055C129.388 143.316 127.842 142.153 126.664 140.676C128.706 144.331 131.138 148.113 135.252 150.053V152.564H113.771V150.053C116.924 148.947 119.437 145.446 121.619 141.519C120.33 142.847 118.72 143.843 116.935 144.418C115.15 144.994 113.245 145.131 111.392 144.816C109.539 144.502 107.796 143.746 106.319 142.617C104.842 141.488 103.678 140.021 102.932 138.348C102.185 136.675 101.88 134.848 102.043 133.032C102.206 131.217 102.832 129.469 103.865 127.945C104.898 126.422 106.306 125.172 107.962 124.307C109.618 123.441 111.469 122.988 113.351 122.988V122.959Z" fill="black"/>
<path d="M135.649 227.041H134.928C135.581 228.541 135.882 230.163 135.809 231.79C135.735 233.417 135.29 235.007 134.505 236.447C133.72 237.887 132.615 239.139 131.27 240.115C129.924 241.091 128.372 241.765 126.725 242.088C125.078 242.412 123.377 242.377 121.745 241.987C120.114 241.596 118.592 240.859 117.29 239.83C115.988 238.8 114.938 237.503 114.217 236.033C113.495 234.562 113.119 232.955 113.117 231.327C113.115 229.854 113.421 228.396 114.018 227.041H113.327C111.4 227.037 109.506 226.558 107.823 225.649C106.139 224.739 104.723 223.43 103.707 221.844C102.69 220.257 102.108 218.447 102.014 216.582C101.919 214.717 102.317 212.86 103.168 211.185C104.02 209.51 105.298 208.073 106.881 207.009C108.465 205.945 110.302 205.289 112.219 205.103C114.137 204.917 116.072 205.207 117.842 205.945C119.612 206.684 121.158 207.847 122.336 209.324C120.294 205.669 117.862 201.887 113.748 199.947V197.436H135.229V199.947C132.076 201.053 129.563 204.554 127.381 208.481C128.67 207.153 130.28 206.157 132.065 205.582C133.85 205.006 135.755 204.869 137.608 205.184C139.461 205.498 141.204 206.254 142.681 207.383C144.158 208.512 145.322 209.979 146.068 211.652C146.815 213.325 147.12 215.152 146.957 216.968C146.794 218.783 146.168 220.531 145.135 222.055C144.102 223.578 142.694 224.828 141.038 225.693C139.382 226.559 137.531 227.012 135.649 227.012V227.041Z" fill="black"/>
<path d="M73.6491 267.924H72.9284C73.5811 269.425 73.8817 271.047 73.8085 272.673C73.7354 274.3 73.2903 275.89 72.5054 277.33C71.7204 278.77 70.6153 280.023 69.2698 280.998C67.9242 281.974 66.3718 282.648 64.7247 282.971C63.0776 283.295 61.3768 283.26 59.7452 282.87C58.1136 282.479 56.5919 281.743 55.29 280.713C53.988 279.683 52.9383 278.387 52.2167 276.916C51.495 275.446 51.1194 273.838 51.117 272.21C51.115 270.737 51.4215 269.279 52.0179 267.924H51.3272C49.4001 267.92 47.5057 267.441 45.8226 266.532C44.1394 265.622 42.723 264.313 41.7067 262.727C40.6904 261.141 40.1077 259.33 40.0136 257.465C39.9194 255.6 40.3168 253.743 41.1684 252.068C42.0201 250.394 43.2978 248.957 44.8813 247.892C46.4647 246.828 48.3018 246.172 50.2193 245.986C52.1369 245.8 54.0718 246.09 55.8417 246.828C57.6117 247.567 59.1584 248.73 60.3361 250.208C58.2941 246.552 55.8617 242.77 51.7476 240.831V238.319H73.2287V240.831C70.0756 241.936 67.5632 245.437 65.381 249.364C66.6701 248.037 68.2796 247.04 70.0647 246.465C71.8498 245.889 73.7546 245.753 75.6077 246.067C77.4608 246.382 79.2042 247.138 80.6811 248.267C82.1579 249.396 83.3219 250.863 84.0683 252.536C84.8148 254.209 85.1203 256.035 84.9574 257.851C84.7944 259.667 84.1682 261.415 83.135 262.938C82.1018 264.461 80.6939 265.711 79.0381 266.577C77.3824 267.442 75.5305 267.895 73.6491 267.895V267.924Z" fill="black"/>
<path d="M7.94922 18.7706C7.61068 18.1325 7.83854 17.6378 8.63281 17.2862C9.38802 16.9477 10.1758 16.4724 10.9961 15.8604C11.8164 15.2484 12.487 14.6169 13.0078 13.9659C13.5938 13.2367 14.1536 12.8721 14.6875 12.8721H17.793C18.5742 12.8721 18.9648 13.2628 18.9648 14.044V39.8253C18.9648 40.6065 18.5742 40.9971 17.793 40.9971H14.668C13.8867 40.9971 13.4961 40.6065 13.4961 39.8253V21.251C13.4961 20.7302 13.5221 20.2094 13.5742 19.6885H13.4961C13.0924 20.1964 12.6497 20.6325 12.168 20.9971C11.6862 21.3617 11.1979 21.6482 10.7031 21.8565C10.0911 22.1169 9.62891 21.9477 9.31641 21.3487L7.94922 18.7706ZM23.8672 27.1104C23.8672 21.837 24.6875 18.0935 26.3281 15.8799C27.9688 13.6664 30.4818 12.5596 33.8672 12.5596C37.2526 12.5596 39.7656 13.6664 41.4062 15.8799C43.0469 18.0935 43.8672 21.837 43.8672 27.1104C43.8672 32.3839 43.0469 36.1273 41.4062 38.3409C39.7656 40.5544 37.2526 41.6612 33.8672 41.6612C30.4818 41.6612 27.9688 40.5544 26.3281 38.3409C24.6875 36.1273 23.8672 32.3839 23.8672 27.1104ZM29.6484 27.1104C29.6484 29.5193 29.8438 31.837 30.2344 34.0635C30.638 36.2901 31.849 37.4034 33.8672 37.4034C35.8854 37.4034 37.0898 36.2901 37.4805 34.0635C37.8841 31.837 38.0859 29.5193 38.0859 27.1104C38.0859 24.7016 37.8841 22.3839 37.4805 20.1573C37.0898 17.9307 35.8854 16.8174 33.8672 16.8174C31.849 16.8174 30.638 17.9307 30.2344 20.1573C29.8438 22.3839 29.6484 24.7016 29.6484 27.1104Z" fill="black"/>
<path d="M244.051 331.229C244.389 331.867 244.161 332.362 243.367 332.714C242.612 333.052 241.824 333.528 241.004 334.14C240.184 334.752 239.513 335.383 238.992 336.034C238.406 336.763 237.846 337.128 237.312 337.128H234.207C233.426 337.128 233.035 336.737 233.035 335.956V310.175C233.035 309.393 233.426 309.003 234.207 309.003H237.332C238.113 309.003 238.504 309.393 238.504 310.175V328.749C238.504 329.27 238.478 329.791 238.426 330.311H238.504C238.908 329.804 239.35 329.367 239.832 329.003C240.314 328.638 240.802 328.352 241.297 328.143C241.909 327.883 242.371 328.052 242.684 328.651L244.051 331.229ZM228.133 322.89C228.133 328.163 227.312 331.906 225.672 334.12C224.031 336.334 221.518 337.44 218.133 337.44C214.747 337.44 212.234 336.334 210.594 334.12C208.953 331.906 208.133 328.163 208.133 322.89C208.133 317.616 208.953 313.873 210.594 311.659C212.234 309.446 214.747 308.339 218.133 308.339C221.518 308.339 224.031 309.446 225.672 311.659C227.312 313.873 228.133 317.616 228.133 322.89ZM222.352 322.89C222.352 320.481 222.156 318.163 221.766 315.936C221.362 313.71 220.151 312.597 218.133 312.597C216.115 312.597 214.91 313.71 214.52 315.936C214.116 318.163 213.914 320.481 213.914 322.89C213.914 325.298 214.116 327.616 214.52 329.843C214.91 332.069 216.115 333.182 218.133 333.182C220.151 333.182 221.362 332.069 221.766 329.843C222.156 327.616 222.352 325.298 222.352 322.89Z" fill="black"/>
<path d="M51.3509 81.0787H52.0716C51.4189 79.5783 51.1183 77.9563 51.1915 76.3297C51.2646 74.7031 51.7097 73.1125 52.4946 71.6728C53.2796 70.2331 54.3847 68.9802 55.7302 68.0047C57.0758 67.0291 58.6282 66.3551 60.2753 66.0314C61.9224 65.7078 63.6232 65.7425 65.2548 66.133C66.8864 66.5236 68.4081 67.2603 69.71 68.2899C71.012 69.3195 72.0617 70.6163 72.7833 72.0867C73.505 73.5571 73.8806 75.1645 73.883 76.7926C73.885 78.2656 73.5785 79.7237 72.9821 81.0787H73.6728C75.5999 81.0826 77.4943 81.5618 79.1774 82.4711C80.8606 83.3804 82.277 84.6899 83.2933 86.2761C84.3096 87.8623 84.8923 89.6731 84.9864 91.5378C85.0806 93.4025 84.6832 95.2597 83.8316 96.9345C82.9799 98.6092 81.7022 100.046 80.1187 101.11C78.5353 102.175 76.6982 102.831 74.7807 103.017C72.8631 103.203 70.9282 102.913 69.1583 102.174C67.3883 101.436 65.8416 100.273 64.6639 98.7952C66.7059 102.451 69.1383 106.233 73.2524 108.172V110.684H51.7713V108.172C54.9244 107.067 57.4368 103.566 59.619 99.6388C58.3299 100.966 56.7204 101.963 54.9353 102.538C53.1502 103.114 51.2454 103.25 49.3923 102.936C47.5392 102.621 45.7958 101.865 44.3189 100.736C42.8421 99.6071 41.6781 98.1401 40.9317 96.4672C40.1852 94.7942 39.8797 92.9677 40.0426 91.152C40.2056 89.3362 40.8318 87.5882 41.865 86.0651C42.8982 84.542 44.3061 83.2915 45.9619 82.4262C47.6176 81.5609 49.4695 81.1078 51.3509 81.1078V81.0787Z" fill="black"/>
<path d="M51.3509 137.916H52.0716C51.4189 136.416 51.1183 134.794 51.1915 133.167C51.2646 131.541 51.7097 129.95 52.4946 128.51C53.2796 127.071 54.3847 125.818 55.7302 124.842C57.0758 123.867 58.6282 123.193 60.2753 122.869C61.9224 122.545 63.6232 122.58 65.2548 122.971C66.8864 123.361 68.4081 124.098 69.71 125.128C71.012 126.157 72.0617 127.454 72.7833 128.924C73.505 130.395 73.8806 132.002 73.883 133.63C73.885 135.103 73.5785 136.561 72.9821 137.916H73.6728C75.5999 137.92 77.4943 138.399 79.1774 139.309C80.8606 140.218 82.277 141.528 83.2933 143.114C84.3096 144.7 84.8923 146.511 84.9864 148.375C85.0806 150.24 84.6832 152.097 83.8316 153.772C82.9799 155.447 81.7022 156.884 80.1187 157.948C78.5353 159.012 76.6982 159.668 74.7807 159.854C72.8631 160.041 70.9282 159.751 69.1583 159.012C67.3883 158.274 65.8416 157.111 64.6639 155.633C66.7059 159.289 69.1383 163.07 73.2524 165.01V167.521H51.7713V165.01C54.9244 163.904 57.4368 160.404 59.619 156.476C58.3299 157.804 56.7204 158.8 54.9353 159.376C53.1502 159.951 51.2454 160.088 49.3923 159.773C47.5392 159.459 45.7958 158.703 44.3189 157.574C42.8421 156.445 41.6781 154.978 40.9317 153.305C40.1852 151.632 39.8797 149.805 40.0426 147.99C40.2056 146.174 40.8318 144.426 41.865 142.903C42.8982 141.38 44.3061 140.129 45.9619 139.264C47.6176 138.399 49.4695 137.945 51.3509 137.945V137.916Z" fill="black"/>
<path d="M73.6491 209.092H72.9284C73.5811 210.593 73.8817 212.215 73.8085 213.841C73.7354 215.468 73.2903 217.058 72.5054 218.498C71.7204 219.938 70.6153 221.191 69.2698 222.166C67.9242 223.142 66.3718 223.816 64.7247 224.14C63.0776 224.463 61.3768 224.429 59.7452 224.038C58.1136 223.647 56.5919 222.911 55.29 221.881C53.988 220.851 52.9383 219.555 52.2167 218.084C51.495 216.614 51.1194 215.006 51.117 213.378C51.115 211.905 51.4215 210.447 52.0179 209.092H51.3272C49.4001 209.088 47.5057 208.609 45.8226 207.7C44.1394 206.791 42.723 205.481 41.7067 203.895C40.6904 202.309 40.1077 200.498 40.0136 198.633C39.9194 196.768 40.3168 194.911 41.1684 193.236C42.0201 191.562 43.2978 190.125 44.8813 189.06C46.4647 187.996 48.3018 187.34 50.2193 187.154C52.1369 186.968 54.0718 187.258 55.8417 187.997C57.6117 188.735 59.1584 189.898 60.3361 191.376C58.2941 187.72 55.8617 183.938 51.7476 181.999V179.487H73.2287V181.999C70.0756 183.104 67.5632 186.605 65.381 190.532C66.6701 189.205 68.2796 188.208 70.0647 187.633C71.8498 187.057 73.7546 186.921 75.6077 187.235C77.4608 187.55 79.2042 188.306 80.6811 189.435C82.1579 190.564 83.3219 192.031 84.0683 193.704C84.8148 195.377 85.1203 197.203 84.9574 199.019C84.7944 200.835 84.1682 202.583 83.135 204.106C82.1018 205.629 80.6939 206.879 79.0381 207.745C77.3824 208.61 75.5305 209.063 73.6491 209.063V209.092Z" fill="black"/>
<path d="M232.433 288.967H231.952C232.387 289.968 232.588 291.049 232.539 292.133C232.49 293.218 232.194 294.278 231.67 295.238C231.147 296.198 230.41 297.033 229.513 297.683C228.616 298.334 227.581 298.783 226.483 298.999C225.385 299.215 224.251 299.192 223.163 298.931C222.076 298.671 221.061 298.18 220.193 297.493C219.325 296.807 218.626 295.942 218.144 294.962C217.663 293.982 217.413 292.91 217.411 291.825C217.41 290.843 217.614 289.871 218.012 288.967H217.551C216.267 288.965 215.004 288.645 213.882 288.039C212.76 287.433 211.815 286.56 211.138 285.503C210.46 284.445 210.072 283.238 210.009 281.995C209.946 280.752 210.211 279.513 210.779 278.397C211.347 277.28 212.199 276.322 213.254 275.613C214.31 274.904 215.535 274.466 216.813 274.342C218.091 274.218 219.381 274.411 220.561 274.904C221.741 275.396 222.772 276.171 223.557 277.156C222.196 274.719 220.574 272.198 217.832 270.905V269.231H232.152V270.905C230.05 271.642 228.375 273.976 226.921 276.594C227.78 275.709 228.853 275.045 230.043 274.661C231.233 274.278 232.503 274.186 233.738 274.396C234.974 274.606 236.136 275.11 237.121 275.862C238.105 276.615 238.881 277.593 239.379 278.708C239.877 279.824 240.08 281.041 239.972 282.252C239.863 283.462 239.445 284.628 238.757 285.643C238.068 286.659 237.129 287.492 236.025 288.069C234.922 288.646 233.687 288.948 232.433 288.948V288.967Z" fill="black"/>
<path d="M17.5672 60.0354H18.0477C17.6126 59.0351 17.4122 57.9538 17.461 56.8694C17.5098 55.785 17.8065 54.7246 18.3298 53.7648C18.853 52.805 19.5898 51.9697 20.4868 51.3193C21.3838 50.669 22.4188 50.2196 23.5169 50.0039C24.6149 49.7881 25.7488 49.8112 26.8365 50.0716C27.9242 50.332 28.9387 50.8231 29.8067 51.5095C30.6747 52.1959 31.3745 53.0604 31.8556 54.0407C32.3367 55.021 32.5871 56.0926 32.5887 57.178C32.59 58.16 32.3857 59.1321 31.9881 60.0354H32.4485C33.7333 60.038 34.9962 60.3575 36.1183 60.9637C37.2404 61.5698 38.1847 62.4428 38.8622 63.5003C39.5397 64.5578 39.9282 65.765 39.991 67.0081C40.0537 68.2512 39.7888 69.4894 39.221 70.6059C38.6533 71.7224 37.8015 72.6805 36.7458 73.3899C35.6902 74.0993 34.4655 74.5366 33.1871 74.6607C31.9087 74.7848 30.6188 74.5916 29.4388 74.0992C28.2589 73.6068 27.2278 72.8315 26.4426 71.8464C27.804 74.2836 29.4255 76.8048 32.1682 78.0977V79.7721H17.8475V78.0977C19.9496 77.3607 21.6246 75.027 23.0793 72.4088C22.2199 73.2938 21.1469 73.958 19.9569 74.3416C18.7668 74.7253 17.4969 74.8164 16.2615 74.6067C15.0261 74.397 13.8638 73.8932 12.8793 73.1404C11.8947 72.3877 11.1187 71.4097 10.6211 70.2943C10.1235 69.179 9.91982 67.9614 10.0284 66.7509C10.137 65.5404 10.5545 64.3751 11.2433 63.3596C11.9322 62.3442 12.8707 61.5106 13.9746 60.9337C15.0784 60.3568 16.313 60.0548 17.5672 60.0548V60.0354Z" fill="black"/>
</svg>
