<svg width="250" height="350" viewBox="0 0 250 350" fill="none" xmlns="http://www.w3.org/2000/svg">
<rect width="250" height="350" rx="12.5" fill="white"/>
<path d="M113.351 166.834H114.072C113.419 165.333 113.118 163.711 113.191 162.085C113.265 160.458 113.71 158.867 114.495 157.428C115.28 155.988 116.385 154.735 117.73 153.76C119.076 152.784 120.628 152.11 122.275 151.786C123.922 151.463 125.623 151.497 127.255 151.888C128.886 152.279 130.408 153.015 131.71 154.045C133.012 155.074 134.062 156.371 134.783 157.842C135.505 159.312 135.881 160.919 135.883 162.548C135.885 164.021 135.579 165.479 134.982 166.834H135.673C137.6 166.838 139.494 167.317 141.177 168.226C142.861 169.135 144.277 170.445 145.293 172.031C146.31 173.617 146.892 175.428 146.986 177.293C147.081 179.157 146.683 181.015 145.832 182.689C144.98 184.364 143.702 185.801 142.119 186.865C140.535 187.93 138.698 188.586 136.781 188.772C134.863 188.958 132.928 188.668 131.158 187.929C129.388 187.191 127.842 186.028 126.664 184.55C128.706 188.206 131.138 191.988 135.252 193.927V196.439H113.771V193.927C116.924 192.822 119.437 189.321 121.619 185.394C120.33 186.721 118.72 187.718 116.935 188.293C115.15 188.869 113.245 189.005 111.392 188.691C109.539 188.376 107.796 187.62 106.319 186.491C104.842 185.362 103.678 183.895 102.932 182.222C102.185 180.549 101.88 178.723 102.043 176.907C102.206 175.091 102.832 173.343 103.865 171.82C104.898 170.297 106.306 169.047 107.962 168.181C109.618 167.316 111.469 166.863 113.351 166.863V166.834Z" fill="black"/>
<path d="M135.649 266.927H134.928C135.581 268.427 135.882 270.049 135.809 271.676C135.735 273.303 135.29 274.893 134.505 276.333C133.72 277.773 132.615 279.025 131.27 280.001C129.924 280.977 128.372 281.651 126.725 281.974C125.078 282.298 123.377 282.263 121.745 281.873C120.114 281.482 118.592 280.745 117.29 279.716C115.988 278.686 114.938 277.389 114.217 275.919C113.495 274.449 113.119 272.841 113.117 271.213C113.115 269.74 113.421 268.282 114.018 266.927H113.327C111.4 266.923 109.506 266.444 107.823 265.535C106.139 264.625 104.723 263.316 103.707 261.73C102.69 260.143 102.108 258.333 102.014 256.468C101.919 254.603 102.317 252.746 103.168 251.071C104.02 249.396 105.298 247.959 106.881 246.895C108.465 245.831 110.302 245.175 112.219 244.989C114.137 244.803 116.072 245.093 117.842 245.831C119.612 246.57 121.158 247.733 122.336 249.21C120.294 245.555 117.862 241.773 113.748 239.833V237.322H135.229V239.833C132.076 240.939 129.563 244.44 127.381 248.367C128.67 247.039 130.28 246.043 132.065 245.468C133.85 244.892 135.755 244.755 137.608 245.07C139.461 245.385 141.204 246.14 142.681 247.269C144.158 248.399 145.322 249.866 146.068 251.539C146.815 253.212 147.12 255.038 146.957 256.854C146.794 258.669 146.168 260.417 145.135 261.941C144.102 263.464 142.694 264.714 141.038 265.579C139.382 266.445 137.531 266.898 135.649 266.898V266.927Z" fill="black"/>
<path d="M15.8789 38.0078C15.3711 37.5781 15.332 36.9661 15.7617 36.1719L16.6602 34.5312C17.0898 33.737 17.7865 33.6784 18.75 34.3555C19.5573 34.9284 20.4688 35.3971 21.4844 35.7617C22.5 36.1133 23.6328 36.2891 24.8828 36.2891C26.6016 36.2891 27.832 35.8268 28.5742 34.9023C29.3164 33.9648 29.6875 32.9167 29.6875 31.7578C29.6875 30.5729 29.2448 29.5117 28.3594 28.5742C27.487 27.6237 26.25 27.1484 24.6484 27.1484H23.1445C22.2982 27.1484 21.875 26.8034 21.875 26.1133V23.9648C21.875 23.2487 22.2982 22.8906 23.1445 22.8906H24.3164C25.5143 22.8906 26.569 22.5195 27.4805 21.7773C28.4049 21.0352 28.8672 20.1042 28.8672 18.9844C28.8672 18.112 28.5612 17.3893 27.9492 16.8164C27.3503 16.2305 26.3672 15.9375 25 15.9375C23.7109 15.9375 22.5977 16.1263 21.6602 16.5039C20.7227 16.8815 19.9805 17.3372 19.4336 17.8711C18.6523 18.6393 17.9818 18.6068 17.4219 17.7734L16.2891 16.1133C15.8594 15.4883 15.9896 14.8503 16.6797 14.1992C17.6172 13.3008 18.8281 12.6367 20.3125 12.207C21.7969 11.7773 23.2487 11.5625 24.668 11.5625C28.0143 11.5625 30.5013 12.2331 32.1289 13.5742C33.7565 14.9023 34.5703 16.5299 34.5703 18.457C34.5703 19.8893 34.0104 21.1979 32.8906 22.3828C31.7708 23.5547 30.5859 24.362 29.3359 24.8047V24.8828C30.8203 25.2474 32.2266 26.0482 33.5547 27.2852C34.8828 28.5091 35.5469 30.0326 35.5469 31.8555C35.5469 34.707 34.6484 36.888 32.8516 38.3984C31.0547 39.9089 28.3138 40.6641 24.6289 40.6641C23.0794 40.6641 21.4714 40.4297 19.8047 39.9609C18.151 39.4792 16.8424 38.8281 15.8789 38.0078Z" fill="black"/>
<path d="M234.121 310.995C234.629 311.425 234.668 312.037 234.238 312.831L233.34 314.472C232.91 315.266 232.214 315.324 231.25 314.647C230.443 314.074 229.531 313.606 228.516 313.241C227.5 312.89 226.367 312.714 225.117 312.714C223.398 312.714 222.168 313.176 221.426 314.101C220.684 315.038 220.312 316.086 220.312 317.245C220.312 318.43 220.755 319.491 221.641 320.429C222.513 321.379 223.75 321.854 225.352 321.854H226.855C227.702 321.854 228.125 322.199 228.125 322.89V325.038C228.125 325.754 227.702 326.112 226.855 326.112H225.684C224.486 326.112 223.431 326.483 222.52 327.226C221.595 327.968 221.133 328.899 221.133 330.018C221.133 330.891 221.439 331.614 222.051 332.186C222.65 332.772 223.633 333.065 225 333.065C226.289 333.065 227.402 332.877 228.34 332.499C229.277 332.121 230.02 331.666 230.566 331.132C231.348 330.364 232.018 330.396 232.578 331.229L233.711 332.89C234.141 333.515 234.01 334.153 233.32 334.804C232.383 335.702 231.172 336.366 229.688 336.796C228.203 337.226 226.751 337.44 225.332 337.44C221.986 337.44 219.499 336.77 217.871 335.429C216.243 334.101 215.43 332.473 215.43 330.546C215.43 329.114 215.99 327.805 217.109 326.62C218.229 325.448 219.414 324.641 220.664 324.198V324.12C219.18 323.755 217.773 322.955 216.445 321.718C215.117 320.494 214.453 318.97 214.453 317.147C214.453 314.296 215.352 312.115 217.148 310.604C218.945 309.094 221.686 308.339 225.371 308.339C226.921 308.339 228.529 308.573 230.195 309.042C231.849 309.524 233.158 310.175 234.121 310.995Z" fill="black"/>
<path d="M113.351 81.0788H114.072C113.419 79.5784 113.118 77.9563 113.191 76.3297C113.265 74.7031 113.71 73.1126 114.495 71.6729C115.28 70.2332 116.385 68.9803 117.73 68.0047C119.076 67.0291 120.628 66.3552 122.275 66.0315C123.922 65.7078 125.623 65.7425 127.255 66.1331C128.886 66.5236 130.408 67.2603 131.71 68.2899C133.012 69.3195 134.062 70.6164 134.783 72.0868C135.505 73.5572 135.881 75.1645 135.883 76.7927C135.885 78.2657 135.579 79.7238 134.982 81.0788H135.673C137.6 81.0827 139.494 81.5619 141.177 82.4712C142.861 83.3805 144.277 84.6899 145.293 86.2761C146.31 87.8624 146.892 89.6731 146.986 91.5379C147.081 93.4026 146.683 95.2598 145.832 96.9345C144.98 98.6093 143.702 100.046 142.119 101.111C140.535 102.175 138.698 102.831 136.781 103.017C134.863 103.203 132.928 102.913 131.158 102.175C129.388 101.436 127.842 100.273 126.664 98.7952C128.706 102.451 131.138 106.233 135.252 108.172V110.684H113.771V108.172C116.924 107.067 119.437 103.566 121.619 99.6389C120.33 100.966 118.72 101.963 116.935 102.538C115.15 103.114 113.245 103.25 111.392 102.936C109.539 102.621 107.796 101.865 106.319 100.736C104.842 99.6072 103.678 98.1402 102.932 96.4672C102.185 94.7942 101.88 92.9678 102.043 91.152C102.206 89.3363 102.832 87.5883 103.865 86.0652C104.898 84.542 106.306 83.2916 107.962 82.4263C109.618 81.561 111.469 81.1079 113.351 81.1079V81.0788Z" fill="black"/>
<path d="M232.433 288.967H231.952C232.387 289.968 232.588 291.049 232.539 292.134C232.49 293.218 232.194 294.278 231.67 295.238C231.147 296.198 230.41 297.033 229.513 297.684C228.616 298.334 227.581 298.783 226.483 298.999C225.385 299.215 224.251 299.192 223.163 298.931C222.076 298.671 221.061 298.18 220.193 297.493C219.325 296.807 218.626 295.942 218.144 294.962C217.663 293.982 217.413 292.91 217.411 291.825C217.41 290.843 217.614 289.871 218.012 288.967H217.551C216.267 288.965 215.004 288.645 213.882 288.039C212.76 287.433 211.815 286.56 211.138 285.503C210.46 284.445 210.072 283.238 210.009 281.995C209.946 280.752 210.211 279.513 210.779 278.397C211.347 277.28 212.199 276.322 213.254 275.613C214.31 274.904 215.535 274.466 216.813 274.342C218.091 274.218 219.381 274.411 220.561 274.904C221.741 275.396 222.772 276.171 223.557 277.157C222.196 274.719 220.574 272.198 217.832 270.905V269.231H232.152V270.905C230.05 271.642 228.375 273.976 226.921 276.594C227.78 275.709 228.853 275.045 230.043 274.661C231.233 274.278 232.503 274.186 233.738 274.396C234.974 274.606 236.136 275.11 237.121 275.862C238.105 276.615 238.881 277.593 239.379 278.709C239.877 279.824 240.08 281.041 239.972 282.252C239.863 283.462 239.445 284.628 238.757 285.643C238.068 286.659 237.129 287.492 236.025 288.069C234.922 288.646 233.687 288.948 232.433 288.948V288.967Z" fill="black"/>
<path d="M17.5672 60.0354H18.0477C17.6126 59.0351 17.4122 57.9538 17.461 56.8694C17.5098 55.785 17.8065 54.7246 18.3298 53.7648C18.853 52.805 19.5898 51.9697 20.4868 51.3193C21.3838 50.669 22.4188 50.2196 23.5169 50.0039C24.6149 49.7881 25.7488 49.8112 26.8365 50.0716C27.9242 50.332 28.9387 50.8231 29.8067 51.5095C30.6747 52.1959 31.3745 53.0604 31.8556 54.0407C32.3367 55.021 32.5871 56.0926 32.5887 57.178C32.59 58.16 32.3857 59.1321 31.9881 60.0354H32.4485C33.7333 60.038 34.9962 60.3575 36.1183 60.9637C37.2404 61.5698 38.1847 62.4428 38.8622 63.5003C39.5397 64.5578 39.9282 65.765 39.991 67.0081C40.0537 68.2512 39.7888 69.4894 39.221 70.6059C38.6533 71.7224 37.8015 72.6805 36.7458 73.3899C35.6902 74.0993 34.4655 74.5366 33.1871 74.6607C31.9087 74.7848 30.6188 74.5916 29.4388 74.0992C28.2589 73.6068 27.2278 72.8315 26.4426 71.8464C27.804 74.2836 29.4255 76.8048 32.1682 78.0977V79.7721H17.8475V78.0977C19.9496 77.3607 21.6246 75.027 23.0793 72.4088C22.2199 73.2938 21.1469 73.958 19.9569 74.3416C18.7668 74.7253 17.4969 74.8164 16.2615 74.6067C15.0261 74.397 13.8638 73.8932 12.8793 73.1404C11.8947 72.3877 11.1187 71.4097 10.6211 70.2943C10.1235 69.179 9.91982 67.9614 10.0284 66.7509C10.137 65.5404 10.5545 64.3751 11.2433 63.3596C11.9322 62.3442 12.8707 61.5106 13.9746 60.9337C15.0784 60.3568 16.313 60.0548 17.5672 60.0548V60.0354Z" fill="black"/>
</svg>
