<svg width="250" height="350" viewBox="0 0 250 350" fill="none" xmlns="http://www.w3.org/2000/svg">
<rect width="250" height="350" rx="12.5" fill="white"/>
<path d="M232.433 288.967H231.952C232.387 289.968 232.588 291.049 232.539 292.134C232.49 293.218 232.194 294.278 231.67 295.238C231.147 296.198 230.41 297.033 229.513 297.684C228.616 298.334 227.581 298.783 226.483 298.999C225.385 299.215 224.251 299.192 223.163 298.931C222.076 298.671 221.061 298.18 220.193 297.493C219.325 296.807 218.626 295.942 218.144 294.962C217.663 293.982 217.413 292.91 217.411 291.825C217.41 290.843 217.614 289.871 218.012 288.967H217.551C216.267 288.965 215.004 288.645 213.882 288.039C212.76 287.433 211.815 286.56 211.138 285.503C210.46 284.445 210.072 283.238 210.009 281.995C209.946 280.752 210.211 279.513 210.779 278.397C211.347 277.28 212.199 276.322 213.254 275.613C214.31 274.904 215.535 274.466 216.813 274.342C218.091 274.218 219.381 274.411 220.561 274.904C221.741 275.396 222.772 276.171 223.557 277.157C222.196 274.719 220.574 272.198 217.832 270.905V269.231H232.152V270.905C230.05 271.642 228.375 273.976 226.921 276.594C227.78 275.709 228.853 275.045 230.043 274.661C231.233 274.278 232.503 274.186 233.738 274.396C234.974 274.606 236.136 275.11 237.121 275.862C238.105 276.615 238.881 277.593 239.379 278.709C239.877 279.824 240.08 281.041 239.972 282.252C239.863 283.462 239.445 284.628 238.757 285.643C238.068 286.659 237.129 287.492 236.025 288.069C234.922 288.646 233.687 288.948 232.433 288.948V288.967Z" fill="black"/>
<path d="M17.5672 60.0354H18.0477C17.6126 59.0351 17.4122 57.9538 17.461 56.8694C17.5098 55.785 17.8065 54.7246 18.3298 53.7648C18.853 52.805 19.5898 51.9697 20.4868 51.3193C21.3838 50.669 22.4188 50.2196 23.5169 50.0039C24.6149 49.7881 25.7488 49.8112 26.8365 50.0716C27.9242 50.332 28.9387 50.8231 29.8067 51.5095C30.6747 52.1959 31.3745 53.0604 31.8556 54.0407C32.3367 55.021 32.5871 56.0926 32.5887 57.178C32.59 58.16 32.3857 59.1321 31.9881 60.0354H32.4485C33.7333 60.038 34.9962 60.3575 36.1183 60.9637C37.2404 61.5698 38.1847 62.4428 38.8622 63.5003C39.5397 64.5578 39.9282 65.765 39.991 67.0081C40.0537 68.2512 39.7888 69.4894 39.221 70.6059C38.6533 71.7224 37.8015 72.6805 36.7458 73.3899C35.6902 74.0993 34.4655 74.5366 33.1871 74.6607C31.9087 74.7848 30.6188 74.5916 29.4388 74.0992C28.2589 73.6068 27.2278 72.8315 26.4426 71.8464C27.804 74.2836 29.4255 76.8048 32.1682 78.0977V79.7721H17.8475V78.0977C19.9496 77.3607 21.6246 75.027 23.0793 72.4088C22.2199 73.2938 21.1469 73.958 19.9569 74.3416C18.7668 74.7253 17.4969 74.8164 16.2615 74.6067C15.0261 74.397 13.8638 73.8932 12.8793 73.1404C11.8947 72.3877 11.1187 71.4097 10.6211 70.2943C10.1235 69.179 9.91982 67.9614 10.0284 66.7509C10.137 65.5404 10.5545 64.3751 11.2433 63.3596C11.9322 62.3442 12.8707 61.5106 13.9746 60.9337C15.0784 60.3568 16.313 60.0548 17.5672 60.0548V60.0354Z" fill="black"/>
<path d="M13.2461 40C12.3086 40 12.0026 39.5703 12.3281 38.7109L21.8984 13.5742C22.3021 12.5195 22.9141 11.9922 23.7344 11.9922H26.4688C27.2891 11.9922 27.901 12.5195 28.3047 13.5742L37.875 38.7109C38.2005 39.5703 37.8945 40 36.957 40H33.8516C32.9922 40 32.3932 39.5508 32.0547 38.6523L30.0625 33.3984H20.1406L18.1484 38.6523C17.8099 39.5508 17.2109 40 16.3516 40H13.2461ZM21.957 28.5547H28.2461L25.8438 22.3438C25.5573 21.6146 25.3815 21.0872 25.3164 20.7617C25.2643 20.4232 25.2057 19.9284 25.1406 19.2773H25.0625C24.9974 19.9284 24.9323 20.4232 24.8672 20.7617C24.8151 21.0872 24.6458 21.6146 24.3594 22.3438L21.957 28.5547Z" fill="black"/>
<path d="M236.754 309.003C237.691 309.003 237.997 309.433 237.672 310.292L228.102 335.429C227.698 336.483 227.086 337.011 226.266 337.011H223.531C222.711 337.011 222.099 336.483 221.695 335.429L212.125 310.292C211.799 309.433 212.105 309.003 213.043 309.003H216.148C217.008 309.003 217.607 309.452 217.945 310.351L219.938 315.604H229.859L231.852 310.351C232.19 309.452 232.789 309.003 233.648 309.003H236.754ZM228.043 320.448H221.754L224.156 326.659C224.443 327.388 224.618 327.916 224.684 328.241C224.736 328.58 224.794 329.074 224.859 329.726H224.938C225.003 329.074 225.068 328.58 225.133 328.241C225.185 327.916 225.354 327.388 225.641 326.659L228.043 320.448Z" fill="black"/>
<path d="M113.351 166.834H114.072C113.419 165.333 113.118 163.711 113.191 162.085C113.265 160.458 113.71 158.867 114.495 157.428C115.28 155.988 116.385 154.735 117.73 153.76C119.076 152.784 120.628 152.11 122.275 151.786C123.922 151.463 125.623 151.497 127.255 151.888C128.886 152.279 130.408 153.015 131.71 154.045C133.012 155.074 134.062 156.371 134.783 157.842C135.505 159.312 135.881 160.919 135.883 162.548C135.885 164.021 135.579 165.479 134.982 166.834H135.673C137.6 166.838 139.494 167.317 141.177 168.226C142.861 169.135 144.277 170.445 145.293 172.031C146.31 173.617 146.892 175.428 146.986 177.293C147.081 179.157 146.683 181.015 145.832 182.689C144.98 184.364 143.702 185.801 142.119 186.865C140.535 187.93 138.698 188.586 136.781 188.772C134.863 188.958 132.928 188.668 131.158 187.929C129.388 187.191 127.842 186.028 126.664 184.55C128.706 188.206 131.138 191.988 135.252 193.927V196.439H113.771V193.927C116.924 192.822 119.437 189.321 121.619 185.394C120.33 186.721 118.72 187.718 116.935 188.293C115.15 188.869 113.245 189.005 111.392 188.691C109.539 188.376 107.796 187.62 106.319 186.491C104.842 185.362 103.678 183.895 102.932 182.222C102.185 180.549 101.88 178.723 102.043 176.907C102.206 175.091 102.832 173.343 103.865 171.82C104.898 170.297 106.306 169.047 107.962 168.181C109.618 167.316 111.469 166.863 113.351 166.863V166.834Z" fill="black"/>
</svg>
