<svg width="250" height="350" viewBox="0 0 250 350" fill="none" xmlns="http://www.w3.org/2000/svg">
<rect width="250" height="350" rx="12.5" fill="white"/>
<path d="M197.649 267.924H196.928C197.581 269.425 197.882 271.047 197.809 272.673C197.735 274.3 197.29 275.89 196.505 277.33C195.72 278.77 194.615 280.023 193.27 280.998C191.924 281.974 190.372 282.648 188.725 282.971C187.078 283.295 185.377 283.26 183.745 282.87C182.114 282.479 180.592 281.743 179.29 280.713C177.988 279.683 176.938 278.387 176.217 276.916C175.495 275.446 175.119 273.838 175.117 272.21C175.115 270.737 175.421 269.279 176.018 267.924H175.327C173.4 267.92 171.506 267.441 169.823 266.532C168.139 265.622 166.723 264.313 165.707 262.727C164.69 261.141 164.108 259.33 164.014 257.465C163.919 255.6 164.317 253.743 165.168 252.068C166.02 250.394 167.298 248.957 168.881 247.892C170.465 246.828 172.302 246.172 174.219 245.986C176.137 245.8 178.072 246.09 179.842 246.828C181.612 247.567 183.158 248.73 184.336 250.208C182.294 246.552 179.862 242.77 175.748 240.831V238.319H197.229V240.831C194.076 241.936 191.563 245.437 189.381 249.364C190.67 248.037 192.28 247.04 194.065 246.465C195.85 245.889 197.755 245.753 199.608 246.067C201.461 246.382 203.204 247.138 204.681 248.267C206.158 249.396 207.322 250.863 208.068 252.536C208.815 254.209 209.12 256.035 208.957 257.851C208.794 259.667 208.168 261.415 207.135 262.938C206.102 264.461 204.694 265.711 203.038 266.577C201.382 267.442 199.531 267.895 197.649 267.895V267.924Z" fill="black"/>
<path d="M51.3509 82.0759H52.0716C51.4189 80.5755 51.1183 78.9535 51.1915 77.3269C51.2646 75.7003 51.7097 74.1097 52.4946 72.67C53.2796 71.2303 54.3847 69.9774 55.7302 69.0018C57.0758 68.0263 58.6282 67.3523 60.2753 67.0286C61.9224 66.705 63.6232 66.7397 65.2548 67.1302C66.8864 67.5208 68.4081 68.2575 69.71 69.2871C71.012 70.3167 72.0617 71.6135 72.7833 73.0839C73.505 74.5543 73.8806 76.1617 73.883 77.7898C73.885 79.2628 73.5785 80.7209 72.9821 82.0759H73.6728C75.5999 82.0798 77.4943 82.559 79.1774 83.4683C80.8606 84.3776 82.277 85.687 83.2933 87.2733C84.3096 88.8595 84.8923 90.6703 84.9864 92.535C85.0806 94.3997 84.6832 96.2569 83.8316 97.9317C82.9799 99.6064 81.7022 101.044 80.1187 102.108C78.5353 103.172 76.6982 103.828 74.7807 104.014C72.8631 104.2 70.9282 103.91 69.1583 103.172C67.3883 102.433 65.8416 101.27 64.6639 99.7924C66.7059 103.448 69.1383 107.23 73.2524 109.169V111.681H51.7713V109.169C54.9244 108.064 57.4368 104.563 59.619 100.636C58.3299 101.964 56.7204 102.96 54.9353 103.535C53.1502 104.111 51.2454 104.247 49.3923 103.933C47.5392 103.618 45.7958 102.863 44.3189 101.733C42.8421 100.604 41.6781 99.1373 40.9317 97.4643C40.1852 95.7914 39.8797 93.9649 40.0426 92.1492C40.2056 90.3334 40.8318 88.5854 41.865 87.0623C42.8982 85.5392 44.3061 84.2887 45.9619 83.4234C47.6176 82.5581 49.4695 82.105 51.3509 82.105V82.0759Z" fill="black"/>
<path d="M175.351 82.0759H176.072C175.419 80.5755 175.118 78.9535 175.191 77.3269C175.265 75.7003 175.71 74.1097 176.495 72.67C177.28 71.2303 178.385 69.9774 179.73 69.0018C181.076 68.0263 182.628 67.3523 184.275 67.0286C185.922 66.705 187.623 66.7397 189.255 67.1302C190.886 67.5208 192.408 68.2575 193.71 69.2871C195.012 70.3167 196.062 71.6135 196.783 73.0839C197.505 74.5543 197.881 76.1617 197.883 77.7898C197.885 79.2628 197.579 80.7209 196.982 82.0759H197.673C199.6 82.0798 201.494 82.559 203.177 83.4683C204.861 84.3776 206.277 85.687 207.293 87.2733C208.31 88.8595 208.892 90.6703 208.986 92.535C209.081 94.3997 208.683 96.2569 207.832 97.9317C206.98 99.6064 205.702 101.044 204.119 102.108C202.535 103.172 200.698 103.828 198.781 104.014C196.863 104.2 194.928 103.91 193.158 103.172C191.388 102.433 189.842 101.27 188.664 99.7924C190.706 103.448 193.138 107.23 197.252 109.169V111.681H175.771V109.169C178.924 108.064 181.437 104.563 183.619 100.636C182.33 101.964 180.72 102.96 178.935 103.535C177.15 104.111 175.245 104.247 173.392 103.933C171.539 103.618 169.796 102.863 168.319 101.733C166.842 100.604 165.678 99.1373 164.932 97.4643C164.185 95.7914 163.88 93.9649 164.043 92.1492C164.206 90.3334 164.832 88.5854 165.865 87.0623C166.898 85.5392 168.306 84.2887 169.962 83.4234C171.618 82.5581 173.469 82.105 175.351 82.105V82.0759Z" fill="black"/>
<path d="M113.351 122.959H114.072C113.419 121.459 113.118 119.837 113.191 118.21C113.265 116.583 113.71 114.993 114.495 113.553C115.28 112.113 116.385 110.861 117.73 109.885C119.076 108.909 120.628 108.235 122.275 107.912C123.922 107.588 125.623 107.623 127.255 108.013C128.886 108.404 130.408 109.141 131.71 110.17C133.012 111.2 134.062 112.497 134.783 113.967C135.505 115.438 135.881 117.045 135.883 118.673C135.885 120.146 135.579 121.604 134.982 122.959H135.673C137.6 122.963 139.494 123.442 141.177 124.351C142.861 125.261 144.277 126.57 145.293 128.156C146.31 129.743 146.892 131.553 146.986 133.418C147.081 135.283 146.683 137.14 145.832 138.815C144.98 140.49 143.702 141.927 142.119 142.991C140.535 144.055 138.698 144.711 136.781 144.897C134.863 145.083 132.928 144.793 131.158 144.055C129.388 143.316 127.842 142.153 126.664 140.676C128.706 144.331 131.138 148.113 135.252 150.053V152.564H113.771V150.053C116.924 148.947 119.437 145.446 121.619 141.519C120.33 142.847 118.72 143.843 116.935 144.418C115.15 144.994 113.245 145.131 111.392 144.816C109.539 144.502 107.796 143.746 106.319 142.617C104.842 141.488 103.678 140.021 102.932 138.348C102.185 136.675 101.88 134.848 102.043 133.032C102.206 131.217 102.832 129.469 103.865 127.945C104.898 126.422 106.306 125.172 107.962 124.307C109.618 123.441 111.469 122.988 113.351 122.988V122.959Z" fill="black"/>
<path d="M51.3509 167.831H52.0716C51.4189 166.33 51.1183 164.708 51.1915 163.082C51.2646 161.455 51.7097 159.865 52.4946 158.425C53.2796 156.985 54.3847 155.732 55.7302 154.757C57.0758 153.781 58.6282 153.107 60.2753 152.784C61.9224 152.46 63.6232 152.495 65.2548 152.885C66.8864 153.276 68.4081 154.012 69.71 155.042C71.012 156.072 72.0617 157.368 72.7833 158.839C73.505 160.309 73.8806 161.917 73.883 163.545C73.885 165.018 73.5785 166.476 72.9821 167.831H73.6728C75.5999 167.835 77.4943 168.314 79.1774 169.223C80.8606 170.133 82.277 171.442 83.2933 173.028C84.3096 174.614 84.8923 176.425 84.9864 178.29C85.0806 180.155 84.6832 182.012 83.8316 183.687C82.9799 185.361 81.7022 186.799 80.1187 187.863C78.5353 188.927 76.6982 189.583 74.7807 189.769C72.8631 189.955 70.9282 189.665 69.1583 188.927C67.3883 188.188 65.8416 187.025 64.6639 185.547C66.7059 189.203 69.1383 192.985 73.2524 194.924V197.436H51.7713V194.924C54.9244 193.819 57.4368 190.318 59.619 186.391C58.3299 187.718 56.7204 188.715 54.9353 189.29C53.1502 189.866 51.2454 190.002 49.3923 189.688C47.5392 189.373 45.7958 188.617 44.3189 187.488C42.8421 186.359 41.6781 184.892 40.9317 183.219C40.1852 181.546 39.8797 179.72 40.0426 177.904C40.2056 176.088 40.8318 174.34 41.865 172.817C42.8982 171.294 44.3061 170.044 45.9619 169.178C47.6176 168.313 49.4695 167.86 51.3509 167.86V167.831Z" fill="black"/>
<path d="M175.351 167.831H176.072C175.419 166.33 175.118 164.708 175.191 163.082C175.265 161.455 175.71 159.865 176.495 158.425C177.28 156.985 178.385 155.732 179.73 154.757C181.076 153.781 182.628 153.107 184.275 152.784C185.922 152.46 187.623 152.495 189.255 152.885C190.886 153.276 192.408 154.012 193.71 155.042C195.012 156.072 196.062 157.368 196.783 158.839C197.505 160.309 197.881 161.917 197.883 163.545C197.885 165.018 197.579 166.476 196.982 167.831H197.673C199.6 167.835 201.494 168.314 203.177 169.223C204.861 170.133 206.277 171.442 207.293 173.028C208.31 174.614 208.892 176.425 208.986 178.29C209.081 180.155 208.683 182.012 207.832 183.687C206.98 185.361 205.702 186.799 204.119 187.863C202.535 188.927 200.698 189.583 198.781 189.769C196.863 189.955 194.928 189.665 193.158 188.927C191.388 188.188 189.842 187.025 188.664 185.547C190.706 189.203 193.138 192.985 197.252 194.924V197.436H175.771V194.924C178.924 193.819 181.437 190.318 183.619 186.391C182.33 187.718 180.72 188.715 178.935 189.29C177.15 189.866 175.245 190.002 173.392 189.688C171.539 189.373 169.796 188.617 168.319 187.488C166.842 186.359 165.678 184.892 164.932 183.219C164.185 181.546 163.88 179.72 164.043 177.904C164.206 176.088 164.832 174.34 165.865 172.817C166.898 171.294 168.306 170.044 169.962 169.178C171.618 168.313 173.469 167.86 175.351 167.86V167.831Z" fill="black"/>
<path d="M73.6491 267.924H72.9284C73.5811 269.425 73.8817 271.047 73.8085 272.673C73.7354 274.3 73.2903 275.89 72.5054 277.33C71.7204 278.77 70.6153 280.023 69.2698 280.998C67.9242 281.974 66.3718 282.648 64.7247 282.971C63.0776 283.295 61.3768 283.26 59.7452 282.87C58.1136 282.479 56.5919 281.743 55.29 280.713C53.988 279.683 52.9383 278.387 52.2167 276.916C51.495 275.446 51.1194 273.838 51.117 272.21C51.115 270.737 51.4215 269.279 52.0179 267.924H51.3272C49.4001 267.92 47.5057 267.441 45.8226 266.532C44.1394 265.622 42.723 264.313 41.7067 262.727C40.6904 261.141 40.1077 259.33 40.0136 257.465C39.9194 255.6 40.3168 253.743 41.1684 252.068C42.0201 250.394 43.2978 248.957 44.8813 247.892C46.4647 246.828 48.3018 246.172 50.2193 245.986C52.1369 245.8 54.0718 246.09 55.8417 246.828C57.6117 247.567 59.1584 248.73 60.3361 250.208C58.2941 246.552 55.8617 242.77 51.7476 240.831V238.319H73.2287V240.831C70.0756 241.936 67.5632 245.437 65.381 249.364C66.6701 248.037 68.2796 247.04 70.0647 246.465C71.8498 245.889 73.7546 245.753 75.6077 246.067C77.4608 246.382 79.2042 247.138 80.6811 248.267C82.1579 249.396 83.3219 250.863 84.0683 252.536C84.8148 254.209 85.1203 256.035 84.9574 257.851C84.7944 259.667 84.1682 261.415 83.135 262.938C82.1018 264.461 80.6939 265.711 79.0381 266.577C77.3824 267.442 75.5305 267.895 73.6491 267.895V267.924Z" fill="black"/>
<path d="M17.0312 18.0674C16.1849 18.0674 15.7617 17.6443 15.7617 16.7979V14.4932C15.7617 13.6469 16.1849 13.2237 17.0312 13.2237H32.9688C33.8151 13.2237 34.2383 13.6469 34.2383 14.4932V16.7003C34.2383 17.3643 33.9128 18.0609 33.2617 18.7901C30.5924 21.7979 28.724 24.7992 27.6562 27.794C26.5885 30.7888 26.0547 34.4021 26.0547 38.6339V39.8448C26.0547 40.6911 25.6315 41.1143 24.7852 41.1143H21.8555C21.0091 41.1143 20.5859 40.6911 20.5859 39.8448V39.3174C20.5859 34.6169 21.3607 30.6651 22.9102 27.462C24.4727 24.2589 26.543 21.1273 29.1211 18.0674V17.9893C28.6003 18.0414 28.0794 18.0674 27.5586 18.0674H17.0312Z" fill="black"/>
<path d="M232.969 332.93C233.815 332.93 234.238 333.353 234.238 334.199V336.504C234.238 337.35 233.815 337.773 232.969 337.773H217.031C216.185 337.773 215.762 337.35 215.762 336.504V334.297C215.762 333.633 216.087 332.936 216.738 332.207C219.408 329.199 221.276 326.198 222.344 323.203C223.411 320.208 223.945 316.595 223.945 312.363V311.152C223.945 310.306 224.368 309.883 225.215 309.883H228.145C228.991 309.883 229.414 310.306 229.414 311.152V311.68C229.414 316.38 228.639 320.332 227.09 323.535C225.527 326.738 223.457 329.87 220.879 332.93V333.008C221.4 332.956 221.921 332.93 222.441 332.93H232.969Z" fill="black"/>
<path d="M232.433 289.965H231.952C232.387 290.965 232.588 292.046 232.539 293.131C232.49 294.215 232.194 295.275 231.67 296.235C231.147 297.195 230.41 298.03 229.513 298.681C228.616 299.331 227.581 299.78 226.483 299.996C225.385 300.212 224.251 300.189 223.163 299.928C222.076 299.668 221.061 299.177 220.193 298.491C219.325 297.804 218.626 296.94 218.144 295.959C217.663 294.979 217.413 293.907 217.411 292.822C217.41 291.84 217.614 290.868 218.012 289.965H217.551C216.267 289.962 215.004 289.643 213.882 289.036C212.76 288.43 211.815 287.557 211.138 286.5C210.46 285.442 210.072 284.235 210.009 282.992C209.946 281.749 210.211 280.511 210.779 279.394C211.347 278.278 212.199 277.32 213.254 276.61C214.31 275.901 215.535 275.463 216.813 275.339C218.091 275.215 219.381 275.408 220.561 275.901C221.741 276.393 222.772 277.168 223.557 278.154C222.196 275.716 220.574 273.195 217.832 271.902V270.228H232.152V271.902C230.05 272.639 228.375 274.973 226.921 277.591C227.78 276.706 228.853 276.042 230.043 275.658C231.233 275.275 232.503 275.184 233.738 275.393C234.974 275.603 236.136 276.107 237.121 276.86C238.105 277.612 238.881 278.59 239.379 279.706C239.877 280.821 240.08 282.039 239.972 283.249C239.863 284.46 239.445 285.625 238.757 286.64C238.068 287.656 237.129 288.489 236.025 289.066C234.922 289.643 233.687 289.945 232.433 289.945V289.965Z" fill="black"/>
<path d="M17.5672 61.0325H18.0477C17.6126 60.0323 17.4122 58.9509 17.461 57.8665C17.5098 56.7821 17.8065 55.7217 18.3298 54.7619C18.853 53.8021 19.5898 52.9669 20.4868 52.3165C21.3838 51.6661 22.4188 51.2168 23.5169 51.001C24.6149 50.7852 25.7488 50.8083 26.8365 51.0687C27.9242 51.3291 28.9387 51.8202 29.8067 52.5066C30.6747 53.193 31.3745 54.0576 31.8556 55.0379C32.3367 56.0181 32.5871 57.0897 32.5887 58.1751C32.59 59.1571 32.3857 60.1292 31.9881 61.0325H32.4485C33.7333 61.0351 34.9962 61.3546 36.1183 61.9608C37.2404 62.567 38.1847 63.4399 38.8622 64.4974C39.5397 65.5549 39.9282 66.7621 39.991 68.0052C40.0537 69.2484 39.7888 70.4865 39.221 71.603C38.6533 72.7195 37.8015 73.6776 36.7458 74.387C35.6902 75.0964 34.4655 75.5338 33.1871 75.6579C31.9087 75.782 30.6188 75.5887 29.4388 75.0963C28.2589 74.604 27.2278 73.8287 26.4426 72.8435C27.804 75.2807 29.4255 77.8019 32.1682 79.0949V80.7692H17.8475V79.0949C19.9496 78.3579 21.6246 76.0241 23.0793 73.4059C22.2199 74.2909 21.1469 74.9551 19.9569 75.3388C18.7668 75.7224 17.4969 75.8135 16.2615 75.6038C15.0261 75.3942 13.8638 74.8903 12.8793 74.1375C11.8947 73.3848 11.1187 72.4068 10.6211 71.2915C10.1235 70.1762 9.91982 68.9585 10.0284 67.748C10.137 66.5375 10.5545 65.3722 11.2433 64.3568C11.9322 63.3414 12.8707 62.5077 13.9746 61.9309C15.0784 61.354 16.313 61.0519 17.5672 61.0519V61.0325Z" fill="black"/>
</svg>
