<svg width="250" height="350" viewBox="0 0 250 350" fill="none" xmlns="http://www.w3.org/2000/svg">
<rect width="250" height="350" rx="12.5" fill="white"/>
<path d="M197.649 267.69H196.928C197.581 269.194 197.882 270.821 197.809 272.452C197.735 274.083 197.29 275.679 196.505 277.122C195.72 278.566 194.615 279.823 193.27 280.801C191.924 281.779 190.372 282.455 188.725 282.78C187.078 283.104 185.377 283.07 183.745 282.678C182.114 282.286 180.592 281.548 179.29 280.515C177.988 279.482 176.938 278.182 176.217 276.707C175.495 275.233 175.119 273.621 175.117 271.988C175.115 270.511 175.421 269.048 176.018 267.69H175.327C173.4 267.686 171.506 267.205 169.823 266.293C168.139 265.381 166.723 264.068 165.707 262.477C164.69 260.887 164.108 259.071 164.014 257.201C163.919 255.331 164.317 253.468 165.168 251.789C166.02 250.109 167.298 248.668 168.881 247.601C170.465 246.533 172.302 245.876 174.219 245.689C176.137 245.502 178.072 245.793 179.842 246.534C181.612 247.274 183.158 248.441 184.336 249.923C182.294 246.256 179.862 242.464 175.748 240.519V238H197.229V240.519C194.076 241.627 191.563 245.138 189.381 249.076C190.67 247.745 192.28 246.746 194.065 246.169C195.85 245.592 197.755 245.455 199.608 245.77C201.461 246.086 203.204 246.844 204.681 247.976C206.158 249.108 207.322 250.579 208.068 252.257C208.815 253.935 209.12 255.767 208.957 257.588C208.794 259.408 208.168 261.162 207.135 262.689C206.102 264.216 204.694 265.47 203.038 266.338C201.382 267.206 199.531 267.66 197.649 267.66V267.69Z" fill="black"/>
<path d="M197.649 209.69H196.928C197.581 211.194 197.882 212.821 197.809 214.452C197.735 216.084 197.29 217.679 196.505 219.122C195.72 220.566 194.615 221.823 193.27 222.801C191.924 223.779 190.372 224.455 188.725 224.78C187.078 225.105 185.377 225.07 183.745 224.678C182.114 224.286 180.592 223.548 179.29 222.515C177.988 221.483 176.938 220.182 176.217 218.707C175.495 217.233 175.119 215.621 175.117 213.988C175.115 212.511 175.421 211.049 176.018 209.69H175.327C173.4 209.686 171.506 209.205 169.823 208.293C168.139 207.381 166.723 206.068 165.707 204.477C164.69 202.887 164.108 201.071 164.014 199.201C163.919 197.331 164.317 195.468 165.168 193.789C166.02 192.109 167.298 190.668 168.881 189.601C170.465 188.534 172.302 187.876 174.219 187.689C176.137 187.502 178.072 187.793 179.842 188.534C181.612 189.274 183.158 190.441 184.336 191.923C182.294 188.256 179.862 184.464 175.748 182.519V180H197.229V182.519C194.076 183.627 191.563 187.138 189.381 191.077C190.67 189.745 192.28 188.746 194.065 188.169C195.85 187.592 197.755 187.455 199.608 187.77C201.461 188.086 203.204 188.844 204.681 189.976C206.158 191.108 207.322 192.58 208.068 194.257C208.815 195.935 209.12 197.767 208.957 199.588C208.794 201.409 208.168 203.162 207.135 204.689C206.102 206.217 204.694 207.471 203.038 208.338C201.382 209.206 199.531 209.66 197.649 209.661V209.69Z" fill="black"/>
<path d="M175.351 81.3104H176.072C175.419 79.8058 175.118 78.1791 175.191 76.5478C175.265 74.9166 175.71 73.3215 176.495 71.8777C177.28 70.4339 178.385 69.1774 179.73 68.199C181.076 67.2207 182.628 66.5448 184.275 66.2202C185.922 65.8956 187.623 65.9304 189.255 66.322C190.886 66.7137 192.408 67.4525 193.71 68.4851C195.012 69.5176 196.062 70.8181 196.783 72.2928C197.505 73.7674 197.881 75.3793 197.883 77.0121C197.885 78.4893 197.579 79.9516 196.982 81.3104H197.673C199.6 81.3144 201.494 81.7949 203.177 82.7068C204.861 83.6187 206.277 84.9319 207.293 86.5227C208.31 88.1134 208.892 89.9294 208.986 91.7994C209.081 93.6694 208.683 95.532 207.832 97.2115C206.98 98.891 205.702 100.332 204.119 101.399C202.535 102.467 200.698 103.124 198.781 103.311C196.863 103.498 194.928 103.207 193.158 102.466C191.388 101.726 189.842 100.56 188.664 99.0775C190.706 102.744 193.138 106.536 197.252 108.481V111H175.771V108.481C178.924 107.373 181.437 103.862 183.619 99.9236C182.33 101.255 180.72 102.254 178.935 102.831C177.15 103.408 175.245 103.545 173.392 103.23C171.539 102.914 169.796 102.156 168.319 101.024C166.842 99.8918 165.678 98.4206 164.932 96.7428C164.185 95.0651 163.88 93.2334 164.043 91.4125C164.206 89.5916 164.832 87.8385 165.865 86.3111C166.898 84.7836 168.306 83.5296 169.962 82.6618C171.618 81.794 173.469 81.3397 175.351 81.3396V81.3104Z" fill="black"/>
<path d="M175.351 137.31H176.072C175.419 135.806 175.118 134.179 175.191 132.548C175.265 130.917 175.71 129.321 176.495 127.878C177.28 126.434 178.385 125.177 179.73 124.199C181.076 123.221 182.628 122.545 184.275 122.22C185.922 121.896 187.623 121.93 189.255 122.322C190.886 122.714 192.408 123.453 193.71 124.485C195.012 125.518 196.062 126.818 196.783 128.293C197.505 129.767 197.881 131.379 197.883 133.012C197.885 134.489 197.579 135.952 196.982 137.31H197.673C199.6 137.314 201.494 137.795 203.177 138.707C204.861 139.619 206.277 140.932 207.293 142.523C208.31 144.113 208.892 145.929 208.986 147.799C209.081 149.669 208.683 151.532 207.832 153.212C206.98 154.891 205.702 156.332 204.119 157.399C202.535 158.467 200.698 159.124 198.781 159.311C196.863 159.498 194.928 159.207 193.158 158.466C191.388 157.726 189.842 156.56 188.664 155.078C190.706 158.744 193.138 162.536 197.252 164.481V167H175.771V164.481C178.924 163.373 181.437 159.862 183.619 155.924C182.33 157.255 180.72 158.254 178.935 158.831C177.15 159.408 175.245 159.545 173.392 159.23C171.539 158.914 169.796 158.156 168.319 157.024C166.842 155.892 165.678 154.421 164.932 152.743C164.185 151.065 163.88 149.233 164.043 147.412C164.206 145.592 164.832 143.839 165.865 142.311C166.898 140.784 168.306 139.53 169.962 138.662C171.618 137.794 173.469 137.34 175.351 137.34V137.31Z" fill="black"/>
<path d="M113.351 167.31H114.072C113.419 165.806 113.118 164.179 113.191 162.548C113.265 160.917 113.71 159.321 114.495 157.878C115.28 156.434 116.385 155.177 117.73 154.199C119.076 153.221 120.628 152.545 122.275 152.22C123.922 151.896 125.623 151.93 127.255 152.322C128.886 152.714 130.408 153.452 131.71 154.485C133.012 155.518 134.062 156.818 134.783 158.293C135.505 159.767 135.881 161.379 135.883 163.012C135.885 164.489 135.579 165.952 134.982 167.31H135.673C137.6 167.314 139.494 167.795 141.177 168.707C142.861 169.619 144.277 170.932 145.293 172.523C146.31 174.113 146.892 175.929 146.986 177.799C147.081 179.669 146.683 181.532 145.832 183.211C144.98 184.891 143.702 186.332 142.119 187.399C140.535 188.467 138.698 189.124 136.781 189.311C134.863 189.498 132.928 189.207 131.158 188.466C129.388 187.726 127.842 186.559 126.664 185.077C128.706 188.744 131.138 192.536 135.252 194.481V197H113.771V194.481C116.924 193.373 119.437 189.862 121.619 185.924C120.33 187.255 118.72 188.254 116.935 188.831C115.15 189.408 113.245 189.545 111.392 189.23C109.539 188.914 107.796 188.156 106.319 187.024C104.842 185.892 103.678 184.421 102.932 182.743C102.185 181.065 101.88 179.233 102.043 177.412C102.206 175.592 102.832 173.838 103.865 172.311C104.898 170.784 106.306 169.53 107.962 168.662C109.618 167.794 111.469 167.34 113.351 167.34V167.31Z" fill="black"/>
<path d="M73.6491 267.69H72.9284C73.5811 269.194 73.8817 270.821 73.8085 272.452C73.7354 274.083 73.2903 275.679 72.5054 277.122C71.7204 278.566 70.6153 279.823 69.2698 280.801C67.9242 281.779 66.3718 282.455 64.7247 282.78C63.0776 283.104 61.3768 283.07 59.7452 282.678C58.1136 282.286 56.5919 281.548 55.29 280.515C53.988 279.482 52.9383 278.182 52.2167 276.707C51.495 275.233 51.1194 273.621 51.117 271.988C51.115 270.511 51.4215 269.048 52.0179 267.69H51.3272C49.4001 267.686 47.5057 267.205 45.8226 266.293C44.1394 265.381 42.723 264.068 41.7067 262.477C40.6904 260.887 40.1077 259.071 40.0136 257.201C39.9194 255.331 40.3168 253.468 41.1684 251.789C42.0201 250.109 43.2978 248.668 44.8813 247.601C46.4647 246.533 48.3018 245.876 50.2193 245.689C52.1369 245.502 54.0718 245.793 55.8417 246.534C57.6117 247.274 59.1584 248.441 60.3361 249.923C58.2941 246.256 55.8617 242.464 51.7476 240.519V238H73.2287V240.519C70.0756 241.627 67.5632 245.138 65.381 249.076C66.6701 247.745 68.2796 246.746 70.0647 246.169C71.8498 245.592 73.7546 245.455 75.6077 245.77C77.4608 246.086 79.2042 246.844 80.6811 247.976C82.1579 249.108 83.3219 250.579 84.0683 252.257C84.8148 253.935 85.1203 255.767 84.9574 257.588C84.7944 259.408 84.1682 261.162 83.135 262.689C82.1018 264.216 80.6939 265.47 79.0381 266.338C77.3824 267.206 75.5305 267.66 73.6491 267.66V267.69Z" fill="black"/>
<path d="M51.3509 81.3104H52.0716C51.4189 79.8058 51.1183 78.1791 51.1915 76.5478C51.2646 74.9166 51.7097 73.3215 52.4946 71.8777C53.2796 70.4339 54.3847 69.1774 55.7302 68.199C57.0758 67.2207 58.6282 66.5448 60.2753 66.2202C61.9224 65.8956 63.6232 65.9304 65.2548 66.322C66.8864 66.7137 68.4081 67.4525 69.71 68.4851C71.012 69.5176 72.0617 70.8181 72.7833 72.2928C73.505 73.7674 73.8806 75.3793 73.883 77.0121C73.885 78.4893 73.5785 79.9516 72.9821 81.3104H73.6728C75.5999 81.3144 77.4943 81.7949 79.1774 82.7068C80.8606 83.6187 82.277 84.9319 83.2933 86.5227C84.3096 88.1134 84.8923 89.9294 84.9864 91.7994C85.0806 93.6694 84.6832 95.532 83.8316 97.2115C82.9799 98.891 81.7022 100.332 80.1187 101.399C78.5353 102.467 76.6982 103.124 74.7807 103.311C72.8631 103.498 70.9282 103.207 69.1583 102.466C67.3883 101.726 65.8416 100.56 64.6639 99.0775C66.7059 102.744 69.1383 106.536 73.2524 108.481V111H51.7713V108.481C54.9244 107.373 57.4368 103.862 59.619 99.9236C58.3299 101.255 56.7204 102.254 54.9353 102.831C53.1502 103.408 51.2454 103.545 49.3923 103.23C47.5392 102.914 45.7958 102.156 44.3189 101.024C42.8421 99.8918 41.6781 98.4206 40.9317 96.7428C40.1852 95.0651 39.8797 93.2334 40.0426 91.4125C40.2056 89.5916 40.8318 87.8385 41.865 86.3111C42.8982 84.7836 44.3061 83.5296 45.9619 82.6618C47.6176 81.794 49.4695 81.3397 51.3509 81.3396V81.3104Z" fill="black"/>
<path d="M51.3509 137.31H52.0716C51.4189 135.806 51.1183 134.179 51.1915 132.548C51.2646 130.917 51.7097 129.321 52.4946 127.878C53.2796 126.434 54.3847 125.177 55.7302 124.199C57.0758 123.221 58.6282 122.545 60.2753 122.22C61.9224 121.896 63.6232 121.93 65.2548 122.322C66.8864 122.714 68.4081 123.453 69.71 124.485C71.012 125.518 72.0617 126.818 72.7833 128.293C73.505 129.767 73.8806 131.379 73.883 133.012C73.885 134.489 73.5785 135.952 72.9821 137.31H73.6728C75.5999 137.314 77.4943 137.795 79.1774 138.707C80.8606 139.619 82.277 140.932 83.2933 142.523C84.3096 144.113 84.8923 145.929 84.9864 147.799C85.0806 149.669 84.6832 151.532 83.8316 153.212C82.9799 154.891 81.7022 156.332 80.1187 157.399C78.5353 158.467 76.6982 159.124 74.7807 159.311C72.8631 159.498 70.9282 159.207 69.1583 158.466C67.3883 157.726 65.8416 156.56 64.6639 155.078C66.7059 158.744 69.1383 162.536 73.2524 164.481V167H51.7713V164.481C54.9244 163.373 57.4368 159.862 59.619 155.924C58.3299 157.255 56.7204 158.254 54.9353 158.831C53.1502 159.408 51.2454 159.545 49.3923 159.23C47.5392 158.914 45.7958 158.156 44.3189 157.024C42.8421 155.892 41.6781 154.421 40.9317 152.743C40.1852 151.065 39.8797 149.233 40.0426 147.412C40.2056 145.592 40.8318 143.839 41.865 142.311C42.8982 140.784 44.3061 139.53 45.9619 138.662C47.6176 137.794 49.4695 137.34 51.3509 137.34V137.31Z" fill="black"/>
<path d="M73.6491 209.69H72.9284C73.5811 211.194 73.8817 212.821 73.8085 214.452C73.7354 216.084 73.2903 217.679 72.5054 219.122C71.7204 220.566 70.6153 221.823 69.2698 222.801C67.9242 223.779 66.3718 224.455 64.7247 224.78C63.0776 225.105 61.3768 225.07 59.7452 224.678C58.1136 224.286 56.5919 223.548 55.29 222.515C53.988 221.483 52.9383 220.182 52.2167 218.707C51.495 217.233 51.1194 215.621 51.117 213.988C51.115 212.511 51.4215 211.049 52.0179 209.69H51.3272C49.4001 209.686 47.5057 209.205 45.8226 208.293C44.1394 207.381 42.723 206.068 41.7067 204.477C40.6904 202.887 40.1077 201.071 40.0136 199.201C39.9194 197.331 40.3168 195.468 41.1684 193.789C42.0201 192.109 43.2978 190.668 44.8813 189.601C46.4647 188.534 48.3018 187.876 50.2193 187.689C52.1369 187.502 54.0718 187.793 55.8417 188.534C57.6117 189.274 59.1584 190.441 60.3361 191.923C58.2941 188.256 55.8617 184.464 51.7476 182.519V180H73.2287V182.519C70.0756 183.627 67.5632 187.138 65.381 191.077C66.6701 189.745 68.2796 188.746 70.0647 188.169C71.8498 187.592 73.7546 187.455 75.6077 187.77C77.4608 188.086 79.2042 188.844 80.6811 189.976C82.1579 191.108 83.3219 192.58 84.0683 194.257C84.8148 195.935 85.1203 197.767 84.9574 199.588C84.7944 201.409 84.1682 203.162 83.135 204.689C82.1018 206.217 80.6939 207.471 79.0381 208.338C77.3824 209.206 75.5305 209.66 73.6491 209.661V209.69Z" fill="black"/>
<path d="M14.9609 20.9766C14.9609 18.112 15.7747 15.8268 17.4023 14.1211C19.0299 12.4154 21.5169 11.5625 24.8633 11.5625C28.431 11.5625 31.0091 12.7604 32.5977 15.1562C34.1992 17.5391 35 20.931 35 25.332C35 31.2044 33.9453 35.2279 31.8359 37.4023C29.7396 39.5768 27.0898 40.6641 23.8867 40.6641C22.6367 40.6641 21.3932 40.4818 20.1562 40.1172C18.9193 39.7656 17.9688 39.2969 17.3047 38.7109C16.6797 38.151 16.543 37.6042 16.8945 37.0703L18.1836 35.1367C18.6003 34.4987 19.2057 34.4987 20 35.1367C20.3906 35.4492 20.957 35.7227 21.6992 35.957C22.4544 36.1784 23.2422 36.2891 24.0625 36.2891C25.4297 36.2891 26.6862 35.651 27.832 34.375C28.9779 33.0859 29.5508 30.9049 29.5508 27.832H29.4727C28.8867 28.7174 28.0729 29.3555 27.0312 29.7461C25.9896 30.1237 24.7201 30.3125 23.2227 30.3125C20.5013 30.3125 18.444 29.4206 17.0508 27.6367C15.6576 25.8398 14.9609 23.6198 14.9609 20.9766ZM20.8203 21.0156C20.8203 22.7344 21.1458 23.9844 21.7969 24.7656C22.4479 25.5469 23.3594 25.9375 24.5312 25.9375C25.8203 25.9375 26.8164 25.4102 27.5195 24.3555C28.2357 23.3008 28.5938 22.1419 28.5938 20.8789C28.5938 19.2904 28.2682 18.0729 27.6172 17.2266C26.9661 16.3672 26.0156 15.9375 24.7656 15.9375C23.4375 15.9375 22.4479 16.2956 21.7969 17.0117C21.1458 17.7279 20.8203 19.0625 20.8203 21.0156Z" fill="black"/>
<path d="M237.039 329.023C237.039 331.888 236.225 334.173 234.598 335.879C232.97 337.585 230.483 338.438 227.137 338.438C223.569 338.438 220.991 337.24 219.402 334.844C217.801 332.461 217 329.069 217 324.668C217 318.796 218.055 314.772 220.164 312.598C222.26 310.423 224.91 309.336 228.113 309.336C229.363 309.336 230.607 309.518 231.844 309.883C233.081 310.234 234.031 310.703 234.695 311.289C235.32 311.849 235.457 312.396 235.105 312.93L233.816 314.863C233.4 315.501 232.794 315.501 232 314.863C231.609 314.551 231.043 314.277 230.301 314.043C229.546 313.822 228.758 313.711 227.938 313.711C226.57 313.711 225.314 314.349 224.168 315.625C223.022 316.914 222.449 319.095 222.449 322.168H222.527C223.113 321.283 223.927 320.645 224.969 320.254C226.01 319.876 227.28 319.688 228.777 319.688C231.499 319.688 233.556 320.579 234.949 322.363C236.342 324.16 237.039 326.38 237.039 329.023ZM231.18 328.984C231.18 327.266 230.854 326.016 230.203 325.234C229.552 324.453 228.641 324.062 227.469 324.062C226.18 324.062 225.184 324.59 224.48 325.645C223.764 326.699 223.406 327.858 223.406 329.121C223.406 330.71 223.732 331.927 224.383 332.773C225.034 333.633 225.984 334.062 227.234 334.062C228.562 334.062 229.552 333.704 230.203 332.988C230.854 332.272 231.18 330.938 231.18 328.984Z" fill="black"/>
<path d="M232.433 289.793H231.952C232.387 290.796 232.588 291.881 232.539 292.968C232.49 294.056 232.194 295.119 231.67 296.082C231.147 297.044 230.41 297.882 229.513 298.534C228.616 299.186 227.581 299.637 226.483 299.853C225.385 300.07 224.251 300.046 223.163 299.785C222.076 299.524 221.061 299.032 220.193 298.343C219.325 297.655 218.626 296.788 218.144 295.805C217.663 294.822 217.413 293.747 217.411 292.659C217.41 291.674 217.614 290.699 218.012 289.793H217.551C216.267 289.79 215.004 289.47 213.882 288.862C212.76 288.254 211.815 287.379 211.138 286.318C210.46 285.258 210.072 284.047 210.009 282.8C209.946 281.554 210.211 280.312 210.779 279.192C211.347 278.073 212.199 277.112 213.254 276.4C214.31 275.689 215.535 275.25 216.813 275.126C218.091 275.001 219.381 275.195 220.561 275.689C221.741 276.183 222.772 276.96 223.557 277.948C222.196 275.504 220.574 272.976 217.832 271.679V270H232.152V271.679C230.05 272.418 228.375 274.759 226.921 277.384C227.78 276.497 228.853 275.831 230.043 275.446C231.233 275.061 232.503 274.97 233.738 275.18C234.974 275.39 236.136 275.896 237.121 276.651C238.105 277.406 238.881 278.386 239.379 279.505C239.877 280.623 240.08 281.844 239.972 283.058C239.863 284.272 239.445 285.441 238.757 286.459C238.068 287.478 237.129 288.314 236.025 288.892C234.922 289.471 233.687 289.774 232.433 289.774V289.793Z" fill="black"/>
<path d="M17.5672 60.2069H18.0477C17.6126 59.2038 17.4122 58.1194 17.461 57.0318C17.5098 55.9443 17.8065 54.8809 18.3298 53.9184C18.853 52.9559 19.5898 52.1182 20.4868 51.466C21.3838 50.8137 22.4188 50.3631 23.5169 50.1467C24.6149 49.9303 25.7488 49.9535 26.8365 50.2147C27.9242 50.4758 28.9387 50.9683 29.8067 51.6567C30.6747 52.345 31.3745 53.2121 31.8556 54.1951C32.3367 55.1782 32.5871 56.2528 32.5887 57.3414C32.59 58.3262 32.3857 59.301 31.9881 60.2069H32.4485C33.7333 60.2095 34.9962 60.5299 36.1183 61.1378C37.2404 61.7458 38.1847 62.6212 38.8622 63.6817C39.5397 64.7422 39.9282 65.9529 39.991 67.1996C40.0537 68.4462 39.7888 69.6879 39.221 70.8076C38.6533 71.9273 37.8015 72.8882 36.7458 73.5996C35.6902 74.311 34.4655 74.7496 33.1871 74.8741C31.9087 74.9985 30.6188 74.8047 29.4388 74.3109C28.2589 73.8171 27.2278 73.0396 26.4426 72.0516C27.804 74.4958 29.4255 77.0242 32.1682 78.3209V80H17.8475V78.3209C19.9496 77.5818 21.6246 75.2414 23.0793 72.6157C22.2199 73.5032 21.1469 74.1693 19.9569 74.554C18.7668 74.9388 17.4969 75.0302 16.2615 74.8199C15.0261 74.6096 13.8638 74.1043 12.8793 73.3494C11.8947 72.5945 11.1187 71.6137 10.6211 70.4952C10.1235 69.3767 9.91982 68.1556 10.0284 66.9416C10.137 65.7277 10.5545 64.559 11.2433 63.5407C11.9322 62.5224 12.8707 61.6864 13.9746 61.1078C15.0784 60.5293 16.313 60.2264 17.5672 60.2264V60.2069Z" fill="black"/>
</svg>
