<svg width="250" height="350" viewBox="0 0 250 350" fill="none" xmlns="http://www.w3.org/2000/svg">
<rect width="250" height="350" rx="12.5" fill="white"/>
<path d="M209 260.724C200.167 266.752 192.536 274.371 186.5 283.191C180.702 274.193 173.028 266.55 164 260.786C172.865 254.797 180.502 247.171 186.5 238.319C192.386 247.263 200.043 254.909 209 260.786V260.724Z" fill="#FE0000"/>
<path d="M40 89.2757C48.8333 83.2484 56.4637 75.6293 62.5 66.8091C68.2977 75.8075 75.9725 83.45 85 89.2144C76.1346 95.203 68.4975 102.829 62.5 111.681C56.6143 102.737 48.9571 95.0913 40 89.2144V89.2757Z" fill="#FE0000"/>
<path d="M165 89.2757C173.833 83.2484 181.464 75.6293 187.5 66.8091C193.298 75.8075 200.972 83.45 210 89.2144C201.135 95.203 193.498 102.829 187.5 111.681C181.614 102.737 173.957 95.0913 165 89.2144V89.2757Z" fill="#FE0000"/>
<path d="M102 175.031C110.833 169.003 118.464 161.384 124.5 152.564C130.298 161.562 137.972 169.205 147 174.969C138.135 180.958 130.498 188.584 124.5 197.436C118.614 188.492 110.957 180.846 102 174.969V175.031Z" fill="#FE0000"/>
<path d="M85 260.724C76.1667 266.752 68.5363 274.371 62.5 283.191C56.7023 274.193 49.0275 266.55 40 260.786C48.8654 254.797 56.5025 247.171 62.5 238.319C68.3857 247.263 76.0429 254.909 85 260.786V260.724Z" fill="#FE0000"/>
<path d="M15.7227 38.0273C15.293 37.4544 15.2344 36.9596 15.5469 36.543L16.9141 34.668C17.4609 33.9128 18.125 33.8932 18.9062 34.6094C19.375 35.0391 20.0977 35.4297 21.0742 35.7812C22.0508 36.1198 23.0273 36.2891 24.0039 36.2891C25.4883 36.2891 26.7383 35.8724 27.7539 35.0391C28.7826 34.2057 29.2969 32.9883 29.2969 31.3867C29.2969 29.8633 28.9714 28.6328 28.3203 27.6953C27.6693 26.7578 26.8815 26.2891 25.957 26.2891C25.1628 26.2891 24.4336 26.3542 23.7695 26.4844C23.1055 26.6016 22.4154 26.9727 21.6992 27.5977C21.2044 28.0273 20.6055 28.2422 19.9023 28.2422H17.7734C16.9271 28.2422 16.5039 27.819 16.5039 26.9727V13.4961C16.5039 12.6497 16.9271 12.2266 17.7734 12.2266H31.8359C32.6823 12.2266 33.1055 12.6497 33.1055 13.4961V15.8008C33.1055 16.6471 32.6823 17.0703 31.8359 17.0703H21.9727V21.8555C21.9727 22.3763 21.9466 22.8971 21.8945 23.418H22.0117C22.7018 22.819 23.4701 22.4219 24.3164 22.2266C25.1628 22.0182 26.0677 21.9141 27.0312 21.9141C29.3099 21.9141 31.2305 22.6953 32.793 24.2578C34.3685 25.8073 35.1562 28.2096 35.1562 31.4648C35.1562 34.4596 34.1536 36.7448 32.1484 38.3203C30.1562 39.8828 27.7865 40.6641 25.0391 40.6641C22.7474 40.6641 20.7617 40.4167 19.082 39.9219C17.4154 39.4141 16.2956 38.7826 15.7227 38.0273Z" fill="#FF0000"/>
<path d="M234.277 311.973C234.707 312.546 234.766 313.04 234.453 313.457L233.086 315.332C232.539 316.087 231.875 316.107 231.094 315.391C230.625 314.961 229.902 314.57 228.926 314.219C227.949 313.88 226.973 313.711 225.996 313.711C224.512 313.711 223.262 314.128 222.246 314.961C221.217 315.794 220.703 317.012 220.703 318.613C220.703 320.137 221.029 321.367 221.68 322.305C222.331 323.242 223.118 323.711 224.043 323.711C224.837 323.711 225.566 323.646 226.23 323.516C226.895 323.398 227.585 323.027 228.301 322.402C228.796 321.973 229.395 321.758 230.098 321.758H232.227C233.073 321.758 233.496 322.181 233.496 323.027V336.504C233.496 337.35 233.073 337.773 232.227 337.773H218.164C217.318 337.773 216.895 337.35 216.895 336.504V334.199C216.895 333.353 217.318 332.93 218.164 332.93H228.027V328.145C228.027 327.624 228.053 327.103 228.105 326.582H227.988C227.298 327.181 226.53 327.578 225.684 327.773C224.837 327.982 223.932 328.086 222.969 328.086C220.69 328.086 218.77 327.305 217.207 325.742C215.632 324.193 214.844 321.79 214.844 318.535C214.844 315.54 215.846 313.255 217.852 311.68C219.844 310.117 222.214 309.336 224.961 309.336C227.253 309.336 229.238 309.583 230.918 310.078C232.585 310.586 233.704 311.217 234.277 311.973Z" fill="#FF0000"/>
<path d="M240 284.168C234.111 288.186 229.024 293.265 225 299.145C221.135 293.146 216.018 288.051 210 284.208C215.91 280.216 221.002 275.132 225 269.231C228.924 275.193 234.029 280.29 240 284.208V284.168Z" fill="#FE0000"/>
<path d="M10 64.8352C15.8889 60.817 20.9758 55.7377 25 49.8575C28.8651 55.8564 33.9817 60.9514 40 64.7944C34.0897 68.7868 28.9984 73.8706 25 79.7721C21.0762 73.8096 15.9714 68.7123 10 64.7944V64.8352Z" fill="#FE0000"/>
</svg>
