<svg width="250" height="350" viewBox="0 0 250 350" fill="none" xmlns="http://www.w3.org/2000/svg">
<rect width="250" height="350" rx="12.5" fill="white"/>
<path d="M209 260.724C200.167 266.752 192.536 274.371 186.5 283.191C180.702 274.193 173.028 266.55 164 260.786C172.865 254.797 180.502 247.171 186.5 238.319C192.386 247.263 200.043 254.909 209 260.786V260.724Z" fill="#FE0000"/>
<path d="M85 260.724C76.1667 266.752 68.5363 274.371 62.5 283.191C56.7023 274.193 49.0275 266.55 40 260.786C48.8654 254.797 56.5025 247.171 62.5 238.319C68.3857 247.263 76.0429 254.909 85 260.786V260.724Z" fill="#FE0000"/>
<path d="M40 89.2757C48.8333 83.2484 56.4637 75.6293 62.5 66.8091C68.2977 75.8075 75.9725 83.45 85 89.2144C76.1346 95.203 68.4975 102.829 62.5 111.681C56.6143 102.737 48.9571 95.0913 40 89.2144V89.2757Z" fill="#FE0000"/>
<path d="M164 89.2757C172.833 83.2484 180.464 75.6293 186.5 66.8091C192.298 75.8075 199.972 83.45 209 89.2144C200.135 95.203 192.498 102.829 186.5 111.681C180.614 102.737 172.957 95.0913 164 89.2144V89.2757Z" fill="#FE0000"/>
<path d="M102 130.159C110.833 124.132 118.464 116.513 124.5 107.692C130.298 116.691 137.972 124.333 147 130.098C138.135 136.086 130.498 143.712 124.5 152.564C118.614 143.62 110.957 135.975 102 130.098V130.159Z" fill="#FE0000"/>
<path d="M39 175.031C47.8333 169.003 55.4637 161.384 61.5 152.564C67.2977 161.562 74.9725 169.205 84 174.969C75.1346 180.958 67.4975 188.584 61.5 197.436C55.6143 188.492 47.9571 180.846 39 174.969V175.031Z" fill="#FE0000"/>
<path d="M164 175.031C172.833 169.003 180.464 161.384 186.5 152.564C192.298 161.562 199.972 169.205 209 174.969C200.135 180.958 192.498 188.584 186.5 197.436C180.614 188.492 172.957 180.846 164 174.969V175.031Z" fill="#FE0000"/>
<path d="M147 219.841C138.167 225.868 130.536 233.488 124.5 242.308C118.702 233.309 111.028 225.667 102 219.902C110.865 213.914 118.502 206.288 124.5 197.436C130.386 206.38 138.043 214.026 147 219.902V219.841Z" fill="#FE0000"/>
<path d="M14.9609 33.5167C14.9609 31.2771 15.6445 29.5388 17.0117 28.3018C18.3919 27.0518 19.5768 26.2901 20.5664 26.0167V25.919C19.4596 25.5674 18.3789 24.8773 17.3242 23.8487C16.2826 22.807 15.7617 21.4398 15.7617 19.7471C15.7617 17.7159 16.582 16.0102 18.2227 14.6299C19.8763 13.2497 22.1354 12.5596 25 12.5596C27.8646 12.5596 30.1172 13.2497 31.7578 14.6299C33.4115 16.0102 34.2383 17.7159 34.2383 19.7471C34.2383 21.4398 33.7109 22.807 32.6562 23.8487C31.6146 24.8773 30.5404 25.5674 29.4336 25.919V26.0167C30.4232 26.2901 31.6016 27.0518 32.9688 28.3018C34.349 29.5388 35.0391 31.2771 35.0391 33.5167C35.0391 35.9255 34.2513 37.8852 32.6758 39.3956C31.1133 40.906 28.5547 41.6612 25 41.6612C21.4453 41.6612 18.8802 40.906 17.3047 39.3956C15.7422 37.8852 14.9609 35.9255 14.9609 33.5167ZM20.8203 32.9307C20.8203 34.4021 21.1458 35.4958 21.7969 36.212C22.4479 36.9281 23.5156 37.2862 25 37.2862C26.4844 37.2862 27.5521 36.9281 28.2031 36.212C28.8542 35.4958 29.1797 34.4021 29.1797 32.9307C29.1797 31.8109 28.8216 30.7823 28.1055 29.8448C27.4023 28.8943 26.3672 28.419 25 28.419C23.6328 28.419 22.5911 28.8943 21.875 29.8448C21.1719 30.7823 20.8203 31.8109 20.8203 32.9307ZM21.4648 20.3331C21.4648 21.3747 21.7578 22.195 22.3438 22.794C22.9427 23.393 23.8281 23.6924 25 23.6924C26.1719 23.6924 27.0508 23.393 27.6367 22.794C28.2357 22.195 28.5352 21.3747 28.5352 20.3331C28.5352 19.2914 28.2227 18.4646 27.5977 17.8526C26.9857 17.2406 26.1198 16.9346 25 16.9346C23.8802 16.9346 23.0078 17.2406 22.3828 17.8526C21.7708 18.4646 21.4648 19.2914 21.4648 20.3331Z" fill="#FF0000"/>
<path d="M235.039 317.48C235.039 319.72 234.355 321.458 232.988 322.695C231.608 323.945 230.423 324.707 229.434 324.98V325.078C230.54 325.43 231.621 326.12 232.676 327.148C233.717 328.19 234.238 329.557 234.238 331.25C234.238 333.281 233.418 334.987 231.777 336.367C230.124 337.747 227.865 338.438 225 338.438C222.135 338.438 219.883 337.747 218.242 336.367C216.589 334.987 215.762 333.281 215.762 331.25C215.762 329.557 216.289 328.19 217.344 327.148C218.385 326.12 219.46 325.43 220.566 325.078V324.98C219.577 324.707 218.398 323.945 217.031 322.695C215.651 321.458 214.961 319.72 214.961 317.48C214.961 315.072 215.749 313.112 217.324 311.602C218.887 310.091 221.445 309.336 225 309.336C228.555 309.336 231.12 310.091 232.695 311.602C234.258 313.112 235.039 315.072 235.039 317.48ZM229.18 318.066C229.18 316.595 228.854 315.501 228.203 314.785C227.552 314.069 226.484 313.711 225 313.711C223.516 313.711 222.448 314.069 221.797 314.785C221.146 315.501 220.82 316.595 220.82 318.066C220.82 319.186 221.178 320.215 221.895 321.152C222.598 322.103 223.633 322.578 225 322.578C226.367 322.578 227.409 322.103 228.125 321.152C228.828 320.215 229.18 319.186 229.18 318.066ZM228.535 330.664C228.535 329.622 228.242 328.802 227.656 328.203C227.057 327.604 226.172 327.305 225 327.305C223.828 327.305 222.949 327.604 222.363 328.203C221.764 328.802 221.465 329.622 221.465 330.664C221.465 331.706 221.777 332.533 222.402 333.145C223.014 333.757 223.88 334.062 225 334.062C226.12 334.062 226.992 333.757 227.617 333.145C228.229 332.533 228.535 331.706 228.535 330.664Z" fill="#FF0000"/>
<path d="M240 285.165C234.111 289.183 229.024 294.262 225 300.142C221.135 294.144 216.018 289.049 210 285.206C215.91 281.213 221.002 276.129 225 270.228C228.924 276.19 234.029 281.288 240 285.206V285.165Z" fill="#FE0000"/>
<path d="M10 65.8324C15.8889 61.8142 20.9758 56.7348 25 50.8547C28.8651 56.8535 33.9817 61.9485 40 65.7915C34.0897 69.7839 28.9984 74.8677 25 80.7692C21.0762 74.8067 15.9714 69.7095 10 65.7915V65.8324Z" fill="#FE0000"/>
</svg>
