<svg width="250" height="350" viewBox="0 0 250 350" fill="none" xmlns="http://www.w3.org/2000/svg">
<rect width="250" height="350" rx="12.5" fill="white"/>
<path d="M210 259.727C201.167 265.754 193.536 273.374 187.5 282.194C181.702 273.195 174.028 265.553 165 259.788C173.865 253.8 181.502 246.174 187.5 237.322C193.386 246.266 201.043 253.912 210 259.788V259.727Z" fill="#FE0000"/>
<path d="M209 202.89C200.167 208.917 192.536 216.536 186.5 225.356C180.702 216.358 173.028 208.715 164 202.951C172.865 196.962 180.502 189.336 186.5 180.484C192.386 189.428 200.043 197.074 209 202.951V202.89Z" fill="#FE0000"/>
<path d="M164 146.113C172.833 140.086 180.464 132.467 186.5 123.647C192.298 132.645 199.972 140.288 209 146.052C200.135 152.041 192.498 159.666 186.5 168.519C180.614 159.575 172.957 151.929 164 146.052V146.113Z" fill="#FE0000"/>
<path d="M164 88.2785C172.833 82.2512 180.464 74.6322 186.5 65.812C192.298 74.8103 199.972 82.4528 209 88.2172C200.135 94.2058 192.498 101.832 186.5 110.684C180.614 101.74 172.957 94.0941 164 88.2172V88.2785Z" fill="#FE0000"/>
<path d="M102 130.159C110.833 124.132 118.464 116.513 124.5 107.692C130.298 116.691 137.972 124.333 147 130.098C138.135 136.086 130.498 143.712 124.5 152.564C118.614 143.62 110.957 135.975 102 130.098V130.159Z" fill="#FE0000"/>
<path d="M147 219.841C138.167 225.868 130.536 233.488 124.5 242.308C118.702 233.309 111.028 225.667 102 219.902C110.865 213.914 118.502 206.288 124.5 197.436C130.386 206.38 138.043 214.026 147 219.902V219.841Z" fill="#FE0000"/>
<path d="M85 260.724C76.1667 266.752 68.5363 274.371 62.5 283.191C56.7023 274.193 49.0275 266.55 40 260.786C48.8654 254.797 56.5025 247.171 62.5 238.319C68.3857 247.263 76.0429 254.909 85 260.786V260.724Z" fill="#FE0000"/>
<path d="M7.94922 18.7706C7.61068 18.1325 7.83854 17.6378 8.63281 17.2862C9.38802 16.9477 10.1758 16.4724 10.9961 15.8604C11.8164 15.2484 12.487 14.6169 13.0078 13.9659C13.5938 13.2367 14.1536 12.8721 14.6875 12.8721H17.793C18.5742 12.8721 18.9648 13.2628 18.9648 14.044V39.8253C18.9648 40.6065 18.5742 40.9971 17.793 40.9971H14.668C13.8867 40.9971 13.4961 40.6065 13.4961 39.8253V21.251C13.4961 20.7302 13.5221 20.2094 13.5742 19.6885H13.4961C13.0924 20.1964 12.6497 20.6325 12.168 20.9971C11.6862 21.3617 11.1979 21.6482 10.7031 21.8565C10.0911 22.1169 9.62891 21.9477 9.31641 21.3487L7.94922 18.7706ZM23.8672 27.1104C23.8672 21.837 24.6875 18.0935 26.3281 15.8799C27.9688 13.6664 30.4818 12.5596 33.8672 12.5596C37.2526 12.5596 39.7656 13.6664 41.4062 15.8799C43.0469 18.0935 43.8672 21.837 43.8672 27.1104C43.8672 32.3839 43.0469 36.1273 41.4062 38.3409C39.7656 40.5544 37.2526 41.6612 33.8672 41.6612C30.4818 41.6612 27.9688 40.5544 26.3281 38.3409C24.6875 36.1273 23.8672 32.3839 23.8672 27.1104ZM29.6484 27.1104C29.6484 29.5193 29.8438 31.837 30.2344 34.0635C30.638 36.2901 31.849 37.4034 33.8672 37.4034C35.8854 37.4034 37.0898 36.2901 37.4805 34.0635C37.8841 31.837 38.0859 29.5193 38.0859 27.1104C38.0859 24.7016 37.8841 22.3839 37.4805 20.1573C37.0898 17.9307 35.8854 16.8174 33.8672 16.8174C31.849 16.8174 30.638 17.9307 30.2344 20.1573C29.8438 22.3839 29.6484 24.7016 29.6484 27.1104Z" fill="#FF0000"/>
<path d="M244.051 331.229C244.389 331.867 244.161 332.362 243.367 332.714C242.612 333.052 241.824 333.528 241.004 334.14C240.184 334.752 239.513 335.383 238.992 336.034C238.406 336.763 237.846 337.128 237.312 337.128H234.207C233.426 337.128 233.035 336.737 233.035 335.956V310.175C233.035 309.393 233.426 309.003 234.207 309.003H237.332C238.113 309.003 238.504 309.393 238.504 310.175V328.749C238.504 329.27 238.478 329.791 238.426 330.311H238.504C238.908 329.804 239.35 329.367 239.832 329.003C240.314 328.638 240.802 328.352 241.297 328.143C241.909 327.883 242.371 328.052 242.684 328.651L244.051 331.229ZM228.133 322.89C228.133 328.163 227.312 331.906 225.672 334.12C224.031 336.334 221.518 337.44 218.133 337.44C214.747 337.44 212.234 336.334 210.594 334.12C208.953 331.906 208.133 328.163 208.133 322.89C208.133 317.616 208.953 313.873 210.594 311.659C212.234 309.446 214.747 308.339 218.133 308.339C221.518 308.339 224.031 309.446 225.672 311.659C227.312 313.873 228.133 317.616 228.133 322.89ZM222.352 322.89C222.352 320.481 222.156 318.163 221.766 315.936C221.362 313.71 220.151 312.597 218.133 312.597C216.115 312.597 214.91 313.71 214.52 315.936C214.116 318.163 213.914 320.481 213.914 322.89C213.914 325.298 214.116 327.616 214.52 329.843C214.91 332.069 216.115 333.182 218.133 333.182C220.151 333.182 221.362 332.069 221.766 329.843C222.156 327.616 222.352 325.298 222.352 322.89Z" fill="#FF0000"/>
<path d="M40 88.2785C48.8333 82.2512 56.4637 74.6322 62.5 65.812C68.2977 74.8103 75.9725 82.4528 85 88.2172C76.1346 94.2058 68.4975 101.832 62.5 110.684C56.6143 101.74 48.9571 94.0941 40 88.2172V88.2785Z" fill="#FE0000"/>
<path d="M40 145.116C48.8333 139.089 56.4637 131.47 62.5 122.65C68.2977 131.648 75.9725 139.29 85 145.055C76.1346 151.043 68.4975 158.669 62.5 167.521C56.6143 158.578 48.9571 150.932 40 145.055V145.116Z" fill="#FE0000"/>
<path d="M85 201.892C76.1667 207.92 68.5363 215.539 62.5 224.359C56.7023 215.361 49.0275 207.718 40 201.954C48.8654 195.965 56.5025 188.339 62.5 179.487C68.3857 188.431 76.0429 196.077 85 201.954V201.892Z" fill="#FE0000"/>
<path d="M240 284.168C234.111 288.186 229.024 293.265 225 299.145C221.135 293.146 216.018 288.051 210 284.208C215.91 280.216 221.002 275.132 225 269.231C228.924 275.193 234.029 280.29 240 284.208V284.168Z" fill="#FE0000"/>
<path d="M10 64.8352C15.8889 60.817 20.9758 55.7377 25 49.8575C28.8651 55.8564 33.9817 60.9514 40 64.7944C34.0897 68.7868 28.9984 73.8706 25 79.7721C21.0762 73.8096 15.9714 68.7123 10 64.7944V64.8352Z" fill="#FE0000"/>
</svg>
