<svg width="250" height="350" viewBox="0 0 250 350" fill="none" xmlns="http://www.w3.org/2000/svg">
<rect width="250" height="350" rx="12.5" fill="white"/>
<path d="M209 260.724C200.167 266.752 192.536 274.371 186.5 283.191C180.702 274.193 173.028 266.55 164 260.786C172.865 254.797 180.502 247.171 186.5 238.319C192.386 247.263 200.043 254.909 209 260.786V260.724Z" fill="#FE0000"/>
<path d="M164 89.2757C172.833 83.2484 180.464 75.6293 186.5 66.8091C192.298 75.8075 199.972 83.45 209 89.2144C200.135 95.203 192.498 102.829 186.5 111.681C180.614 102.737 172.957 95.0913 164 89.2144V89.2757Z" fill="#FE0000"/>
<path d="M40 175.031C48.8333 169.003 56.4637 161.384 62.5 152.564C68.2977 161.562 75.9725 169.205 85 174.969C76.1346 180.958 68.4975 188.584 62.5 197.436C56.6143 188.492 48.9571 180.846 40 174.969V175.031Z" fill="#FE0000"/>
<path d="M164 175.031C172.833 169.003 180.464 161.384 186.5 152.564C192.298 161.562 199.972 169.205 209 174.969C200.135 180.958 192.498 188.584 186.5 197.436C180.614 188.492 172.957 180.846 164 174.969V175.031Z" fill="#FE0000"/>
<path d="M85 260.724C76.1667 266.752 68.5363 274.371 62.5 283.191C56.7023 274.193 49.0275 266.55 40 260.786C48.8654 254.797 56.5025 247.171 62.5 238.319C68.3857 247.263 76.0429 254.909 85 260.786V260.724Z" fill="#FE0000"/>
<path d="M40 89.2757C48.8333 83.2484 56.4637 75.6293 62.5 66.8091C68.2977 75.8075 75.9725 83.45 85 89.2144C76.1346 95.203 68.4975 102.829 62.5 111.681C56.6143 102.737 48.9571 95.0913 40 89.2144V89.2757Z" fill="#FE0000"/>
<path d="M15 27.8917C15 22.0193 16.0482 17.9958 18.1445 15.8214C20.2539 13.6469 22.9102 12.5596 26.1133 12.5596C27.3633 12.5596 28.6068 12.7419 29.8438 13.1065C31.0807 13.4581 32.0312 13.9268 32.6953 14.5128C33.3203 15.0727 33.457 15.6195 33.1055 16.1534L31.8164 18.087C31.3997 18.725 30.7943 18.725 30 18.087C29.6094 17.7745 29.0365 17.5075 28.2812 17.2862C27.5391 17.0518 26.7578 16.9346 25.9375 16.9346C24.5703 16.9346 23.3138 17.5792 22.168 18.8682C21.0221 20.1443 20.4492 22.3187 20.4492 25.3917H20.5273C21.1133 24.5062 21.9271 23.8747 22.9688 23.4971C24.0104 23.1065 25.2799 22.9112 26.7773 22.9112C29.4987 22.9112 31.556 23.8096 32.9492 25.6065C34.3424 27.3904 35.0391 29.6039 35.0391 32.2471C35.0391 35.1117 34.2253 37.3969 32.5977 39.1026C30.9701 40.8083 28.4831 41.6612 25.1367 41.6612C21.569 41.6612 18.9844 40.4698 17.3828 38.087C15.7943 35.6911 15 32.2927 15 27.8917ZM21.4062 32.3448C21.4062 33.9333 21.7318 35.1573 22.3828 36.0167C23.0339 36.863 23.9844 37.2862 25.2344 37.2862C26.5625 37.2862 27.5521 36.9281 28.2031 36.212C28.8542 35.4958 29.1797 34.1612 29.1797 32.2081C29.1797 30.4893 28.8542 29.2393 28.2031 28.4581C27.5521 27.6768 26.6406 27.2862 25.4688 27.2862C24.1797 27.2862 23.1771 27.8135 22.4609 28.8682C21.7578 29.9229 21.4062 31.0818 21.4062 32.3448Z" fill="#FF0000"/>
<path d="M235 323.105C235 328.978 233.952 333.001 231.855 335.176C229.746 337.35 227.09 338.438 223.887 338.438C222.637 338.438 221.393 338.255 220.156 337.891C218.919 337.539 217.969 337.07 217.305 336.484C216.68 335.924 216.543 335.378 216.895 334.844L218.184 332.91C218.6 332.272 219.206 332.272 220 332.91C220.391 333.223 220.964 333.49 221.719 333.711C222.461 333.945 223.242 334.062 224.062 334.062C225.43 334.062 226.686 333.418 227.832 332.129C228.978 330.853 229.551 328.678 229.551 325.605H229.473C228.887 326.491 228.073 327.122 227.031 327.5C225.99 327.891 224.72 328.086 223.223 328.086C220.501 328.086 218.444 327.188 217.051 325.391C215.658 323.607 214.961 321.393 214.961 318.75C214.961 315.885 215.775 313.6 217.402 311.895C219.03 310.189 221.517 309.336 224.863 309.336C228.431 309.336 231.016 310.527 232.617 312.91C234.206 315.306 235 318.704 235 323.105ZM228.594 318.652C228.594 317.064 228.268 315.84 227.617 314.98C226.966 314.134 226.016 313.711 224.766 313.711C223.438 313.711 222.448 314.069 221.797 314.785C221.146 315.501 220.82 316.836 220.82 318.789C220.82 320.508 221.146 321.758 221.797 322.539C222.448 323.32 223.359 323.711 224.531 323.711C225.82 323.711 226.823 323.184 227.539 322.129C228.242 321.074 228.594 319.915 228.594 318.652Z" fill="#FF0000"/>
<path d="M240 285.165C234.111 289.183 229.024 294.262 225 300.142C221.135 294.144 216.018 289.049 210 285.206C215.91 281.213 221.002 276.129 225 270.228C228.924 276.19 234.029 281.288 240 285.206V285.165Z" fill="#FE0000"/>
<path d="M10 65.8324C15.8889 61.8142 20.9758 56.7348 25 50.8547C28.8651 56.8535 33.9817 61.9485 40 65.7915C34.0897 69.7839 28.9984 74.8677 25 80.7692C21.0762 74.8067 15.9714 69.7095 10 65.7915V65.8324Z" fill="#FE0000"/>
</svg>
