<svg width="250" height="350" viewBox="0 0 250 350" fill="none" xmlns="http://www.w3.org/2000/svg">
<rect width="250" height="350" rx="12.5" fill="white"/>
<path d="M209 260.724C200.167 266.752 192.536 274.371 186.5 283.191C180.702 274.193 173.028 266.55 164 260.786C172.865 254.797 180.502 247.171 186.5 238.319C192.386 247.263 200.043 254.909 209 260.786V260.724Z" fill="#FE0000"/>
<path d="M15.7617 33.9062C14.9154 33.9062 14.4922 33.4831 14.4922 32.6367V30.0586C14.4922 29.3164 14.6875 28.6719 15.0781 28.125L25.8984 12.8906C26.3802 12.2135 26.9857 11.875 27.7148 11.875H30.5859C31.4453 11.875 31.875 12.2982 31.875 13.1445V29.0625H34.2383C35.0846 29.0625 35.5078 29.4857 35.5078 30.332V32.6367C35.5078 33.4831 35.0911 33.9062 34.2578 33.9062H31.875V38.7305C31.875 39.5768 31.4518 40 30.6055 40H27.6758C26.8294 40 26.4062 39.5768 26.4062 38.7305V33.9062H15.7617ZM19.9414 29.0625H26.4062V21.5039C26.4062 20.9831 26.4323 20.4622 26.4844 19.9414H26.4062L19.9414 29.0625Z" fill="#FF0000"/>
<path d="M234.238 316.094C235.085 316.094 235.508 316.517 235.508 317.363V319.941C235.508 320.684 235.312 321.328 234.922 321.875L224.102 337.109C223.62 337.786 223.014 338.125 222.285 338.125H219.414C218.555 338.125 218.125 337.702 218.125 336.855V320.938H215.762C214.915 320.938 214.492 320.514 214.492 319.668V317.363C214.492 316.517 214.909 316.094 215.742 316.094H218.125V311.27C218.125 310.423 218.548 310 219.395 310H222.324C223.171 310 223.594 310.423 223.594 311.27V316.094H234.238ZM230.059 320.938H223.594V328.496C223.594 329.017 223.568 329.538 223.516 330.059H223.594L230.059 320.938Z" fill="#FF0000"/>
<path d="M40 89.2757C48.8333 83.2484 56.4637 75.6293 62.5 66.8091C68.2977 75.8075 75.9725 83.45 85 89.2144C76.1346 95.203 68.4975 102.829 62.5 111.681C56.6143 102.737 48.9571 95.0913 40 89.2144V89.2757Z" fill="#FE0000"/>
<path d="M164 89.2757C172.833 83.2484 180.464 75.6293 186.5 66.8091C192.298 75.8075 199.972 83.45 209 89.2144C200.135 95.203 192.498 102.829 186.5 111.681C180.614 102.737 172.957 95.0913 164 89.2144V89.2757Z" fill="#FE0000"/>
<path d="M85 260.724C76.1667 266.752 68.5363 274.371 62.5 283.191C56.7023 274.193 49.0275 266.55 40 260.786C48.8654 254.797 56.5025 247.171 62.5 238.319C68.3857 247.263 76.0429 254.909 85 260.786V260.724Z" fill="#FE0000"/>
<path d="M240 284.168C234.111 288.186 229.024 293.265 225 299.145C221.135 293.146 216.018 288.051 210 284.208C215.91 280.216 221.002 275.132 225 269.231C228.924 275.193 234.029 280.29 240 284.208V284.168Z" fill="#FE0000"/>
<path d="M10 64.8352C15.8889 60.817 20.9758 55.7377 25 49.8575C28.8651 55.8564 33.9817 60.9514 40 64.7944C34.0897 68.7868 28.9984 73.8706 25 79.7721C21.0762 73.8096 15.9714 68.7123 10 64.7944V64.8352Z" fill="#FE0000"/>
</svg>
