<svg width="250" height="350" viewBox="0 0 250 350" fill="none" xmlns="http://www.w3.org/2000/svg">
<rect width="250" height="350" rx="12.5" fill="white"/>
<path d="M240 284.168C234.111 288.186 229.024 293.265 225 299.145C221.135 293.146 216.018 288.051 210 284.208C215.91 280.216 221.002 275.132 225 269.231C228.924 275.193 234.029 280.29 240 284.208V284.168Z" fill="#FE0000"/>
<path d="M10 64.8352C15.8889 60.817 20.9758 55.7377 25 49.8575C28.8651 55.8564 33.9817 60.9514 40 64.7944C34.0897 68.7868 28.9984 73.8706 25 79.7721C21.0762 73.8096 15.9714 68.7123 10 64.7944V64.8352Z" fill="#FE0000"/>
<path d="M13.2461 40C12.3086 40 12.0026 39.5703 12.3281 38.7109L21.8984 13.5742C22.3021 12.5195 22.9141 11.9922 23.7344 11.9922H26.4688C27.2891 11.9922 27.901 12.5195 28.3047 13.5742L37.875 38.7109C38.2005 39.5703 37.8945 40 36.957 40H33.8516C32.9922 40 32.3932 39.5508 32.0547 38.6523L30.0625 33.3984H20.1406L18.1484 38.6523C17.8099 39.5508 17.2109 40 16.3516 40H13.2461ZM21.957 28.5547H28.2461L25.8438 22.3438C25.5573 21.6146 25.3815 21.0872 25.3164 20.7617C25.2643 20.4232 25.2057 19.9284 25.1406 19.2773H25.0625C24.9974 19.9284 24.9323 20.4232 24.8672 20.7617C24.8151 21.0872 24.6458 21.6146 24.3594 22.3438L21.957 28.5547Z" fill="#FF0000"/>
<path d="M236.754 309.003C237.691 309.003 237.997 309.433 237.672 310.292L228.102 335.429C227.698 336.483 227.086 337.011 226.266 337.011H223.531C222.711 337.011 222.099 336.483 221.695 335.429L212.125 310.292C211.799 309.433 212.105 309.003 213.043 309.003H216.148C217.008 309.003 217.607 309.452 217.945 310.351L219.938 315.604H229.859L231.852 310.351C232.19 309.452 232.789 309.003 233.648 309.003H236.754ZM228.043 320.448H221.754L224.156 326.659C224.443 327.388 224.618 327.916 224.684 328.241C224.736 328.58 224.794 329.075 224.859 329.726H224.938C225.003 329.075 225.068 328.58 225.133 328.241C225.185 327.916 225.354 327.388 225.641 326.659L228.043 320.448Z" fill="#FF0000"/>
<path d="M102 174.033C110.833 168.006 118.464 160.387 124.5 151.567C130.298 160.565 137.972 168.208 147 173.972C138.135 179.961 130.498 187.587 124.5 196.439C118.614 187.495 110.957 179.849 102 173.972V174.033Z" fill="#FE0000"/>
</svg>
