<svg width="250" height="350" viewBox="0 0 250 350" fill="none" xmlns="http://www.w3.org/2000/svg">
<rect width="250" height="350" rx="12.5" fill="white"/>
<path d="M209 260.469C200.167 266.514 192.536 274.155 186.5 283C180.702 273.976 173.028 266.312 164 260.531C172.865 254.525 180.502 246.877 186.5 238C192.386 246.969 200.043 254.637 209 260.531V260.469Z" fill="#FE0000"/>
<path d="M209 202.469C200.167 208.514 192.536 216.155 186.5 225C180.702 215.976 173.028 208.312 164 202.531C172.865 196.525 180.502 188.877 186.5 180C192.386 188.969 200.043 196.637 209 202.531V202.469Z" fill="#FE0000"/>
<path d="M164 88.5308C172.833 82.4863 180.464 74.8455 186.5 66.0001C192.298 75.0241 199.972 82.6884 209 88.4693C200.135 94.4751 192.498 102.123 186.5 111C180.614 102.031 172.957 94.3631 164 88.4693V88.5308Z" fill="#FE0000"/>
<path d="M164 144.531C172.833 138.486 180.464 130.845 186.5 122C192.298 131.024 199.972 138.688 209 144.469C200.135 150.475 192.498 158.123 186.5 167C180.614 158.031 172.957 150.363 164 144.469V144.531Z" fill="#FE0000"/>
<path d="M102 174.531C110.833 168.486 118.464 160.845 124.5 152C130.298 161.024 137.972 168.688 147 174.469C138.135 180.475 130.498 188.123 124.5 197C118.614 188.031 110.957 180.363 102 174.469V174.531Z" fill="#FE0000"/>
<path d="M85 260.469C76.1667 266.514 68.5363 274.155 62.5 283C56.7023 273.976 49.0275 266.312 40 260.531C48.8654 254.525 56.5025 246.877 62.5 238C68.3857 246.969 76.0429 254.637 85 260.531V260.469Z" fill="#FE0000"/>
<path d="M40 88.5308C48.8333 82.4863 56.4637 74.8455 62.5 66.0001C68.2977 75.0241 75.9725 82.6884 85 88.4693C76.1346 94.4751 68.4975 102.123 62.5 111C56.6143 102.031 48.9571 94.3631 40 88.4693V88.5308Z" fill="#FE0000"/>
<path d="M40 144.531C48.8333 138.486 56.4637 130.845 62.5 122C68.2977 131.024 75.9725 138.688 85 144.469C76.1346 150.475 68.4975 158.123 62.5 167C56.6143 158.031 48.9571 150.363 40 144.469V144.531Z" fill="#FE0000"/>
<path d="M85 202.469C76.1667 208.514 68.5363 216.155 62.5 225C56.7023 215.976 49.0275 208.312 40 202.531C48.8654 196.525 56.5025 188.877 62.5 180C68.3857 188.969 76.0429 196.637 85 202.531V202.469Z" fill="#FE0000"/>
<path d="M14.9609 20.9766C14.9609 18.112 15.7747 15.8268 17.4023 14.1211C19.0299 12.4154 21.5169 11.5625 24.8633 11.5625C28.431 11.5625 31.0091 12.7604 32.5977 15.1562C34.1992 17.5391 35 20.931 35 25.332C35 31.2044 33.9453 35.2279 31.8359 37.4023C29.7396 39.5768 27.0898 40.6641 23.8867 40.6641C22.6367 40.6641 21.3932 40.4818 20.1562 40.1172C18.9193 39.7656 17.9688 39.2969 17.3047 38.7109C16.6797 38.151 16.543 37.6042 16.8945 37.0703L18.1836 35.1367C18.6003 34.4987 19.2057 34.4987 20 35.1367C20.3906 35.4492 20.957 35.7227 21.6992 35.957C22.4544 36.1784 23.2422 36.2891 24.0625 36.2891C25.4297 36.2891 26.6862 35.651 27.832 34.375C28.9779 33.0859 29.5508 30.9049 29.5508 27.832H29.4727C28.8867 28.7174 28.0729 29.3555 27.0312 29.7461C25.9896 30.1237 24.7201 30.3125 23.2227 30.3125C20.5013 30.3125 18.444 29.4206 17.0508 27.6367C15.6576 25.8398 14.9609 23.6198 14.9609 20.9766ZM20.8203 21.0156C20.8203 22.7344 21.1458 23.9844 21.7969 24.7656C22.4479 25.5469 23.3594 25.9375 24.5312 25.9375C25.8203 25.9375 26.8164 25.4102 27.5195 24.3555C28.2357 23.3008 28.5938 22.1419 28.5938 20.8789C28.5938 19.2904 28.2682 18.0729 27.6172 17.2266C26.9661 16.3672 26.0156 15.9375 24.7656 15.9375C23.4375 15.9375 22.4479 16.2956 21.7969 17.0117C21.1458 17.7279 20.8203 19.0625 20.8203 21.0156Z" fill="#FF0000"/>
<path d="M237.039 329.023C237.039 331.888 236.225 334.173 234.598 335.879C232.97 337.585 230.483 338.438 227.137 338.438C223.569 338.438 220.991 337.24 219.402 334.844C217.801 332.461 217 329.069 217 324.668C217 318.796 218.055 314.772 220.164 312.598C222.26 310.423 224.91 309.336 228.113 309.336C229.363 309.336 230.607 309.518 231.844 309.883C233.081 310.234 234.031 310.703 234.695 311.289C235.32 311.849 235.457 312.396 235.105 312.93L233.816 314.863C233.4 315.501 232.794 315.501 232 314.863C231.609 314.551 231.043 314.277 230.301 314.043C229.546 313.822 228.758 313.711 227.938 313.711C226.57 313.711 225.314 314.349 224.168 315.625C223.022 316.914 222.449 319.095 222.449 322.168H222.527C223.113 321.283 223.927 320.645 224.969 320.254C226.01 319.876 227.28 319.688 228.777 319.688C231.499 319.688 233.556 320.579 234.949 322.363C236.342 324.16 237.039 326.38 237.039 329.023ZM231.18 328.984C231.18 327.266 230.854 326.016 230.203 325.234C229.552 324.453 228.641 324.062 227.469 324.062C226.18 324.062 225.184 324.59 224.48 325.645C223.764 326.699 223.406 327.858 223.406 329.121C223.406 330.71 223.732 331.927 224.383 332.773C225.034 333.633 225.984 334.062 227.234 334.062C228.562 334.062 229.552 333.704 230.203 332.988C230.854 332.272 231.18 330.938 231.18 328.984Z" fill="#FF0000"/>
<path d="M240 284.98C234.111 289.009 229.024 294.103 225 300C221.135 293.984 216.018 288.874 210 285.02C215.91 281.017 221.002 275.918 225 270C228.924 275.98 234.029 281.091 240 285.02V284.98Z" fill="#FE0000"/>
<path d="M10 65.0205C15.8889 60.9908 20.9758 55.8969 25 50C28.8651 56.016 33.9817 61.1256 40 64.9795C34.0897 68.9833 28.9984 74.0817 25 80C21.0762 74.0205 15.9714 68.9087 10 64.9795V65.0205Z" fill="#FE0000"/>
</svg>
