<svg width="250" height="350" viewBox="0 0 250 350" fill="none" xmlns="http://www.w3.org/2000/svg">
<rect width="250" height="350" rx="12.5" fill="white"/>
<path d="M102 174.033C110.833 168.006 118.464 160.387 124.5 151.567C130.298 160.565 137.972 168.208 147 173.972C138.135 179.961 130.498 187.587 124.5 196.439C118.614 187.495 110.957 179.849 102 173.972V174.033Z" fill="#FE0000"/>
<path d="M147 259.727C138.167 265.754 130.536 273.374 124.5 282.194C118.702 273.195 111.028 265.553 102 259.788C110.865 253.8 118.502 246.174 124.5 237.322C130.386 246.266 138.043 253.912 147 259.788V259.727Z" fill="#FE0000"/>
<path d="M15.8789 38.0078C15.3711 37.5781 15.332 36.9661 15.7617 36.1719L16.6602 34.5312C17.0898 33.737 17.7865 33.6784 18.75 34.3555C19.5573 34.9284 20.4688 35.3971 21.4844 35.7617C22.5 36.1133 23.6328 36.2891 24.8828 36.2891C26.6016 36.2891 27.832 35.8268 28.5742 34.9023C29.3164 33.9648 29.6875 32.9167 29.6875 31.7578C29.6875 30.5729 29.2448 29.5117 28.3594 28.5742C27.487 27.6237 26.25 27.1484 24.6484 27.1484H23.1445C22.2982 27.1484 21.875 26.8034 21.875 26.1133V23.9648C21.875 23.2487 22.2982 22.8906 23.1445 22.8906H24.3164C25.5143 22.8906 26.569 22.5195 27.4805 21.7773C28.4049 21.0352 28.8672 20.1042 28.8672 18.9844C28.8672 18.112 28.5612 17.3893 27.9492 16.8164C27.3503 16.2305 26.3672 15.9375 25 15.9375C23.7109 15.9375 22.5977 16.1263 21.6602 16.5039C20.7227 16.8815 19.9805 17.3372 19.4336 17.8711C18.6523 18.6393 17.9818 18.6068 17.4219 17.7734L16.2891 16.1133C15.8594 15.4883 15.9896 14.8503 16.6797 14.1992C17.6172 13.3008 18.8281 12.6367 20.3125 12.207C21.7969 11.7773 23.2487 11.5625 24.668 11.5625C28.0143 11.5625 30.5013 12.2331 32.1289 13.5742C33.7565 14.9023 34.5703 16.5299 34.5703 18.457C34.5703 19.8893 34.0104 21.1979 32.8906 22.3828C31.7708 23.5547 30.5859 24.362 29.3359 24.8047V24.8828C30.8203 25.2474 32.2266 26.0482 33.5547 27.2852C34.8828 28.5091 35.5469 30.0326 35.5469 31.8555C35.5469 34.707 34.6484 36.888 32.8516 38.3984C31.0547 39.9089 28.3138 40.6641 24.6289 40.6641C23.0794 40.6641 21.4714 40.4297 19.8047 39.9609C18.151 39.4792 16.8424 38.8281 15.8789 38.0078Z" fill="#FF0000"/>
<path d="M234.121 310.995C234.629 311.425 234.668 312.037 234.238 312.831L233.34 314.472C232.91 315.266 232.214 315.325 231.25 314.647C230.443 314.075 229.531 313.606 228.516 313.241C227.5 312.89 226.367 312.714 225.117 312.714C223.398 312.714 222.168 313.176 221.426 314.101C220.684 315.038 220.312 316.086 220.312 317.245C220.312 318.43 220.755 319.491 221.641 320.429C222.513 321.379 223.75 321.854 225.352 321.854H226.855C227.702 321.854 228.125 322.2 228.125 322.89V325.038C228.125 325.754 227.702 326.112 226.855 326.112H225.684C224.486 326.112 223.431 326.483 222.52 327.226C221.595 327.968 221.133 328.899 221.133 330.019C221.133 330.891 221.439 331.614 222.051 332.187C222.65 332.772 223.633 333.065 225 333.065C226.289 333.065 227.402 332.877 228.34 332.499C229.277 332.121 230.02 331.666 230.566 331.132C231.348 330.364 232.018 330.396 232.578 331.229L233.711 332.89C234.141 333.515 234.01 334.153 233.32 334.804C232.383 335.702 231.172 336.366 229.688 336.796C228.203 337.226 226.751 337.44 225.332 337.44C221.986 337.44 219.499 336.77 217.871 335.429C216.243 334.101 215.43 332.473 215.43 330.546C215.43 329.114 215.99 327.805 217.109 326.62C218.229 325.448 219.414 324.641 220.664 324.198V324.12C219.18 323.756 217.773 322.955 216.445 321.718C215.117 320.494 214.453 318.97 214.453 317.147C214.453 314.296 215.352 312.115 217.148 310.604C218.945 309.094 221.686 308.339 225.371 308.339C226.921 308.339 228.529 308.573 230.195 309.042C231.849 309.524 233.158 310.175 234.121 310.995Z" fill="#FF0000"/>
<path d="M102 88.2785C110.833 82.2513 118.464 74.6322 124.5 65.812C130.298 74.8103 137.972 82.4528 147 88.2173C138.135 94.2059 130.498 101.832 124.5 110.684C118.614 101.74 110.957 94.0942 102 88.2173V88.2785Z" fill="#FE0000"/>
<path d="M240 284.168C234.111 288.186 229.024 293.265 225 299.145C221.135 293.146 216.018 288.051 210 284.208C215.91 280.216 221.002 275.132 225 269.231C228.924 275.193 234.029 280.29 240 284.208V284.168Z" fill="#FE0000"/>
<path d="M10 64.8352C15.8889 60.817 20.9758 55.7377 25 49.8575C28.8651 55.8564 33.9817 60.9514 40 64.7944C34.0897 68.7868 28.9984 73.8706 25 79.7721C21.0762 73.8096 15.9714 68.7123 10 64.7944V64.8352Z" fill="#FE0000"/>
</svg>
