<svg width="250" height="350" viewBox="0 0 250 350" fill="none" xmlns="http://www.w3.org/2000/svg">
<rect width="250" height="350" rx="12.5" fill="white"/>
<path d="M102 88.2785C110.833 82.2513 118.464 74.6322 124.5 65.812C130.298 74.8103 137.972 82.4528 147 88.2173C138.135 94.2059 130.498 101.832 124.5 110.684C118.614 101.74 110.957 94.0942 102 88.2173V88.2785Z" fill="#FE0000"/>
<path d="M147 259.727C138.167 265.754 130.536 273.374 124.5 282.194C118.702 273.195 111.028 265.553 102 259.788C110.865 253.8 118.502 246.174 124.5 237.322C130.386 246.266 138.043 253.912 147 259.788V259.727Z" fill="#FE0000"/>
<path d="M16.4648 40C15.4883 40 15 39.5768 15 38.7305V37.793C15 37.1159 15.3125 36.4453 15.9375 35.7812L21.7773 29.6289C23.5352 27.7669 25.1432 26.1133 26.6016 24.668C28.0599 23.2096 28.7891 21.7383 28.7891 20.2539C28.7891 18.7695 28.418 17.6823 27.6758 16.9922C26.9466 16.2891 26.0156 15.9375 24.8828 15.9375C23.0859 15.9375 21.8359 16.3542 21.1328 17.1875C20.4297 18.0208 19.9219 18.9128 19.6094 19.8633C19.3099 20.7878 18.763 21.1198 17.9688 20.8594L15.9961 20.1953C15.3581 19.974 15.1758 19.362 15.4492 18.3594C15.957 16.4974 16.9922 14.9023 18.5547 13.5742C20.1172 12.2331 22.4349 11.5625 25.5078 11.5625C28.7109 11.5625 31.0352 12.3893 32.4805 14.043C33.9258 15.6836 34.6484 17.4674 34.6484 19.3945C34.6484 21.9206 33.5938 24.1406 31.4844 26.0547C29.375 27.9557 27.4609 29.8112 25.7422 31.6211L22.4219 35.1172V35.2344C23.2031 35.1823 23.8542 35.1562 24.375 35.1562H33.4961C34.4727 35.1562 34.9609 35.5794 34.9609 36.4258V38.7305C34.9609 39.5768 34.4727 40 33.4961 40H16.4648Z" fill="#FF0000"/>
<path d="M233.535 309.003C234.512 309.003 235 309.426 235 310.272V311.21C235 311.887 234.688 312.558 234.062 313.222L228.223 319.374C226.465 321.236 224.857 322.89 223.398 324.335C221.94 325.793 221.211 327.265 221.211 328.749C221.211 330.233 221.582 331.321 222.324 332.011C223.053 332.714 223.984 333.065 225.117 333.065C226.914 333.065 228.164 332.649 228.867 331.815C229.57 330.982 230.078 330.09 230.391 329.14C230.69 328.215 231.237 327.883 232.031 328.144L234.004 328.808C234.642 329.029 234.824 329.641 234.551 330.644C234.043 332.506 233.008 334.101 231.445 335.429C229.883 336.77 227.565 337.44 224.492 337.44C221.289 337.44 218.965 336.614 217.52 334.96C216.074 333.319 215.352 331.535 215.352 329.608C215.352 327.082 216.406 324.862 218.516 322.948C220.625 321.047 222.539 319.192 224.258 317.382L227.578 313.886V313.769C226.797 313.821 226.146 313.847 225.625 313.847H216.504C215.527 313.847 215.039 313.424 215.039 312.577V310.272C215.039 309.426 215.527 309.003 216.504 309.003H233.535Z" fill="#FF0000"/>
<path d="M240 284.168C234.111 288.186 229.024 293.265 225 299.145C221.135 293.146 216.018 288.051 210 284.208C215.91 280.216 221.002 275.132 225 269.231C228.924 275.193 234.029 280.29 240 284.208V284.168Z" fill="#FE0000"/>
<path d="M10 64.8352C15.8889 60.817 20.9758 55.7377 25 49.8575C28.8651 55.8564 33.9817 60.9514 40 64.7944C34.0897 68.7868 28.9984 73.8706 25 79.7721C21.0762 73.8096 15.9714 68.7123 10 64.7944V64.8352Z" fill="#FE0000"/>
</svg>
