<svg width="250" height="350" viewBox="0 0 250 350" fill="none" xmlns="http://www.w3.org/2000/svg">
<rect width="250" height="350" rx="12.5" fill="white"/>
<path d="M209 260.724C200.167 266.752 192.536 274.371 186.5 283.191C180.702 274.193 173.028 266.55 164 260.786C172.865 254.797 180.502 247.171 186.5 238.319C192.386 247.263 200.043 254.909 209 260.786V260.724Z" fill="#FE0000"/>
<path d="M40 89.2757C48.8333 83.2484 56.4637 75.6293 62.5 66.8091C68.2977 75.8075 75.9725 83.45 85 89.2144C76.1346 95.203 68.4975 102.829 62.5 111.681C56.6143 102.737 48.9571 95.0913 40 89.2144V89.2757Z" fill="#FE0000"/>
<path d="M164 89.2757C172.833 83.2484 180.464 75.6293 186.5 66.8091C192.298 75.8075 199.972 83.45 209 89.2144C200.135 95.203 192.498 102.829 186.5 111.681C180.614 102.737 172.957 95.0913 164 89.2144V89.2757Z" fill="#FE0000"/>
<path d="M102 130.159C110.833 124.132 118.464 116.513 124.5 107.692C130.298 116.691 137.972 124.333 147 130.098C138.135 136.086 130.498 143.712 124.5 152.564C118.614 143.62 110.957 135.975 102 130.098V130.159Z" fill="#FE0000"/>
<path d="M40 175.031C48.8333 169.003 56.4637 161.384 62.5 152.564C68.2977 161.562 75.9725 169.205 85 174.969C76.1346 180.958 68.4975 188.584 62.5 197.436C56.6143 188.492 48.9571 180.846 40 174.969V175.031Z" fill="#FE0000"/>
<path d="M164 175.031C172.833 169.003 180.464 161.384 186.5 152.564C192.298 161.562 199.972 169.205 209 174.969C200.135 180.958 192.498 188.584 186.5 197.436C180.614 188.492 172.957 180.846 164 174.969V175.031Z" fill="#FE0000"/>
<path d="M85 260.724C76.1667 266.752 68.5363 274.371 62.5 283.191C56.7023 274.193 49.0275 266.55 40 260.786C48.8654 254.797 56.5025 247.171 62.5 238.319C68.3857 247.263 76.0429 254.909 85 260.786V260.724Z" fill="#FE0000"/>
<path d="M17.0312 18.0674C16.1849 18.0674 15.7617 17.6443 15.7617 16.7979V14.4932C15.7617 13.6469 16.1849 13.2237 17.0312 13.2237H32.9688C33.8151 13.2237 34.2383 13.6469 34.2383 14.4932V16.7003C34.2383 17.3643 33.9128 18.0609 33.2617 18.7901C30.5924 21.7979 28.724 24.7992 27.6562 27.794C26.5885 30.7888 26.0547 34.4021 26.0547 38.6339V39.8448C26.0547 40.6911 25.6315 41.1143 24.7852 41.1143H21.8555C21.0091 41.1143 20.5859 40.6911 20.5859 39.8448V39.3174C20.5859 34.6169 21.3607 30.6651 22.9102 27.462C24.4727 24.2589 26.543 21.1273 29.1211 18.0674V17.9893C28.6003 18.0414 28.0794 18.0674 27.5586 18.0674H17.0312Z" fill="#FF0000"/>
<path d="M232.969 332.93C233.815 332.93 234.238 333.353 234.238 334.199V336.504C234.238 337.35 233.815 337.773 232.969 337.773H217.031C216.185 337.773 215.762 337.35 215.762 336.504V334.297C215.762 333.633 216.087 332.936 216.738 332.207C219.408 329.199 221.276 326.198 222.344 323.203C223.411 320.208 223.945 316.595 223.945 312.363V311.152C223.945 310.306 224.368 309.883 225.215 309.883H228.145C228.991 309.883 229.414 310.306 229.414 311.152V311.68C229.414 316.38 228.639 320.332 227.09 323.535C225.527 326.738 223.457 329.87 220.879 332.93V333.008C221.4 332.956 221.921 332.93 222.441 332.93H232.969Z" fill="#FF0000"/>
<path d="M240 285.165C234.111 289.183 229.024 294.262 225 300.142C221.135 294.144 216.018 289.049 210 285.206C215.91 281.213 221.002 276.129 225 270.228C228.924 276.19 234.029 281.288 240 285.206V285.165Z" fill="#FE0000"/>
<path d="M10 65.8324C15.8889 61.8142 20.9758 56.7348 25 50.8547C28.8651 56.8535 33.9817 61.9485 40 65.7915C34.0897 69.7839 28.9984 74.8677 25 80.7692C21.0762 74.8067 15.9714 69.7095 10 65.7915V65.8324Z" fill="#FE0000"/>
</svg>
