<svg width="250" height="350" viewBox="0 0 250 350" fill="none" xmlns="http://www.w3.org/2000/svg">
<rect width="250" height="350" rx="12.5" fill="white"/>
<path d="M124.549 73.7031C125.47 71.8284 126.696 70.1639 128.162 68.7953C129.712 67.3689 131.568 66.4222 133.545 66.0491C135.521 65.676 137.55 65.8895 139.431 66.6683C141.311 67.4472 142.978 68.7644 144.265 70.4893C145.552 72.2142 146.415 74.2868 146.769 76.5018C147.108 78.2776 147.074 80.1174 146.67 81.876C145.83 85.3033 143.057 88.7611 140.067 91.9247C138.64 93.4356 137.303 94.8958 135.93 96.2647C131.73 100.676 127.602 105.218 124.504 110.684C121.406 105.218 117.278 100.676 113.087 96.2647C111.741 94.8552 110.377 93.4356 108.941 91.9247C105.951 88.7611 103.169 85.3033 102.338 81.876C101.927 80.1189 101.89 78.2779 102.23 76.5018C102.577 74.2724 103.439 72.1845 104.731 70.4474C106.023 68.7102 107.699 67.3849 109.591 66.6043C111.483 65.8237 113.525 65.6152 115.511 65.9998C117.498 66.3843 119.359 67.3484 120.909 68.7953C122.376 70.1639 123.601 71.8284 124.522 73.7031H124.549Z" fill="#FE0000"/>
<path d="M124.451 274.303C123.53 276.177 122.304 277.842 120.838 279.21C119.288 280.637 117.432 281.584 115.455 281.957C113.479 282.33 111.45 282.116 109.569 281.337C107.689 280.559 106.022 279.241 104.735 277.516C103.448 275.792 102.585 273.719 102.231 271.504C101.892 269.728 101.926 267.888 102.33 266.13C103.17 262.702 105.943 259.245 108.933 256.081C110.36 254.57 111.697 253.11 113.07 251.741C117.27 247.33 121.398 242.787 124.496 237.322C127.594 242.787 131.722 247.33 135.913 251.741C137.259 253.151 138.623 254.57 140.059 256.081C143.049 259.245 145.831 262.702 146.662 266.13C147.073 267.887 147.11 269.728 146.77 271.504C146.423 273.733 145.561 275.821 144.269 277.558C142.977 279.295 141.301 280.621 139.409 281.401C137.517 282.182 135.475 282.391 133.489 282.006C131.502 281.621 129.641 280.657 128.091 279.21C126.624 277.842 125.399 276.177 124.478 274.303H124.451Z" fill="#FE0000"/>
<path d="M16.4648 40C15.4883 40 15 39.5768 15 38.7305V37.793C15 37.1159 15.3125 36.4453 15.9375 35.7812L21.7773 29.6289C23.5352 27.7669 25.1432 26.1133 26.6016 24.668C28.0599 23.2096 28.7891 21.7383 28.7891 20.2539C28.7891 18.7695 28.418 17.6823 27.6758 16.9922C26.9466 16.2891 26.0156 15.9375 24.8828 15.9375C23.0859 15.9375 21.8359 16.3542 21.1328 17.1875C20.4297 18.0208 19.9219 18.9128 19.6094 19.8633C19.3099 20.7878 18.763 21.1198 17.9688 20.8594L15.9961 20.1953C15.3581 19.974 15.1758 19.362 15.4492 18.3594C15.957 16.4974 16.9922 14.9023 18.5547 13.5742C20.1172 12.2331 22.4349 11.5625 25.5078 11.5625C28.7109 11.5625 31.0352 12.3893 32.4805 14.043C33.9258 15.6836 34.6484 17.4674 34.6484 19.3945C34.6484 21.9206 33.5938 24.1406 31.4844 26.0547C29.375 27.9557 27.4609 29.8112 25.7422 31.6211L22.4219 35.1172V35.2344C23.2031 35.1823 23.8542 35.1562 24.375 35.1562H33.4961C34.4727 35.1562 34.9609 35.5794 34.9609 36.4258V38.7305C34.9609 39.5768 34.4727 40 33.4961 40H16.4648Z" fill="#FF0000"/>
<path d="M233.535 309.003C234.512 309.003 235 309.426 235 310.272V311.21C235 311.887 234.688 312.558 234.062 313.222L228.223 319.374C226.465 321.236 224.857 322.89 223.398 324.335C221.94 325.793 221.211 327.265 221.211 328.749C221.211 330.233 221.582 331.321 222.324 332.011C223.053 332.714 223.984 333.065 225.117 333.065C226.914 333.065 228.164 332.649 228.867 331.815C229.57 330.982 230.078 330.09 230.391 329.14C230.69 328.215 231.237 327.883 232.031 328.144L234.004 328.808C234.642 329.029 234.824 329.641 234.551 330.644C234.043 332.506 233.008 334.101 231.445 335.429C229.883 336.77 227.565 337.44 224.492 337.44C221.289 337.44 218.965 336.614 217.52 334.96C216.074 333.319 215.352 331.535 215.352 329.608C215.352 327.082 216.406 324.862 218.516 322.948C220.625 321.047 222.539 319.192 224.258 317.382L227.578 313.886V313.769C226.797 313.821 226.146 313.847 225.625 313.847H216.504C215.527 313.847 215.039 313.424 215.039 312.577V310.272C215.039 309.426 215.527 309.003 216.504 309.003H233.535Z" fill="#FF0000"/>
<path d="M224.967 293.885C224.353 295.134 223.536 296.244 222.559 297.156C221.525 298.107 220.288 298.738 218.97 298.987C217.653 299.236 216.3 299.094 215.046 298.574C213.792 298.055 212.681 297.177 211.823 296.027C210.965 294.877 210.39 293.495 210.154 292.019C209.928 290.835 209.951 289.608 210.22 288.436C210.78 286.151 212.629 283.846 214.622 281.737C215.573 280.73 216.465 279.756 217.38 278.843C220.18 275.903 222.932 272.874 224.997 269.231C227.063 272.874 229.815 275.903 232.609 278.843C233.506 279.783 234.415 280.73 235.373 281.737C237.366 283.846 239.22 286.151 239.774 288.436C240.048 289.607 240.073 290.835 239.847 292.019C239.616 293.505 239.041 294.897 238.179 296.055C237.318 297.213 236.201 298.097 234.939 298.617C233.678 299.137 232.317 299.276 230.993 299.02C229.668 298.764 228.427 298.121 227.394 297.156C226.416 296.244 225.599 295.134 224.985 293.885H224.967Z" fill="#FE0000"/>
<path d="M25.0328 55.1183C25.6469 53.8685 26.4638 52.7588 27.4415 51.8464C28.475 50.8955 29.7119 50.2644 31.0297 50.0156C32.3475 49.7669 33.7003 49.9092 34.954 50.4284C36.2076 50.9477 37.3186 51.8258 38.1768 52.9757C39.0349 54.1257 39.6103 55.5074 39.846 56.984C40.0717 58.1679 40.049 59.3945 39.7798 60.5669C39.2198 62.8517 37.3712 65.1569 35.378 67.266C34.4266 68.2733 33.5354 69.2467 32.6201 70.1593C29.82 73.0999 27.0681 76.1284 25.0027 79.7721C22.9373 76.1284 20.1854 73.0999 17.3914 70.1593C16.4942 69.2197 15.5849 68.2733 14.6275 67.266C12.6343 65.1569 10.7796 62.8517 10.2256 60.5669C9.95155 59.3955 9.9268 58.1681 10.1534 56.984C10.3844 55.4978 10.9593 54.1059 11.8206 52.9478C12.6819 51.7897 13.7993 50.9061 15.0606 50.3857C16.322 49.8653 17.6831 49.7263 19.0075 49.9827C20.3318 50.2391 21.5728 50.8818 22.6061 51.8464C23.5838 52.7588 24.4008 53.8685 25.0148 55.1183H25.0328Z" fill="#FE0000"/>
</svg>
