<svg width="250" height="350" viewBox="0 0 250 350" fill="none" xmlns="http://www.w3.org/2000/svg">
<rect width="250" height="350" rx="12.5" fill="white"/>
<path d="M186.451 275.3C185.53 277.174 184.304 278.839 182.838 280.208C181.288 281.634 179.432 282.581 177.455 282.954C175.479 283.327 173.45 283.113 171.569 282.335C169.689 281.556 168.022 280.239 166.735 278.514C165.448 276.789 164.585 274.716 164.231 272.501C163.892 270.725 163.926 268.885 164.33 267.127C165.17 263.7 167.943 260.242 170.933 257.078C172.36 255.567 173.697 254.107 175.07 252.738C179.27 248.327 183.398 243.785 186.496 238.319C189.594 243.785 193.722 248.327 197.913 252.738C199.259 254.148 200.623 255.567 202.059 257.078C205.049 260.242 207.831 263.7 208.662 267.127C209.073 268.884 209.11 270.725 208.77 272.501C208.423 274.731 207.561 276.818 206.269 278.556C204.977 280.293 203.301 281.618 201.409 282.399C199.517 283.179 197.475 283.388 195.489 283.003C193.502 282.619 191.641 281.655 190.091 280.208C188.624 278.839 187.399 277.174 186.478 275.3H186.451Z" fill="#FE0000"/>
<path d="M15.7617 33.9062C14.9154 33.9062 14.4922 33.4831 14.4922 32.6367V30.0586C14.4922 29.3164 14.6875 28.6719 15.0781 28.125L25.8984 12.8906C26.3802 12.2135 26.9857 11.875 27.7148 11.875H30.5859C31.4453 11.875 31.875 12.2982 31.875 13.1445V29.0625H34.2383C35.0846 29.0625 35.5078 29.4857 35.5078 30.332V32.6367C35.5078 33.4831 35.0911 33.9062 34.2578 33.9062H31.875V38.7305C31.875 39.5768 31.4518 40 30.6055 40H27.6758C26.8294 40 26.4062 39.5768 26.4062 38.7305V33.9062H15.7617ZM19.9414 29.0625H26.4062V21.5039C26.4062 20.9831 26.4323 20.4622 26.4844 19.9414H26.4062L19.9414 29.0625Z" fill="#FF0000"/>
<path d="M234.238 316.094C235.085 316.094 235.508 316.517 235.508 317.363V319.941C235.508 320.684 235.312 321.328 234.922 321.875L224.102 337.109C223.62 337.786 223.014 338.125 222.285 338.125H219.414C218.555 338.125 218.125 337.702 218.125 336.855V320.938H215.762C214.915 320.938 214.492 320.514 214.492 319.668V317.363C214.492 316.517 214.909 316.094 215.742 316.094H218.125V311.27C218.125 310.423 218.548 310 219.395 310H222.324C223.171 310 223.594 310.423 223.594 311.27V316.094H234.238ZM230.059 320.938H223.594V328.496C223.594 329.017 223.568 329.538 223.516 330.059H223.594L230.059 320.938Z" fill="#FF0000"/>
<path d="M62.5493 74.7002C63.4703 72.8255 64.6957 71.1609 66.1622 69.7924C67.7125 68.366 69.5679 67.4193 71.5446 67.0462C73.5212 66.6731 75.5504 66.8866 77.4309 67.6654C79.3115 68.4443 80.9779 69.7615 82.2651 71.4863C83.5523 73.2112 84.4155 75.2839 84.7691 77.4988C85.1075 79.2747 85.0735 81.1145 84.6697 82.873C83.8297 86.3004 81.0567 89.7581 78.067 92.9218C76.6399 94.4327 75.3031 95.8928 73.9301 97.2617C69.73 101.673 65.6022 106.215 62.5041 111.681C59.406 106.215 55.2781 101.673 51.0871 97.2617C49.7412 95.8523 48.3773 94.4327 46.9412 92.9218C43.9514 89.7581 41.1695 86.3004 40.3385 82.873C39.9273 81.116 39.8902 79.275 40.2301 77.4988C40.5765 75.2695 41.439 73.1816 42.7309 71.4445C44.0228 69.7073 45.6989 68.382 47.591 67.6014C49.4831 66.8207 51.5247 66.6123 53.5112 66.9968C55.4977 67.3814 57.3592 68.3455 58.9092 69.7924C60.3757 71.1609 61.6011 72.8255 62.5222 74.7002H62.5493Z" fill="#FE0000"/>
<path d="M186.549 74.7002C187.47 72.8255 188.696 71.1609 190.162 69.7924C191.712 68.366 193.568 67.4193 195.545 67.0462C197.521 66.6731 199.55 66.8866 201.431 67.6654C203.311 68.4443 204.978 69.7615 206.265 71.4863C207.552 73.2112 208.415 75.2839 208.769 77.4988C209.108 79.2747 209.074 81.1145 208.67 82.873C207.83 86.3004 205.057 89.7581 202.067 92.9218C200.64 94.4327 199.303 95.8928 197.93 97.2617C193.73 101.673 189.602 106.215 186.504 111.681C183.406 106.215 179.278 101.673 175.087 97.2617C173.741 95.8523 172.377 94.4327 170.941 92.9218C167.951 89.7581 165.169 86.3004 164.338 82.873C163.927 81.116 163.89 79.275 164.23 77.4988C164.577 75.2695 165.439 73.1816 166.731 71.4445C168.023 69.7073 169.699 68.382 171.591 67.6014C173.483 66.8207 175.525 66.6123 177.511 66.9968C179.498 67.3814 181.359 68.3455 182.909 69.7924C184.376 71.1609 185.601 72.8255 186.522 74.7002H186.549Z" fill="#FE0000"/>
<path d="M62.4507 275.3C61.5297 277.174 60.3043 278.839 58.8378 280.208C57.2875 281.634 55.4321 282.581 53.4554 282.954C51.4788 283.327 49.4496 283.113 47.5691 282.335C45.6885 281.556 44.0221 280.239 42.7349 278.514C41.4477 276.789 40.5845 274.716 40.2309 272.501C39.8925 270.725 39.9265 268.885 40.3303 267.127C41.1703 263.7 43.9433 260.242 46.933 257.078C48.3601 255.567 49.6969 254.107 51.0699 252.738C55.27 248.327 59.3978 243.785 62.4959 238.319C65.594 243.785 69.7219 248.327 73.9129 252.738C75.2588 254.148 76.6227 255.567 78.0588 257.078C81.0486 260.242 83.8305 263.7 84.6615 267.127C85.0727 268.884 85.1098 270.725 84.7699 272.501C84.4235 274.731 83.561 276.818 82.2691 278.556C80.9772 280.293 79.3011 281.618 77.409 282.399C75.5169 283.179 73.4753 283.388 71.4888 283.003C69.5023 282.619 67.6408 281.655 66.0908 280.208C64.6243 278.839 63.3989 277.174 62.4778 275.3H62.4507Z" fill="#FE0000"/>
<path d="M224.967 293.885C224.353 295.134 223.536 296.244 222.559 297.156C221.525 298.107 220.288 298.738 218.97 298.987C217.653 299.236 216.3 299.094 215.046 298.574C213.792 298.055 212.681 297.177 211.823 296.027C210.965 294.877 210.39 293.495 210.154 292.019C209.928 290.835 209.951 289.608 210.22 288.436C210.78 286.151 212.629 283.846 214.622 281.737C215.573 280.73 216.465 279.756 217.38 278.843C220.18 275.903 222.932 272.874 224.997 269.231C227.063 272.874 229.815 275.903 232.609 278.843C233.506 279.783 234.415 280.73 235.373 281.737C237.366 283.846 239.22 286.151 239.774 288.436C240.048 289.607 240.073 290.835 239.847 292.019C239.616 293.505 239.041 294.897 238.179 296.055C237.318 297.213 236.201 298.097 234.939 298.617C233.678 299.137 232.317 299.276 230.993 299.02C229.668 298.764 228.427 298.121 227.394 297.156C226.416 296.244 225.599 295.134 224.985 293.885H224.967Z" fill="#FE0000"/>
<path d="M25.0328 55.1183C25.6469 53.8685 26.4638 52.7588 27.4415 51.8464C28.475 50.8955 29.7119 50.2644 31.0297 50.0156C32.3475 49.7669 33.7003 49.9092 34.954 50.4284C36.2076 50.9477 37.3186 51.8258 38.1768 52.9757C39.0349 54.1257 39.6103 55.5074 39.846 56.984C40.0717 58.1679 40.049 59.3945 39.7798 60.5669C39.2198 62.8517 37.3712 65.1569 35.378 67.266C34.4266 68.2733 33.5354 69.2467 32.6201 70.1593C29.82 73.0999 27.0681 76.1284 25.0027 79.7721C22.9373 76.1284 20.1854 73.0999 17.3914 70.1593C16.4942 69.2197 15.5849 68.2733 14.6275 67.266C12.6343 65.1569 10.7796 62.8517 10.2256 60.5669C9.95155 59.3955 9.9268 58.1681 10.1534 56.984C10.3844 55.4978 10.9593 54.1059 11.8206 52.9478C12.6819 51.7897 13.7993 50.9061 15.0606 50.3857C16.322 49.8653 17.6831 49.7263 19.0075 49.9827C20.3318 50.2391 21.5728 50.8818 22.6061 51.8464C23.5838 52.7588 24.4008 53.8685 25.0148 55.1183H25.0328Z" fill="#FE0000"/>
</svg>
