<svg width="250" height="350" viewBox="0 0 250 350" fill="none" xmlns="http://www.w3.org/2000/svg">
<rect width="250" height="350" rx="12.5" fill="white"/>
<path d="M186.451 275.3C185.53 277.174 184.304 278.839 182.838 280.208C181.288 281.634 179.432 282.581 177.455 282.954C175.479 283.327 173.45 283.113 171.569 282.335C169.689 281.556 168.022 280.239 166.735 278.514C165.448 276.789 164.585 274.716 164.231 272.501C163.892 270.725 163.926 268.885 164.33 267.127C165.17 263.7 167.943 260.242 170.933 257.078C172.36 255.567 173.697 254.107 175.07 252.738C179.27 248.327 183.398 243.785 186.496 238.319C189.594 243.785 193.722 248.327 197.913 252.738C199.259 254.148 200.623 255.567 202.059 257.078C205.049 260.242 207.831 263.7 208.662 267.127C209.073 268.884 209.11 270.725 208.77 272.501C208.423 274.731 207.561 276.818 206.269 278.556C204.977 280.293 203.301 281.618 201.409 282.399C199.517 283.179 197.475 283.388 195.489 283.003C193.502 282.619 191.641 281.655 190.091 280.208C188.624 278.839 187.399 277.174 186.478 275.3H186.451Z" fill="#FE0000"/>
<path d="M62.5493 74.7002C63.4703 72.8255 64.6957 71.1609 66.1622 69.7924C67.7125 68.366 69.5679 67.4193 71.5446 67.0462C73.5212 66.6731 75.5504 66.8866 77.4309 67.6654C79.3115 68.4443 80.9779 69.7615 82.2651 71.4863C83.5523 73.2112 84.4155 75.2839 84.7691 77.4988C85.1075 79.2747 85.0735 81.1145 84.6697 82.873C83.8297 86.3004 81.0567 89.7581 78.067 92.9218C76.6399 94.4327 75.3031 95.8928 73.9301 97.2617C69.73 101.673 65.6022 106.215 62.5041 111.681C59.406 106.215 55.2781 101.673 51.0871 97.2617C49.7412 95.8523 48.3773 94.4327 46.9412 92.9218C43.9514 89.7581 41.1695 86.3004 40.3385 82.873C39.9273 81.116 39.8902 79.275 40.2301 77.4988C40.5765 75.2695 41.439 73.1816 42.7309 71.4445C44.0228 69.7073 45.6989 68.382 47.591 67.6014C49.4831 66.8207 51.5247 66.6123 53.5112 66.9968C55.4977 67.3814 57.3592 68.3455 58.9092 69.7924C60.3757 71.1609 61.6011 72.8255 62.5222 74.7002H62.5493Z" fill="#FE0000"/>
<path d="M187.549 74.7002C188.47 72.8255 189.696 71.1609 191.162 69.7924C192.712 68.366 194.568 67.4193 196.545 67.0462C198.521 66.6731 200.55 66.8866 202.431 67.6654C204.311 68.4443 205.978 69.7615 207.265 71.4863C208.552 73.2112 209.415 75.2839 209.769 77.4988C210.108 79.2747 210.074 81.1145 209.67 82.873C208.83 86.3004 206.057 89.7581 203.067 92.9218C201.64 94.4327 200.303 95.8928 198.93 97.2617C194.73 101.673 190.602 106.215 187.504 111.681C184.406 106.215 180.278 101.673 176.087 97.2617C174.741 95.8523 173.377 94.4327 171.941 92.9218C168.951 89.7581 166.169 86.3004 165.338 82.873C164.927 81.116 164.89 79.275 165.23 77.4988C165.577 75.2695 166.439 73.1816 167.731 71.4445C169.023 69.7073 170.699 68.382 172.591 67.6014C174.483 66.8207 176.525 66.6123 178.511 66.9968C180.498 67.3814 182.359 68.3455 183.909 69.7924C185.376 71.1609 186.601 72.8255 187.522 74.7002H187.549Z" fill="#FE0000"/>
<path d="M124.549 160.455C125.47 158.581 126.696 156.916 128.162 155.547C129.712 154.121 131.568 153.174 133.545 152.801C135.521 152.428 137.55 152.642 139.431 153.42C141.311 154.199 142.978 155.516 144.265 157.241C145.552 158.966 146.415 161.039 146.769 163.254C147.108 165.03 147.074 166.87 146.67 168.628C145.83 172.055 143.057 175.513 140.067 178.677C138.64 180.188 137.303 181.648 135.93 183.017C131.73 187.428 127.602 191.97 124.504 197.436C121.406 191.97 117.278 187.428 113.087 183.017C111.741 181.607 110.377 180.188 108.941 178.677C105.951 175.513 103.169 172.055 102.338 168.628C101.927 166.871 101.89 165.03 102.23 163.254C102.577 161.024 103.439 158.937 104.731 157.199C106.023 155.462 107.699 154.137 109.591 153.356C111.483 152.576 113.525 152.367 115.511 152.752C117.498 153.136 119.359 154.1 120.909 155.547C122.376 156.916 123.601 158.581 124.522 160.455H124.549Z" fill="#FE0000"/>
<path d="M62.4507 275.3C61.5297 277.174 60.3043 278.839 58.8378 280.208C57.2875 281.634 55.4321 282.581 53.4554 282.954C51.4788 283.327 49.4496 283.113 47.5691 282.335C45.6885 281.556 44.0221 280.239 42.7349 278.514C41.4477 276.789 40.5845 274.716 40.2309 272.501C39.8925 270.725 39.9265 268.885 40.3303 267.127C41.1703 263.7 43.9433 260.242 46.933 257.078C48.3601 255.567 49.6969 254.107 51.0699 252.738C55.27 248.327 59.3978 243.785 62.4959 238.319C65.594 243.785 69.7219 248.327 73.9129 252.738C75.2588 254.148 76.6227 255.567 78.0588 257.078C81.0486 260.242 83.8305 263.7 84.6615 267.127C85.0727 268.884 85.1098 270.725 84.7699 272.501C84.4235 274.731 83.561 276.818 82.2691 278.556C80.9772 280.293 79.3011 281.618 77.409 282.399C75.5169 283.179 73.4753 283.388 71.4888 283.003C69.5023 282.619 67.6408 281.655 66.0908 280.208C64.6243 278.839 63.3989 277.174 62.4778 275.3H62.4507Z" fill="#FE0000"/>
<path d="M15.7227 38.0273C15.293 37.4544 15.2344 36.9596 15.5469 36.543L16.9141 34.668C17.4609 33.9128 18.125 33.8932 18.9062 34.6094C19.375 35.0391 20.0977 35.4297 21.0742 35.7812C22.0508 36.1198 23.0273 36.2891 24.0039 36.2891C25.4883 36.2891 26.7383 35.8724 27.7539 35.0391C28.7826 34.2057 29.2969 32.9883 29.2969 31.3867C29.2969 29.8633 28.9714 28.6328 28.3203 27.6953C27.6693 26.7578 26.8815 26.2891 25.957 26.2891C25.1628 26.2891 24.4336 26.3542 23.7695 26.4844C23.1055 26.6016 22.4154 26.9727 21.6992 27.5977C21.2044 28.0273 20.6055 28.2422 19.9023 28.2422H17.7734C16.9271 28.2422 16.5039 27.819 16.5039 26.9727V13.4961C16.5039 12.6497 16.9271 12.2266 17.7734 12.2266H31.8359C32.6823 12.2266 33.1055 12.6497 33.1055 13.4961V15.8008C33.1055 16.6471 32.6823 17.0703 31.8359 17.0703H21.9727V21.8555C21.9727 22.3763 21.9466 22.8971 21.8945 23.418H22.0117C22.7018 22.819 23.4701 22.4219 24.3164 22.2266C25.1628 22.0182 26.0677 21.9141 27.0312 21.9141C29.3099 21.9141 31.2305 22.6953 32.793 24.2578C34.3685 25.8073 35.1562 28.2096 35.1562 31.4648C35.1562 34.4596 34.1536 36.7448 32.1484 38.3203C30.1562 39.8828 27.7865 40.6641 25.0391 40.6641C22.7474 40.6641 20.7617 40.4167 19.082 39.9219C17.4154 39.4141 16.2956 38.7826 15.7227 38.0273Z" fill="#FF0000"/>
<path d="M234.277 311.973C234.707 312.546 234.766 313.04 234.453 313.457L233.086 315.332C232.539 316.087 231.875 316.107 231.094 315.391C230.625 314.961 229.902 314.57 228.926 314.219C227.949 313.88 226.973 313.711 225.996 313.711C224.512 313.711 223.262 314.128 222.246 314.961C221.217 315.794 220.703 317.012 220.703 318.613C220.703 320.137 221.029 321.367 221.68 322.305C222.331 323.242 223.118 323.711 224.043 323.711C224.837 323.711 225.566 323.646 226.23 323.516C226.895 323.398 227.585 323.027 228.301 322.402C228.796 321.973 229.395 321.758 230.098 321.758H232.227C233.073 321.758 233.496 322.181 233.496 323.027V336.504C233.496 337.35 233.073 337.773 232.227 337.773H218.164C217.318 337.773 216.895 337.35 216.895 336.504V334.199C216.895 333.353 217.318 332.93 218.164 332.93H228.027V328.145C228.027 327.624 228.053 327.103 228.105 326.582H227.988C227.298 327.181 226.53 327.578 225.684 327.773C224.837 327.982 223.932 328.086 222.969 328.086C220.69 328.086 218.77 327.305 217.207 325.742C215.632 324.193 214.844 321.79 214.844 318.535C214.844 315.54 215.846 313.255 217.852 311.68C219.844 310.117 222.214 309.336 224.961 309.336C227.253 309.336 229.238 309.583 230.918 310.078C232.585 310.586 233.704 311.217 234.277 311.973Z" fill="#FF0000"/>
<path d="M224.967 293.885C224.353 295.134 223.536 296.244 222.559 297.156C221.525 298.107 220.288 298.738 218.97 298.987C217.653 299.236 216.3 299.094 215.046 298.574C213.792 298.055 212.681 297.177 211.823 296.027C210.965 294.877 210.39 293.495 210.154 292.019C209.928 290.835 209.951 289.608 210.22 288.436C210.78 286.151 212.629 283.846 214.622 281.737C215.573 280.73 216.465 279.756 217.38 278.843C220.18 275.903 222.932 272.874 224.997 269.231C227.063 272.874 229.815 275.903 232.609 278.843C233.506 279.783 234.415 280.73 235.373 281.737C237.366 283.846 239.22 286.151 239.774 288.436C240.048 289.607 240.073 290.835 239.847 292.019C239.616 293.505 239.041 294.897 238.179 296.055C237.318 297.213 236.201 298.097 234.939 298.617C233.678 299.137 232.317 299.276 230.993 299.02C229.668 298.764 228.427 298.121 227.394 297.156C226.416 296.244 225.599 295.134 224.985 293.885H224.967Z" fill="#FE0000"/>
<path d="M25.0328 55.1183C25.6469 53.8685 26.4638 52.7588 27.4415 51.8464C28.475 50.8955 29.7119 50.2644 31.0297 50.0156C32.3475 49.7669 33.7003 49.9092 34.954 50.4284C36.2076 50.9477 37.3186 51.8258 38.1768 52.9757C39.0349 54.1257 39.6103 55.5074 39.846 56.984C40.0717 58.1679 40.049 59.3945 39.7798 60.5669C39.2198 62.8517 37.3712 65.1569 35.378 67.266C34.4266 68.2733 33.5354 69.2467 32.6201 70.1593C29.82 73.0999 27.0681 76.1284 25.0027 79.7721C22.9373 76.1284 20.1854 73.0999 17.3914 70.1593C16.4942 69.2197 15.5849 68.2733 14.6275 67.266C12.6343 65.1569 10.7796 62.8517 10.2256 60.5669C9.95155 59.3955 9.9268 58.1681 10.1534 56.984C10.3844 55.4978 10.9593 54.1059 11.8206 52.9478C12.6819 51.7897 13.7993 50.9061 15.0606 50.3857C16.322 49.8653 17.6831 49.7263 19.0075 49.9827C20.3318 50.2391 21.5728 50.8818 22.6061 51.8464C23.5838 52.7588 24.4008 53.8685 25.0148 55.1183H25.0328Z" fill="#FE0000"/>
</svg>
