<svg width="250" height="350" viewBox="0 0 250 350" fill="none" xmlns="http://www.w3.org/2000/svg">
<rect width="250" height="350" rx="12.5" fill="white"/>
<path d="M186.451 275.086C185.53 276.966 184.304 278.636 182.838 280.008C181.288 281.439 179.432 282.388 177.455 282.762C175.479 283.136 173.45 282.922 171.569 282.141C169.689 281.36 168.022 280.039 166.735 278.309C165.448 276.58 164.585 274.501 164.231 272.28C163.892 270.499 163.926 268.654 164.33 266.89C165.17 263.453 167.943 259.985 170.933 256.813C172.36 255.297 173.697 253.833 175.07 252.46C179.27 248.037 183.398 243.481 186.496 238C189.594 243.481 193.722 248.037 197.913 252.46C199.259 253.874 200.623 255.297 202.059 256.813C205.049 259.985 207.831 263.453 208.662 266.89C209.073 268.652 209.11 270.498 208.77 272.28C208.423 274.515 207.561 276.609 206.269 278.351C204.977 280.093 203.301 281.423 201.409 282.205C199.517 282.988 197.475 283.197 195.489 282.812C193.502 282.426 191.641 281.459 190.091 280.008C188.624 278.636 187.399 276.966 186.478 275.086H186.451Z" fill="#FE0000"/>
<path d="M186.451 217.086C185.53 218.966 184.304 220.636 182.838 222.008C181.288 223.439 179.432 224.388 177.455 224.762C175.479 225.136 173.45 224.922 171.569 224.141C169.689 223.36 168.022 222.039 166.735 220.309C165.448 218.58 164.585 216.501 164.231 214.28C163.892 212.499 163.926 210.654 164.33 208.89C165.17 205.453 167.943 201.985 170.933 198.813C172.36 197.297 173.697 195.833 175.07 194.46C179.27 190.037 183.398 185.481 186.496 180C189.594 185.481 193.722 190.037 197.913 194.46C199.259 195.874 200.623 197.297 202.059 198.813C205.049 201.985 207.831 205.453 208.662 208.89C209.073 210.652 209.11 212.498 208.77 214.28C208.423 216.515 207.561 218.609 206.269 220.351C204.977 222.093 203.301 223.423 201.409 224.205C199.517 224.988 197.475 225.197 195.489 224.812C193.502 224.426 191.641 223.459 190.091 222.008C188.624 220.636 187.399 218.966 186.478 217.086H186.451Z" fill="#FE0000"/>
<path d="M186.549 73.9136C187.47 72.0336 188.696 70.3643 190.162 68.9918C191.712 67.5614 193.568 66.612 195.545 66.2378C197.521 65.8636 199.55 66.0777 201.431 66.8588C203.311 67.6399 204.978 68.9608 206.265 70.6906C207.552 72.4205 208.415 74.499 208.769 76.7203C209.108 78.5012 209.074 80.3463 208.67 82.1099C207.83 85.547 205.057 89.0146 202.067 92.1873C200.64 93.7025 199.303 95.1669 197.93 96.5397C193.73 100.963 189.602 105.519 186.504 111C183.406 105.519 179.278 100.963 175.087 96.5397C173.741 95.1262 172.377 93.7025 170.941 92.1873C167.951 89.0146 165.169 85.547 164.338 82.1099C163.927 80.3478 163.89 78.5015 164.23 76.7203C164.577 74.4846 165.439 72.3907 166.731 70.6486C168.023 68.9065 169.699 67.5774 171.591 66.7946C173.483 66.0117 175.525 65.8026 177.511 66.1883C179.498 66.5739 181.359 67.5408 182.909 68.9918C184.376 70.3643 185.601 72.0336 186.522 73.9136H186.549Z" fill="#FE0000"/>
<path d="M186.549 129.914C187.47 128.034 188.696 126.364 190.162 124.992C191.712 123.561 193.568 122.612 195.545 122.238C197.521 121.864 199.55 122.078 201.431 122.859C203.311 123.64 204.978 124.961 206.265 126.691C207.552 128.42 208.415 130.499 208.769 132.72C209.108 134.501 209.074 136.346 208.67 138.11C207.83 141.547 205.057 145.015 202.067 148.187C200.64 149.703 199.303 151.167 197.93 152.54C193.73 156.963 189.602 161.519 186.504 167C183.406 161.519 179.278 156.963 175.087 152.54C173.741 151.126 172.377 149.703 170.941 148.187C167.951 145.015 165.169 141.547 164.338 138.11C163.927 136.348 163.89 134.502 164.23 132.72C164.577 130.485 165.439 128.391 166.731 126.649C168.023 124.907 169.699 123.577 171.591 122.795C173.483 122.012 175.525 121.803 177.511 122.188C179.498 122.574 181.359 123.541 182.909 124.992C184.376 126.364 185.601 128.034 186.522 129.914H186.549Z" fill="#FE0000"/>
<path d="M124.549 159.914C125.47 158.034 126.696 156.364 128.162 154.992C129.712 153.561 131.568 152.612 133.545 152.238C135.521 151.864 137.55 152.078 139.431 152.859C141.311 153.64 142.978 154.961 144.265 156.691C145.552 158.42 146.415 160.499 146.769 162.72C147.108 164.501 147.074 166.346 146.67 168.11C145.83 171.547 143.057 175.015 140.067 178.187C138.64 179.703 137.303 181.167 135.93 182.54C131.73 186.963 127.602 191.519 124.504 197C121.406 191.519 117.278 186.963 113.087 182.54C111.741 181.126 110.377 179.703 108.941 178.187C105.951 175.015 103.169 171.547 102.338 168.11C101.927 166.348 101.89 164.502 102.23 162.72C102.577 160.485 103.439 158.391 104.731 156.649C106.023 154.907 107.699 153.577 109.591 152.795C111.483 152.012 113.525 151.803 115.511 152.188C117.498 152.574 119.359 153.541 120.909 154.992C122.376 156.364 123.601 158.034 124.522 159.914H124.549Z" fill="#FE0000"/>
<path d="M62.4507 275.086C61.5297 276.966 60.3043 278.636 58.8378 280.008C57.2875 281.439 55.4321 282.388 53.4554 282.762C51.4788 283.136 49.4496 282.922 47.5691 282.141C45.6885 281.36 44.0221 280.039 42.7349 278.309C41.4477 276.58 40.5845 274.501 40.2309 272.28C39.8925 270.499 39.9265 268.654 40.3303 266.89C41.1703 263.453 43.9433 259.985 46.933 256.813C48.3601 255.297 49.6969 253.833 51.0699 252.46C55.27 248.037 59.3978 243.481 62.4959 238C65.594 243.481 69.7219 248.037 73.9129 252.46C75.2588 253.874 76.6227 255.297 78.0588 256.813C81.0486 259.985 83.8305 263.453 84.6615 266.89C85.0727 268.652 85.1098 270.498 84.7699 272.28C84.4235 274.515 83.561 276.609 82.2691 278.351C80.9772 280.093 79.3011 281.423 77.409 282.205C75.5169 282.988 73.4753 283.197 71.4888 282.812C69.5023 282.426 67.6408 281.459 66.0908 280.008C64.6243 278.636 63.3989 276.966 62.4778 275.086H62.4507Z" fill="#FE0000"/>
<path d="M62.5493 73.9136C63.4703 72.0336 64.6957 70.3643 66.1622 68.9918C67.7125 67.5614 69.5679 66.612 71.5446 66.2378C73.5212 65.8636 75.5504 66.0777 77.4309 66.8588C79.3115 67.6399 80.9779 68.9608 82.2651 70.6906C83.5523 72.4205 84.4155 74.499 84.7691 76.7203C85.1075 78.5012 85.0735 80.3463 84.6697 82.1099C83.8297 85.547 81.0567 89.0146 78.067 92.1873C76.6399 93.7025 75.3031 95.1669 73.9301 96.5397C69.73 100.963 65.6022 105.519 62.5041 111C59.406 105.519 55.2781 100.963 51.0871 96.5397C49.7412 95.1262 48.3773 93.7025 46.9412 92.1873C43.9514 89.0146 41.1695 85.547 40.3385 82.1099C39.9273 80.3478 39.8902 78.5015 40.2301 76.7203C40.5765 74.4846 41.439 72.3907 42.7309 70.6486C44.0228 68.9065 45.6989 67.5774 47.591 66.7946C49.4831 66.0117 51.5247 65.8026 53.5112 66.1883C55.4977 66.5739 57.3592 67.5408 58.9092 68.9918C60.3757 70.3643 61.6011 72.0336 62.5222 73.9136H62.5493Z" fill="#FE0000"/>
<path d="M62.5493 129.914C63.4703 128.034 64.6957 126.364 66.1622 124.992C67.7125 123.561 69.5679 122.612 71.5446 122.238C73.5212 121.864 75.5504 122.078 77.4309 122.859C79.3115 123.64 80.9779 124.961 82.2651 126.691C83.5523 128.42 84.4155 130.499 84.7691 132.72C85.1075 134.501 85.0735 136.346 84.6697 138.11C83.8297 141.547 81.0567 145.015 78.067 148.187C76.6399 149.703 75.3031 151.167 73.9301 152.54C69.73 156.963 65.6022 161.519 62.5041 167C59.406 161.519 55.2781 156.963 51.0871 152.54C49.7412 151.126 48.3773 149.703 46.9412 148.187C43.9514 145.015 41.1695 141.547 40.3385 138.11C39.9273 136.348 39.8902 134.502 40.2301 132.72C40.5765 130.485 41.439 128.391 42.7309 126.649C44.0228 124.907 45.6989 123.577 47.591 122.795C49.4831 122.012 51.5247 121.803 53.5112 122.188C55.4977 122.574 57.3592 123.541 58.9092 124.992C60.3757 126.364 61.6011 128.034 62.5222 129.914H62.5493Z" fill="#FE0000"/>
<path d="M62.4507 217.086C61.5297 218.966 60.3043 220.636 58.8378 222.008C57.2875 223.439 55.4321 224.388 53.4554 224.762C51.4788 225.136 49.4496 224.922 47.5691 224.141C45.6885 223.36 44.0221 222.039 42.7349 220.309C41.4477 218.58 40.5845 216.501 40.2309 214.28C39.8925 212.499 39.9265 210.654 40.3303 208.89C41.1703 205.453 43.9433 201.985 46.933 198.813C48.3601 197.297 49.6969 195.833 51.0699 194.46C55.27 190.037 59.3978 185.481 62.4959 180C65.594 185.481 69.7219 190.037 73.9129 194.46C75.2588 195.874 76.6227 197.297 78.0588 198.813C81.0486 201.985 83.8305 205.453 84.6615 208.89C85.0727 210.652 85.1098 212.498 84.7699 214.28C84.4235 216.515 83.561 218.609 82.2691 220.351C80.9772 222.093 79.3011 223.423 77.409 224.205C75.5169 224.988 73.4753 225.197 71.4888 224.812C69.5023 224.426 67.6408 223.459 66.0908 222.008C64.6243 220.636 63.3989 218.966 62.4778 217.086H62.4507Z" fill="#FE0000"/>
<path d="M14.9609 20.9766C14.9609 18.112 15.7747 15.8268 17.4023 14.1211C19.0299 12.4154 21.5169 11.5625 24.8633 11.5625C28.431 11.5625 31.0091 12.7604 32.5977 15.1562C34.1992 17.5391 35 20.931 35 25.332C35 31.2044 33.9453 35.2279 31.8359 37.4023C29.7396 39.5768 27.0898 40.6641 23.8867 40.6641C22.6367 40.6641 21.3932 40.4818 20.1562 40.1172C18.9193 39.7656 17.9688 39.2969 17.3047 38.7109C16.6797 38.151 16.543 37.6042 16.8945 37.0703L18.1836 35.1367C18.6003 34.4987 19.2057 34.4987 20 35.1367C20.3906 35.4492 20.957 35.7227 21.6992 35.957C22.4544 36.1784 23.2422 36.2891 24.0625 36.2891C25.4297 36.2891 26.6862 35.651 27.832 34.375C28.9779 33.0859 29.5508 30.9049 29.5508 27.832H29.4727C28.8867 28.7174 28.0729 29.3555 27.0312 29.7461C25.9896 30.1237 24.7201 30.3125 23.2227 30.3125C20.5013 30.3125 18.444 29.4206 17.0508 27.6367C15.6576 25.8398 14.9609 23.6198 14.9609 20.9766ZM20.8203 21.0156C20.8203 22.7344 21.1458 23.9844 21.7969 24.7656C22.4479 25.5469 23.3594 25.9375 24.5312 25.9375C25.8203 25.9375 26.8164 25.4102 27.5195 24.3555C28.2357 23.3008 28.5938 22.1419 28.5938 20.8789C28.5938 19.2904 28.2682 18.0729 27.6172 17.2266C26.9661 16.3672 26.0156 15.9375 24.7656 15.9375C23.4375 15.9375 22.4479 16.2956 21.7969 17.0117C21.1458 17.7279 20.8203 19.0625 20.8203 21.0156Z" fill="#FF0000"/>
<path d="M237.039 329.023C237.039 331.888 236.225 334.173 234.598 335.879C232.97 337.585 230.483 338.438 227.137 338.438C223.569 338.438 220.991 337.24 219.402 334.844C217.801 332.461 217 329.069 217 324.668C217 318.796 218.055 314.772 220.164 312.598C222.26 310.423 224.91 309.336 228.113 309.336C229.363 309.336 230.607 309.518 231.844 309.883C233.081 310.234 234.031 310.703 234.695 311.289C235.32 311.849 235.457 312.396 235.105 312.93L233.816 314.863C233.4 315.501 232.794 315.501 232 314.863C231.609 314.551 231.043 314.277 230.301 314.043C229.546 313.822 228.758 313.711 227.938 313.711C226.57 313.711 225.314 314.349 224.168 315.625C223.022 316.914 222.449 319.095 222.449 322.168H222.527C223.113 321.283 223.927 320.645 224.969 320.254C226.01 319.876 227.28 319.688 228.777 319.688C231.499 319.688 233.556 320.579 234.949 322.363C236.342 324.16 237.039 326.38 237.039 329.023ZM231.18 328.984C231.18 327.266 230.854 326.016 230.203 325.234C229.552 324.453 228.641 324.062 227.469 324.062C226.18 324.062 225.184 324.59 224.48 325.645C223.764 326.699 223.406 327.858 223.406 329.121C223.406 330.71 223.732 331.927 224.383 332.773C225.034 333.633 225.984 334.062 227.234 334.062C228.562 334.062 229.552 333.704 230.203 332.988C230.854 332.272 231.18 330.938 231.18 328.984Z" fill="#FF0000"/>
<path d="M224.967 294.724C224.353 295.978 223.536 297.09 222.559 298.005C221.525 298.959 220.288 299.592 218.97 299.841C217.653 300.091 216.3 299.948 215.046 299.427C213.792 298.907 212.681 298.026 211.823 296.873C210.965 295.72 210.39 294.334 210.154 292.853C209.928 291.666 209.951 290.436 210.22 289.26C210.78 286.969 212.629 284.657 214.622 282.542C215.573 281.532 216.465 280.555 217.38 279.64C220.18 276.691 222.932 273.654 224.997 270C227.063 273.654 229.815 276.691 232.609 279.64C233.506 280.583 234.415 281.532 235.373 282.542C237.366 284.657 239.22 286.969 239.774 289.26C240.048 290.435 240.073 291.666 239.847 292.853C239.616 294.344 239.041 295.74 238.179 296.901C237.318 298.062 236.201 298.948 234.939 299.47C233.678 299.992 232.317 300.132 230.993 299.874C229.668 299.617 228.427 298.973 227.394 298.005C226.416 297.09 225.599 295.978 224.985 294.724H224.967Z" fill="#FE0000"/>
<path d="M25.0328 55.2758C25.6469 54.0224 26.4638 52.9095 27.4415 51.9946C28.475 51.0409 29.7119 50.408 31.0297 50.1585C32.3475 49.9091 33.7003 50.0518 34.954 50.5725C36.2076 51.0932 37.3186 51.9739 38.1768 53.1271C39.0349 54.2803 39.6103 55.666 39.846 57.1469C40.0717 58.3341 40.049 59.5642 39.7798 60.7399C39.2198 63.0313 37.3712 65.3431 35.378 67.4582C34.4266 68.4684 33.5354 69.4446 32.6201 70.3598C29.82 73.3088 27.0681 76.3459 25.0027 80C22.9373 76.3459 20.1854 73.3088 17.3914 70.3598C16.4942 69.4175 15.5849 68.4684 14.6275 67.4582C12.6343 65.3431 10.7796 63.0313 10.2256 60.7399C9.95155 59.5652 9.9268 58.3343 10.1534 57.1469C10.3844 55.6564 10.9593 54.2605 11.8206 53.0991C12.6819 51.9377 13.7993 51.0516 15.0606 50.5297C16.322 50.0078 17.6831 49.8684 19.0075 50.1255C20.3318 50.3826 21.5728 51.0272 22.6061 51.9946C23.5838 52.9095 24.4008 54.0224 25.0148 55.2758H25.0328Z" fill="#FE0000"/>
</svg>
