<svg width="250" height="350" viewBox="0 0 250 350" fill="none" xmlns="http://www.w3.org/2000/svg">
<rect width="250" height="350" rx="12.5" fill="white"/>
<path d="M124.549 159.458C125.47 157.583 126.696 155.919 128.162 154.55C129.712 153.124 131.568 152.177 133.545 151.804C135.521 151.431 137.55 151.644 139.431 152.423C141.311 153.202 142.978 154.519 144.265 156.244C145.552 157.969 146.415 160.042 146.769 162.257C147.108 164.033 147.074 165.872 146.67 167.631C145.83 171.058 143.057 174.516 140.067 177.68C138.64 179.191 137.303 180.651 135.93 182.02C131.73 186.431 127.602 190.973 124.504 196.439C121.406 190.973 117.278 186.431 113.087 182.02C111.741 180.61 110.377 179.191 108.941 177.68C105.951 174.516 103.169 171.058 102.338 167.631C101.927 165.874 101.89 164.033 102.23 162.257C102.577 160.027 103.439 157.94 104.731 156.202C106.023 154.465 107.699 153.14 109.591 152.359C111.483 151.579 113.525 151.37 115.511 151.755C117.498 152.139 119.359 153.103 120.909 154.55C122.376 155.919 123.601 157.583 124.522 159.458H124.549Z" fill="#FE0000"/>
<path d="M124.451 274.303C123.53 276.177 122.304 277.842 120.838 279.21C119.288 280.637 117.432 281.584 115.455 281.957C113.479 282.33 111.45 282.116 109.569 281.337C107.689 280.559 106.022 279.241 104.735 277.516C103.448 275.792 102.585 273.719 102.231 271.504C101.892 269.728 101.926 267.888 102.33 266.13C103.17 262.702 105.943 259.245 108.933 256.081C110.36 254.57 111.697 253.11 113.07 251.741C117.27 247.33 121.398 242.787 124.496 237.322C127.594 242.787 131.722 247.33 135.913 251.741C137.259 253.151 138.623 254.57 140.059 256.081C143.049 259.245 145.831 262.702 146.662 266.13C147.073 267.887 147.11 269.728 146.77 271.504C146.423 273.733 145.561 275.821 144.269 277.558C142.977 279.295 141.301 280.621 139.409 281.401C137.517 282.182 135.475 282.391 133.489 282.006C131.502 281.621 129.641 280.657 128.091 279.21C126.624 277.842 125.399 276.177 124.478 274.303H124.451Z" fill="#FE0000"/>
<path d="M15.8789 38.0078C15.3711 37.5781 15.332 36.9661 15.7617 36.1719L16.6602 34.5312C17.0898 33.737 17.7865 33.6784 18.75 34.3555C19.5573 34.9284 20.4688 35.3971 21.4844 35.7617C22.5 36.1133 23.6328 36.2891 24.8828 36.2891C26.6016 36.2891 27.832 35.8268 28.5742 34.9023C29.3164 33.9648 29.6875 32.9167 29.6875 31.7578C29.6875 30.5729 29.2448 29.5117 28.3594 28.5742C27.487 27.6237 26.25 27.1484 24.6484 27.1484H23.1445C22.2982 27.1484 21.875 26.8034 21.875 26.1133V23.9648C21.875 23.2487 22.2982 22.8906 23.1445 22.8906H24.3164C25.5143 22.8906 26.569 22.5195 27.4805 21.7773C28.4049 21.0352 28.8672 20.1042 28.8672 18.9844C28.8672 18.112 28.5612 17.3893 27.9492 16.8164C27.3503 16.2305 26.3672 15.9375 25 15.9375C23.7109 15.9375 22.5977 16.1263 21.6602 16.5039C20.7227 16.8815 19.9805 17.3372 19.4336 17.8711C18.6523 18.6393 17.9818 18.6068 17.4219 17.7734L16.2891 16.1133C15.8594 15.4883 15.9896 14.8503 16.6797 14.1992C17.6172 13.3008 18.8281 12.6367 20.3125 12.207C21.7969 11.7773 23.2487 11.5625 24.668 11.5625C28.0143 11.5625 30.5013 12.2331 32.1289 13.5742C33.7565 14.9023 34.5703 16.5299 34.5703 18.457C34.5703 19.8893 34.0104 21.1979 32.8906 22.3828C31.7708 23.5547 30.5859 24.362 29.3359 24.8047V24.8828C30.8203 25.2474 32.2266 26.0482 33.5547 27.2852C34.8828 28.5091 35.5469 30.0326 35.5469 31.8555C35.5469 34.707 34.6484 36.888 32.8516 38.3984C31.0547 39.9089 28.3138 40.6641 24.6289 40.6641C23.0794 40.6641 21.4714 40.4297 19.8047 39.9609C18.151 39.4792 16.8424 38.8281 15.8789 38.0078Z" fill="#FF0000"/>
<path d="M234.121 310.995C234.629 311.425 234.668 312.037 234.238 312.831L233.34 314.472C232.91 315.266 232.214 315.325 231.25 314.647C230.443 314.075 229.531 313.606 228.516 313.241C227.5 312.89 226.367 312.714 225.117 312.714C223.398 312.714 222.168 313.176 221.426 314.101C220.684 315.038 220.312 316.086 220.312 317.245C220.312 318.43 220.755 319.491 221.641 320.429C222.513 321.379 223.75 321.854 225.352 321.854H226.855C227.702 321.854 228.125 322.2 228.125 322.89V325.038C228.125 325.754 227.702 326.112 226.855 326.112H225.684C224.486 326.112 223.431 326.483 222.52 327.226C221.595 327.968 221.133 328.899 221.133 330.019C221.133 330.891 221.439 331.614 222.051 332.187C222.65 332.772 223.633 333.065 225 333.065C226.289 333.065 227.402 332.877 228.34 332.499C229.277 332.121 230.02 331.666 230.566 331.132C231.348 330.364 232.018 330.396 232.578 331.229L233.711 332.89C234.141 333.515 234.01 334.153 233.32 334.804C232.383 335.702 231.172 336.366 229.688 336.796C228.203 337.226 226.751 337.44 225.332 337.44C221.986 337.44 219.499 336.77 217.871 335.429C216.243 334.101 215.43 332.473 215.43 330.546C215.43 329.114 215.99 327.805 217.109 326.62C218.229 325.448 219.414 324.641 220.664 324.198V324.12C219.18 323.756 217.773 322.955 216.445 321.718C215.117 320.494 214.453 318.97 214.453 317.147C214.453 314.296 215.352 312.115 217.148 310.604C218.945 309.094 221.686 308.339 225.371 308.339C226.921 308.339 228.529 308.573 230.195 309.042C231.849 309.524 233.158 310.175 234.121 310.995Z" fill="#FF0000"/>
<path d="M124.549 73.7031C125.47 71.8284 126.696 70.1639 128.162 68.7953C129.712 67.3689 131.568 66.4222 133.545 66.0491C135.521 65.676 137.55 65.8895 139.431 66.6683C141.311 67.4472 142.978 68.7644 144.265 70.4893C145.552 72.2142 146.415 74.2868 146.769 76.5018C147.108 78.2776 147.074 80.1174 146.67 81.876C145.83 85.3033 143.057 88.7611 140.067 91.9247C138.64 93.4356 137.303 94.8958 135.93 96.2647C131.73 100.676 127.602 105.218 124.504 110.684C121.406 105.218 117.278 100.676 113.087 96.2647C111.741 94.8552 110.377 93.4356 108.941 91.9247C105.951 88.7611 103.169 85.3033 102.338 81.876C101.927 80.1189 101.89 78.2779 102.23 76.5018C102.577 74.2724 103.439 72.1845 104.731 70.4474C106.023 68.7102 107.699 67.3849 109.591 66.6043C111.483 65.8237 113.525 65.6152 115.511 65.9998C117.498 66.3843 119.359 67.3484 120.909 68.7953C122.376 70.1639 123.601 71.8284 124.522 73.7031H124.549Z" fill="#FE0000"/>
<path d="M224.967 293.885C224.353 295.134 223.536 296.244 222.559 297.156C221.525 298.107 220.288 298.738 218.97 298.987C217.653 299.236 216.3 299.094 215.046 298.574C213.792 298.055 212.681 297.177 211.823 296.027C210.965 294.877 210.39 293.495 210.154 292.019C209.928 290.835 209.951 289.608 210.22 288.436C210.78 286.151 212.629 283.846 214.622 281.737C215.573 280.73 216.465 279.756 217.38 278.843C220.18 275.903 222.932 272.874 224.997 269.231C227.063 272.874 229.815 275.903 232.609 278.843C233.506 279.783 234.415 280.73 235.373 281.737C237.366 283.846 239.22 286.151 239.774 288.436C240.048 289.607 240.073 290.835 239.847 292.019C239.616 293.505 239.041 294.897 238.179 296.055C237.318 297.213 236.201 298.097 234.939 298.617C233.678 299.137 232.317 299.276 230.993 299.02C229.668 298.764 228.427 298.121 227.394 297.156C226.416 296.244 225.599 295.134 224.985 293.885H224.967Z" fill="#FE0000"/>
<path d="M25.0328 55.1183C25.6469 53.8685 26.4638 52.7588 27.4415 51.8464C28.475 50.8955 29.7119 50.2644 31.0297 50.0156C32.3475 49.7669 33.7003 49.9092 34.954 50.4284C36.2076 50.9477 37.3186 51.8258 38.1768 52.9757C39.0349 54.1257 39.6103 55.5074 39.846 56.984C40.0717 58.1679 40.049 59.3945 39.7798 60.5669C39.2198 62.8517 37.3712 65.1569 35.378 67.266C34.4266 68.2733 33.5354 69.2467 32.6201 70.1593C29.82 73.0999 27.0681 76.1284 25.0027 79.7721C22.9373 76.1284 20.1854 73.0999 17.3914 70.1593C16.4942 69.2197 15.5849 68.2733 14.6275 67.266C12.6343 65.1569 10.7796 62.8517 10.2256 60.5669C9.95155 59.3955 9.9268 58.1681 10.1534 56.984C10.3844 55.4978 10.9593 54.1059 11.8206 52.9478C12.6819 51.7897 13.7993 50.9061 15.0606 50.3857C16.322 49.8653 17.6831 49.7263 19.0075 49.9827C20.3318 50.2391 21.5728 50.8818 22.6061 51.8464C23.5838 52.7588 24.4008 53.8685 25.0148 55.1183H25.0328Z" fill="#FE0000"/>
</svg>
