<svg width="250" height="350" viewBox="0 0 250 350" fill="none" xmlns="http://www.w3.org/2000/svg">
<rect width="250" height="350" rx="12.5" fill="white"/>
<path d="M11.6016 25.9961C11.6016 21.5039 12.7604 17.9362 15.0781 15.293C17.3958 12.6497 20.7031 11.3281 25 11.3281C29.2969 11.3281 32.6042 12.6497 34.9219 15.293C37.2396 17.9362 38.3984 21.5039 38.3984 25.9961C38.3984 30.4883 37.2396 34.056 34.9219 36.6992C33.151 38.7174 30.8008 39.9674 27.8711 40.4492C27.9883 41.6211 28.2943 42.4935 28.7891 43.0664C29.2969 43.6523 30.2734 43.9453 31.7188 43.9453C32.3828 43.9453 33.0729 43.8542 33.7891 43.6719C34.4401 43.5026 34.8177 43.6458 34.9219 44.1016L35.4688 46.3672C35.5859 46.875 35.3516 47.2005 34.7656 47.3438C33.2292 47.7474 32.0052 47.9492 31.0938 47.9492C27.6042 47.9492 25.2734 47.2135 24.1016 45.7422C22.9427 44.2708 22.2917 42.5065 22.1484 40.4492C19.2057 39.9805 16.849 38.7305 15.0781 36.6992C12.7604 34.056 11.6016 30.4883 11.6016 25.9961ZM17.6953 25.9961C17.6953 29.2513 18.2747 31.7448 19.4336 33.4766C20.6055 35.1953 22.4609 36.0547 25 36.0547C27.5391 36.0547 29.388 35.1953 30.5469 33.4766C31.7188 31.7448 32.3047 29.2513 32.3047 25.9961C32.3047 22.7409 31.7188 20.2539 30.5469 18.5352C29.388 16.8034 27.5391 15.9375 25 15.9375C22.4609 15.9375 20.6055 16.8034 19.4336 18.5352C18.2747 20.2539 17.6953 22.7409 17.6953 25.9961Z" fill="#FF0000"/>
<path d="M237.898 324.004C237.898 328.496 236.74 332.064 234.422 334.707C232.104 337.35 228.797 338.672 224.5 338.672C220.203 338.672 216.896 337.35 214.578 334.707C212.26 332.064 211.102 328.496 211.102 324.004C211.102 319.512 212.26 315.944 214.578 313.301C216.349 311.283 218.699 310.033 221.629 309.551C221.512 308.379 221.206 307.507 220.711 306.934C220.203 306.348 219.227 306.055 217.781 306.055C217.117 306.055 216.427 306.146 215.711 306.328C215.06 306.497 214.682 306.354 214.578 305.898L214.031 303.633C213.914 303.125 214.148 302.799 214.734 302.656C216.271 302.253 217.495 302.051 218.406 302.051C221.896 302.051 224.227 302.786 225.398 304.258C226.557 305.729 227.208 307.493 227.352 309.551C230.294 310.02 232.651 311.27 234.422 313.301C236.74 315.944 237.898 319.512 237.898 324.004ZM231.805 324.004C231.805 320.749 231.225 318.255 230.066 316.523C228.895 314.805 227.039 313.945 224.5 313.945C221.961 313.945 220.112 314.805 218.953 316.523C217.781 318.255 217.195 320.749 217.195 324.004C217.195 327.259 217.781 329.746 218.953 331.465C220.112 333.197 221.961 334.062 224.5 334.062C227.039 334.062 228.895 333.197 230.066 331.465C231.225 329.746 231.805 327.259 231.805 324.004Z" fill="#FF0000"/>
<path d="M131.376 70.0053C128.031 73.3303 127.752 74.0976 129.355 75.3125C131.097 76.6553 130.54 78.0621 127.195 81.0674C125.453 82.666 123.502 84.7761 122.944 85.7352C122.387 86.7583 121.69 87.4617 121.411 87.3338C120.296 86.9501 111.585 79.213 111.585 78.5736C111.585 78.2539 112.073 77.8702 112.631 77.6145C115.139 76.7832 112.212 72.9467 107.962 71.5399C105.871 70.8365 105.383 71.2202 103.989 74.4813C102.596 77.5505 103.223 79.4049 105.662 79.7885C106.777 79.9804 107.822 80.5558 107.822 81.0674C107.892 81.5789 108.519 85.3516 109.216 89.4439C110.261 95.9021 110.331 97.5646 109.564 101.401C108.658 106.133 105.662 112.655 102.805 116.108C101.829 117.195 101.272 118.474 101.481 118.794C101.69 119.177 103.432 119.433 105.244 119.433C107.056 119.433 108.728 119.625 108.937 119.817C109.146 120.009 108.867 121.799 108.31 123.781C106.359 130.879 106.359 130.815 108.519 131.39C109.634 131.646 112.491 131.902 114.93 131.838C118.484 131.774 119.669 131.518 120.854 130.431C122.247 129.088 122.247 129.024 120.993 129.024C120.296 129.024 117.857 129.344 115.627 129.792C112.143 130.431 111.446 130.431 110.47 129.6C109.634 128.833 109.564 128.257 110.192 126.85C110.54 125.891 110.888 124.293 110.888 123.334C110.888 122.374 111.376 121.032 111.934 120.328C113.536 118.41 113.188 118.154 109.495 118.154C105.313 118.154 105.174 117.643 107.822 112.911C110.192 108.691 112.979 100.698 112.979 98.3319C112.979 95.8382 115.139 95.7103 116.812 98.1401C118.554 100.634 121.411 102.744 123.083 102.808C125.174 102.872 126.289 103.767 125.801 104.918C125.592 105.494 125.104 106.005 124.826 106.005C123.92 106.005 121.899 112.208 121.899 115.149C121.759 121.287 126.847 126.978 134.233 129.088C137.648 130.048 138.484 130.048 142.665 129.28C147.962 128.257 150.54 126.978 154.233 123.461L156.881 121.032L154.791 118.794C152.073 115.852 150.54 111.248 151.097 107.412C151.376 104.918 156.812 91.6179 158.902 88.1011C159.181 87.5896 160.366 87.2059 161.411 87.142C163.223 87.142 163.571 86.7583 164.477 84.1366C166.428 78.3818 163.362 76.2717 157.509 79.277C155.209 80.428 154.791 81.0034 154.791 82.7938C154.791 84.7121 154.373 85.1597 150.47 87.4617C148.031 88.8684 145.662 90.0194 145.174 90.0194C144.686 90.0194 143.641 88.6766 142.944 86.9501C142.178 85.2876 141.272 83.4972 140.854 82.9857C140.505 82.4741 139.669 81.1953 139.042 80.1722C137.927 78.3818 137.996 78.3178 140.017 76.8472C142.247 75.2486 142.387 73.5221 140.435 72.0515C139.878 71.6678 139.46 70.7726 139.46 70.1332C139.46 68.9183 137.021 67 135.418 67C134.86 67 133.049 68.3428 131.376 70.0053Z" fill="#FF0000"/>
<path d="M88.9373 126.915C86.8467 127.426 85.8014 128.385 84.6864 130.943C83.9199 132.669 82.8746 133.629 80.7143 134.524C78.7631 135.355 77.2997 136.506 76.3937 138.105L75 140.47L76.4634 142.261C77.2997 143.22 78.9721 144.691 80.2265 145.522C81.5505 146.289 83.223 148.016 84.0592 149.358C84.8258 150.637 86.2195 151.98 87.1254 152.364L88.7979 153.003L88.3101 167.838L87.892 182.737H90.4007H92.9094L92.4913 179.348C92.2822 177.557 92.0035 170.843 91.9338 164.577C91.7944 155.241 92.0035 153.003 92.77 152.811C94.1638 152.364 96.3937 150.062 97.7875 147.696C98.4146 146.545 99.5296 145.65 100.157 145.65C102.178 145.65 105.314 142.453 105.314 140.343C105.314 138.105 101.341 134.14 99.1115 134.14C97.5784 134.14 97.3693 133.884 96.6725 130.815C96.0453 128.193 92.0732 126.211 88.9373 126.915ZM92.6307 138.105C93.885 139.255 93.6063 141.493 92.1429 142.708C90.8885 143.795 90.6794 143.795 89.007 142.772C87.892 142.069 87.1951 141.046 87.1951 140.151C87.1951 137.849 90.8188 136.442 92.6307 138.105Z" fill="#FF0000"/>
<path d="M132.003 132.286C123.571 136.122 121.899 146.353 127.265 161.955C130.888 172.57 130.749 172.378 134.86 173.465C139.39 174.616 146.01 173.976 147.474 172.122C149.286 169.884 151.794 149.998 150.888 144.563C149.843 137.849 145.662 132.989 139.738 131.646C135.766 130.687 135.418 130.751 132.003 132.286ZM140.853 148.911C141.341 149.998 142.526 151.149 143.432 151.468C146.359 152.491 146.08 153.706 142.247 157.159C140.296 158.886 138.414 160.356 138.066 160.356C137.718 160.356 136.881 159.461 136.324 158.438C135.697 157.351 134.442 156.136 133.536 155.753C131.097 154.729 130.679 153.195 132.561 152.044C133.397 151.532 135.07 150.126 136.254 149.039C138.972 146.417 139.738 146.417 140.853 148.911Z" fill="#FF0000"/>
<path d="M120.923 135.099C116.324 137.209 109.146 142.772 106.429 146.161C104.617 148.591 104.268 149.614 104.059 153.77C103.78 158.374 103.92 158.822 106.777 164.385C109.425 169.564 109.773 170.779 110.052 175.831C110.261 178.9 110.679 181.649 111.167 181.969C111.585 182.289 113.188 182.864 114.721 183.248C120.575 184.783 126.219 191.049 128.659 198.914C130.749 205.628 129.913 219.056 127.195 222.893C126.638 223.724 126.219 224.811 126.359 225.322C126.638 226.473 136.045 221.23 140.993 217.138C148.101 211.255 149.007 204.861 143.99 194.886C141.62 190.218 141.202 188.619 140.854 183.696L140.505 178.005L137.439 177.173C135.767 176.726 132.7 175.063 130.54 173.337C125.941 169.756 123.432 165.088 121.62 157.159C120.226 150.637 121.063 142.964 123.78 137.529C124.756 135.547 125.523 133.884 125.523 133.756C125.523 133.181 124.199 133.565 120.923 135.099Z" fill="#FF0000"/>
<path d="M159.39 176.79C158.136 177.109 158.066 177.685 158.485 191.433L158.903 205.692L157.021 207.035C156.046 207.802 154.791 209.209 154.373 210.232C153.885 211.255 152.282 212.79 150.749 213.685C147.474 215.539 145.732 217.649 145.732 219.567C145.732 221.422 148.659 224.555 151.307 225.578C152.84 226.154 153.606 226.985 153.885 228.264C154.373 230.374 157.579 232.612 160.227 232.612C163.084 232.612 165.941 230.757 167.056 228.136C167.892 226.218 168.728 225.45 170.54 224.939C173.397 224.043 175 222.125 175 219.631C175 216.946 173.955 215.603 170.471 213.685C168.728 212.79 167.335 211.575 167.335 211.063C167.335 210.488 166.08 209.017 164.617 207.738L161.829 205.372L162.387 191.369C162.875 178.133 162.666 176.15 161.063 176.406C160.854 176.47 160.087 176.662 159.39 176.79ZM162.805 219.504C162.805 221.678 162.596 222.061 161.202 222.253C159.181 222.509 157.579 221.358 157.579 219.567C157.579 217.649 158.972 216.562 161.063 216.754C162.596 216.946 162.805 217.266 162.805 219.504Z" fill="#FF0000"/>
<path d="M107.683 185.358C103.293 186.317 102.387 187.596 101.341 195.077C98.8326 212.022 99.4598 218.864 103.92 223.788C106.15 226.218 111.446 228.392 115.139 228.264C121.968 228.072 126.916 221.55 126.916 212.726C126.916 206.587 123.083 193.479 119.948 188.811C117.857 185.678 112.909 184.271 107.683 185.358ZM114.442 201.216C115.209 202.239 116.672 203.454 117.578 203.901C119.738 204.925 119.738 206.587 117.578 207.93C116.603 208.441 115.279 209.784 114.651 210.871C113.955 211.894 113.188 212.79 112.909 212.79C112.352 212.79 105.313 206.459 105.313 205.884C105.313 205.308 111.794 199.362 112.421 199.362C112.7 199.362 113.606 200.193 114.442 201.216Z" fill="#FF0000"/>
<path d="M133.397 227.624C131.655 227.944 130.122 228.711 129.704 229.479C129.077 230.566 129.216 230.693 130.958 230.693C132.073 230.693 133.397 230.31 133.815 229.862C134.86 228.647 141.55 229.862 141.55 231.269C141.481 233.123 138.902 239.134 137.996 239.709C136.463 240.605 138.554 241.564 142.108 241.564C145.592 241.564 145.801 242.331 143.362 246.232C140.993 250.004 138.902 255.951 138.414 260.235C138.136 262.281 137.648 263.944 137.3 263.944C136.881 263.944 135.418 262.793 134.024 261.322C132.631 259.851 130.122 257.997 128.519 257.102C126.847 256.207 125.523 255.184 125.523 254.8C125.523 254.416 126.219 252.818 127.056 251.283C128.867 247.766 129.425 243.098 128.38 240.093C127.125 236.64 121.829 232.164 117.648 231.013C109.843 228.903 103.083 230.246 98.1358 234.914C94.6514 238.239 94.3727 239.39 96.3936 241.436C98.7629 243.866 99.7385 246.296 99.7385 249.748C99.7385 253.713 98.9023 256.462 95.0696 264.711C92.2124 270.977 91.7943 271.617 89.5643 272.256C86.7072 273.151 85.8013 274.494 85.8013 277.819C85.8013 282.103 88.0312 282.871 93.4668 280.377C95.4877 279.482 96.533 278.587 96.3239 278.011C96.1845 277.5 95.9058 276.54 95.7664 275.965C95.4877 275.198 96.1149 274.494 97.648 273.727C98.9023 273.088 100.993 271.937 102.317 271.105C105.174 269.379 106.638 269.315 107.195 270.786C108.031 273.024 110.888 278.395 112.003 279.738C113.049 281.08 112.979 281.272 110.888 283.063L108.658 284.917L110.61 288.37C112.421 291.439 112.909 291.759 115.209 291.951C117.509 292.142 117.927 291.887 120.226 289.137C123.153 285.684 123.223 285.301 121.341 284.405C120.575 284.022 119.948 283.382 119.948 282.935C120.017 282.487 122.247 279.929 125.035 277.244L130.052 272.256L134.86 276.477L139.739 280.633L137.787 282.231L135.906 283.894L137.509 284.981C138.414 285.556 140.087 286.707 141.341 287.475L143.571 288.881L145.313 287.475C146.498 286.452 147.195 285.045 147.543 282.935L147.962 279.929H145.871C144.686 279.929 143.502 279.61 143.293 279.29C142.456 278.011 140.714 265.478 140.854 261.13C140.923 256.079 142.387 252.114 146.428 245.784C148.031 243.354 149.077 240.924 148.937 240.477C148.658 239.965 147.334 239.645 145.104 239.645C143.223 239.645 141.411 239.326 141.202 239.006C140.923 238.622 141.411 237.088 142.178 235.617C142.944 234.146 143.78 231.908 143.989 230.63L144.477 228.264L140.854 227.56C138.902 227.177 137.09 226.857 136.812 226.921C136.533 226.985 135 227.241 133.397 227.624Z" fill="#FF0000"/>
<path d="M224.967 294.724C224.353 295.978 223.536 297.09 222.559 298.005C221.525 298.959 220.288 299.592 218.97 299.841C217.653 300.091 216.3 299.948 215.046 299.427C213.792 298.907 212.681 298.026 211.823 296.873C210.965 295.72 210.39 294.334 210.154 292.853C209.928 291.666 209.951 290.436 210.22 289.26C210.78 286.969 212.629 284.657 214.622 282.542C215.573 281.532 216.465 280.555 217.38 279.64C220.18 276.691 222.932 273.654 224.997 270C227.063 273.654 229.815 276.691 232.609 279.64C233.506 280.583 234.415 281.532 235.373 282.542C237.366 284.657 239.22 286.969 239.774 289.26C240.048 290.435 240.073 291.666 239.847 292.853C239.616 294.344 239.041 295.74 238.179 296.901C237.318 298.062 236.201 298.948 234.939 299.47C233.678 299.992 232.317 300.132 230.993 299.874C229.668 299.617 228.427 298.973 227.394 298.005C226.416 297.09 225.599 295.978 224.985 294.724H224.967Z" fill="#FE0000"/>
<path d="M25.0328 55.2758C25.6469 54.0224 26.4638 52.9095 27.4415 51.9946C28.475 51.0409 29.7119 50.408 31.0297 50.1585C32.3475 49.9091 33.7003 50.0518 34.954 50.5725C36.2076 51.0932 37.3186 51.9739 38.1768 53.1271C39.0349 54.2803 39.6103 55.666 39.846 57.1469C40.0717 58.3341 40.049 59.5642 39.7798 60.7399C39.2198 63.0313 37.3712 65.3431 35.378 67.4582C34.4266 68.4684 33.5354 69.4446 32.6201 70.3598C29.82 73.3088 27.0681 76.3459 25.0027 80C22.9373 76.3459 20.1854 73.3088 17.3914 70.3598C16.4942 69.4175 15.5849 68.4684 14.6275 67.4582C12.6343 65.3431 10.7796 63.0313 10.2256 60.7399C9.95155 59.5652 9.9268 58.3343 10.1534 57.1469C10.3844 55.6564 10.9593 54.2605 11.8206 53.0991C12.6819 51.9377 13.7993 51.0516 15.0606 50.5297C16.322 50.0078 17.6831 49.8684 19.0075 50.1255C20.3318 50.3826 21.5728 51.0272 22.6061 51.9946C23.5838 52.9095 24.4008 54.0224 25.0148 55.2758H25.0328Z" fill="#FE0000"/>
</svg>
