<svg width="250" height="350" viewBox="0 0 250 350" fill="none" xmlns="http://www.w3.org/2000/svg">
<rect width="250" height="350" rx="12.5" fill="white"/>
<path d="M224.967 293.885C224.353 295.134 223.536 296.244 222.559 297.156C221.525 298.107 220.288 298.738 218.97 298.987C217.653 299.236 216.3 299.094 215.046 298.574C213.792 298.055 212.681 297.177 211.823 296.027C210.965 294.877 210.39 293.495 210.154 292.019C209.928 290.835 209.951 289.608 210.22 288.436C210.78 286.151 212.629 283.846 214.622 281.737C215.573 280.73 216.465 279.756 217.38 278.843C220.18 275.903 222.932 272.874 224.997 269.231C227.063 272.874 229.815 275.903 232.609 278.843C233.506 279.783 234.415 280.73 235.373 281.737C237.366 283.846 239.22 286.151 239.774 288.436C240.048 289.607 240.073 290.835 239.847 292.019C239.616 293.505 239.041 294.897 238.179 296.055C237.318 297.213 236.201 298.097 234.939 298.617C233.678 299.137 232.317 299.276 230.993 299.02C229.668 298.764 228.427 298.121 227.394 297.156C226.416 296.244 225.599 295.134 224.985 293.885H224.967Z" fill="#FE0000"/>
<path d="M25.0328 55.1183C25.6469 53.8685 26.4638 52.7588 27.4415 51.8464C28.475 50.8955 29.7119 50.2644 31.0297 50.0156C32.3475 49.7669 33.7003 49.9092 34.954 50.4284C36.2076 50.9477 37.3186 51.8258 38.1768 52.9757C39.0349 54.1257 39.6103 55.5074 39.846 56.984C40.0717 58.1679 40.049 59.3945 39.7798 60.5669C39.2198 62.8517 37.3712 65.1569 35.378 67.266C34.4266 68.2733 33.5354 69.2467 32.6201 70.1593C29.82 73.0999 27.0681 76.1284 25.0027 79.7721C22.9373 76.1284 20.1854 73.0999 17.3914 70.1593C16.4942 69.2197 15.5849 68.2733 14.6275 67.266C12.6343 65.1569 10.7796 62.8517 10.2256 60.5669C9.95155 59.3955 9.9268 58.1681 10.1534 56.984C10.3844 55.4978 10.9593 54.1059 11.8206 52.9478C12.6819 51.7897 13.7993 50.9061 15.0606 50.3857C16.322 49.8653 17.6831 49.7263 19.0075 49.9827C20.3318 50.2391 21.5728 50.8818 22.6061 51.8464C23.5838 52.7588 24.4008 53.8685 25.0148 55.1183H25.0328Z" fill="#FE0000"/>
<path d="M13.2461 40C12.3086 40 12.0026 39.5703 12.3281 38.7109L21.8984 13.5742C22.3021 12.5195 22.9141 11.9922 23.7344 11.9922H26.4688C27.2891 11.9922 27.901 12.5195 28.3047 13.5742L37.875 38.7109C38.2005 39.5703 37.8945 40 36.957 40H33.8516C32.9922 40 32.3932 39.5508 32.0547 38.6523L30.0625 33.3984H20.1406L18.1484 38.6523C17.8099 39.5508 17.2109 40 16.3516 40H13.2461ZM21.957 28.5547H28.2461L25.8438 22.3438C25.5573 21.6146 25.3815 21.0872 25.3164 20.7617C25.2643 20.4232 25.2057 19.9284 25.1406 19.2773H25.0625C24.9974 19.9284 24.9323 20.4232 24.8672 20.7617C24.8151 21.0872 24.6458 21.6146 24.3594 22.3438L21.957 28.5547Z" fill="#FF0000"/>
<path d="M236.754 309.003C237.691 309.003 237.997 309.433 237.672 310.292L228.102 335.429C227.698 336.483 227.086 337.011 226.266 337.011H223.531C222.711 337.011 222.099 336.483 221.695 335.429L212.125 310.292C211.799 309.433 212.105 309.003 213.043 309.003H216.148C217.008 309.003 217.607 309.452 217.945 310.351L219.938 315.604H229.859L231.852 310.351C232.19 309.452 232.789 309.003 233.648 309.003H236.754ZM228.043 320.448H221.754L224.156 326.659C224.443 327.388 224.618 327.916 224.684 328.241C224.736 328.58 224.794 329.075 224.859 329.726H224.938C225.003 329.075 225.068 328.58 225.133 328.241C225.185 327.916 225.354 327.388 225.641 326.659L228.043 320.448Z" fill="#FF0000"/>
<path d="M124.549 159.458C125.47 157.583 126.696 155.919 128.162 154.55C129.712 153.124 131.568 152.177 133.545 151.804C135.521 151.431 137.55 151.644 139.431 152.423C141.311 153.202 142.978 154.519 144.265 156.244C145.552 157.969 146.415 160.042 146.769 162.257C147.108 164.033 147.074 165.872 146.67 167.631C145.83 171.058 143.057 174.516 140.067 177.68C138.64 179.191 137.303 180.651 135.93 182.02C131.73 186.431 127.602 190.973 124.504 196.439C121.406 190.973 117.278 186.431 113.087 182.02C111.741 180.61 110.377 179.191 108.941 177.68C105.951 174.516 103.169 171.058 102.338 167.631C101.927 165.874 101.89 164.033 102.23 162.257C102.577 160.027 103.439 157.94 104.731 156.202C106.023 154.465 107.699 153.14 109.591 152.359C111.483 151.579 113.525 151.37 115.511 151.755C117.498 152.139 119.359 153.103 120.909 154.55C122.376 155.919 123.601 157.583 124.522 159.458H124.549Z" fill="#FE0000"/>
</svg>
