<svg width="250" height="350" viewBox="0 0 250 350" fill="none" xmlns="http://www.w3.org/2000/svg">
<rect width="250" height="350" rx="12.5" fill="white"/>
<path d="M186.451 275.3C185.53 277.174 184.304 278.839 182.838 280.208C181.288 281.634 179.432 282.581 177.455 282.954C175.479 283.327 173.45 283.113 171.569 282.335C169.689 281.556 168.022 280.239 166.735 278.514C165.448 276.789 164.585 274.716 164.231 272.501C163.892 270.725 163.926 268.885 164.33 267.127C165.17 263.7 167.943 260.242 170.933 257.078C172.36 255.567 173.697 254.107 175.07 252.738C179.27 248.327 183.398 243.785 186.496 238.319C189.594 243.785 193.722 248.327 197.913 252.738C199.259 254.148 200.623 255.567 202.059 257.078C205.049 260.242 207.831 263.7 208.662 267.127C209.073 268.884 209.11 270.725 208.77 272.501C208.423 274.731 207.561 276.818 206.269 278.556C204.977 280.293 203.301 281.618 201.409 282.399C199.517 283.179 197.475 283.388 195.489 283.003C193.502 282.619 191.641 281.655 190.091 280.208C188.624 278.839 187.399 277.174 186.478 275.3H186.451Z" fill="#FE0000"/>
<path d="M62.4507 275.3C61.5297 277.174 60.3043 278.839 58.8378 280.208C57.2875 281.634 55.4321 282.581 53.4554 282.954C51.4788 283.327 49.4496 283.113 47.5691 282.335C45.6885 281.556 44.0221 280.239 42.7349 278.514C41.4477 276.789 40.5845 274.716 40.2309 272.501C39.8925 270.725 39.9265 268.885 40.3303 267.127C41.1703 263.7 43.9433 260.242 46.933 257.078C48.3601 255.567 49.6969 254.107 51.0699 252.738C55.27 248.327 59.3978 243.785 62.4959 238.319C65.594 243.785 69.7219 248.327 73.9129 252.738C75.2588 254.148 76.6227 255.567 78.0588 257.078C81.0486 260.242 83.8305 263.7 84.6615 267.127C85.0727 268.884 85.1098 270.725 84.7699 272.501C84.4235 274.731 83.561 276.818 82.2691 278.556C80.9772 280.293 79.3011 281.618 77.409 282.399C75.5169 283.179 73.4753 283.388 71.4888 283.003C69.5023 282.619 67.6408 281.655 66.0908 280.208C64.6243 278.839 63.3989 277.174 62.4778 275.3H62.4507Z" fill="#FE0000"/>
<path d="M62.5493 74.7002C63.4703 72.8255 64.6957 71.1609 66.1622 69.7924C67.7125 68.366 69.5679 67.4193 71.5446 67.0462C73.5212 66.6731 75.5504 66.8866 77.4309 67.6654C79.3115 68.4443 80.9779 69.7615 82.2651 71.4863C83.5523 73.2112 84.4155 75.2839 84.7691 77.4988C85.1075 79.2747 85.0735 81.1145 84.6697 82.873C83.8297 86.3004 81.0567 89.7581 78.067 92.9218C76.6399 94.4327 75.3031 95.8928 73.9301 97.2617C69.73 101.673 65.6022 106.215 62.5041 111.681C59.406 106.215 55.2781 101.673 51.0871 97.2617C49.7412 95.8523 48.3773 94.4327 46.9412 92.9218C43.9514 89.7581 41.1695 86.3004 40.3385 82.873C39.9273 81.116 39.8902 79.275 40.2301 77.4988C40.5765 75.2695 41.439 73.1816 42.7309 71.4445C44.0228 69.7073 45.6989 68.382 47.591 67.6014C49.4831 66.8207 51.5247 66.6123 53.5112 66.9968C55.4977 67.3814 57.3592 68.3455 58.9092 69.7924C60.3757 71.1609 61.6011 72.8255 62.5222 74.7002H62.5493Z" fill="#FE0000"/>
<path d="M186.549 74.7002C187.47 72.8255 188.696 71.1609 190.162 69.7924C191.712 68.366 193.568 67.4193 195.545 67.0462C197.521 66.6731 199.55 66.8866 201.431 67.6654C203.311 68.4443 204.978 69.7615 206.265 71.4863C207.552 73.2112 208.415 75.2839 208.769 77.4988C209.108 79.2747 209.074 81.1145 208.67 82.873C207.83 86.3004 205.057 89.7581 202.067 92.9218C200.64 94.4327 199.303 95.8928 197.93 97.2617C193.73 101.673 189.602 106.215 186.504 111.681C183.406 106.215 179.278 101.673 175.087 97.2617C173.741 95.8523 172.377 94.4327 170.941 92.9218C167.951 89.7581 165.169 86.3004 164.338 82.873C163.927 81.116 163.89 79.275 164.23 77.4988C164.577 75.2695 165.439 73.1816 166.731 71.4445C168.023 69.7073 169.699 68.382 171.591 67.6014C173.483 66.8207 175.525 66.6123 177.511 66.9968C179.498 67.3814 181.359 68.3455 182.909 69.7924C184.376 71.1609 185.601 72.8255 186.522 74.7002H186.549Z" fill="#FE0000"/>
<path d="M124.549 115.583C125.47 113.709 126.696 112.044 128.162 110.676C129.712 109.249 131.568 108.302 133.545 107.929C135.521 107.556 137.55 107.77 139.431 108.549C141.311 109.327 142.978 110.645 144.265 112.37C145.552 114.094 146.415 116.167 146.769 118.382C147.108 120.158 147.074 121.998 146.67 123.756C145.83 127.184 143.057 130.641 140.067 133.805C138.64 135.316 137.303 136.776 135.93 138.145C131.73 142.556 127.602 147.099 124.504 152.564C121.406 147.099 117.278 142.556 113.087 138.145C111.741 136.735 110.377 135.316 108.941 133.805C105.951 130.641 103.169 127.184 102.338 123.756C101.927 121.999 101.89 120.158 102.23 118.382C102.577 116.153 103.439 114.065 104.731 112.328C106.023 110.59 107.699 109.265 109.591 108.485C111.483 107.704 113.525 107.495 115.511 107.88C117.498 108.265 119.359 109.229 120.909 110.676C122.376 112.044 123.601 113.709 124.522 115.583H124.549Z" fill="#FE0000"/>
<path d="M61.5493 160.455C62.4703 158.581 63.6957 156.916 65.1622 155.547C66.7125 154.121 68.5679 153.174 70.5446 152.801C72.5212 152.428 74.5504 152.642 76.4309 153.42C78.3115 154.199 79.9779 155.516 81.2651 157.241C82.5523 158.966 83.4155 161.039 83.7691 163.254C84.1075 165.03 84.0735 166.87 83.6697 168.628C82.8297 172.055 80.0567 175.513 77.067 178.677C75.6399 180.188 74.3031 181.648 72.9301 183.017C68.73 187.428 64.6022 191.97 61.5041 197.436C58.406 191.97 54.2781 187.428 50.0871 183.017C48.7412 181.607 47.3773 180.188 45.9412 178.677C42.9514 175.513 40.1695 172.055 39.3385 168.628C38.9273 166.871 38.8902 165.03 39.2301 163.254C39.5765 161.024 40.439 158.937 41.7309 157.199C43.0228 155.462 44.6989 154.137 46.591 153.356C48.4831 152.576 50.5247 152.367 52.5112 152.752C54.4977 153.136 56.3592 154.1 57.9092 155.547C59.3757 156.916 60.6011 158.581 61.5222 160.455H61.5493Z" fill="#FE0000"/>
<path d="M186.549 160.455C187.47 158.581 188.696 156.916 190.162 155.547C191.712 154.121 193.568 153.174 195.545 152.801C197.521 152.428 199.55 152.642 201.431 153.42C203.311 154.199 204.978 155.516 206.265 157.241C207.552 158.966 208.415 161.039 208.769 163.254C209.108 165.03 209.074 166.87 208.67 168.628C207.83 172.055 205.057 175.513 202.067 178.677C200.64 180.188 199.303 181.648 197.93 183.017C193.73 187.428 189.602 191.97 186.504 197.436C183.406 191.97 179.278 187.428 175.087 183.017C173.741 181.607 172.377 180.188 170.941 178.677C167.951 175.513 165.169 172.055 164.338 168.628C163.927 166.871 163.89 165.03 164.23 163.254C164.577 161.024 165.439 158.937 166.731 157.199C168.023 155.462 169.699 154.137 171.591 153.356C173.483 152.576 175.525 152.367 177.511 152.752C179.498 153.136 181.359 154.1 182.909 155.547C184.376 156.916 185.601 158.581 186.522 160.455H186.549Z" fill="#FE0000"/>
<path d="M124.451 234.417C123.53 236.291 122.304 237.956 120.838 239.324C119.288 240.751 117.432 241.698 115.455 242.071C113.479 242.444 111.45 242.23 109.569 241.451C107.689 240.673 106.022 239.355 104.735 237.63C103.448 235.906 102.585 233.833 102.231 231.618C101.892 229.842 101.926 228.002 102.33 226.244C103.17 222.816 105.943 219.359 108.933 216.195C110.36 214.684 111.697 213.224 113.07 211.855C117.27 207.444 121.398 202.901 124.496 197.436C127.594 202.901 131.722 207.444 135.913 211.855C137.259 213.265 138.623 214.684 140.059 216.195C143.049 219.359 145.831 222.816 146.662 226.244C147.073 228.001 147.11 229.842 146.77 231.618C146.423 233.847 145.561 235.935 144.269 237.672C142.977 239.41 141.301 240.735 139.409 241.515C137.517 242.296 135.475 242.505 133.489 242.12C131.502 241.735 129.641 240.771 128.091 239.324C126.624 237.956 125.399 236.291 124.478 234.417H124.451Z" fill="#FE0000"/>
<path d="M14.9609 33.5166C14.9609 31.277 15.6445 29.5387 17.0117 28.3018C18.3919 27.0518 19.5768 26.29 20.5664 26.0166V25.9189C19.4596 25.5674 18.3789 24.8773 17.3242 23.8486C16.2826 22.807 15.7617 21.4398 15.7617 19.7471C15.7617 17.7158 16.582 16.0101 18.2227 14.6299C19.8763 13.2497 22.1354 12.5596 25 12.5596C27.8646 12.5596 30.1172 13.2497 31.7578 14.6299C33.4115 16.0101 34.2383 17.7158 34.2383 19.7471C34.2383 21.4398 33.7109 22.807 32.6562 23.8486C31.6146 24.8773 30.5404 25.5674 29.4336 25.9189V26.0166C30.4232 26.29 31.6016 27.0518 32.9688 28.3018C34.349 29.5387 35.0391 31.277 35.0391 33.5166C35.0391 35.9255 34.2513 37.8851 32.6758 39.3955C31.1133 40.9059 28.5547 41.6611 25 41.6611C21.4453 41.6611 18.8802 40.9059 17.3047 39.3955C15.7422 37.8851 14.9609 35.9255 14.9609 33.5166ZM20.8203 32.9307C20.8203 34.402 21.1458 35.4958 21.7969 36.2119C22.4479 36.9281 23.5156 37.2861 25 37.2861C26.4844 37.2861 27.5521 36.9281 28.2031 36.2119C28.8542 35.4958 29.1797 34.402 29.1797 32.9307C29.1797 31.8109 28.8216 30.7822 28.1055 29.8447C27.4023 28.8942 26.3672 28.4189 25 28.4189C23.6328 28.4189 22.5911 28.8942 21.875 29.8447C21.1719 30.7822 20.8203 31.8109 20.8203 32.9307ZM21.4648 20.333C21.4648 21.3747 21.7578 22.195 22.3438 22.7939C22.9427 23.3929 23.8281 23.6924 25 23.6924C26.1719 23.6924 27.0508 23.3929 27.6367 22.7939C28.2357 22.195 28.5352 21.3747 28.5352 20.333C28.5352 19.2913 28.2227 18.4645 27.5977 17.8525C26.9857 17.2406 26.1198 16.9346 25 16.9346C23.8802 16.9346 23.0078 17.2406 22.3828 17.8525C21.7708 18.4645 21.4648 19.2913 21.4648 20.333Z" fill="#FF0000"/>
<path d="M235.039 317.48C235.039 319.72 234.355 321.458 232.988 322.695C231.608 323.945 230.423 324.707 229.434 324.98V325.078C230.54 325.43 231.621 326.12 232.676 327.148C233.717 328.19 234.238 329.557 234.238 331.25C234.238 333.281 233.418 334.987 231.777 336.367C230.124 337.747 227.865 338.438 225 338.438C222.135 338.438 219.883 337.747 218.242 336.367C216.589 334.987 215.762 333.281 215.762 331.25C215.762 329.557 216.289 328.19 217.344 327.148C218.385 326.12 219.46 325.43 220.566 325.078V324.98C219.577 324.707 218.398 323.945 217.031 322.695C215.651 321.458 214.961 319.72 214.961 317.48C214.961 315.072 215.749 313.112 217.324 311.602C218.887 310.091 221.445 309.336 225 309.336C228.555 309.336 231.12 310.091 232.695 311.602C234.258 313.112 235.039 315.072 235.039 317.48ZM229.18 318.066C229.18 316.595 228.854 315.501 228.203 314.785C227.552 314.069 226.484 313.711 225 313.711C223.516 313.711 222.448 314.069 221.797 314.785C221.146 315.501 220.82 316.595 220.82 318.066C220.82 319.186 221.178 320.215 221.895 321.152C222.598 322.103 223.633 322.578 225 322.578C226.367 322.578 227.409 322.103 228.125 321.152C228.828 320.215 229.18 319.186 229.18 318.066ZM228.535 330.664C228.535 329.622 228.242 328.802 227.656 328.203C227.057 327.604 226.172 327.305 225 327.305C223.828 327.305 222.949 327.604 222.363 328.203C221.764 328.802 221.465 329.622 221.465 330.664C221.465 331.706 221.777 332.533 222.402 333.145C223.014 333.757 223.88 334.062 225 334.062C226.12 334.062 226.992 333.757 227.617 333.145C228.229 332.533 228.535 331.706 228.535 330.664Z" fill="#FF0000"/>
<path d="M224.967 294.882C224.353 296.131 223.536 297.241 222.559 298.154C221.525 299.105 220.288 299.736 218.97 299.984C217.653 300.233 216.3 300.091 215.046 299.572C213.792 299.052 212.681 298.174 211.823 297.024C210.965 295.874 210.39 294.493 210.154 293.016C209.928 291.832 209.951 290.606 210.22 289.433C210.78 287.148 212.629 284.843 214.622 282.734C215.573 281.727 216.465 280.753 217.38 279.841C220.18 276.9 222.932 273.872 224.997 270.228C227.063 273.872 229.815 276.9 232.609 279.841C233.506 280.78 234.415 281.727 235.373 282.734C237.366 284.843 239.22 287.148 239.774 289.433C240.048 290.605 240.073 291.832 239.847 293.016C239.616 294.502 239.041 295.894 238.179 297.052C237.318 298.21 236.201 299.094 234.939 299.614C233.678 300.135 232.317 300.274 230.993 300.017C229.668 299.761 228.427 299.118 227.394 298.154C226.416 297.241 225.599 296.131 224.985 294.882H224.967Z" fill="#FE0000"/>
<path d="M25.0328 56.1155C25.6469 54.8657 26.4638 53.756 27.4415 52.8436C28.475 51.8927 29.7119 51.2615 31.0297 51.0128C32.3475 50.7641 33.7003 50.9064 34.954 51.4256C36.2076 51.9449 37.3186 52.823 38.1768 53.9729C39.0349 55.1228 39.6103 56.5046 39.846 57.9812C40.0717 59.1651 40.049 60.3917 39.7798 61.564C39.2198 63.8489 37.3712 66.1541 35.378 68.2632C34.4266 69.2705 33.5354 70.2439 32.6201 71.1565C29.82 74.0971 27.0681 77.1256 25.0027 80.7693C22.9373 77.1256 20.1854 74.0971 17.3914 71.1565C16.4942 70.2169 15.5849 69.2705 14.6275 68.2632C12.6343 66.1541 10.7796 63.8489 10.2256 61.564C9.95155 60.3927 9.9268 59.1653 10.1534 57.9812C10.3844 56.495 10.9593 55.1031 11.8206 53.945C12.6819 52.7869 13.7993 51.9033 15.0606 51.3829C16.322 50.8625 17.6831 50.7235 19.0075 50.9799C20.3318 51.2363 21.5728 51.879 22.6061 52.8436C23.5838 53.756 24.4008 54.8657 25.0148 56.1155H25.0328Z" fill="#FE0000"/>
</svg>
