<svg width="250" height="350" viewBox="0 0 250 350" fill="none" xmlns="http://www.w3.org/2000/svg">
<rect width="250" height="350" rx="12.5" fill="white"/>
<path d="M186.451 275.3C185.53 277.174 184.304 278.839 182.838 280.208C181.288 281.634 179.432 282.581 177.455 282.954C175.479 283.327 173.45 283.113 171.569 282.335C169.689 281.556 168.022 280.239 166.735 278.514C165.448 276.789 164.585 274.716 164.231 272.501C163.892 270.725 163.926 268.885 164.33 267.127C165.17 263.7 167.943 260.242 170.933 257.078C172.36 255.567 173.697 254.107 175.07 252.738C179.27 248.327 183.398 243.785 186.496 238.319C189.594 243.785 193.722 248.327 197.913 252.738C199.259 254.148 200.623 255.567 202.059 257.078C205.049 260.242 207.831 263.7 208.662 267.127C209.073 268.884 209.11 270.725 208.77 272.501C208.423 274.731 207.561 276.818 206.269 278.556C204.977 280.293 203.301 281.618 201.409 282.399C199.517 283.179 197.475 283.388 195.489 283.003C193.502 282.619 191.641 281.655 190.091 280.208C188.624 278.839 187.399 277.174 186.478 275.3H186.451Z" fill="#FE0000"/>
<path d="M186.549 74.7002C187.47 72.8255 188.696 71.1609 190.162 69.7924C191.712 68.366 193.568 67.4193 195.545 67.0462C197.521 66.6731 199.55 66.8866 201.431 67.6654C203.311 68.4443 204.978 69.7615 206.265 71.4863C207.552 73.2112 208.415 75.2839 208.769 77.4988C209.108 79.2747 209.074 81.1145 208.67 82.873C207.83 86.3004 205.057 89.7581 202.067 92.9218C200.64 94.4327 199.303 95.8928 197.93 97.2617C193.73 101.673 189.602 106.215 186.504 111.681C183.406 106.215 179.278 101.673 175.087 97.2617C173.741 95.8523 172.377 94.4327 170.941 92.9218C167.951 89.7581 165.169 86.3004 164.338 82.873C163.927 81.116 163.89 79.275 164.23 77.4988C164.577 75.2695 165.439 73.1816 166.731 71.4445C168.023 69.7073 169.699 68.382 171.591 67.6014C173.483 66.8207 175.525 66.6123 177.511 66.9968C179.498 67.3814 181.359 68.3455 182.909 69.7924C184.376 71.1609 185.601 72.8255 186.522 74.7002H186.549Z" fill="#FE0000"/>
<path d="M62.5493 160.455C63.4703 158.581 64.6957 156.916 66.1622 155.547C67.7125 154.121 69.5679 153.174 71.5446 152.801C73.5212 152.428 75.5504 152.642 77.4309 153.42C79.3115 154.199 80.9779 155.516 82.2651 157.241C83.5523 158.966 84.4155 161.039 84.7691 163.254C85.1075 165.03 85.0735 166.87 84.6697 168.628C83.8297 172.055 81.0567 175.513 78.067 178.677C76.6399 180.188 75.3031 181.648 73.9301 183.017C69.73 187.428 65.6022 191.97 62.5041 197.436C59.406 191.97 55.2781 187.428 51.0871 183.017C49.7412 181.607 48.3773 180.188 46.9412 178.677C43.9514 175.513 41.1695 172.055 40.3385 168.628C39.9273 166.871 39.8902 165.03 40.2301 163.254C40.5765 161.024 41.439 158.937 42.7309 157.199C44.0228 155.462 45.6989 154.137 47.591 153.356C49.4831 152.576 51.5247 152.367 53.5112 152.752C55.4977 153.136 57.3592 154.1 58.9092 155.547C60.3757 156.916 61.6011 158.581 62.5222 160.455H62.5493Z" fill="#FE0000"/>
<path d="M186.549 160.455C187.47 158.581 188.696 156.916 190.162 155.547C191.712 154.121 193.568 153.174 195.545 152.801C197.521 152.428 199.55 152.642 201.431 153.42C203.311 154.199 204.978 155.516 206.265 157.241C207.552 158.966 208.415 161.039 208.769 163.254C209.108 165.03 209.074 166.87 208.67 168.628C207.83 172.055 205.057 175.513 202.067 178.677C200.64 180.188 199.303 181.648 197.93 183.017C193.73 187.428 189.602 191.97 186.504 197.436C183.406 191.97 179.278 187.428 175.087 183.017C173.741 181.607 172.377 180.188 170.941 178.677C167.951 175.513 165.169 172.055 164.338 168.628C163.927 166.871 163.89 165.03 164.23 163.254C164.577 161.024 165.439 158.937 166.731 157.199C168.023 155.462 169.699 154.137 171.591 153.356C173.483 152.576 175.525 152.367 177.511 152.752C179.498 153.136 181.359 154.1 182.909 155.547C184.376 156.916 185.601 158.581 186.522 160.455H186.549Z" fill="#FE0000"/>
<path d="M62.4507 275.3C61.5297 277.174 60.3043 278.839 58.8378 280.208C57.2875 281.634 55.4321 282.581 53.4554 282.954C51.4788 283.327 49.4496 283.113 47.5691 282.335C45.6885 281.556 44.0221 280.239 42.7349 278.514C41.4477 276.789 40.5845 274.716 40.2309 272.501C39.8925 270.725 39.9265 268.885 40.3303 267.127C41.1703 263.7 43.9433 260.242 46.933 257.078C48.3601 255.567 49.6969 254.107 51.0699 252.738C55.27 248.327 59.3978 243.785 62.4959 238.319C65.594 243.785 69.7219 248.327 73.9129 252.738C75.2588 254.148 76.6227 255.567 78.0588 257.078C81.0486 260.242 83.8305 263.7 84.6615 267.127C85.0727 268.884 85.1098 270.725 84.7699 272.501C84.4235 274.731 83.561 276.818 82.2691 278.556C80.9772 280.293 79.3011 281.618 77.409 282.399C75.5169 283.179 73.4753 283.388 71.4888 283.003C69.5023 282.619 67.6408 281.655 66.0908 280.208C64.6243 278.839 63.3989 277.174 62.4778 275.3H62.4507Z" fill="#FE0000"/>
<path d="M62.5493 74.7002C63.4703 72.8255 64.6957 71.1609 66.1622 69.7924C67.7125 68.366 69.5679 67.4193 71.5446 67.0462C73.5212 66.6731 75.5504 66.8866 77.4309 67.6654C79.3115 68.4443 80.9779 69.7615 82.2651 71.4863C83.5523 73.2112 84.4155 75.2839 84.7691 77.4988C85.1075 79.2747 85.0735 81.1145 84.6697 82.873C83.8297 86.3004 81.0567 89.7581 78.067 92.9218C76.6399 94.4327 75.3031 95.8928 73.9301 97.2617C69.73 101.673 65.6022 106.215 62.5041 111.681C59.406 106.215 55.2781 101.673 51.0871 97.2617C49.7412 95.8523 48.3773 94.4327 46.9412 92.9218C43.9514 89.7581 41.1695 86.3004 40.3385 82.873C39.9273 81.116 39.8902 79.275 40.2301 77.4988C40.5765 75.2695 41.439 73.1816 42.7309 71.4445C44.0228 69.7073 45.6989 68.382 47.591 67.6014C49.4831 66.8207 51.5247 66.6123 53.5112 66.9968C55.4977 67.3814 57.3592 68.3455 58.9092 69.7924C60.3757 71.1609 61.6011 72.8255 62.5222 74.7002H62.5493Z" fill="#FE0000"/>
<path d="M15 27.8916C15 22.0192 16.0482 17.9958 18.1445 15.8213C20.2539 13.6468 22.9102 12.5596 26.1133 12.5596C27.3633 12.5596 28.6068 12.7419 29.8438 13.1064C31.0807 13.458 32.0312 13.9268 32.6953 14.5127C33.3203 15.0726 33.457 15.6195 33.1055 16.1533L31.8164 18.0869C31.3997 18.7249 30.7943 18.7249 30 18.0869C29.6094 17.7744 29.0365 17.5075 28.2812 17.2861C27.5391 17.0518 26.7578 16.9346 25.9375 16.9346C24.5703 16.9346 23.3138 17.5791 22.168 18.8682C21.0221 20.1442 20.4492 22.3187 20.4492 25.3916H20.5273C21.1133 24.5062 21.9271 23.8747 22.9688 23.4971C24.0104 23.1064 25.2799 22.9111 26.7773 22.9111C29.4987 22.9111 31.556 23.8096 32.9492 25.6064C34.3424 27.3903 35.0391 29.6038 35.0391 32.2471C35.0391 35.1117 34.2253 37.3968 32.5977 39.1025C30.9701 40.8083 28.4831 41.6611 25.1367 41.6611C21.569 41.6611 18.9844 40.4697 17.3828 38.0869C15.7943 35.6911 15 32.2926 15 27.8916ZM21.4062 32.3447C21.4062 33.9333 21.7318 35.1572 22.3828 36.0166C23.0339 36.863 23.9844 37.2861 25.2344 37.2861C26.5625 37.2861 27.5521 36.9281 28.2031 36.2119C28.8542 35.4958 29.1797 34.1611 29.1797 32.208C29.1797 30.4893 28.8542 29.2393 28.2031 28.458C27.5521 27.6768 26.6406 27.2861 25.4688 27.2861C24.1797 27.2861 23.1771 27.8135 22.4609 28.8682C21.7578 29.9229 21.4062 31.0817 21.4062 32.3447Z" fill="#FF0000"/>
<path d="M235 323.105C235 328.978 233.952 333.001 231.855 335.176C229.746 337.35 227.09 338.438 223.887 338.438C222.637 338.438 221.393 338.255 220.156 337.891C218.919 337.539 217.969 337.07 217.305 336.484C216.68 335.924 216.543 335.378 216.895 334.844L218.184 332.91C218.6 332.272 219.206 332.272 220 332.91C220.391 333.223 220.964 333.49 221.719 333.711C222.461 333.945 223.242 334.062 224.062 334.062C225.43 334.062 226.686 333.418 227.832 332.129C228.978 330.853 229.551 328.678 229.551 325.605H229.473C228.887 326.491 228.073 327.122 227.031 327.5C225.99 327.891 224.72 328.086 223.223 328.086C220.501 328.086 218.444 327.188 217.051 325.391C215.658 323.607 214.961 321.393 214.961 318.75C214.961 315.885 215.775 313.6 217.402 311.895C219.03 310.189 221.517 309.336 224.863 309.336C228.431 309.336 231.016 310.527 232.617 312.91C234.206 315.306 235 318.704 235 323.105ZM228.594 318.652C228.594 317.064 228.268 315.84 227.617 314.98C226.966 314.134 226.016 313.711 224.766 313.711C223.438 313.711 222.448 314.069 221.797 314.785C221.146 315.501 220.82 316.836 220.82 318.789C220.82 320.508 221.146 321.758 221.797 322.539C222.448 323.32 223.359 323.711 224.531 323.711C225.82 323.711 226.823 323.184 227.539 322.129C228.242 321.074 228.594 319.915 228.594 318.652Z" fill="#FF0000"/>
<path d="M224.967 294.882C224.353 296.131 223.536 297.241 222.559 298.154C221.525 299.105 220.288 299.736 218.97 299.984C217.653 300.233 216.3 300.091 215.046 299.572C213.792 299.052 212.681 298.174 211.823 297.024C210.965 295.874 210.39 294.493 210.154 293.016C209.928 291.832 209.951 290.606 210.22 289.433C210.78 287.148 212.629 284.843 214.622 282.734C215.573 281.727 216.465 280.753 217.38 279.841C220.18 276.9 222.932 273.872 224.997 270.228C227.063 273.872 229.815 276.9 232.609 279.841C233.506 280.78 234.415 281.727 235.373 282.734C237.366 284.843 239.22 287.148 239.774 289.433C240.048 290.605 240.073 291.832 239.847 293.016C239.616 294.502 239.041 295.894 238.179 297.052C237.318 298.21 236.201 299.094 234.939 299.614C233.678 300.135 232.317 300.274 230.993 300.017C229.668 299.761 228.427 299.118 227.394 298.154C226.416 297.241 225.599 296.131 224.985 294.882H224.967Z" fill="#FE0000"/>
<path d="M25.0328 56.1155C25.6469 54.8657 26.4638 53.756 27.4415 52.8436C28.475 51.8927 29.7119 51.2615 31.0297 51.0128C32.3475 50.7641 33.7003 50.9064 34.954 51.4256C36.2076 51.9449 37.3186 52.823 38.1768 53.9729C39.0349 55.1228 39.6103 56.5046 39.846 57.9812C40.0717 59.1651 40.049 60.3917 39.7798 61.564C39.2198 63.8489 37.3712 66.1541 35.378 68.2632C34.4266 69.2705 33.5354 70.2439 32.6201 71.1565C29.82 74.0971 27.0681 77.1256 25.0027 80.7693C22.9373 77.1256 20.1854 74.0971 17.3914 71.1565C16.4942 70.2169 15.5849 69.2705 14.6275 68.2632C12.6343 66.1541 10.7796 63.8489 10.2256 61.564C9.95155 60.3927 9.9268 59.1653 10.1534 57.9812C10.3844 56.495 10.9593 55.1031 11.8206 53.945C12.6819 52.7869 13.7993 51.9033 15.0606 51.3829C16.322 50.8625 17.6831 50.7235 19.0075 50.9799C20.3318 51.2363 21.5728 51.879 22.6061 52.8436C23.5838 53.756 24.4008 54.8657 25.0148 56.1155H25.0328Z" fill="#FE0000"/>
</svg>
