<svg width="250" height="350" viewBox="0 0 250 350" fill="none" xmlns="http://www.w3.org/2000/svg">
<rect width="250" height="350" rx="12.5" fill="white"/>
<path d="M187.451 274.303C186.53 276.177 185.304 277.842 183.838 279.21C182.288 280.637 180.432 281.584 178.455 281.957C176.479 282.33 174.45 282.116 172.569 281.337C170.689 280.559 169.022 279.241 167.735 277.516C166.448 275.792 165.585 273.719 165.231 271.504C164.892 269.728 164.926 267.888 165.33 266.13C166.17 262.702 168.943 259.245 171.933 256.081C173.36 254.57 174.697 253.11 176.07 251.741C180.27 247.33 184.398 242.787 187.496 237.322C190.594 242.787 194.722 247.33 198.913 251.741C200.259 253.151 201.623 254.57 203.059 256.081C206.049 259.245 208.831 262.702 209.662 266.13C210.073 267.887 210.11 269.728 209.77 271.504C209.423 273.733 208.561 275.821 207.269 277.558C205.977 279.295 204.301 280.621 202.409 281.401C200.517 282.182 198.475 282.391 196.489 282.006C194.502 281.621 192.641 280.657 191.091 279.21C189.624 277.842 188.399 276.177 187.478 274.303H187.451Z" fill="#FE0000"/>
<path d="M186.451 217.465C185.53 219.34 184.304 221.004 182.838 222.373C181.288 223.799 179.432 224.746 177.455 225.119C175.479 225.492 173.45 225.279 171.569 224.5C169.689 223.721 168.022 222.404 166.735 220.679C165.448 218.954 164.585 216.881 164.231 214.666C163.892 212.891 163.926 211.051 164.33 209.292C165.17 205.865 167.943 202.407 170.933 199.243C172.36 197.732 173.697 196.272 175.07 194.903C179.27 190.492 183.398 185.95 186.496 180.484C189.594 185.95 193.722 190.492 197.913 194.903C199.259 196.313 200.623 197.732 202.059 199.243C205.049 202.407 207.831 205.865 208.662 209.292C209.073 211.049 209.11 212.89 208.77 214.666C208.423 216.896 207.561 218.984 206.269 220.721C204.977 222.458 203.301 223.783 201.409 224.564C199.517 225.344 197.475 225.553 195.489 225.168C193.502 224.784 191.641 223.82 190.091 222.373C188.624 221.004 187.399 219.34 186.478 217.465H186.451Z" fill="#FE0000"/>
<path d="M186.549 131.538C187.47 129.663 188.696 127.999 190.162 126.63C191.712 125.204 193.568 124.257 195.545 123.884C197.521 123.511 199.55 123.724 201.431 124.503C203.311 125.282 204.978 126.599 206.265 128.324C207.552 130.049 208.415 132.122 208.769 134.336C209.108 136.112 209.074 137.952 208.67 139.711C207.83 143.138 205.057 146.596 202.067 149.759C200.64 151.27 199.303 152.73 197.93 154.099C193.73 158.51 189.602 163.053 186.504 168.519C183.406 163.053 179.278 158.51 175.087 154.099C173.741 152.69 172.377 151.27 170.941 149.759C167.951 146.596 165.169 143.138 164.338 139.711C163.927 137.954 163.89 136.113 164.23 134.336C164.577 132.107 165.439 130.019 166.731 128.282C168.023 126.545 169.699 125.22 171.591 124.439C173.483 123.658 175.525 123.45 177.511 123.834C179.498 124.219 181.359 125.183 182.909 126.63C184.376 127.999 185.601 129.663 186.522 131.538H186.549Z" fill="#FE0000"/>
<path d="M186.549 73.7031C187.47 71.8284 188.696 70.1639 190.162 68.7953C191.712 67.3689 193.568 66.4222 195.545 66.0491C197.521 65.676 199.55 65.8895 201.431 66.6683C203.311 67.4472 204.978 68.7644 206.265 70.4893C207.552 72.2142 208.415 74.2868 208.769 76.5018C209.108 78.2776 209.074 80.1174 208.67 81.876C207.83 85.3033 205.057 88.7611 202.067 91.9247C200.64 93.4356 199.303 94.8958 197.93 96.2647C193.73 100.676 189.602 105.218 186.504 110.684C183.406 105.218 179.278 100.676 175.087 96.2647C173.741 94.8552 172.377 93.4356 170.941 91.9247C167.951 88.7611 165.169 85.3033 164.338 81.876C163.927 80.1189 163.89 78.2779 164.23 76.5018C164.577 74.2724 165.439 72.1845 166.731 70.4474C168.023 68.7102 169.699 67.3849 171.591 66.6043C173.483 65.8237 175.525 65.6152 177.511 65.9998C179.498 66.3843 181.359 67.3484 182.909 68.7953C184.376 70.1639 185.601 71.8284 186.522 73.7031H186.549Z" fill="#FE0000"/>
<path d="M124.549 115.583C125.47 113.709 126.696 112.044 128.162 110.676C129.712 109.249 131.568 108.302 133.545 107.929C135.521 107.556 137.55 107.77 139.431 108.549C141.311 109.327 142.978 110.645 144.265 112.37C145.552 114.094 146.415 116.167 146.769 118.382C147.108 120.158 147.074 121.998 146.67 123.756C145.83 127.184 143.057 130.641 140.067 133.805C138.64 135.316 137.303 136.776 135.93 138.145C131.73 142.556 127.602 147.099 124.504 152.564C121.406 147.099 117.278 142.556 113.087 138.145C111.741 136.735 110.377 135.316 108.941 133.805C105.951 130.641 103.169 127.184 102.338 123.756C101.927 121.999 101.89 120.158 102.23 118.382C102.577 116.153 103.439 114.065 104.731 112.328C106.023 110.59 107.699 109.265 109.591 108.485C111.483 107.704 113.525 107.495 115.511 107.88C117.498 108.265 119.359 109.229 120.909 110.676C122.376 112.044 123.601 113.709 124.522 115.583H124.549Z" fill="#FE0000"/>
<path d="M124.451 234.417C123.53 236.291 122.304 237.956 120.838 239.324C119.288 240.751 117.432 241.698 115.455 242.071C113.479 242.444 111.45 242.23 109.569 241.451C107.689 240.673 106.022 239.355 104.735 237.63C103.448 235.906 102.585 233.833 102.231 231.618C101.892 229.842 101.926 228.002 102.33 226.244C103.17 222.816 105.943 219.359 108.933 216.195C110.36 214.684 111.697 213.224 113.07 211.855C117.27 207.444 121.398 202.901 124.496 197.436C127.594 202.901 131.722 207.444 135.913 211.855C137.259 213.265 138.623 214.684 140.059 216.195C143.049 219.359 145.831 222.816 146.662 226.244C147.073 228.001 147.11 229.842 146.77 231.618C146.423 233.847 145.561 235.935 144.269 237.672C142.977 239.41 141.301 240.735 139.409 241.515C137.517 242.296 135.475 242.505 133.489 242.12C131.502 241.735 129.641 240.771 128.091 239.324C126.624 237.956 125.399 236.291 124.478 234.417H124.451Z" fill="#FE0000"/>
<path d="M62.4507 275.3C61.5297 277.174 60.3043 278.839 58.8378 280.208C57.2875 281.634 55.4321 282.581 53.4554 282.954C51.4788 283.327 49.4496 283.113 47.5691 282.335C45.6885 281.556 44.0221 280.239 42.7349 278.514C41.4477 276.789 40.5845 274.716 40.2309 272.501C39.8925 270.725 39.9265 268.885 40.3303 267.127C41.1703 263.7 43.9433 260.242 46.933 257.078C48.3601 255.567 49.6969 254.107 51.0699 252.738C55.27 248.327 59.3978 243.785 62.4959 238.319C65.594 243.785 69.7219 248.327 73.9129 252.738C75.2588 254.148 76.6227 255.567 78.0588 257.078C81.0486 260.242 83.8305 263.7 84.6615 267.127C85.0727 268.884 85.1098 270.725 84.7699 272.501C84.4235 274.731 83.561 276.818 82.2691 278.556C80.9772 280.293 79.3011 281.618 77.409 282.399C75.5169 283.179 73.4753 283.388 71.4888 283.003C69.5023 282.619 67.6408 281.655 66.0908 280.208C64.6243 278.839 63.3989 277.174 62.4778 275.3H62.4507Z" fill="#FE0000"/>
<path d="M7.94922 18.7706C7.61068 18.1326 7.83854 17.6378 8.63281 17.2863C9.38802 16.9477 10.1758 16.4725 10.9961 15.8605C11.8164 15.2485 12.487 14.617 13.0078 13.9659C13.5938 13.2368 14.1536 12.8722 14.6875 12.8722H17.793C18.5742 12.8722 18.9648 13.2628 18.9648 14.0441V39.8253C18.9648 40.6066 18.5742 40.9972 17.793 40.9972H14.668C13.8867 40.9972 13.4961 40.6066 13.4961 39.8253V21.2511C13.4961 20.7303 13.5221 20.2094 13.5742 19.6886H13.4961C13.0924 20.1964 12.6497 20.6326 12.168 20.9972C11.6862 21.3618 11.1979 21.6482 10.7031 21.8566C10.0911 22.117 9.62891 21.9477 9.31641 21.3488L7.94922 18.7706ZM23.8672 27.1105C23.8672 21.837 24.6875 18.0935 26.3281 15.88C27.9688 13.6665 30.4818 12.5597 33.8672 12.5597C37.2526 12.5597 39.7656 13.6665 41.4062 15.88C43.0469 18.0935 43.8672 21.837 43.8672 27.1105C43.8672 32.3839 43.0469 36.1274 41.4062 38.3409C39.7656 40.5545 37.2526 41.6613 33.8672 41.6613C30.4818 41.6613 27.9688 40.5545 26.3281 38.3409C24.6875 36.1274 23.8672 32.3839 23.8672 27.1105ZM29.6484 27.1105C29.6484 29.5193 29.8438 31.837 30.2344 34.0636C30.638 36.2902 31.849 37.4034 33.8672 37.4034C35.8854 37.4034 37.0898 36.2902 37.4805 34.0636C37.8841 31.837 38.0859 29.5193 38.0859 27.1105C38.0859 24.7016 37.8841 22.3839 37.4805 20.1573C37.0898 17.9308 35.8854 16.8175 33.8672 16.8175C31.849 16.8175 30.638 17.9308 30.2344 20.1573C29.8438 22.3839 29.6484 24.7016 29.6484 27.1105Z" fill="#FF0000"/>
<path d="M244.051 331.229C244.389 331.867 244.161 332.362 243.367 332.714C242.612 333.052 241.824 333.528 241.004 334.14C240.184 334.752 239.513 335.383 238.992 336.034C238.406 336.763 237.846 337.128 237.312 337.128H234.207C233.426 337.128 233.035 336.737 233.035 335.956V310.175C233.035 309.393 233.426 309.003 234.207 309.003H237.332C238.113 309.003 238.504 309.393 238.504 310.175V328.749C238.504 329.27 238.478 329.791 238.426 330.311H238.504C238.908 329.804 239.35 329.367 239.832 329.003C240.314 328.638 240.802 328.352 241.297 328.143C241.909 327.883 242.371 328.052 242.684 328.651L244.051 331.229ZM228.133 322.89C228.133 328.163 227.312 331.906 225.672 334.12C224.031 336.334 221.518 337.44 218.133 337.44C214.747 337.44 212.234 336.334 210.594 334.12C208.953 331.906 208.133 328.163 208.133 322.89C208.133 317.616 208.953 313.873 210.594 311.659C212.234 309.446 214.747 308.339 218.133 308.339C221.518 308.339 224.031 309.446 225.672 311.659C227.312 313.873 228.133 317.616 228.133 322.89ZM222.352 322.89C222.352 320.481 222.156 318.163 221.766 315.936C221.362 313.71 220.151 312.597 218.133 312.597C216.115 312.597 214.91 313.71 214.52 315.936C214.116 318.163 213.914 320.481 213.914 322.89C213.914 325.298 214.116 327.616 214.52 329.843C214.91 332.069 216.115 333.182 218.133 333.182C220.151 333.182 221.362 332.069 221.766 329.843C222.156 327.616 222.352 325.298 222.352 322.89Z" fill="#FF0000"/>
<path d="M62.5493 73.7031C63.4703 71.8284 64.6957 70.1639 66.1622 68.7953C67.7125 67.3689 69.5679 66.4222 71.5446 66.0491C73.5212 65.676 75.5504 65.8895 77.4309 66.6683C79.3115 67.4472 80.9779 68.7644 82.2651 70.4893C83.5523 72.2142 84.4155 74.2868 84.7691 76.5018C85.1075 78.2776 85.0735 80.1174 84.6697 81.876C83.8297 85.3033 81.0567 88.7611 78.067 91.9247C76.6399 93.4356 75.3031 94.8958 73.9301 96.2647C69.73 100.676 65.6022 105.218 62.5041 110.684C59.406 105.218 55.2781 100.676 51.0871 96.2647C49.7412 94.8552 48.3773 93.4356 46.9412 91.9247C43.9514 88.7611 41.1695 85.3033 40.3385 81.876C39.9273 80.1189 39.8902 78.2779 40.2301 76.5018C40.5765 74.2724 41.439 72.1845 42.7309 70.4474C44.0228 68.7102 45.6989 67.3849 47.591 66.6043C49.4831 65.8237 51.5247 65.6152 53.5112 65.9998C55.4977 66.3843 57.3592 67.3484 58.9092 68.7953C60.3757 70.1639 61.6011 71.8284 62.5222 73.7031H62.5493Z" fill="#FE0000"/>
<path d="M62.5493 130.541C63.4703 128.666 64.6957 127.001 66.1622 125.633C67.7125 124.206 69.5679 123.26 71.5446 122.887C73.5212 122.514 75.5504 122.727 77.4309 123.506C79.3115 124.285 80.9779 125.602 82.2651 127.327C83.5523 129.052 84.4155 131.124 84.7691 133.339C85.1075 135.115 85.0735 136.955 84.6697 138.713C83.8297 142.141 81.0567 145.599 78.067 148.762C76.6399 150.273 75.3031 151.733 73.9301 153.102C69.73 157.513 65.6022 162.056 62.5041 167.521C59.406 162.056 55.2781 157.513 51.0871 153.102C49.7412 151.693 48.3773 150.273 46.9412 148.762C43.9514 145.599 41.1695 142.141 40.3385 138.713C39.9273 136.956 39.8902 135.115 40.2301 133.339C40.5765 131.11 41.439 129.022 42.7309 127.285C44.0228 125.548 45.6989 124.222 47.591 123.442C49.4831 122.661 51.5247 122.453 53.5112 122.837C55.4977 123.222 57.3592 124.186 58.9092 125.633C60.3757 127.001 61.6011 128.666 62.5222 130.541H62.5493Z" fill="#FE0000"/>
<path d="M62.4507 216.468C61.5297 218.343 60.3043 220.007 58.8378 221.376C57.2875 222.802 55.4321 223.749 53.4554 224.122C51.4788 224.495 49.4496 224.282 47.5691 223.503C45.6885 222.724 44.0221 221.407 42.7349 219.682C41.4477 217.957 40.5845 215.884 40.2309 213.669C39.8925 211.893 39.9265 210.054 40.3303 208.295C41.1703 204.868 43.9433 201.41 46.933 198.246C48.3601 196.735 49.6969 195.275 51.0699 193.906C55.27 189.495 59.3978 184.953 62.4959 179.487C65.594 184.953 69.7219 189.495 73.9129 193.906C75.2588 195.316 76.6227 196.735 78.0588 198.246C81.0486 201.41 83.8305 204.868 84.6615 208.295C85.0727 210.052 85.1098 211.893 84.7699 213.669C84.4235 215.899 83.561 217.987 82.2691 219.724C80.9772 221.461 79.3011 222.786 77.409 223.567C75.5169 224.347 73.4753 224.556 71.4888 224.171C69.5023 223.787 67.6408 222.823 66.0908 221.376C64.6243 220.007 63.3989 218.343 62.4778 216.468H62.4507Z" fill="#FE0000"/>
<path d="M224.967 293.885C224.353 295.134 223.536 296.244 222.559 297.156C221.525 298.107 220.288 298.738 218.97 298.987C217.653 299.236 216.3 299.094 215.046 298.574C213.792 298.055 212.681 297.177 211.823 296.027C210.965 294.877 210.39 293.495 210.154 292.019C209.928 290.835 209.951 289.608 210.22 288.436C210.78 286.151 212.629 283.846 214.622 281.737C215.573 280.73 216.465 279.756 217.38 278.843C220.18 275.903 222.932 272.874 224.997 269.231C227.063 272.874 229.815 275.903 232.609 278.843C233.506 279.783 234.415 280.73 235.373 281.737C237.366 283.846 239.22 286.151 239.774 288.436C240.048 289.607 240.073 290.835 239.847 292.019C239.616 293.505 239.041 294.897 238.179 296.055C237.318 297.213 236.201 298.097 234.939 298.617C233.678 299.137 232.317 299.276 230.993 299.02C229.668 298.764 228.427 298.121 227.394 297.156C226.416 296.244 225.599 295.134 224.985 293.885H224.967Z" fill="#FE0000"/>
<path d="M25.0328 55.1183C25.6469 53.8685 26.4638 52.7588 27.4415 51.8464C28.475 50.8955 29.7119 50.2644 31.0297 50.0156C32.3475 49.7669 33.7003 49.9092 34.954 50.4284C36.2076 50.9477 37.3186 51.8258 38.1768 52.9757C39.0349 54.1257 39.6103 55.5074 39.846 56.984C40.0717 58.1679 40.049 59.3945 39.7798 60.5669C39.2198 62.8517 37.3712 65.1569 35.378 67.266C34.4266 68.2733 33.5354 69.2467 32.6201 70.1593C29.82 73.0999 27.0681 76.1284 25.0027 79.7721C22.9373 76.1284 20.1854 73.0999 17.3914 70.1593C16.4942 69.2197 15.5849 68.2733 14.6275 67.266C12.6343 65.1569 10.7796 62.8517 10.2256 60.5669C9.95155 59.3955 9.9268 58.1681 10.1534 56.984C10.3844 55.4978 10.9593 54.1059 11.8206 52.9478C12.6819 51.7897 13.7993 50.9061 15.0606 50.3857C16.322 49.8653 17.6831 49.7263 19.0075 49.9827C20.3318 50.2391 21.5728 50.8818 22.6061 51.8464C23.5838 52.7588 24.4008 53.8685 25.0148 55.1183H25.0328Z" fill="#FE0000"/>
</svg>
