<svg width="250" height="350" viewBox="0 0 250 350" fill="none" xmlns="http://www.w3.org/2000/svg">
<rect width="250" height="350" rx="12.5" fill="white"/>
<path d="M184.941 249.706C184.336 248.998 183.655 248.352 182.909 247.777C181.359 246.557 179.498 245.744 177.513 245.42C175.528 245.096 173.488 245.272 171.597 245.931C169.707 246.59 168.031 247.708 166.738 249.174C165.445 250.64 164.581 252.403 164.23 254.285C163.892 255.786 163.927 257.341 164.332 258.827C165.165 261.719 167.948 264.612 170.934 267.302C172.366 268.574 173.737 269.77 175.078 270.965C179.141 274.523 183.58 278.765 186.495 283.191C189.42 278.765 193.9 274.513 197.912 270.965L202.066 267.302C205.042 264.621 207.825 261.709 208.668 258.827C209.073 257.341 209.108 255.786 208.77 254.285C208.419 252.403 207.555 250.64 206.262 249.174C204.969 247.708 203.293 246.59 201.403 245.931C199.512 245.272 197.472 245.096 195.487 245.42C193.502 245.744 191.641 246.557 190.091 247.777C189.308 248.432 188.603 249.166 187.988 249.966C190.07 245.357 192.975 242.195 197.13 240.729V238.319H175.952V240.729C180.015 242.166 182.92 245.242 184.992 249.706H184.941Z" fill="black"/>
<path d="M60.9409 249.706C60.3358 248.998 59.655 248.352 58.9094 247.777C57.359 246.557 55.4983 245.744 53.5133 245.42C51.5282 245.096 49.4883 245.272 47.5975 245.931C45.7066 246.59 44.0311 247.708 42.7382 249.174C41.4454 250.64 40.5805 252.403 40.2301 254.285C39.8921 255.786 39.9269 257.341 40.3317 258.827C41.1646 261.719 43.9477 264.612 46.934 267.302C48.3661 268.574 49.7374 269.77 51.0781 270.965C55.141 274.523 59.5798 278.765 62.4949 283.191C65.4202 278.765 69.8996 274.513 73.9117 270.965L78.066 267.302C81.0421 264.621 83.8252 261.709 84.6683 258.827C85.0731 257.341 85.1079 255.786 84.7699 254.285C84.4195 252.403 83.5546 250.64 82.2618 249.174C80.9689 247.708 79.2933 246.59 77.4025 245.931C75.5117 245.272 73.4718 245.096 71.4867 245.42C69.5017 245.744 67.641 246.557 66.0906 247.777C65.308 248.432 64.603 249.166 63.988 249.966C66.0703 245.357 68.9753 242.195 73.1296 240.729V238.319H51.9517V240.729C56.0146 242.166 58.9196 245.242 60.9916 249.706H60.9409Z" fill="black"/>
<path d="M64.0591 100.294C64.6642 101.002 65.345 101.648 66.0906 102.223C67.641 103.443 69.5017 104.256 71.4867 104.58C73.4718 104.904 75.5117 104.728 77.4025 104.069C79.2934 103.41 80.9689 102.292 82.2618 100.826C83.5546 99.3598 84.4195 97.5973 84.7699 95.7145C85.1079 94.2138 85.0731 92.659 84.6683 91.1733C83.8354 88.2809 81.0523 85.3884 78.066 82.6984C76.6339 81.4257 75.2626 80.2302 73.9219 79.0346C69.859 75.4769 65.4202 71.2346 62.5051 66.8091C59.5798 71.2346 55.1004 75.4865 51.0883 79.0346L46.934 82.6984C43.9579 85.3787 41.1748 88.2905 40.3317 91.1733C39.9269 92.659 39.8921 94.2138 40.2301 95.7145C40.5805 97.5973 41.4454 99.3598 42.7382 100.826C44.0311 102.292 45.7067 103.41 47.5975 104.069C49.4883 104.728 51.5282 104.904 53.5133 104.58C55.4983 104.256 57.359 103.443 58.9094 102.223C59.692 101.568 60.397 100.834 61.012 100.034C58.9297 104.643 56.0247 107.805 51.8704 109.271V111.681H73.0483V109.271C68.9854 107.834 66.0804 104.758 64.0084 100.294H64.0591Z" fill="black"/>
<path d="M188.059 100.294C188.664 101.002 189.345 101.648 190.091 102.223C191.641 103.443 193.502 104.256 195.487 104.58C197.472 104.904 199.512 104.728 201.403 104.069C203.293 103.41 204.969 102.292 206.262 100.826C207.555 99.3598 208.419 97.5973 208.77 95.7145C209.108 94.2138 209.073 92.659 208.668 91.1733C207.835 88.2809 205.052 85.3884 202.066 82.6984C200.634 81.4257 199.263 80.2302 197.922 79.0346C193.859 75.4769 189.42 71.2346 186.505 66.8091C183.58 71.2346 179.1 75.4865 175.088 79.0346L170.934 82.6984C167.958 85.3787 165.175 88.2905 164.332 91.1733C163.927 92.659 163.892 94.2138 164.23 95.7145C164.581 97.5973 165.445 99.3598 166.738 100.826C168.031 102.292 169.707 103.41 171.597 104.069C173.488 104.728 175.528 104.904 177.513 104.58C179.498 104.256 181.359 103.443 182.909 102.223C183.692 101.568 184.397 100.834 185.012 100.034C182.93 104.643 180.025 107.805 175.87 109.271V111.681H197.048V109.271C192.985 107.834 190.08 104.758 188.008 100.294H188.059Z" fill="black"/>
<path d="M126.059 141.177C126.664 141.885 127.345 142.531 128.091 143.106C129.641 144.326 131.502 145.139 133.487 145.463C135.472 145.787 137.512 145.611 139.403 144.952C141.293 144.293 142.969 143.175 144.262 141.709C145.555 140.243 146.419 138.48 146.77 136.598C147.108 135.097 147.073 133.542 146.668 132.057C145.835 129.164 143.052 126.272 140.066 123.582C138.634 122.309 137.263 121.113 135.922 119.918C131.859 116.36 127.42 112.118 124.505 107.692C121.58 112.118 117.1 116.37 113.088 119.918L108.934 123.582C105.958 126.262 103.175 129.174 102.332 132.057C101.927 133.542 101.892 135.097 102.23 136.598C102.581 138.48 103.445 140.243 104.738 141.709C106.031 143.175 107.707 144.293 109.597 144.952C111.488 145.611 113.528 145.787 115.513 145.463C117.498 145.139 119.359 144.326 120.909 143.106C121.692 142.451 122.397 141.717 123.012 140.917C120.93 145.526 118.025 148.688 113.87 150.154V152.564H135.048V150.154C130.985 148.717 128.08 145.641 126.008 141.177H126.059Z" fill="black"/>
<path d="M63.0591 186.049C63.6642 186.757 64.345 187.403 65.0906 187.978C66.641 189.198 68.5017 190.011 70.4867 190.335C72.4718 190.659 74.5117 190.483 76.4025 189.824C78.2934 189.165 79.9689 188.047 81.2618 186.581C82.5546 185.115 83.4195 183.352 83.7699 181.469C84.1079 179.969 84.0731 178.414 83.6683 176.928C82.8354 174.036 80.0523 171.143 77.066 168.453C75.6339 167.181 74.2626 165.985 72.9219 164.79C68.859 161.232 64.4202 156.99 61.5051 152.564C58.5798 156.99 54.1004 161.241 50.0883 164.79L45.934 168.453C42.9579 171.134 40.1748 174.045 39.3317 176.928C38.9269 178.414 38.8921 179.969 39.2301 181.469C39.5805 183.352 40.4454 185.115 41.7382 186.581C43.0311 188.047 44.7067 189.165 46.5975 189.824C48.4883 190.483 50.5282 190.659 52.5133 190.335C54.4983 190.011 56.359 189.198 57.9094 187.978C58.692 187.323 59.397 186.589 60.012 185.789C57.9297 190.398 55.0247 193.56 50.8704 195.025V197.436H72.0483V195.025C67.9854 193.589 65.0804 190.513 63.0084 186.049H63.0591Z" fill="black"/>
<path d="M188.059 186.049C188.664 186.757 189.345 187.403 190.091 187.978C191.641 189.198 193.502 190.011 195.487 190.335C197.472 190.659 199.512 190.483 201.403 189.824C203.293 189.165 204.969 188.047 206.262 186.581C207.555 185.115 208.419 183.352 208.77 181.469C209.108 179.969 209.073 178.414 208.668 176.928C207.835 174.036 205.052 171.143 202.066 168.453C200.634 167.181 199.263 165.985 197.922 164.79C193.859 161.232 189.42 156.99 186.505 152.564C183.58 156.99 179.1 161.241 175.088 164.79L170.934 168.453C167.958 171.134 165.175 174.045 164.332 176.928C163.927 178.414 163.892 179.969 164.23 181.469C164.581 183.352 165.445 185.115 166.738 186.581C168.031 188.047 169.707 189.165 171.597 189.824C173.488 190.483 175.528 190.659 177.513 190.335C179.498 190.011 181.359 189.198 182.909 187.978C183.692 187.323 184.397 186.589 185.012 185.789C182.93 190.398 180.025 193.56 175.87 195.025V197.436H197.048V195.025C192.985 193.589 190.08 190.513 188.008 186.049H188.059Z" fill="black"/>
<path d="M122.941 208.823C122.336 208.115 121.655 207.469 120.909 206.894C119.359 205.674 117.498 204.861 115.513 204.537C113.528 204.213 111.488 204.389 109.597 205.048C107.707 205.707 106.031 206.825 104.738 208.291C103.445 209.757 102.581 211.52 102.23 213.402C101.892 214.903 101.927 216.458 102.332 217.943C103.165 220.836 105.948 223.728 108.934 226.418C110.366 227.691 111.737 228.887 113.078 230.082C117.141 233.64 121.58 237.882 124.495 242.308C127.42 237.882 131.9 233.63 135.912 230.082L140.066 226.418C143.042 223.738 145.825 220.826 146.668 217.943C147.073 216.458 147.108 214.903 146.77 213.402C146.419 211.52 145.555 209.757 144.262 208.291C142.969 206.825 141.293 205.707 139.403 205.048C137.512 204.389 135.472 204.213 133.487 204.537C131.502 204.861 129.641 205.674 128.091 206.894C127.308 207.549 126.603 208.283 125.988 209.083C128.07 204.474 130.975 201.312 135.13 199.846V197.436H113.952V199.846C118.015 201.283 120.92 204.359 122.992 208.823H122.941Z" fill="black"/>
<path d="M14.9609 33.5167C14.9609 31.2771 15.6445 29.5388 17.0117 28.3018C18.3919 27.0518 19.5768 26.2901 20.5664 26.0167V25.919C19.4596 25.5675 18.3789 24.8774 17.3242 23.8487C16.2826 22.807 15.7617 21.4399 15.7617 19.7471C15.7617 17.7159 16.582 16.0102 18.2227 14.63C19.8763 13.2498 22.1354 12.5596 25 12.5596C27.8646 12.5596 30.1172 13.2498 31.7578 14.63C33.4115 16.0102 34.2383 17.7159 34.2383 19.7471C34.2383 21.4399 33.7109 22.807 32.6562 23.8487C31.6146 24.8774 30.5404 25.5675 29.4336 25.919V26.0167C30.4232 26.2901 31.6016 27.0518 32.9688 28.3018C34.349 29.5388 35.0391 31.2771 35.0391 33.5167C35.0391 35.9255 34.2513 37.8852 32.6758 39.3956C31.1133 40.906 28.5547 41.6612 25 41.6612C21.4453 41.6612 18.8802 40.906 17.3047 39.3956C15.7422 37.8852 14.9609 35.9255 14.9609 33.5167ZM20.8203 32.9307C20.8203 34.4021 21.1458 35.4958 21.7969 36.212C22.4479 36.9281 23.5156 37.2862 25 37.2862C26.4844 37.2862 27.5521 36.9281 28.2031 36.212C28.8542 35.4958 29.1797 34.4021 29.1797 32.9307C29.1797 31.8109 28.8216 30.7823 28.1055 29.8448C27.4023 28.8943 26.3672 28.419 25 28.419C23.6328 28.419 22.5911 28.8943 21.875 29.8448C21.1719 30.7823 20.8203 31.8109 20.8203 32.9307ZM21.4648 20.3331C21.4648 21.3748 21.7578 22.1951 22.3438 22.794C22.9427 23.393 23.8281 23.6925 25 23.6925C26.1719 23.6925 27.0508 23.393 27.6367 22.794C28.2357 22.1951 28.5352 21.3748 28.5352 20.3331C28.5352 19.2914 28.2227 18.4646 27.5977 17.8526C26.9857 17.2406 26.1198 16.9346 25 16.9346C23.8802 16.9346 23.0078 17.2406 22.3828 17.8526C21.7708 18.4646 21.4648 19.2914 21.4648 20.3331Z" fill="black"/>
<path d="M235.039 317.48C235.039 319.72 234.355 321.458 232.988 322.695C231.608 323.945 230.423 324.707 229.434 324.98V325.078C230.54 325.43 231.621 326.12 232.676 327.148C233.717 328.19 234.238 329.557 234.238 331.25C234.238 333.281 233.418 334.987 231.777 336.367C230.124 337.747 227.865 338.438 225 338.438C222.135 338.438 219.883 337.747 218.242 336.367C216.589 334.987 215.762 333.281 215.762 331.25C215.762 329.557 216.289 328.19 217.344 327.148C218.385 326.12 219.46 325.43 220.566 325.078V324.98C219.577 324.707 218.398 323.945 217.031 322.695C215.651 321.458 214.961 319.72 214.961 317.48C214.961 315.072 215.749 313.112 217.324 311.602C218.887 310.091 221.445 309.336 225 309.336C228.555 309.336 231.12 310.091 232.695 311.602C234.258 313.112 235.039 315.072 235.039 317.48ZM229.18 318.066C229.18 316.595 228.854 315.501 228.203 314.785C227.552 314.069 226.484 313.711 225 313.711C223.516 313.711 222.448 314.069 221.797 314.785C221.146 315.501 220.82 316.595 220.82 318.066C220.82 319.186 221.178 320.215 221.895 321.152C222.598 322.103 223.633 322.578 225 322.578C226.367 322.578 227.409 322.103 228.125 321.152C228.828 320.215 229.18 319.186 229.18 318.066ZM228.535 330.664C228.535 329.622 228.242 328.802 227.656 328.203C227.057 327.604 226.172 327.305 225 327.305C223.828 327.305 222.949 327.604 222.363 328.203C221.764 328.802 221.465 329.622 221.465 330.664C221.465 331.706 221.777 332.533 222.402 333.145C223.014 333.757 223.88 334.062 225 334.062C226.12 334.062 226.992 333.757 227.617 333.145C228.229 332.533 228.535 331.706 228.535 330.664Z" fill="black"/>
<path d="M223.961 277.819C223.557 277.347 223.103 276.916 222.606 276.534C221.573 275.72 220.332 275.178 219.009 274.962C217.685 274.746 216.326 274.863 215.065 275.303C213.804 275.742 212.687 276.487 211.825 277.465C210.964 278.442 210.387 279.617 210.153 280.872C209.928 281.873 209.951 282.909 210.221 283.9C210.776 285.828 212.632 287.756 214.623 289.55C215.577 290.398 216.492 291.195 217.385 291.992C220.094 294.364 223.053 297.192 224.997 300.142C226.947 297.192 229.933 294.358 232.608 291.992L235.377 289.55C237.361 287.763 239.217 285.822 239.779 283.9C240.049 282.909 240.072 281.873 239.847 280.872C239.613 279.617 239.036 278.442 238.175 277.465C237.313 276.487 236.196 275.742 234.935 275.303C233.674 274.863 232.315 274.746 230.991 274.962C229.668 275.178 228.427 275.72 227.394 276.534C226.872 276.97 226.402 277.459 225.992 277.993C227.38 274.92 229.317 272.812 232.086 271.835V270.228H217.968V271.835C220.676 272.793 222.613 274.843 223.994 277.819H223.961Z" fill="black"/>
<path d="M26.0394 73.1781C26.4428 73.65 26.8967 74.0808 27.3937 74.4637C28.4273 75.2773 29.6678 75.8193 30.9912 76.0353C32.3145 76.2513 33.6744 76.1339 34.935 75.6947C36.1956 75.2555 37.3126 74.5099 38.1745 73.5325C39.0364 72.5551 39.613 71.3801 39.8466 70.125C40.0719 69.1245 40.0488 68.088 39.7789 67.0975C39.2236 65.1692 37.3682 63.2409 35.3774 61.4476C34.4226 60.5991 33.5084 59.8021 32.6146 59.005C29.906 56.6332 26.9468 53.805 25.0034 50.8547C23.0532 53.805 20.0669 56.6396 17.3922 59.005L14.6226 61.4476C12.6386 63.2345 10.7832 65.1756 10.2211 67.0975C9.95125 68.088 9.92806 69.1245 10.1534 70.125C10.387 71.3801 10.9636 72.5551 11.8255 73.5325C12.6874 74.5099 13.8044 75.2555 15.065 75.6947C16.3256 76.1339 17.6855 76.2513 19.0088 76.0353C20.3322 75.8193 21.5727 75.2773 22.6063 74.4637C23.128 74.0271 23.598 73.5378 24.008 73.0046C22.6198 76.077 20.6832 78.1853 17.9136 79.1623V80.7692H32.0322V79.1623C29.3236 78.2046 27.387 76.1541 26.0056 73.1781H26.0394Z" fill="black"/>
</svg>
