<svg width="250" height="350" viewBox="0 0 250 350" fill="none" xmlns="http://www.w3.org/2000/svg">
<rect width="250" height="350" rx="12.5" fill="white"/>
<path d="M11.6016 27.9875C11.6016 23.4954 12.7604 19.9277 15.0781 17.2844C17.3958 14.6412 20.7031 13.3196 25 13.3196C29.2969 13.3196 32.6042 14.6412 34.9219 17.2844C37.2396 19.9277 38.3984 23.4954 38.3984 27.9875C38.3984 32.4797 37.2396 36.0474 34.9219 38.6907C33.151 40.7089 30.8008 41.9589 27.8711 42.4407C27.9883 43.6125 28.2943 44.4849 28.7891 45.0579C29.2969 45.6438 30.2734 45.9368 31.7188 45.9368C32.3828 45.9368 33.0729 45.8456 33.7891 45.6633C34.4401 45.4941 34.8177 45.6373 34.9219 46.093L35.4688 48.3586C35.5859 48.8665 35.3516 49.192 34.7656 49.3352C33.2292 49.7389 32.0052 49.9407 31.0938 49.9407C27.6042 49.9407 25.2734 49.205 24.1016 47.7336C22.9427 46.2623 22.2917 44.498 22.1484 42.4407C19.2057 41.9719 16.849 40.7219 15.0781 38.6907C12.7604 36.0474 11.6016 32.4797 11.6016 27.9875ZM17.6953 27.9875C17.6953 31.2428 18.2747 33.7362 19.4336 35.468C20.6055 37.1868 22.4609 38.0461 25 38.0461C27.5391 38.0461 29.388 37.1868 30.5469 35.468C31.7188 33.7362 32.3047 31.2428 32.3047 27.9875C32.3047 24.7323 31.7188 22.2454 30.5469 20.5266C29.388 18.7948 27.5391 17.929 25 17.929C22.4609 17.929 20.6055 18.7948 19.4336 20.5266C18.2747 22.2454 17.6953 24.7323 17.6953 27.9875Z" fill="black"/>
<path d="M237.898 324.004C237.898 328.496 236.74 332.064 234.422 334.707C232.104 337.35 228.797 338.672 224.5 338.672C220.203 338.672 216.896 337.35 214.578 334.707C212.26 332.064 211.102 328.496 211.102 324.004C211.102 319.512 212.26 315.944 214.578 313.301C216.349 311.283 218.699 310.033 221.629 309.551C221.512 308.379 221.206 307.507 220.711 306.934C220.203 306.348 219.227 306.055 217.781 306.055C217.117 306.055 216.427 306.146 215.711 306.328C215.06 306.497 214.682 306.354 214.578 305.898L214.031 303.633C213.914 303.125 214.148 302.799 214.734 302.656C216.271 302.253 217.495 302.051 218.406 302.051C221.896 302.051 224.227 302.786 225.398 304.258C226.557 305.729 227.208 307.493 227.352 309.551C230.294 310.02 232.651 311.27 234.422 313.301C236.74 315.944 237.898 319.512 237.898 324.004ZM231.805 324.004C231.805 320.749 231.225 318.255 230.066 316.523C228.895 314.805 227.039 313.945 224.5 313.945C221.961 313.945 220.112 314.805 218.953 316.523C217.781 318.255 217.195 320.749 217.195 324.004C217.195 327.259 217.781 329.746 218.953 331.465C220.112 333.197 221.961 334.062 224.5 334.062C227.039 334.062 228.895 333.197 230.066 331.465C231.225 329.746 231.805 327.259 231.805 324.004Z" fill="black"/>
<path d="M131.376 71.5984C128.031 74.9045 127.752 75.6675 129.355 76.8755C131.097 78.2107 130.54 79.6094 127.195 82.5976C125.453 84.1871 123.502 86.2852 122.944 87.2389C122.387 88.2561 121.69 88.9555 121.411 88.8283C120.296 88.4469 111.585 80.7538 111.585 80.118C111.585 79.8001 112.073 79.4187 112.631 79.1643C115.139 78.3378 112.212 74.5231 107.962 73.1243C105.871 72.425 105.383 72.8064 103.989 76.049C102.596 79.1008 103.223 80.9445 105.662 81.326C106.777 81.5168 107.822 82.089 107.822 82.5976C107.892 83.1062 108.519 86.8574 109.216 90.9264C110.261 97.3479 110.331 99.001 109.564 102.816C108.658 107.521 105.662 114.006 102.805 117.439C101.829 118.52 101.272 119.791 101.481 120.109C101.69 120.491 103.432 120.745 105.244 120.745C107.056 120.745 108.728 120.936 108.937 121.126C109.146 121.317 108.867 123.097 108.31 125.068C106.359 132.126 106.359 132.062 108.519 132.634C109.634 132.889 112.491 133.143 114.93 133.079C118.484 133.016 119.669 132.761 120.854 131.681C122.247 130.345 122.247 130.282 120.993 130.282C120.296 130.282 117.857 130.6 115.627 131.045C112.143 131.681 111.446 131.681 110.47 130.854C109.634 130.091 109.564 129.519 110.192 128.12C110.54 127.166 110.888 125.577 110.888 124.623C110.888 123.67 111.376 122.334 111.934 121.635C113.536 119.728 113.188 119.473 109.495 119.473C105.313 119.473 105.174 118.965 107.822 114.26C110.192 110.064 112.979 102.116 112.979 99.7639C112.979 97.2843 115.139 97.1572 116.812 99.5732C118.554 102.053 121.411 104.151 123.083 104.214C125.174 104.278 126.289 105.168 125.801 106.313C125.592 106.885 125.104 107.393 124.826 107.393C123.92 107.393 121.899 113.561 121.899 116.485C121.759 122.589 126.847 128.247 134.233 130.345C137.648 131.299 138.484 131.299 142.665 130.536C147.962 129.519 150.54 128.247 154.233 124.75L156.881 122.334L154.791 120.109C152.073 117.185 150.54 112.607 151.097 108.792C151.376 106.313 156.812 93.0881 158.902 89.5913C159.181 89.0827 160.366 88.7012 161.411 88.6376C163.223 88.6376 163.571 88.2561 164.477 85.6494C166.428 79.9273 163.362 77.8292 157.509 80.8174C155.209 81.9618 154.791 82.534 154.791 84.3142C154.791 86.2216 154.373 86.6667 150.47 88.9555C148.031 90.3542 145.662 91.4987 145.174 91.4987C144.686 91.4987 143.641 90.1635 142.944 88.4469C142.178 86.7938 141.272 85.0136 140.854 84.505C140.505 83.9963 139.669 82.7248 139.042 81.7075C137.927 79.9273 137.996 79.8637 140.017 78.4014C142.247 76.8119 142.387 75.0953 140.435 73.633C139.878 73.2515 139.46 72.3614 139.46 71.7256C139.46 70.5176 137.021 68.6102 135.418 68.6102C134.86 68.6102 133.049 69.9454 131.376 71.5984Z" fill="black"/>
<path d="M88.9373 128.184C86.8467 128.692 85.8014 129.646 84.6864 132.189C83.9199 133.906 82.8746 134.86 80.7143 135.75C78.7631 136.576 77.2997 137.721 76.3937 139.31L75 141.663L76.4634 143.443C77.2997 144.396 78.9721 145.859 80.2265 146.685C81.5505 147.448 83.223 149.165 84.0592 150.5C84.8258 151.772 86.2195 153.107 87.1254 153.488L88.7979 154.124L88.3101 168.874L87.892 183.688H90.4007H92.9094L92.4913 180.319C92.2822 178.538 92.0035 171.863 91.9338 165.632C91.7944 156.349 92.0035 154.124 92.77 153.933C94.1638 153.488 96.3937 151.199 97.7875 148.847C98.4146 147.703 99.5296 146.812 100.157 146.812C102.178 146.812 105.314 143.633 105.314 141.535C105.314 139.31 101.341 135.368 99.1115 135.368C97.5784 135.368 97.3693 135.114 96.6725 132.062C96.0453 129.455 92.0732 127.484 88.9373 128.184ZM92.6307 139.31C93.885 140.455 93.6063 142.68 92.1429 143.888C90.8885 144.969 90.6794 144.969 89.007 143.951C87.892 143.252 87.1951 142.235 87.1951 141.345C87.1951 139.056 90.8188 137.657 92.6307 139.31Z" fill="black"/>
<path d="M132.003 133.524C123.571 137.339 121.899 147.512 127.265 163.025C130.888 173.579 130.749 173.388 134.86 174.469C139.39 175.614 146.01 174.978 147.474 173.134C149.286 170.909 151.794 151.136 150.888 145.731C149.843 139.056 145.662 134.224 139.738 132.889C135.766 131.935 135.418 131.998 132.003 133.524ZM140.853 150.055C141.341 151.136 142.526 152.28 143.432 152.598C146.359 153.615 146.08 154.823 142.247 158.257C140.296 159.973 138.414 161.435 138.066 161.435C137.718 161.435 136.881 160.545 136.324 159.528C135.697 158.447 134.442 157.239 133.536 156.858C131.097 155.841 130.679 154.315 132.561 153.17C133.397 152.662 135.07 151.263 136.254 150.182C138.972 147.575 139.738 147.575 140.853 150.055Z" fill="black"/>
<path d="M120.923 136.322C116.324 138.42 109.146 143.951 106.429 147.321C104.617 149.737 104.268 150.754 104.059 154.887C103.78 159.465 103.92 159.91 106.777 165.441C109.425 170.591 109.773 171.799 110.052 176.822C110.261 179.873 110.679 182.607 111.167 182.925C111.585 183.243 113.188 183.815 114.721 184.197C120.575 185.723 126.219 191.953 128.659 199.774C130.749 206.449 129.913 219.801 127.195 223.616C126.638 224.442 126.219 225.523 126.359 226.032C126.638 227.176 136.045 221.963 140.993 217.894C148.101 212.044 149.007 205.687 143.99 195.768C141.62 191.127 141.202 189.537 140.854 184.642L140.505 178.983L137.439 178.157C135.767 177.712 132.7 176.059 130.54 174.342C125.941 170.782 123.432 166.14 121.62 158.257C120.226 151.772 121.063 144.142 123.78 138.738C124.756 136.767 125.523 135.114 125.523 134.987C125.523 134.415 124.199 134.796 120.923 136.322Z" fill="black"/>
<path d="M159.39 177.775C158.136 178.093 158.066 178.665 158.485 192.335L158.903 206.513L157.021 207.848C156.046 208.611 154.791 210.01 154.373 211.027C153.885 212.044 152.282 213.57 150.749 214.46C147.474 216.304 145.732 218.402 145.732 220.31C145.732 222.153 148.659 225.269 151.307 226.286C152.84 226.858 153.606 227.685 153.885 228.956C154.373 231.054 157.579 233.28 160.227 233.28C163.084 233.28 165.941 231.436 167.056 228.829C167.892 226.922 168.728 226.159 170.54 225.65C173.397 224.76 175 222.853 175 220.373C175 217.703 173.955 216.368 170.471 214.46C168.728 213.57 167.335 212.362 167.335 211.854C167.335 211.281 166.08 209.819 164.617 208.548L161.829 206.195L162.387 192.271C162.875 179.11 162.666 177.14 161.063 177.394C160.854 177.457 160.087 177.648 159.39 177.775ZM162.805 220.246C162.805 222.408 162.596 222.789 161.202 222.98C159.181 223.234 157.579 222.09 157.579 220.31C157.579 218.402 158.972 217.321 161.063 217.512C162.596 217.703 162.805 218.021 162.805 220.246Z" fill="black"/>
<path d="M107.683 186.295C103.293 187.249 102.387 188.52 101.341 195.959C98.8326 212.807 99.4598 219.61 103.92 224.506C106.15 226.922 111.446 229.084 115.139 228.956C121.968 228.766 126.916 222.281 126.916 213.507C126.916 207.403 123.083 194.369 119.948 189.728C117.857 186.613 112.909 185.214 107.683 186.295ZM114.442 202.062C115.209 203.08 116.672 204.288 117.578 204.733C119.738 205.75 119.738 207.403 117.578 208.738C116.603 209.247 115.279 210.582 114.651 211.663C113.955 212.68 113.188 213.57 112.909 213.57C112.352 213.57 105.313 207.276 105.313 206.704C105.313 206.132 111.794 200.219 112.421 200.219C112.7 200.219 113.606 201.045 114.442 202.062Z" fill="black"/>
<path d="M133.397 228.32C131.655 228.638 130.122 229.401 129.704 230.164C129.077 231.245 129.216 231.372 130.958 231.372C132.073 231.372 133.397 230.991 133.815 230.546C134.86 229.338 141.55 230.546 141.55 231.944C141.481 233.788 138.902 239.765 137.996 240.337C136.463 241.227 138.554 242.181 142.108 242.181C145.592 242.181 145.801 242.944 143.362 246.822C140.993 250.573 138.902 256.486 138.414 260.746C138.136 262.78 137.648 264.433 137.3 264.433C136.881 264.433 135.418 263.289 134.024 261.827C132.631 260.364 130.122 258.521 128.519 257.63C126.847 256.74 125.523 255.723 125.523 255.342C125.523 254.96 126.219 253.371 127.056 251.845C128.867 248.348 129.425 243.707 128.38 240.718C127.125 237.285 121.829 232.835 117.648 231.69C109.843 229.592 103.083 230.927 98.1358 235.568C94.6514 238.875 94.3727 240.019 96.3936 242.054C98.7629 244.47 99.7385 246.886 99.7385 250.319C99.7385 254.261 98.9023 256.995 95.0696 265.196C92.2124 271.427 91.7943 272.063 89.5643 272.699C86.7072 273.589 85.8013 274.924 85.8013 278.23C85.8013 282.49 88.0312 283.253 93.4668 280.773C95.4877 279.883 96.533 278.993 96.3239 278.421C96.1845 277.912 95.9058 276.958 95.7664 276.386C95.4877 275.623 96.1149 274.924 97.648 274.161C98.9023 273.525 100.993 272.381 102.317 271.554C105.174 269.838 106.638 269.774 107.195 271.236C108.031 273.462 110.888 278.802 112.003 280.137C113.049 281.473 112.979 281.663 110.888 283.443L108.658 285.287L110.61 288.721C112.421 291.772 112.909 292.09 115.209 292.281C117.509 292.472 117.927 292.217 120.226 289.483C123.153 286.05 123.223 285.669 121.341 284.779C120.575 284.397 119.948 283.761 119.948 283.316C120.017 282.871 122.247 280.328 125.035 277.658L130.052 272.699L134.86 276.895L139.739 281.027L137.787 282.617L135.906 284.27L137.509 285.351C138.414 285.923 140.087 287.067 141.341 287.83L143.571 289.229L145.313 287.83C146.498 286.813 147.195 285.414 147.543 283.316L147.962 280.328H145.871C144.686 280.328 143.502 280.01 143.293 279.692C142.456 278.421 140.714 265.959 140.854 261.636C140.923 256.613 142.387 252.671 146.428 246.377C148.031 243.961 149.077 241.545 148.937 241.1C148.658 240.591 147.334 240.273 145.104 240.273C143.223 240.273 141.411 239.955 141.202 239.638C140.923 239.256 141.411 237.73 142.178 236.268C142.944 234.806 143.78 232.58 143.989 231.309L144.477 228.956L140.854 228.257C138.902 227.875 137.09 227.558 136.812 227.621C136.533 227.685 135 227.939 133.397 228.32Z" fill="black"/>
<path d="M223.961 278.025C223.557 277.554 223.103 277.125 222.606 276.743C221.573 275.931 220.332 275.391 219.009 275.176C217.685 274.96 216.326 275.077 215.065 275.515C213.804 275.953 212.687 276.697 211.825 277.671C210.964 278.646 210.387 279.818 210.153 281.069C209.928 282.067 209.951 283.1 210.221 284.088C210.776 286.011 212.632 287.934 214.623 289.722C215.577 290.568 216.492 291.363 217.385 292.157C220.094 294.522 223.053 297.343 224.997 300.285C226.947 297.343 229.933 294.516 232.608 292.157L235.377 289.722C237.361 287.94 239.217 286.004 239.779 284.088C240.049 283.1 240.072 282.067 239.847 281.069C239.613 279.818 239.036 278.646 238.175 277.671C237.313 276.697 236.196 275.953 234.935 275.515C233.674 275.077 232.315 274.96 230.991 275.176C229.668 275.391 228.427 275.931 227.394 276.743C226.872 277.178 226.402 277.666 225.992 278.198C227.38 275.134 229.317 273.032 232.086 272.058V270.455H217.968V272.058C220.676 273.013 222.613 275.057 223.994 278.025H223.961Z" fill="black"/>
<path d="M26.0394 73.9668C26.4428 74.4373 26.8967 74.8669 27.3937 75.2487C28.4273 76.06 29.6678 76.6004 30.9912 76.8158C32.3145 77.0312 33.6744 76.9141 34.935 76.4762C36.1956 76.0382 37.3126 75.2948 38.1745 74.3202C39.0364 73.3456 39.613 72.1739 39.8466 70.9223C40.0719 69.9247 40.0488 68.8912 39.7789 67.9035C39.2236 65.9807 37.3682 64.0579 35.3774 62.2696C34.4226 61.4236 33.5084 60.6288 32.6146 59.8341C29.906 57.469 26.9468 54.6489 25.0034 51.707C23.0532 54.6489 20.0669 57.4754 17.3922 59.8341L14.6226 62.2696C12.6386 64.0515 10.7832 65.9871 10.2211 67.9035C9.95125 68.8912 9.92806 69.9247 10.1534 70.9223C10.387 72.1739 10.9636 73.3456 11.8255 74.3202C12.6874 75.2948 13.8044 76.0382 15.065 76.4762C16.3256 76.9141 17.6855 77.0312 19.0088 76.8158C20.3322 76.6004 21.5727 76.06 22.6063 75.2487C23.128 74.8133 23.598 74.3255 24.008 73.7937C22.6198 76.8574 20.6832 78.9597 17.9136 79.9339V81.5363H32.0322V79.9339C29.3236 78.9789 27.387 76.9343 26.0056 73.9668H26.0394Z" fill="black"/>
</svg>
