<svg width="250" height="350" viewBox="0 0 250 350" fill="none" xmlns="http://www.w3.org/2000/svg">
<rect width="250" height="350" rx="12.5" fill="white"/>
<path d="M184.941 249.706C184.336 248.998 183.655 248.352 182.909 247.777C181.359 246.557 179.498 245.744 177.513 245.42C175.528 245.096 173.488 245.272 171.597 245.931C169.707 246.59 168.031 247.708 166.738 249.174C165.445 250.64 164.581 252.403 164.23 254.285C163.892 255.786 163.927 257.341 164.332 258.827C165.165 261.719 167.948 264.612 170.934 267.302C172.366 268.574 173.737 269.77 175.078 270.965C179.141 274.523 183.58 278.765 186.495 283.191C189.42 278.765 193.9 274.513 197.912 270.965L202.066 267.302C205.042 264.621 207.825 261.709 208.668 258.827C209.073 257.341 209.108 255.786 208.77 254.285C208.419 252.403 207.555 250.64 206.262 249.174C204.969 247.708 203.293 246.59 201.403 245.931C199.512 245.272 197.472 245.096 195.487 245.42C193.502 245.744 191.641 246.557 190.091 247.777C189.308 248.432 188.603 249.166 187.988 249.966C190.07 245.357 192.975 242.195 197.13 240.729V238.319H175.952V240.729C180.015 242.166 182.92 245.242 184.992 249.706H184.941Z" fill="black"/>
<path d="M188.059 100.294C188.664 101.002 189.345 101.648 190.091 102.223C191.641 103.443 193.502 104.256 195.487 104.58C197.472 104.904 199.512 104.728 201.403 104.069C203.293 103.41 204.969 102.292 206.262 100.826C207.555 99.3598 208.419 97.5973 208.77 95.7145C209.108 94.2138 209.073 92.659 208.668 91.1733C207.835 88.2809 205.052 85.3884 202.066 82.6984C200.634 81.4257 199.263 80.2302 197.922 79.0346C193.859 75.4769 189.42 71.2346 186.505 66.8091C183.58 71.2346 179.1 75.4865 175.088 79.0346L170.934 82.6984C167.958 85.3787 165.175 88.2905 164.332 91.1733C163.927 92.659 163.892 94.2138 164.23 95.7145C164.581 97.5973 165.445 99.3598 166.738 100.826C168.031 102.292 169.707 103.41 171.597 104.069C173.488 104.728 175.528 104.904 177.513 104.58C179.498 104.256 181.359 103.443 182.909 102.223C183.692 101.568 184.397 100.834 185.012 100.034C182.93 104.643 180.025 107.805 175.87 109.271V111.681H197.048V109.271C192.985 107.834 190.08 104.758 188.008 100.294H188.059Z" fill="black"/>
<path d="M64.0591 186.049C64.6642 186.757 65.345 187.403 66.0906 187.978C67.641 189.198 69.5017 190.011 71.4867 190.335C73.4718 190.659 75.5117 190.483 77.4025 189.824C79.2934 189.165 80.9689 188.047 82.2618 186.581C83.5546 185.115 84.4195 183.352 84.7699 181.469C85.1079 179.969 85.0731 178.414 84.6683 176.928C83.8354 174.036 81.0523 171.143 78.066 168.453C76.6339 167.181 75.2626 165.985 73.9219 164.79C69.859 161.232 65.4202 156.99 62.5051 152.564C59.5798 156.99 55.1004 161.241 51.0883 164.79L46.934 168.453C43.9579 171.134 41.1748 174.045 40.3317 176.928C39.9269 178.414 39.8921 179.969 40.2301 181.469C40.5805 183.352 41.4454 185.115 42.7382 186.581C44.0311 188.047 45.7067 189.165 47.5975 189.824C49.4883 190.483 51.5282 190.659 53.5133 190.335C55.4983 190.011 57.359 189.198 58.9094 187.978C59.692 187.323 60.397 186.589 61.012 185.789C58.9297 190.398 56.0247 193.56 51.8704 195.025V197.436H73.0483V195.025C68.9854 193.589 66.0804 190.513 64.0084 186.049H64.0591Z" fill="black"/>
<path d="M188.059 186.049C188.664 186.757 189.345 187.403 190.091 187.978C191.641 189.198 193.502 190.011 195.487 190.335C197.472 190.659 199.512 190.483 201.403 189.824C203.293 189.165 204.969 188.047 206.262 186.581C207.555 185.115 208.419 183.352 208.77 181.469C209.108 179.969 209.073 178.414 208.668 176.928C207.835 174.036 205.052 171.143 202.066 168.453C200.634 167.181 199.263 165.985 197.922 164.79C193.859 161.232 189.42 156.99 186.505 152.564C183.58 156.99 179.1 161.241 175.088 164.79L170.934 168.453C167.958 171.134 165.175 174.045 164.332 176.928C163.927 178.414 163.892 179.969 164.23 181.469C164.581 183.352 165.445 185.115 166.738 186.581C168.031 188.047 169.707 189.165 171.597 189.824C173.488 190.483 175.528 190.659 177.513 190.335C179.498 190.011 181.359 189.198 182.909 187.978C183.692 187.323 184.397 186.589 185.012 185.789C182.93 190.398 180.025 193.56 175.87 195.025V197.436H197.048V195.025C192.985 193.589 190.08 190.513 188.008 186.049H188.059Z" fill="black"/>
<path d="M60.9409 249.706C60.3358 248.998 59.655 248.352 58.9094 247.777C57.359 246.557 55.4983 245.744 53.5133 245.42C51.5282 245.096 49.4883 245.272 47.5975 245.931C45.7066 246.59 44.0311 247.708 42.7382 249.174C41.4454 250.64 40.5805 252.403 40.2301 254.285C39.8921 255.786 39.9269 257.341 40.3317 258.827C41.1646 261.719 43.9477 264.612 46.934 267.302C48.3661 268.574 49.7374 269.77 51.0781 270.965C55.141 274.523 59.5798 278.765 62.4949 283.191C65.4202 278.765 69.8996 274.513 73.9117 270.965L78.066 267.302C81.0421 264.621 83.8252 261.709 84.6683 258.827C85.0731 257.341 85.1079 255.786 84.7699 254.285C84.4195 252.403 83.5546 250.64 82.2618 249.174C80.9689 247.708 79.2933 246.59 77.4025 245.931C75.5117 245.272 73.4718 245.096 71.4867 245.42C69.5017 245.744 67.641 246.557 66.0906 247.777C65.308 248.432 64.603 249.166 63.988 249.966C66.0703 245.357 68.9753 242.195 73.1296 240.729V238.319H51.9517V240.729C56.0146 242.166 58.9196 245.242 60.9916 249.706H60.9409Z" fill="black"/>
<path d="M64.0591 100.294C64.6642 101.002 65.345 101.648 66.0906 102.223C67.641 103.443 69.5017 104.256 71.4867 104.58C73.4718 104.904 75.5117 104.728 77.4025 104.069C79.2934 103.41 80.9689 102.292 82.2618 100.826C83.5546 99.3598 84.4195 97.5973 84.7699 95.7145C85.1079 94.2138 85.0731 92.659 84.6683 91.1733C83.8354 88.2809 81.0523 85.3884 78.066 82.6984C76.6339 81.4257 75.2626 80.2302 73.9219 79.0346C69.859 75.4769 65.4202 71.2346 62.5051 66.8091C59.5798 71.2346 55.1004 75.4865 51.0883 79.0346L46.934 82.6984C43.9579 85.3787 41.1748 88.2905 40.3317 91.1733C39.9269 92.659 39.8921 94.2138 40.2301 95.7145C40.5805 97.5973 41.4454 99.3598 42.7382 100.826C44.0311 102.292 45.7067 103.41 47.5975 104.069C49.4883 104.728 51.5282 104.904 53.5133 104.58C55.4983 104.256 57.359 103.443 58.9094 102.223C59.692 101.568 60.397 100.834 61.012 100.034C58.9297 104.643 56.0247 107.805 51.8704 109.271V111.681H73.0483V109.271C68.9854 107.834 66.0804 104.758 64.0084 100.294H64.0591Z" fill="black"/>
<path d="M15 27.8917C15 22.0193 16.0482 17.9958 18.1445 15.8214C20.2539 13.6469 22.9102 12.5596 26.1133 12.5596C27.3633 12.5596 28.6068 12.7419 29.8438 13.1065C31.0807 13.4581 32.0312 13.9268 32.6953 14.5128C33.3203 15.0727 33.457 15.6195 33.1055 16.1534L31.8164 18.087C31.3997 18.725 30.7943 18.725 30 18.087C29.6094 17.7745 29.0365 17.5076 28.2812 17.2862C27.5391 17.0518 26.7578 16.9346 25.9375 16.9346C24.5703 16.9346 23.3138 17.5792 22.168 18.8682C21.0221 20.1443 20.4492 22.3188 20.4492 25.3917H20.5273C21.1133 24.5063 21.9271 23.8748 22.9688 23.4971C24.0104 23.1065 25.2799 22.9112 26.7773 22.9112C29.4987 22.9112 31.556 23.8096 32.9492 25.6065C34.3424 27.3904 35.0391 29.6039 35.0391 32.2471C35.0391 35.1117 34.2253 37.3969 32.5977 39.1026C30.9701 40.8083 28.4831 41.6612 25.1367 41.6612C21.569 41.6612 18.9844 40.4698 17.3828 38.087C15.7943 35.6912 15 32.2927 15 27.8917ZM21.4062 32.3448C21.4062 33.9333 21.7318 35.1573 22.3828 36.0167C23.0339 36.863 23.9844 37.2862 25.2344 37.2862C26.5625 37.2862 27.5521 36.9281 28.2031 36.212C28.8542 35.4958 29.1797 34.1612 29.1797 32.2081C29.1797 30.4893 28.8542 29.2393 28.2031 28.4581C27.5521 27.6768 26.6406 27.2862 25.4688 27.2862C24.1797 27.2862 23.1771 27.8136 22.4609 28.8682C21.7578 29.9229 21.4062 31.0818 21.4062 32.3448Z" fill="black"/>
<path d="M235 323.105C235 328.978 233.952 333.001 231.855 335.176C229.746 337.35 227.09 338.438 223.887 338.438C222.637 338.438 221.393 338.255 220.156 337.891C218.919 337.539 217.969 337.07 217.305 336.484C216.68 335.924 216.543 335.378 216.895 334.844L218.184 332.91C218.6 332.272 219.206 332.272 220 332.91C220.391 333.223 220.964 333.49 221.719 333.711C222.461 333.945 223.242 334.062 224.062 334.062C225.43 334.062 226.686 333.418 227.832 332.129C228.978 330.853 229.551 328.678 229.551 325.605H229.473C228.887 326.491 228.073 327.122 227.031 327.5C225.99 327.891 224.72 328.086 223.223 328.086C220.501 328.086 218.444 327.188 217.051 325.391C215.658 323.607 214.961 321.393 214.961 318.75C214.961 315.885 215.775 313.6 217.402 311.895C219.03 310.189 221.517 309.336 224.863 309.336C228.431 309.336 231.016 310.527 232.617 312.91C234.206 315.306 235 318.704 235 323.105ZM228.594 318.652C228.594 317.064 228.268 315.84 227.617 314.98C226.966 314.134 226.016 313.711 224.766 313.711C223.438 313.711 222.448 314.069 221.797 314.785C221.146 315.501 220.82 316.836 220.82 318.789C220.82 320.508 221.146 321.758 221.797 322.539C222.448 323.32 223.359 323.711 224.531 323.711C225.82 323.711 226.823 323.184 227.539 322.129C228.242 321.074 228.594 319.915 228.594 318.652Z" fill="black"/>
<path d="M223.961 277.819C223.557 277.347 223.103 276.916 222.606 276.534C221.573 275.72 220.332 275.178 219.009 274.962C217.685 274.746 216.326 274.863 215.065 275.303C213.804 275.742 212.687 276.487 211.825 277.465C210.964 278.442 210.387 279.617 210.153 280.872C209.928 281.873 209.951 282.909 210.221 283.9C210.776 285.828 212.632 287.756 214.623 289.55C215.577 290.398 216.492 291.195 217.385 291.992C220.094 294.364 223.053 297.192 224.997 300.142C226.947 297.192 229.933 294.358 232.608 291.992L235.377 289.55C237.361 287.763 239.217 285.822 239.779 283.9C240.049 282.909 240.072 281.873 239.847 280.872C239.613 279.617 239.036 278.442 238.175 277.465C237.313 276.487 236.196 275.742 234.935 275.303C233.674 274.863 232.315 274.746 230.991 274.962C229.668 275.178 228.427 275.72 227.394 276.534C226.872 276.97 226.402 277.459 225.992 277.993C227.38 274.92 229.317 272.812 232.086 271.835V270.228H217.968V271.835C220.676 272.793 222.613 274.843 223.994 277.819H223.961Z" fill="black"/>
<path d="M26.0394 73.1781C26.4428 73.65 26.8967 74.0808 27.3937 74.4637C28.4273 75.2773 29.6678 75.8193 30.9912 76.0353C32.3145 76.2513 33.6744 76.1339 34.935 75.6947C36.1956 75.2555 37.3126 74.5099 38.1745 73.5325C39.0364 72.5551 39.613 71.3801 39.8466 70.125C40.0719 69.1245 40.0488 68.088 39.7789 67.0975C39.2236 65.1692 37.3682 63.2409 35.3774 61.4476C34.4226 60.5991 33.5084 59.8021 32.6146 59.005C29.906 56.6332 26.9468 53.805 25.0034 50.8547C23.0532 53.805 20.0669 56.6396 17.3922 59.005L14.6226 61.4476C12.6386 63.2345 10.7832 65.1756 10.2211 67.0975C9.95125 68.088 9.92806 69.1245 10.1534 70.125C10.387 71.3801 10.9636 72.5551 11.8255 73.5325C12.6874 74.5099 13.8044 75.2555 15.065 75.6947C16.3256 76.1339 17.6855 76.2513 19.0088 76.0353C20.3322 75.8193 21.5727 75.2773 22.6063 74.4637C23.128 74.0271 23.598 73.5378 24.008 73.0046C22.6198 76.077 20.6832 78.1853 17.9136 79.1623V80.7692H32.0322V79.1623C29.3236 78.2046 27.387 76.1541 26.0056 73.1781H26.0394Z" fill="black"/>
</svg>
