<svg width="250" height="350" viewBox="0 0 250 350" fill="none" xmlns="http://www.w3.org/2000/svg">
<rect width="250" height="350" rx="12.5" fill="white"/>
<path d="M223.961 276.822C223.557 276.35 223.103 275.919 222.606 275.536C221.573 274.723 220.332 274.181 219.009 273.965C217.685 273.749 216.326 273.866 215.065 274.305C213.804 274.745 212.687 275.49 211.825 276.467C210.964 277.445 210.387 278.62 210.153 279.875C209.928 280.875 209.951 281.912 210.221 282.902C210.776 284.831 212.632 286.759 214.623 288.552C215.577 289.401 216.492 290.198 217.385 290.995C220.094 293.367 223.053 296.195 224.997 299.145C226.947 296.195 229.933 293.36 232.608 290.995L235.377 288.552C237.361 286.766 239.217 284.824 239.779 282.902C240.049 281.912 240.072 280.875 239.847 279.875C239.613 278.62 239.036 277.445 238.175 276.467C237.313 275.49 236.196 274.745 234.935 274.305C233.674 273.866 232.315 273.749 230.991 273.965C229.668 274.181 228.427 274.723 227.394 275.536C226.872 275.973 226.402 276.462 225.992 276.995C227.38 273.923 229.317 271.815 232.086 270.838V269.231H217.968V270.838C220.676 271.795 222.613 273.846 223.994 276.822H223.961Z" fill="black"/>
<path d="M26.0394 72.181C26.4428 72.6528 26.8967 73.0836 27.3937 73.4665C28.4273 74.2802 29.6678 74.8221 30.9912 75.0381C32.3145 75.2542 33.6744 75.1367 34.935 74.6975C36.1956 74.2583 37.3126 73.5128 38.1745 72.5354C39.0364 71.558 39.613 70.383 39.8466 69.1278C40.0719 68.1274 40.0488 67.0908 39.7789 66.1004C39.2236 64.1721 37.3682 62.2437 35.3774 60.4504C34.4226 59.602 33.5084 58.8049 32.6146 58.0079C29.906 55.6361 26.9468 52.8079 25.0034 49.8576C23.0532 52.8079 20.0669 55.6425 17.3922 58.0079L14.6226 60.4504C12.6386 62.2373 10.7832 64.1785 10.2211 66.1004C9.95125 67.0908 9.92806 68.1274 10.1534 69.1278C10.387 70.383 10.9636 71.558 11.8255 72.5354C12.6874 73.5128 13.8044 74.2583 15.065 74.6975C16.3256 75.1367 17.6855 75.2542 19.0088 75.0381C20.3322 74.8221 21.5727 74.2802 22.6063 73.4665C23.128 73.03 23.598 72.5407 24.008 72.0074C22.6198 75.0799 20.6832 77.1882 17.9136 78.1652V79.7721H32.0322V78.1652C29.3236 77.2074 27.387 75.157 26.0056 72.181H26.0394Z" fill="black"/>
<path d="M13.2461 40C12.3086 40 12.0026 39.5703 12.3281 38.7109L21.8984 13.5742C22.3021 12.5195 22.9141 11.9922 23.7344 11.9922H26.4688C27.2891 11.9922 27.901 12.5195 28.3047 13.5742L37.875 38.7109C38.2005 39.5703 37.8945 40 36.957 40H33.8516C32.9922 40 32.3932 39.5508 32.0547 38.6523L30.0625 33.3984H20.1406L18.1484 38.6523C17.8099 39.5508 17.2109 40 16.3516 40H13.2461ZM21.957 28.5547H28.2461L25.8438 22.3438C25.5573 21.6146 25.3815 21.0872 25.3164 20.7617C25.2643 20.4232 25.2057 19.9284 25.1406 19.2773H25.0625C24.9974 19.9284 24.9323 20.4232 24.8672 20.7617C24.8151 21.0872 24.6458 21.6146 24.3594 22.3438L21.957 28.5547Z" fill="black"/>
<path d="M236.754 309.003C237.691 309.003 237.997 309.433 237.672 310.292L228.102 335.429C227.698 336.483 227.086 337.011 226.266 337.011H223.531C222.711 337.011 222.099 336.483 221.695 335.429L212.125 310.292C211.799 309.433 212.105 309.003 213.043 309.003H216.148C217.008 309.003 217.607 309.452 217.945 310.351L219.938 315.604H229.859L231.852 310.351C232.19 309.452 232.789 309.003 233.648 309.003H236.754ZM228.043 320.448H221.754L224.156 326.659C224.443 327.388 224.618 327.916 224.684 328.241C224.736 328.58 224.794 329.074 224.859 329.726H224.938C225.003 329.074 225.068 328.58 225.133 328.241C225.185 327.916 225.354 327.388 225.641 326.659L228.043 320.448Z" fill="black"/>
<path d="M126.059 185.052C126.664 185.76 127.345 186.406 128.091 186.98C129.641 188.201 131.502 189.014 133.487 189.338C135.472 189.662 137.512 189.486 139.403 188.827C141.293 188.168 142.969 187.05 144.262 185.584C145.555 184.118 146.419 182.355 146.77 180.472C147.108 178.972 147.073 177.417 146.668 175.931C145.835 173.039 143.052 170.146 140.066 167.456C138.634 166.184 137.263 164.988 135.922 163.792C131.859 160.235 127.42 155.992 124.505 151.567C121.58 155.992 117.1 160.244 113.088 163.792L108.934 167.456C105.958 170.137 103.175 173.048 102.332 175.931C101.927 177.417 101.892 178.972 102.23 180.472C102.581 182.355 103.445 184.118 104.738 185.584C106.031 187.05 107.707 188.168 109.597 188.827C111.488 189.486 113.528 189.662 115.513 189.338C117.498 189.014 119.359 188.201 120.909 186.98C121.692 186.326 122.397 185.592 123.012 184.792C120.93 189.4 118.025 192.563 113.87 194.028V196.439H135.048V194.028C130.985 192.592 128.08 189.516 126.008 185.052H126.059Z" fill="black"/>
</svg>
