<svg width="250" height="350" viewBox="0 0 250 350" fill="none" xmlns="http://www.w3.org/2000/svg">
<rect width="250" height="350" rx="12.5" fill="white"/>
<path d="M126.059 186.049C126.664 186.757 127.345 187.403 128.091 187.978C129.641 189.198 131.502 190.011 133.487 190.335C135.472 190.659 137.512 190.483 139.403 189.824C141.293 189.165 142.969 188.047 144.262 186.581C145.555 185.115 146.419 183.352 146.77 181.469C147.108 179.969 147.073 178.414 146.668 176.928C145.835 174.036 143.052 171.143 140.066 168.453C138.634 167.181 137.263 165.985 135.922 164.79C131.859 161.232 127.42 156.99 124.505 152.564C121.58 156.99 117.1 161.241 113.088 164.79L108.934 168.453C105.958 171.134 103.175 174.045 102.332 176.928C101.927 178.414 101.892 179.969 102.23 181.469C102.581 183.352 103.445 185.115 104.738 186.581C106.031 188.047 107.707 189.165 109.597 189.824C111.488 190.483 113.528 190.659 115.513 190.335C117.498 190.011 119.359 189.198 120.909 187.978C121.692 187.323 122.397 186.589 123.012 185.789C120.93 190.398 118.025 193.56 113.87 195.025V197.436H135.048V195.025C130.985 193.589 128.08 190.513 126.008 186.049H126.059Z" fill="black"/>
<path d="M122.941 249.706C122.336 248.998 121.655 248.352 120.909 247.777C119.359 246.557 117.498 245.744 115.513 245.42C113.528 245.096 111.488 245.272 109.597 245.931C107.707 246.59 106.031 247.708 104.738 249.174C103.445 250.64 102.581 252.403 102.23 254.285C101.892 255.786 101.927 257.341 102.332 258.827C103.165 261.719 105.948 264.612 108.934 267.302C110.366 268.574 111.737 269.77 113.078 270.965C117.141 274.523 121.58 278.765 124.495 283.191C127.42 278.765 131.9 274.513 135.912 270.965L140.066 267.302C143.042 264.621 145.825 261.709 146.668 258.827C147.073 257.341 147.108 255.786 146.77 254.285C146.419 252.403 145.555 250.64 144.262 249.174C142.969 247.708 141.293 246.59 139.403 245.931C137.512 245.272 135.472 245.096 133.487 245.42C131.502 245.744 129.641 246.557 128.091 247.777C127.308 248.432 126.603 249.166 125.988 249.966C128.07 245.357 130.975 242.195 135.13 240.729V238.319H113.952V240.729C118.015 242.166 120.92 245.242 122.992 249.706H122.941Z" fill="black"/>
<path d="M15.8789 39.005C15.3711 38.5753 15.332 37.9633 15.7617 37.169L16.6602 35.5284C17.0898 34.7341 17.7865 34.6755 18.75 35.3526C19.5573 35.9255 20.4688 36.3943 21.4844 36.7589C22.5 37.1104 23.6328 37.2862 24.8828 37.2862C26.6016 37.2862 27.832 36.824 28.5742 35.8995C29.3164 34.962 29.6875 33.9138 29.6875 32.755C29.6875 31.5701 29.2448 30.5089 28.3594 29.5714C27.487 28.6208 26.25 28.1456 24.6484 28.1456H23.1445C22.2982 28.1456 21.875 27.8005 21.875 27.1104V24.962C21.875 24.2458 22.2982 23.8878 23.1445 23.8878H24.3164C25.5143 23.8878 26.569 23.5167 27.4805 22.7745C28.4049 22.0323 28.8672 21.1013 28.8672 19.9815C28.8672 19.1091 28.5612 18.3865 27.9492 17.8136C27.3503 17.2276 26.3672 16.9346 25 16.9346C23.7109 16.9346 22.5977 17.1234 21.6602 17.5011C20.7227 17.8787 19.9805 18.3344 19.4336 18.8682C18.6523 19.6365 17.9818 19.6039 17.4219 18.7706L16.2891 17.1104C15.8594 16.4854 15.9896 15.8474 16.6797 15.1964C17.6172 14.2979 18.8281 13.6339 20.3125 13.2042C21.7969 12.7745 23.2487 12.5596 24.668 12.5596C28.0143 12.5596 30.5013 13.2302 32.1289 14.5714C33.7565 15.8995 34.5703 17.5271 34.5703 19.4542C34.5703 20.8865 34.0104 22.1951 32.8906 23.38C31.7708 24.5518 30.5859 25.3591 29.3359 25.8018V25.88C30.8203 26.2445 32.2266 27.0453 33.5547 28.2823C34.8828 29.5063 35.5469 31.0297 35.5469 32.8526C35.5469 35.7042 34.6484 37.8852 32.8516 39.3956C31.0547 40.906 28.3138 41.6612 24.6289 41.6612C23.0794 41.6612 21.4714 41.4268 19.8047 40.9581C18.151 40.4763 16.8424 39.8253 15.8789 39.005Z" fill="black"/>
<path d="M234.121 311.992C234.629 312.422 234.668 313.034 234.238 313.828L233.34 315.469C232.91 316.263 232.214 316.322 231.25 315.645C230.443 315.072 229.531 314.603 228.516 314.238C227.5 313.887 226.367 313.711 225.117 313.711C223.398 313.711 222.168 314.173 221.426 315.098C220.684 316.035 220.312 317.083 220.312 318.242C220.312 319.427 220.755 320.488 221.641 321.426C222.513 322.376 223.75 322.852 225.352 322.852H226.855C227.702 322.852 228.125 323.197 228.125 323.887V326.035C228.125 326.751 227.702 327.109 226.855 327.109H225.684C224.486 327.109 223.431 327.48 222.52 328.223C221.595 328.965 221.133 329.896 221.133 331.016C221.133 331.888 221.439 332.611 222.051 333.184C222.65 333.77 223.633 334.062 225 334.062C226.289 334.062 227.402 333.874 228.34 333.496C229.277 333.118 230.02 332.663 230.566 332.129C231.348 331.361 232.018 331.393 232.578 332.227L233.711 333.887C234.141 334.512 234.01 335.15 233.32 335.801C232.383 336.699 231.172 337.363 229.688 337.793C228.203 338.223 226.751 338.438 225.332 338.438C221.986 338.438 219.499 337.767 217.871 336.426C216.243 335.098 215.43 333.47 215.43 331.543C215.43 330.111 215.99 328.802 217.109 327.617C218.229 326.445 219.414 325.638 220.664 325.195V325.117C219.18 324.753 217.773 323.952 216.445 322.715C215.117 321.491 214.453 319.967 214.453 318.145C214.453 315.293 215.352 313.112 217.148 311.602C218.945 310.091 221.686 309.336 225.371 309.336C226.921 309.336 228.529 309.57 230.195 310.039C231.849 310.521 233.158 311.172 234.121 311.992Z" fill="black"/>
<path d="M126.059 100.294C126.664 101.002 127.345 101.648 128.091 102.223C129.641 103.443 131.502 104.256 133.487 104.58C135.472 104.904 137.512 104.728 139.403 104.069C141.293 103.41 142.969 102.292 144.262 100.826C145.555 99.3598 146.419 97.5973 146.77 95.7145C147.108 94.2138 147.073 92.659 146.668 91.1733C145.835 88.2809 143.052 85.3884 140.066 82.6984C138.634 81.4257 137.263 80.2302 135.922 79.0346C131.859 75.4769 127.42 71.2346 124.505 66.8091C121.58 71.2346 117.1 75.4865 113.088 79.0346L108.934 82.6984C105.958 85.3787 103.175 88.2905 102.332 91.1733C101.927 92.659 101.892 94.2138 102.23 95.7145C102.581 97.5973 103.445 99.3598 104.738 100.826C106.031 102.292 107.707 103.41 109.597 104.069C111.488 104.728 113.528 104.904 115.513 104.58C117.498 104.256 119.359 103.443 120.909 102.223C121.692 101.568 122.397 100.834 123.012 100.034C120.93 104.643 118.025 107.805 113.87 109.271V111.681H135.048V109.271C130.985 107.834 128.08 104.758 126.008 100.294H126.059Z" fill="black"/>
<path d="M223.961 277.819C223.557 277.347 223.103 276.916 222.606 276.534C221.573 275.72 220.332 275.178 219.009 274.962C217.685 274.746 216.326 274.863 215.065 275.303C213.804 275.742 212.687 276.487 211.825 277.465C210.964 278.442 210.387 279.617 210.153 280.872C209.928 281.873 209.951 282.909 210.221 283.9C210.776 285.828 212.632 287.756 214.623 289.55C215.577 290.398 216.492 291.195 217.385 291.992C220.094 294.364 223.053 297.192 224.997 300.142C226.947 297.192 229.933 294.358 232.608 291.992L235.377 289.55C237.361 287.763 239.217 285.822 239.779 283.9C240.049 282.909 240.072 281.873 239.847 280.872C239.613 279.617 239.036 278.442 238.175 277.465C237.313 276.487 236.196 275.742 234.935 275.303C233.674 274.863 232.315 274.746 230.991 274.962C229.668 275.178 228.427 275.72 227.394 276.534C226.872 276.97 226.402 277.459 225.992 277.993C227.38 274.92 229.317 272.812 232.086 271.835V270.228H217.968V271.835C220.676 272.793 222.613 274.843 223.994 277.819H223.961Z" fill="black"/>
<path d="M26.0394 73.1781C26.4428 73.65 26.8967 74.0808 27.3937 74.4637C28.4273 75.2773 29.6678 75.8193 30.9912 76.0353C32.3145 76.2513 33.6744 76.1339 34.935 75.6947C36.1956 75.2555 37.3126 74.5099 38.1745 73.5325C39.0364 72.5551 39.613 71.3801 39.8466 70.125C40.0719 69.1245 40.0488 68.088 39.7789 67.0975C39.2236 65.1692 37.3682 63.2409 35.3774 61.4476C34.4226 60.5991 33.5084 59.8021 32.6146 59.005C29.906 56.6332 26.9468 53.805 25.0034 50.8547C23.0532 53.805 20.0669 56.6396 17.3922 59.005L14.6226 61.4476C12.6386 63.2345 10.7832 65.1756 10.2211 67.0975C9.95125 68.088 9.92806 69.1245 10.1534 70.125C10.387 71.3801 10.9636 72.5551 11.8255 73.5325C12.6874 74.5099 13.8044 75.2555 15.065 75.6947C16.3256 76.1339 17.6855 76.2513 19.0088 76.0353C20.3322 75.8193 21.5727 75.2773 22.6063 74.4637C23.128 74.0271 23.598 73.5378 24.008 73.0046C22.6198 76.077 20.6832 78.1853 17.9136 79.1623V80.7692H32.0322V79.1623C29.3236 78.2046 27.387 76.1541 26.0056 73.1781H26.0394Z" fill="black"/>
</svg>
