<svg width="250" height="350" viewBox="0 0 250 350" fill="none" xmlns="http://www.w3.org/2000/svg">
<rect width="250" height="350" rx="12.5" fill="white"/>
<path d="M184.941 249.706C184.336 248.998 183.655 248.352 182.909 247.777C181.359 246.557 179.498 245.744 177.513 245.42C175.528 245.096 173.488 245.272 171.597 245.931C169.707 246.59 168.031 247.708 166.738 249.174C165.445 250.64 164.581 252.403 164.23 254.286C163.892 255.786 163.927 257.341 164.332 258.827C165.165 261.719 167.948 264.612 170.934 267.302C172.366 268.574 173.737 269.77 175.078 270.965C179.141 274.523 183.58 278.765 186.495 283.191C189.42 278.765 193.9 274.513 197.912 270.965L202.066 267.302C205.042 264.621 207.825 261.71 208.668 258.827C209.073 257.341 209.108 255.786 208.77 254.286C208.419 252.403 207.555 250.64 206.262 249.174C204.969 247.708 203.293 246.59 201.403 245.931C199.512 245.272 197.472 245.096 195.487 245.42C193.502 245.744 191.641 246.557 190.091 247.777C189.308 248.432 188.603 249.166 187.988 249.966C190.07 245.357 192.975 242.195 197.13 240.729V238.319H175.952V240.729C180.015 242.166 182.92 245.242 184.992 249.706H184.941Z" fill="black"/>
<path d="M15.7617 33.9062C14.9154 33.9062 14.4922 33.4831 14.4922 32.6367V30.0586C14.4922 29.3164 14.6875 28.6719 15.0781 28.125L25.8984 12.8906C26.3802 12.2135 26.9857 11.875 27.7148 11.875H30.5859C31.4453 11.875 31.875 12.2982 31.875 13.1445V29.0625H34.2383C35.0846 29.0625 35.5078 29.4857 35.5078 30.332V32.6367C35.5078 33.4831 35.0911 33.9062 34.2578 33.9062H31.875V38.7305C31.875 39.5768 31.4518 40 30.6055 40H27.6758C26.8294 40 26.4062 39.5768 26.4062 38.7305V33.9062H15.7617ZM19.9414 29.0625H26.4062V21.5039C26.4062 20.9831 26.4323 20.4622 26.4844 19.9414H26.4062L19.9414 29.0625Z" fill="black"/>
<path d="M234.238 316.094C235.085 316.094 235.508 316.517 235.508 317.363V319.941C235.508 320.684 235.312 321.328 234.922 321.875L224.102 337.109C223.62 337.786 223.014 338.125 222.285 338.125H219.414C218.555 338.125 218.125 337.702 218.125 336.855V320.938H215.762C214.915 320.938 214.492 320.514 214.492 319.668V317.363C214.492 316.517 214.909 316.094 215.742 316.094H218.125V311.27C218.125 310.423 218.548 310 219.395 310H222.324C223.171 310 223.594 310.423 223.594 311.27V316.094H234.238ZM230.059 320.938H223.594V328.496C223.594 329.017 223.568 329.538 223.516 330.059H223.594L230.059 320.938Z" fill="black"/>
<path d="M64.0591 100.294C64.6642 101.002 65.345 101.648 66.0906 102.223C67.641 103.443 69.5017 104.256 71.4867 104.58C73.4718 104.904 75.5117 104.728 77.4025 104.069C79.2934 103.41 80.9689 102.292 82.2618 100.826C83.5546 99.3598 84.4195 97.5973 84.7699 95.7145C85.1079 94.2138 85.0731 92.659 84.6683 91.1733C83.8354 88.2809 81.0523 85.3884 78.066 82.6984C76.6339 81.4257 75.2626 80.2302 73.9219 79.0346C69.859 75.4769 65.4202 71.2346 62.5051 66.8091C59.5798 71.2346 55.1004 75.4865 51.0883 79.0346L46.934 82.6984C43.9579 85.3787 41.1748 88.2905 40.3317 91.1733C39.9269 92.659 39.8921 94.2138 40.2301 95.7145C40.5805 97.5973 41.4454 99.3598 42.7382 100.826C44.0311 102.292 45.7067 103.41 47.5975 104.069C49.4883 104.728 51.5282 104.904 53.5133 104.58C55.4983 104.256 57.359 103.443 58.9094 102.223C59.692 101.568 60.397 100.834 61.012 100.034C58.9297 104.643 56.0247 107.805 51.8704 109.271V111.681H73.0483V109.271C68.9854 107.834 66.0804 104.758 64.0084 100.294H64.0591Z" fill="black"/>
<path d="M188.059 100.294C188.664 101.002 189.345 101.648 190.091 102.223C191.641 103.443 193.502 104.256 195.487 104.58C197.472 104.904 199.512 104.728 201.403 104.069C203.293 103.41 204.969 102.292 206.262 100.826C207.555 99.3598 208.419 97.5973 208.77 95.7145C209.108 94.2138 209.073 92.659 208.668 91.1733C207.835 88.2809 205.052 85.3884 202.066 82.6984C200.634 81.4257 199.263 80.2302 197.922 79.0346C193.859 75.4769 189.42 71.2346 186.505 66.8091C183.58 71.2346 179.1 75.4865 175.088 79.0346L170.934 82.6984C167.958 85.3787 165.175 88.2905 164.332 91.1733C163.927 92.659 163.892 94.2138 164.23 95.7145C164.581 97.5973 165.445 99.3598 166.738 100.826C168.031 102.292 169.707 103.41 171.597 104.069C173.488 104.728 175.528 104.904 177.513 104.58C179.498 104.256 181.359 103.443 182.909 102.223C183.692 101.568 184.397 100.834 185.012 100.034C182.93 104.643 180.025 107.805 175.87 109.271V111.681H197.048V109.271C192.985 107.834 190.08 104.758 188.008 100.294H188.059Z" fill="black"/>
<path d="M60.9409 249.706C60.3358 248.998 59.655 248.352 58.9094 247.777C57.359 246.557 55.4983 245.744 53.5133 245.42C51.5282 245.096 49.4883 245.272 47.5975 245.931C45.7066 246.59 44.0311 247.708 42.7382 249.174C41.4454 250.64 40.5805 252.403 40.2301 254.286C39.8921 255.786 39.9269 257.341 40.3317 258.827C41.1646 261.719 43.9477 264.612 46.934 267.302C48.3661 268.574 49.7374 269.77 51.0781 270.965C55.141 274.523 59.5798 278.765 62.4949 283.191C65.4202 278.765 69.8996 274.513 73.9117 270.965L78.066 267.302C81.0421 264.621 83.8252 261.71 84.6683 258.827C85.0731 257.341 85.1079 255.786 84.7699 254.286C84.4195 252.403 83.5546 250.64 82.2618 249.174C80.9689 247.708 79.2933 246.59 77.4025 245.931C75.5117 245.272 73.4718 245.096 71.4867 245.42C69.5017 245.744 67.641 246.557 66.0906 247.777C65.308 248.432 64.603 249.166 63.988 249.966C66.0703 245.357 68.9753 242.195 73.1296 240.729V238.319H51.9517V240.729C56.0146 242.166 58.9196 245.242 60.9916 249.706H60.9409Z" fill="black"/>
<path d="M223.961 276.822C223.557 276.35 223.103 275.919 222.606 275.536C221.573 274.723 220.332 274.181 219.009 273.965C217.685 273.749 216.326 273.866 215.065 274.305C213.804 274.745 212.687 275.49 211.825 276.467C210.964 277.445 210.387 278.62 210.153 279.875C209.928 280.875 209.951 281.912 210.221 282.902C210.776 284.831 212.632 286.759 214.623 288.552C215.577 289.401 216.492 290.198 217.385 290.995C220.094 293.367 223.053 296.195 224.997 299.145C226.947 296.195 229.933 293.36 232.608 290.995L235.377 288.552C237.361 286.766 239.217 284.824 239.779 282.902C240.049 281.912 240.072 280.875 239.847 279.875C239.613 278.62 239.036 277.445 238.175 276.467C237.313 275.49 236.196 274.745 234.935 274.305C233.674 273.866 232.315 273.749 230.991 273.965C229.668 274.181 228.427 274.723 227.394 275.536C226.872 275.973 226.402 276.462 225.992 276.995C227.38 273.923 229.317 271.815 232.086 270.838V269.231H217.968V270.838C220.676 271.795 222.613 273.846 223.994 276.822H223.961Z" fill="black"/>
<path d="M26.0394 72.181C26.4428 72.6528 26.8967 73.0836 27.3937 73.4665C28.4273 74.2802 29.6678 74.8221 30.9912 75.0381C32.3145 75.2541 33.6744 75.1367 34.935 74.6975C36.1956 74.2583 37.3126 73.5128 38.1745 72.5354C39.0364 71.558 39.613 70.383 39.8466 69.1278C40.0719 68.1273 40.0488 67.0908 39.7789 66.1004C39.2236 64.172 37.3682 62.2437 35.3774 60.4504C34.4226 59.6019 33.5084 58.8049 32.6146 58.0079C29.906 55.636 26.9468 52.8079 25.0034 49.8575C23.0532 52.8079 20.0669 55.6425 17.3922 58.0079L14.6226 60.4504C12.6386 62.2373 10.7832 64.1785 10.2211 66.1004C9.95125 67.0908 9.92806 68.1273 10.1534 69.1278C10.387 70.383 10.9636 71.558 11.8255 72.5354C12.6874 73.5128 13.8044 74.2583 15.065 74.6975C16.3256 75.1367 17.6855 75.2541 19.0088 75.0381C20.3322 74.8221 21.5727 74.2802 22.6063 73.4665C23.128 73.0299 23.598 72.5407 24.008 72.0074C22.6198 75.0798 20.6832 77.1881 17.9136 78.1651V79.7721H32.0322V78.1651C29.3236 77.2074 27.387 75.157 26.0056 72.181H26.0394Z" fill="black"/>
</svg>
