<svg width="250" height="350" viewBox="0 0 250 350" fill="none" xmlns="http://www.w3.org/2000/svg">
<rect width="250" height="350" rx="12.5" fill="white"/>
<path d="M16.1914 40C15.2799 40 14.8242 39.5117 14.8242 38.5352V13.457C14.8242 12.4805 15.2799 11.9922 16.1914 11.9922H19.1602C20.0716 11.9922 20.5273 12.4805 20.5273 13.457V21.2305C20.5273 22.0117 20.4948 22.793 20.4297 23.5742H20.5664L30.0586 13.1445C30.7617 12.3763 31.3607 11.9922 31.8555 11.9922H35.7812C37.3047 11.9922 37.5521 12.5521 36.5234 13.6719L27.6367 23.3984L37.1484 38.3203C37.8646 39.4401 37.6172 40 36.4062 40H32.7539C32.0768 40 31.4909 39.6159 30.9961 38.8477L23.8086 27.5781L20.5273 31.2695V38.5352C20.5273 39.5117 20.0716 40 19.1602 40H16.1914Z" fill="black"/>
<path d="M233.309 309.003C234.22 309.003 234.676 309.491 234.676 310.468V335.546C234.676 336.522 234.22 337.011 233.309 337.011H230.34C229.428 337.011 228.973 336.522 228.973 335.546V327.772C228.973 326.991 229.005 326.21 229.07 325.429H228.934L219.441 335.858C218.738 336.627 218.139 337.011 217.645 337.011H213.719C212.195 337.011 211.948 336.451 212.977 335.331L221.863 325.604L212.352 310.683C211.635 309.563 211.883 309.003 213.094 309.003H216.746C217.423 309.003 218.009 309.387 218.504 310.155L225.691 321.425L228.973 317.733V310.468C228.973 309.491 229.428 309.003 230.34 309.003H233.309Z" fill="black"/>
<path d="M132.937 67.678C130.912 69.7458 130.84 70.3724 132.503 72.2522C134.311 74.4453 134.6 73.756 129.104 80.774C127.513 82.7791 125.705 85.3481 125.126 86.4133L124.042 88.4185L118.256 84.6589C111.892 80.5233 111.313 79.8967 111.747 78.0796C112.037 76.4504 110.446 74.3826 108.421 73.944C107.408 73.6934 106.323 74.0693 105.166 75.0719C102.924 77.0144 102.997 78.3302 105.239 79.2701C107.264 80.022 108.565 82.2151 110.301 87.6039C110.952 89.6717 111.964 92.6167 112.543 94.1205C114.423 99.008 112.76 104.773 106.613 115.3C104.443 118.996 102.708 122.192 102.708 122.505C102.708 122.756 103.431 123.007 104.299 123.007C105.094 123.007 106.83 123.696 108.131 124.511C109.65 125.513 111.603 126.077 114.279 126.265C116.448 126.453 119.775 126.954 121.655 127.393C123.535 127.894 125.271 128.082 125.56 127.832C126.428 127.08 123.246 123.32 120.787 122.192C118.907 121.378 116.737 121.127 112.471 121.19C105.745 121.315 105.89 121.628 109.867 114.861C113.049 109.41 114.929 104.773 115.58 100.574C115.942 98.82 116.448 97.6295 117.027 97.6921C117.461 97.7548 120.353 97.8174 123.318 97.8174C129.176 97.9428 130.044 98.632 127.296 100.762C125.488 102.204 125.416 105.525 127.151 106.903C127.802 107.404 129.321 108.595 130.406 109.472L132.431 111.101L131.057 112.668C128.959 114.986 129.827 117.117 134.673 121.252C136.987 123.195 138.867 125.137 138.867 125.513C138.867 126.892 145.593 128.834 150.077 128.834C154.199 128.834 159.767 127.205 160.852 125.576C161.141 125.262 160.563 123.508 159.695 121.628C158.249 118.683 158.104 117.242 158.104 108.595C158.032 99.5093 158.249 98.3814 160.418 91.3635C162.877 83.7816 164.323 80.9619 167.072 78.8315C168.952 77.3277 168.88 75.6985 166.927 74.508C163.745 72.5655 161.431 73.5054 160.924 76.889C160.418 80.21 160.129 80.5233 154.054 84.5335C148.992 87.9172 148.63 88.0425 147.762 86.9146C147.256 86.288 144.797 83.0924 142.338 79.8967L137.927 74.0693L139.518 72.6908C141.543 70.7484 141.471 69.4952 139.156 67.9287C136.77 66.2995 134.383 66.2369 132.937 67.678Z" fill="black"/>
<path d="M90.6304 99.3213L88.6778 102.642L88.7501 132.844C88.8948 159.224 88.7501 163.172 87.81 164.049C87.1591 164.55 86.2913 164.989 85.7127 164.989C84.5556 164.989 83.6155 166.869 84.8449 166.931C85.3511 166.994 87.0145 166.931 88.5332 166.869L91.3536 166.743L90.9197 174.012L90.5581 181.28H93.017C95.7651 181.28 95.4758 182.283 95.8374 171.568C95.9097 169.5 96.0544 167.495 96.0544 167.057C96.1267 166.618 97.2115 166.493 99.0195 166.681C102.418 167.057 103.503 165.991 100.538 165.114L98.4409 164.425L98.2239 133.534L98.007 102.642L96.199 99.572C95.1865 97.8802 94.0294 96.3763 93.5232 96.251C93.017 96.063 91.7875 97.5042 90.6304 99.3213Z" fill="black"/>
<path d="M108.493 133.722C108.493 136.729 108.782 139.361 109.144 139.549C110.301 140.176 115.146 136.416 117.46 132.97C119.052 130.589 117.75 129.461 112.687 128.771L108.493 128.208V133.722Z" fill="black"/>
<path d="M138.289 131.153C134.745 131.842 131.129 134.286 128.453 137.732C123.969 143.497 123.246 151.58 126.645 157.783C128.815 161.668 130.406 161.856 130.912 158.347C131.418 155.089 133.082 152.896 136.77 150.64C142.845 146.755 149.353 146.818 155.5 150.64L158.61 152.582L158.176 147.883C157.525 140.301 153.982 134.912 148.052 132.531C144.219 130.965 141.326 130.589 138.289 131.153Z" fill="black"/>
<path d="M125.126 133.471C121.366 134.787 108.276 144.499 106.323 147.569C104.515 150.201 104.515 150.514 104.515 165.239V180.153L110.373 181.844C117.533 183.849 119.413 184.915 122.595 188.674C129.682 197.071 130.55 210.417 124.62 220.819C123.246 223.262 122.306 225.393 122.523 225.581C123.608 226.583 139.156 215.242 142.628 210.856L145.014 207.911L145.231 193.875C145.376 186.168 145.303 179.213 145.086 178.461C144.725 177.333 144.002 176.957 141.326 176.644C136.914 176.142 132.575 174.388 129.176 171.881C122.595 166.869 119.268 155.089 121.583 145.439C122.451 142.055 125.922 135.288 127.296 134.599C129.249 133.534 127.585 132.656 125.126 133.471Z" fill="black"/>
<path d="M142.41 156.404C142.049 157.156 140.747 158.284 139.517 158.848C138.36 159.412 137.42 160.415 137.42 161.041C137.42 161.981 143.784 167.495 144.941 167.495C145.665 167.495 151.884 161.543 151.884 160.791C151.884 160.415 151.233 159.851 150.438 159.663C149.642 159.412 148.413 158.472 147.689 157.595C145.52 154.587 143.64 154.149 142.41 156.404Z" fill="black"/>
<path d="M154.271 176.706C153.62 176.894 153.331 179.025 153.331 184.225V191.431L150.945 191.055C147.69 190.554 147.184 191.181 149.354 193.186L151.089 194.815L151.306 225.142L151.523 255.532L153.331 258.603C154.344 260.357 155.501 261.861 156.007 261.986C156.513 262.112 157.743 260.67 158.9 258.853L160.852 255.532L161.069 225.456C161.214 208.913 161.286 195.003 161.286 194.564C161.286 194.126 162.082 193.436 163.094 193.06C165.408 192.121 165.625 190.366 163.311 190.993C158.683 192.246 158.755 192.309 158.9 184.413C159.117 177.145 158.827 176.205 156.224 176.33C155.645 176.33 154.705 176.518 154.271 176.706Z" fill="black"/>
<path d="M103.069 191.933C102.418 192.998 101.116 194.188 100.176 194.564C99.2361 194.94 98.296 195.63 98.079 196.068C97.6451 197.008 104.515 203.462 105.456 203.086C106.323 202.773 112.109 197.133 112.109 196.632C112.109 196.131 105.094 190.053 104.515 190.053C104.371 190.053 103.648 190.93 103.069 191.933Z" fill="black"/>
<path d="M118.98 198.637C118.112 202.084 116.955 203.901 114.207 206.344C109.217 210.793 100.394 211.42 94.4635 207.723C92.7278 206.595 91.0645 205.718 90.8475 205.718C90.1966 205.718 91.0645 211.671 92.2939 215.493C93.668 220.004 96.85 223.451 101.334 225.393C110.012 229.153 118.256 226.145 122.813 217.623C125.488 212.61 125.561 204.841 122.957 200.392C120.788 196.757 119.558 196.194 118.98 198.637Z" fill="black"/>
<path d="M136.119 220.443C133.588 222.323 132.141 225.017 132.503 227.398C132.72 228.965 133.154 229.278 135.829 229.716C140.819 230.531 141.036 230.28 141.036 224.202C141.036 219.378 140.892 218.876 139.662 218.876C138.867 218.876 137.276 219.566 136.119 220.443Z" fill="black"/>
<path d="M92.7273 230.468C90.63 231.283 88.7497 232.411 88.5328 232.912C88.3158 233.476 88.8943 234.917 89.8345 236.233C91.4255 238.489 91.4978 239.178 91.4978 249.266C91.4255 259.731 91.4255 260.044 88.7497 267.25C85.7123 275.897 85.0614 277.025 82.5303 278.779C80.9392 279.97 80.7946 280.346 81.3732 281.912C81.9517 283.416 82.6026 283.792 84.6998 283.917C86.8694 284.105 87.3756 283.855 88.0988 282.476C88.6051 281.599 88.9667 280.283 88.9667 279.594C88.9667 278.842 90.1961 277.401 91.6425 276.335C93.0889 275.208 95.6923 273.265 97.3557 271.949C99.0913 270.633 100.755 269.694 101.189 269.881C101.55 270.069 103.214 272.325 104.805 274.832C106.468 277.275 108.493 280.095 109.361 281.098C110.807 282.664 110.879 282.977 110.012 284.857C108.565 287.928 108.71 289.118 110.735 290.434C112.832 291.812 114.278 291.624 117.171 289.682L118.979 288.491L117.171 285.672L115.435 282.852L116.954 281.411C118.256 280.158 120.859 276.774 124.692 271.26L125.994 269.506L128.236 271.385C129.538 272.388 131.924 273.954 133.588 274.894C137.493 276.962 139.011 279.03 138.722 281.662C138.505 283.604 138.65 283.729 141.109 283.917C142.917 284.043 144.002 283.729 144.942 282.915C146.099 281.724 146.026 281.536 143.206 277.714C140.313 273.829 138.433 269.506 136.697 262.613C135.829 259.417 135.902 258.477 137.059 254.78C138.65 249.768 143.351 240.745 145.809 237.862C147.907 235.481 147.979 235.168 146.171 235.168C143.857 235.168 142.483 235.857 142.483 237.048C142.483 237.674 141.036 240.745 139.301 243.815C137.565 246.885 135.612 251.397 134.889 253.715C132.792 261.172 133.298 260.733 126.79 260.357C123.68 260.232 121.004 259.981 120.859 259.856C120.642 259.668 121.293 258.728 122.161 257.663C124.692 254.718 124.403 252.838 120.859 250.206C117.605 247.763 117.388 247.073 118.979 244.943C120.715 242.687 119.341 240.494 112.687 235.043C104.805 228.463 100.248 227.398 92.7273 230.468Z" fill="black"/>
<path d="M124.403 231.346C124.403 235.356 133.66 238.301 140.241 236.358C142.772 235.607 142.917 235.293 141.543 233.601C140.82 232.787 138.795 232.286 134.094 231.722C130.55 231.283 126.934 230.719 126.067 230.468C124.693 230.093 124.403 230.218 124.403 231.346Z" fill="black"/>
<path d="M223.961 276.822C223.557 276.35 223.103 275.919 222.606 275.536C221.573 274.723 220.332 274.181 219.009 273.965C217.685 273.749 216.326 273.866 215.065 274.305C213.804 274.745 212.687 275.49 211.825 276.467C210.964 277.445 210.387 278.62 210.153 279.875C209.928 280.875 209.951 281.912 210.221 282.902C210.776 284.831 212.632 286.759 214.623 288.552C215.577 289.401 216.492 290.198 217.385 290.995C220.094 293.367 223.053 296.195 224.997 299.145C226.947 296.195 229.933 293.36 232.608 290.995L235.377 288.552C237.361 286.766 239.217 284.824 239.779 282.902C240.049 281.912 240.072 280.875 239.847 279.875C239.613 278.62 239.036 277.445 238.175 276.467C237.313 275.49 236.196 274.745 234.935 274.305C233.674 273.866 232.315 273.749 230.991 273.965C229.668 274.181 228.427 274.723 227.394 275.536C226.872 275.973 226.402 276.462 225.992 276.995C227.38 273.923 229.317 271.815 232.086 270.838V269.231H217.968V270.838C220.676 271.795 222.613 273.846 223.994 276.822H223.961Z" fill="black"/>
<path d="M26.0394 72.181C26.4428 72.6528 26.8967 73.0836 27.3937 73.4665C28.4273 74.2802 29.6678 74.8221 30.9912 75.0381C32.3145 75.2542 33.6744 75.1367 34.935 74.6975C36.1956 74.2583 37.3126 73.5128 38.1745 72.5354C39.0364 71.558 39.613 70.383 39.8466 69.1278C40.0719 68.1274 40.0488 67.0908 39.7789 66.1004C39.2236 64.1721 37.3682 62.2437 35.3774 60.4504C34.4226 59.602 33.5084 58.8049 32.6146 58.0079C29.906 55.6361 26.9468 52.8079 25.0034 49.8576C23.0532 52.8079 20.0669 55.6425 17.3922 58.0079L14.6226 60.4504C12.6386 62.2373 10.7832 64.1785 10.2211 66.1004C9.95125 67.0908 9.92806 68.1274 10.1534 69.1278C10.387 70.383 10.9636 71.558 11.8255 72.5354C12.6874 73.5128 13.8044 74.2583 15.065 74.6975C16.3256 75.1367 17.6855 75.2542 19.0088 75.0381C20.3322 74.8221 21.5727 74.2802 22.6063 73.4665C23.128 73.03 23.598 72.5407 24.008 72.0074C22.6198 75.0799 20.6832 77.1882 17.9136 78.1652V79.7721H32.0322V78.1652C29.3236 77.2074 27.387 75.157 26.0056 72.181H26.0394Z" fill="black"/>
</svg>
