<svg width="250" height="350" viewBox="0 0 250 350" fill="none" xmlns="http://www.w3.org/2000/svg">
<rect width="250" height="350" rx="12.5" fill="white"/>
<path d="M184.941 248.709C184.336 248.001 183.655 247.355 182.909 246.78C181.359 245.56 179.498 244.747 177.513 244.423C175.528 244.099 173.488 244.275 171.597 244.934C169.707 245.593 168.031 246.711 166.738 248.177C165.445 249.643 164.581 251.406 164.23 253.288C163.892 254.789 163.927 256.344 164.332 257.83C165.165 260.722 167.948 263.614 170.934 266.304C172.366 267.577 173.737 268.773 175.078 269.968C179.141 273.526 183.58 277.768 186.495 282.194C189.42 277.768 193.9 273.516 197.912 269.968L202.066 266.304C205.042 263.624 207.825 260.712 208.668 257.83C209.073 256.344 209.108 254.789 208.77 253.288C208.419 251.406 207.555 249.643 206.262 248.177C204.969 246.711 203.293 245.593 201.403 244.934C199.512 244.275 197.472 244.099 195.487 244.423C193.502 244.747 191.641 245.56 190.091 246.78C189.308 247.435 188.603 248.169 187.988 248.969C190.07 244.36 192.975 241.198 197.13 239.732V237.322H175.952V239.732C180.015 241.169 182.92 244.245 184.992 248.709H184.941Z" fill="black"/>
<path d="M64.0591 99.2971C64.6642 100.005 65.345 100.651 66.0906 101.225C67.641 102.446 69.5017 103.259 71.4867 103.583C73.4718 103.907 75.5117 103.731 77.4025 103.072C79.2934 102.413 80.9689 101.295 82.2618 99.8287C83.5546 98.3626 84.4195 96.6001 84.7699 94.7174C85.1079 93.2167 85.0731 91.6619 84.6683 90.1762C83.8354 87.2837 81.0523 84.3913 78.066 81.7013C76.6339 80.4286 75.2626 79.233 73.9219 78.0375C69.859 74.4797 65.4202 70.2375 62.5051 65.812C59.5798 70.2375 55.1004 74.4894 51.0883 78.0375L46.934 81.7013C43.9579 84.3816 41.1748 87.2934 40.3317 90.1762C39.9269 91.6619 39.8921 93.2167 40.2301 94.7174C40.5805 96.6001 41.4454 98.3626 42.7382 99.8287C44.0311 101.295 45.7067 102.413 47.5975 103.072C49.4883 103.731 51.5282 103.907 53.5133 103.583C55.4983 103.259 57.359 102.446 58.9094 101.225C59.692 100.571 60.397 99.8367 61.012 99.0368C58.9297 103.645 56.0247 106.808 51.8704 108.273V110.684H73.0483V108.273C68.9854 106.837 66.0804 103.761 64.0084 99.2971H64.0591Z" fill="black"/>
<path d="M188.059 99.2971C188.664 100.005 189.345 100.651 190.091 101.225C191.641 102.446 193.502 103.259 195.487 103.583C197.472 103.907 199.512 103.731 201.403 103.072C203.293 102.413 204.969 101.295 206.262 99.8287C207.555 98.3626 208.419 96.6001 208.77 94.7174C209.108 93.2167 209.073 91.6619 208.668 90.1762C207.835 87.2837 205.052 84.3913 202.066 81.7013C200.634 80.4286 199.263 79.233 197.922 78.0375C193.859 74.4797 189.42 70.2375 186.505 65.812C183.58 70.2375 179.1 74.4894 175.088 78.0375L170.934 81.7013C167.958 84.3816 165.175 87.2934 164.332 90.1762C163.927 91.6619 163.892 93.2167 164.23 94.7174C164.581 96.6001 165.445 98.3626 166.738 99.8287C168.031 101.295 169.707 102.413 171.597 103.072C173.488 103.731 175.528 103.907 177.513 103.583C179.498 103.259 181.359 102.446 182.909 101.225C183.692 100.571 184.397 99.8367 185.012 99.0368C182.93 103.645 180.025 106.808 175.87 108.273V110.684H197.048V108.273C192.985 106.837 190.08 103.761 188.008 99.2971H188.059Z" fill="black"/>
<path d="M126.059 140.18C126.664 140.888 127.345 141.534 128.091 142.109C129.641 143.329 131.502 144.142 133.487 144.466C135.472 144.79 137.512 144.614 139.403 143.955C141.293 143.296 142.969 142.178 144.262 140.712C145.555 139.246 146.419 137.483 146.77 135.601C147.108 134.1 147.073 132.545 146.668 131.059C145.835 128.167 143.052 125.274 140.066 122.584C138.634 121.312 137.263 120.116 135.922 118.921C131.859 115.363 127.42 111.121 124.505 106.695C121.58 111.121 117.1 115.373 113.088 118.921L108.934 122.584C105.958 125.265 103.175 128.177 102.332 131.059C101.927 132.545 101.892 134.1 102.23 135.601C102.581 137.483 103.445 139.246 104.738 140.712C106.031 142.178 107.707 143.296 109.597 143.955C111.488 144.614 113.528 144.79 115.513 144.466C117.498 144.142 119.359 143.329 120.909 142.109C121.692 141.454 122.397 140.72 123.012 139.92C120.93 144.529 118.025 147.691 113.87 149.157V151.567H135.048V149.157C130.985 147.72 128.08 144.644 126.008 140.18H126.059Z" fill="black"/>
<path d="M64.0591 185.052C64.6642 185.76 65.345 186.406 66.0906 186.98C67.641 188.201 69.5017 189.014 71.4867 189.338C73.4718 189.662 75.5117 189.486 77.4025 188.827C79.2934 188.168 80.9689 187.05 82.2618 185.584C83.5546 184.118 84.4195 182.355 84.7699 180.472C85.1079 178.972 85.0731 177.417 84.6683 175.931C83.8354 173.039 81.0523 170.146 78.066 167.456C76.6339 166.184 75.2626 164.988 73.9219 163.792C69.859 160.235 65.4202 155.992 62.5051 151.567C59.5798 155.992 55.1004 160.244 51.0883 163.792L46.934 167.456C43.9579 170.137 41.1748 173.048 40.3317 175.931C39.9269 177.417 39.8921 178.972 40.2301 180.472C40.5805 182.355 41.4454 184.118 42.7382 185.584C44.0311 187.05 45.7067 188.168 47.5975 188.827C49.4883 189.486 51.5282 189.662 53.5133 189.338C55.4983 189.014 57.359 188.201 58.9094 186.98C59.692 186.326 60.397 185.592 61.012 184.792C58.9297 189.4 56.0247 192.563 51.8704 194.028V196.439H73.0483V194.028C68.9854 192.592 66.0804 189.516 64.0084 185.052H64.0591Z" fill="black"/>
<path d="M188.059 185.052C188.664 185.76 189.345 186.406 190.091 186.98C191.641 188.201 193.502 189.014 195.487 189.338C197.472 189.662 199.512 189.486 201.403 188.827C203.293 188.168 204.969 187.05 206.262 185.584C207.555 184.118 208.419 182.355 208.77 180.472C209.108 178.972 209.073 177.417 208.668 175.931C207.835 173.039 205.052 170.146 202.066 167.456C200.634 166.184 199.263 164.988 197.922 163.792C193.859 160.235 189.42 155.992 186.505 151.567C183.58 155.992 179.1 160.244 175.088 163.792L170.934 167.456C167.958 170.137 165.175 173.048 164.332 175.931C163.927 177.417 163.892 178.972 164.23 180.472C164.581 182.355 165.445 184.118 166.738 185.584C168.031 187.05 169.707 188.168 171.597 188.827C173.488 189.486 175.528 189.662 177.513 189.338C179.498 189.014 181.359 188.201 182.909 186.98C183.692 186.326 184.397 185.592 185.012 184.792C182.93 189.4 180.025 192.563 175.87 194.028V196.439H197.048V194.028C192.985 192.592 190.08 189.516 188.008 185.052H188.059Z" fill="black"/>
<path d="M60.9409 248.709C60.3358 248.001 59.655 247.355 58.9094 246.78C57.359 245.56 55.4983 244.747 53.5133 244.423C51.5282 244.099 49.4883 244.275 47.5975 244.934C45.7066 245.593 44.0311 246.711 42.7382 248.177C41.4454 249.643 40.5805 251.406 40.2301 253.288C39.8921 254.789 39.9269 256.344 40.3317 257.83C41.1646 260.722 43.9477 263.614 46.934 266.304C48.3661 267.577 49.7374 268.773 51.0781 269.968C55.141 273.526 59.5798 277.768 62.4949 282.194C65.4202 277.768 69.8996 273.516 73.9117 269.968L78.066 266.304C81.0421 263.624 83.8252 260.712 84.6683 257.83C85.0731 256.344 85.1079 254.789 84.7699 253.288C84.4195 251.406 83.5546 249.643 82.2618 248.177C80.9689 246.711 79.2933 245.593 77.4025 244.934C75.5117 244.275 73.4718 244.099 71.4867 244.423C69.5017 244.747 67.641 245.56 66.0906 246.78C65.308 247.435 64.603 248.169 63.988 248.969C66.0703 244.36 68.9753 241.198 73.1296 239.732V237.322H51.9517V239.732C56.0146 241.169 58.9196 244.245 60.9916 248.709H60.9409Z" fill="black"/>
<path d="M17.0312 17.0703C16.1849 17.0703 15.7617 16.6471 15.7617 15.8008V13.4961C15.7617 12.6497 16.1849 12.2266 17.0312 12.2266H32.9688C33.8151 12.2266 34.2383 12.6497 34.2383 13.4961V15.7031C34.2383 16.3672 33.9128 17.0638 33.2617 17.793C30.5924 20.8008 28.724 23.8021 27.6562 26.7969C26.5885 29.7917 26.0547 33.4049 26.0547 37.6367V38.8477C26.0547 39.694 25.6315 40.1172 24.7852 40.1172H21.8555C21.0091 40.1172 20.5859 39.694 20.5859 38.8477V38.3203C20.5859 33.6198 21.3607 29.668 22.9102 26.4648C24.4727 23.2617 26.543 20.1302 29.1211 17.0703V16.9922C28.6003 17.0443 28.0794 17.0703 27.5586 17.0703H17.0312Z" fill="black"/>
<path d="M232.969 331.933C233.815 331.933 234.238 332.356 234.238 333.202V335.507C234.238 336.353 233.815 336.776 232.969 336.776H217.031C216.185 336.776 215.762 336.353 215.762 335.507V333.3C215.762 332.636 216.087 331.939 216.738 331.21C219.408 328.202 221.276 325.201 222.344 322.206C223.411 319.211 223.945 315.598 223.945 311.366V310.155C223.945 309.309 224.368 308.886 225.215 308.886H228.145C228.991 308.886 229.414 309.309 229.414 310.155V310.683C229.414 315.383 228.639 319.335 227.09 322.538C225.527 325.741 223.457 328.873 220.879 331.933V332.011C221.4 331.959 221.921 331.933 222.441 331.933H232.969Z" fill="black"/>
<path d="M223.961 276.822C223.557 276.35 223.103 275.919 222.606 275.536C221.573 274.723 220.332 274.181 219.009 273.965C217.685 273.749 216.326 273.866 215.065 274.305C213.804 274.745 212.687 275.49 211.825 276.467C210.964 277.445 210.387 278.62 210.153 279.875C209.928 280.875 209.951 281.912 210.221 282.902C210.776 284.831 212.632 286.759 214.623 288.552C215.577 289.401 216.492 290.198 217.385 290.995C220.094 293.367 223.053 296.195 224.997 299.145C226.947 296.195 229.933 293.36 232.608 290.995L235.377 288.552C237.361 286.766 239.217 284.824 239.779 282.902C240.049 281.912 240.072 280.875 239.847 279.875C239.613 278.62 239.036 277.445 238.175 276.467C237.313 275.49 236.196 274.745 234.935 274.305C233.674 273.866 232.315 273.749 230.991 273.965C229.668 274.181 228.427 274.723 227.394 275.536C226.872 275.973 226.402 276.462 225.992 276.995C227.38 273.923 229.317 271.815 232.086 270.838V269.231H217.968V270.838C220.676 271.795 222.613 273.846 223.994 276.822H223.961Z" fill="black"/>
<path d="M26.0394 72.181C26.4428 72.6528 26.8967 73.0836 27.3937 73.4665C28.4273 74.2802 29.6678 74.8221 30.9912 75.0381C32.3145 75.2542 33.6744 75.1367 34.935 74.6975C36.1956 74.2583 37.3126 73.5128 38.1745 72.5354C39.0364 71.558 39.613 70.383 39.8466 69.1278C40.0719 68.1274 40.0488 67.0908 39.7789 66.1004C39.2236 64.1721 37.3682 62.2437 35.3774 60.4504C34.4226 59.602 33.5084 58.8049 32.6146 58.0079C29.906 55.6361 26.9468 52.8079 25.0034 49.8576C23.0532 52.8079 20.0669 55.6425 17.3922 58.0079L14.6226 60.4504C12.6386 62.2373 10.7832 64.1785 10.2211 66.1004C9.95125 67.0908 9.92806 68.1274 10.1534 69.1278C10.387 70.383 10.9636 71.558 11.8255 72.5354C12.6874 73.5128 13.8044 74.2583 15.065 74.6975C16.3256 75.1367 17.6855 75.2542 19.0088 75.0381C20.3322 74.8221 21.5727 74.2802 22.6063 73.4665C23.128 73.03 23.598 72.5407 24.008 72.0074C22.6198 75.0799 20.6832 77.1882 17.9136 78.1652V79.7721H32.0322V78.1652C29.3236 77.2074 27.387 75.157 26.0056 72.181H26.0394Z" fill="black"/>
</svg>
