<svg width="250" height="350" viewBox="0 0 250 350" fill="none" xmlns="http://www.w3.org/2000/svg">
<rect width="250" height="350" rx="12.5" fill="white"/>
<path d="M184.941 249.706C184.336 248.998 183.655 248.352 182.909 247.777C181.359 246.557 179.498 245.744 177.513 245.42C175.528 245.096 173.488 245.272 171.597 245.931C169.707 246.59 168.031 247.708 166.738 249.174C165.445 250.64 164.581 252.403 164.23 254.286C163.892 255.786 163.927 257.341 164.332 258.827C165.165 261.719 167.948 264.612 170.934 267.302C172.366 268.574 173.737 269.77 175.078 270.965C179.141 274.523 183.58 278.765 186.495 283.191C189.42 278.765 193.9 274.513 197.912 270.965L202.066 267.302C205.042 264.621 207.825 261.71 208.668 258.827C209.073 257.341 209.108 255.786 208.77 254.286C208.419 252.403 207.555 250.64 206.262 249.174C204.969 247.708 203.293 246.59 201.403 245.931C199.512 245.272 197.472 245.096 195.487 245.42C193.502 245.744 191.641 246.557 190.091 247.777C189.308 248.432 188.603 249.166 187.988 249.966C190.07 245.357 192.975 242.195 197.13 240.729V238.319H175.952V240.729C180.015 242.166 182.92 245.242 184.992 249.706H184.941Z" fill="black"/>
<path d="M64.0591 100.294C64.6642 101.002 65.345 101.648 66.0906 102.223C67.641 103.443 69.5017 104.256 71.4867 104.58C73.4718 104.904 75.5117 104.728 77.4025 104.069C79.2934 103.41 80.9689 102.292 82.2618 100.826C83.5546 99.3598 84.4195 97.5973 84.7699 95.7145C85.1079 94.2138 85.0731 92.659 84.6683 91.1733C83.8354 88.2809 81.0523 85.3884 78.066 82.6984C76.6339 81.4257 75.2626 80.2302 73.9219 79.0346C69.859 75.4769 65.4202 71.2346 62.5051 66.8091C59.5798 71.2346 55.1004 75.4865 51.0883 79.0346L46.934 82.6984C43.9579 85.3787 41.1748 88.2905 40.3317 91.1733C39.9269 92.659 39.8921 94.2138 40.2301 95.7145C40.5805 97.5973 41.4454 99.3598 42.7382 100.826C44.0311 102.292 45.7067 103.41 47.5975 104.069C49.4883 104.728 51.5282 104.904 53.5133 104.58C55.4983 104.256 57.359 103.443 58.9094 102.223C59.692 101.568 60.397 100.834 61.012 100.034C58.9297 104.643 56.0247 107.805 51.8704 109.271V111.681H73.0483V109.271C68.9854 107.834 66.0804 104.758 64.0084 100.294H64.0591Z" fill="black"/>
<path d="M189.059 100.294C189.664 101.002 190.345 101.648 191.091 102.223C192.641 103.443 194.502 104.256 196.487 104.58C198.472 104.904 200.512 104.728 202.403 104.069C204.293 103.41 205.969 102.292 207.262 100.826C208.555 99.3598 209.419 97.5973 209.77 95.7145C210.108 94.2138 210.073 92.659 209.668 91.1733C208.835 88.2809 206.052 85.3884 203.066 82.6984C201.634 81.4257 200.263 80.2302 198.922 79.0346C194.859 75.4769 190.42 71.2346 187.505 66.8091C184.58 71.2346 180.1 75.4865 176.088 79.0346L171.934 82.6984C168.958 85.3787 166.175 88.2905 165.332 91.1733C164.927 92.659 164.892 94.2138 165.23 95.7145C165.581 97.5973 166.445 99.3598 167.738 100.826C169.031 102.292 170.707 103.41 172.597 104.069C174.488 104.728 176.528 104.904 178.513 104.58C180.498 104.256 182.359 103.443 183.909 102.223C184.692 101.568 185.397 100.834 186.012 100.034C183.93 104.643 181.025 107.805 176.87 109.271V111.681H198.048V109.271C193.985 107.834 191.08 104.758 189.008 100.294H189.059Z" fill="black"/>
<path d="M126.059 186.049C126.664 186.757 127.345 187.403 128.091 187.978C129.641 189.198 131.502 190.011 133.487 190.335C135.472 190.659 137.512 190.483 139.403 189.824C141.293 189.165 142.969 188.047 144.262 186.581C145.555 185.115 146.419 183.352 146.77 181.469C147.108 179.969 147.073 178.414 146.668 176.928C145.835 174.036 143.052 171.143 140.066 168.453C138.634 167.181 137.263 165.985 135.922 164.79C131.859 161.232 127.42 156.99 124.505 152.564C121.58 156.99 117.1 161.241 113.088 164.79L108.934 168.453C105.958 171.134 103.175 174.045 102.332 176.928C101.927 178.414 101.892 179.969 102.23 181.469C102.581 183.352 103.445 185.115 104.738 186.581C106.031 188.047 107.707 189.165 109.597 189.824C111.488 190.483 113.528 190.659 115.513 190.335C117.498 190.011 119.359 189.198 120.909 187.978C121.692 187.323 122.397 186.589 123.012 185.789C120.93 190.398 118.025 193.56 113.87 195.025V197.436H135.048V195.025C130.985 193.589 128.08 190.513 126.008 186.049H126.059Z" fill="black"/>
<path d="M60.9409 249.706C60.3358 248.998 59.655 248.352 58.9094 247.777C57.359 246.557 55.4983 245.744 53.5133 245.42C51.5282 245.096 49.4883 245.272 47.5975 245.931C45.7066 246.59 44.0311 247.708 42.7382 249.174C41.4454 250.64 40.5805 252.403 40.2301 254.286C39.8921 255.786 39.9269 257.341 40.3317 258.827C41.1646 261.719 43.9477 264.612 46.934 267.302C48.3661 268.574 49.7374 269.77 51.0781 270.965C55.141 274.523 59.5798 278.765 62.4949 283.191C65.4202 278.765 69.8996 274.513 73.9117 270.965L78.066 267.302C81.0421 264.621 83.8252 261.71 84.6683 258.827C85.0731 257.341 85.1079 255.786 84.7699 254.286C84.4195 252.403 83.5546 250.64 82.2618 249.174C80.9689 247.708 79.2933 246.59 77.4025 245.931C75.5117 245.272 73.4718 245.096 71.4867 245.42C69.5017 245.744 67.641 246.557 66.0906 247.777C65.308 248.432 64.603 249.166 63.988 249.966C66.0703 245.357 68.9753 242.195 73.1296 240.729V238.319H51.9517V240.729C56.0146 242.166 58.9196 245.242 60.9916 249.706H60.9409Z" fill="black"/>
<path d="M15.7227 38.0273C15.293 37.4544 15.2344 36.9596 15.5469 36.543L16.9141 34.668C17.4609 33.9128 18.125 33.8932 18.9062 34.6094C19.375 35.0391 20.0977 35.4297 21.0742 35.7812C22.0508 36.1198 23.0273 36.2891 24.0039 36.2891C25.4883 36.2891 26.7383 35.8724 27.7539 35.0391C28.7826 34.2057 29.2969 32.9883 29.2969 31.3867C29.2969 29.8633 28.9714 28.6328 28.3203 27.6953C27.6693 26.7578 26.8815 26.2891 25.957 26.2891C25.1628 26.2891 24.4336 26.3542 23.7695 26.4844C23.1055 26.6016 22.4154 26.9727 21.6992 27.5977C21.2044 28.0273 20.6055 28.2422 19.9023 28.2422H17.7734C16.9271 28.2422 16.5039 27.819 16.5039 26.9727V13.4961C16.5039 12.6497 16.9271 12.2266 17.7734 12.2266H31.8359C32.6823 12.2266 33.1055 12.6497 33.1055 13.4961V15.8008C33.1055 16.6471 32.6823 17.0703 31.8359 17.0703H21.9727V21.8555C21.9727 22.3763 21.9466 22.8971 21.8945 23.418H22.0117C22.7018 22.819 23.4701 22.4219 24.3164 22.2266C25.1628 22.0182 26.0677 21.9141 27.0312 21.9141C29.3099 21.9141 31.2305 22.6953 32.793 24.2578C34.3685 25.8073 35.1562 28.2096 35.1562 31.4648C35.1562 34.4596 34.1536 36.7448 32.1484 38.3203C30.1562 39.8828 27.7865 40.6641 25.0391 40.6641C22.7474 40.6641 20.7617 40.4167 19.082 39.9219C17.4154 39.4141 16.2956 38.7826 15.7227 38.0273Z" fill="black"/>
<path d="M234.277 311.973C234.707 312.546 234.766 313.04 234.453 313.457L233.086 315.332C232.539 316.087 231.875 316.107 231.094 315.391C230.625 314.961 229.902 314.57 228.926 314.219C227.949 313.88 226.973 313.711 225.996 313.711C224.512 313.711 223.262 314.128 222.246 314.961C221.217 315.794 220.703 317.012 220.703 318.613C220.703 320.137 221.029 321.367 221.68 322.305C222.331 323.242 223.118 323.711 224.043 323.711C224.837 323.711 225.566 323.646 226.23 323.516C226.895 323.398 227.585 323.027 228.301 322.402C228.796 321.973 229.395 321.758 230.098 321.758H232.227C233.073 321.758 233.496 322.181 233.496 323.027V336.504C233.496 337.35 233.073 337.773 232.227 337.773H218.164C217.318 337.773 216.895 337.35 216.895 336.504V334.199C216.895 333.353 217.318 332.93 218.164 332.93H228.027V328.145C228.027 327.624 228.053 327.103 228.105 326.582H227.988C227.298 327.181 226.53 327.578 225.684 327.773C224.837 327.982 223.932 328.086 222.969 328.086C220.69 328.086 218.77 327.305 217.207 325.742C215.632 324.193 214.844 321.79 214.844 318.535C214.844 315.54 215.846 313.255 217.852 311.68C219.844 310.117 222.214 309.336 224.961 309.336C227.253 309.336 229.238 309.583 230.918 310.078C232.585 310.586 233.704 311.217 234.277 311.973Z" fill="black"/>
<path d="M223.961 276.822C223.557 276.35 223.103 275.919 222.606 275.536C221.573 274.723 220.332 274.181 219.009 273.965C217.685 273.749 216.326 273.866 215.065 274.305C213.804 274.745 212.687 275.49 211.825 276.467C210.964 277.445 210.387 278.62 210.153 279.875C209.928 280.875 209.951 281.912 210.221 282.902C210.776 284.831 212.632 286.759 214.623 288.552C215.577 289.401 216.492 290.198 217.385 290.995C220.094 293.367 223.053 296.195 224.997 299.145C226.947 296.195 229.933 293.36 232.608 290.995L235.377 288.552C237.361 286.766 239.217 284.824 239.779 282.902C240.049 281.912 240.072 280.875 239.847 279.875C239.613 278.62 239.036 277.445 238.175 276.467C237.313 275.49 236.196 274.745 234.935 274.305C233.674 273.866 232.315 273.749 230.991 273.965C229.668 274.181 228.427 274.723 227.394 275.536C226.872 275.973 226.402 276.462 225.992 276.995C227.38 273.923 229.317 271.815 232.086 270.838V269.231H217.968V270.838C220.676 271.795 222.613 273.846 223.994 276.822H223.961Z" fill="black"/>
<path d="M26.0394 72.181C26.4428 72.6528 26.8967 73.0836 27.3937 73.4665C28.4273 74.2802 29.6678 74.8221 30.9912 75.0381C32.3145 75.2541 33.6744 75.1367 34.935 74.6975C36.1956 74.2583 37.3126 73.5128 38.1745 72.5354C39.0364 71.558 39.613 70.383 39.8466 69.1278C40.0719 68.1273 40.0488 67.0908 39.7789 66.1004C39.2236 64.172 37.3682 62.2437 35.3774 60.4504C34.4226 59.6019 33.5084 58.8049 32.6146 58.0079C29.906 55.636 26.9468 52.8079 25.0034 49.8575C23.0532 52.8079 20.0669 55.6425 17.3922 58.0079L14.6226 60.4504C12.6386 62.2373 10.7832 64.1785 10.2211 66.1004C9.95125 67.0908 9.92806 68.1273 10.1534 69.1278C10.387 70.383 10.9636 71.558 11.8255 72.5354C12.6874 73.5128 13.8044 74.2583 15.065 74.6975C16.3256 75.1367 17.6855 75.2541 19.0088 75.0381C20.3322 74.8221 21.5727 74.2802 22.6063 73.4665C23.128 73.0299 23.598 72.5407 24.008 72.0074C22.6198 75.0798 20.6832 77.1881 17.9136 78.1651V79.7721H32.0322V78.1651C29.3236 77.2074 27.387 75.157 26.0056 72.181H26.0394Z" fill="black"/>
</svg>
