<svg width="250" height="350" viewBox="0 0 250 350" fill="none" xmlns="http://www.w3.org/2000/svg">
<rect width="250" height="350" rx="12.5" fill="white"/>
<path d="M185.941 248.709C185.336 248.001 184.655 247.355 183.909 246.78C182.359 245.56 180.498 244.747 178.513 244.423C176.528 244.099 174.488 244.275 172.597 244.934C170.707 245.593 169.031 246.711 167.738 248.177C166.445 249.643 165.581 251.406 165.23 253.288C164.892 254.789 164.927 256.344 165.332 257.83C166.165 260.722 168.948 263.614 171.934 266.304C173.366 267.577 174.737 268.773 176.078 269.968C180.141 273.526 184.58 277.768 187.495 282.194C190.42 277.768 194.9 273.516 198.912 269.968L203.066 266.304C206.042 263.624 208.825 260.712 209.668 257.83C210.073 256.344 210.108 254.789 209.77 253.288C209.419 251.406 208.555 249.643 207.262 248.177C205.969 246.711 204.293 245.593 202.403 244.934C200.512 244.275 198.472 244.099 196.487 244.423C194.502 244.747 192.641 245.56 191.091 246.78C190.308 247.435 189.603 248.169 188.988 248.969C191.07 244.36 193.975 241.198 198.13 239.732V237.322H176.952V239.732C181.015 241.169 183.92 244.245 185.992 248.709H185.941Z" fill="black"/>
<path d="M184.941 191.871C184.336 191.163 183.655 190.517 182.909 189.943C181.359 188.722 179.498 187.909 177.513 187.585C175.528 187.261 173.488 187.437 171.597 188.096C169.707 188.755 168.031 189.873 166.738 191.339C165.445 192.805 164.581 194.568 164.23 196.451C163.892 197.951 163.927 199.506 164.332 200.992C165.165 203.884 167.948 206.777 170.934 209.467C172.366 210.74 173.737 211.935 175.078 213.131C179.141 216.688 183.58 220.931 186.495 225.356C189.42 220.931 193.9 216.679 197.912 213.131L202.066 209.467C205.042 206.787 207.825 203.875 208.668 200.992C209.073 199.506 209.108 197.951 208.77 196.451C208.419 194.568 207.555 192.805 206.262 191.339C204.969 189.873 203.293 188.755 201.403 188.096C199.512 187.437 197.472 187.261 195.487 187.585C193.502 187.909 191.641 188.722 190.091 189.943C189.308 190.598 188.603 191.331 187.988 192.131C190.07 187.523 192.975 184.36 197.13 182.895V180.484H175.952V182.895C180.015 184.331 182.92 187.407 184.992 191.871H184.941Z" fill="black"/>
<path d="M188.059 157.132C188.664 157.84 189.345 158.486 190.091 159.06C191.641 160.281 193.502 161.094 195.487 161.418C197.472 161.742 199.512 161.565 201.403 160.907C203.293 160.248 204.969 159.13 206.262 157.663C207.555 156.197 208.419 154.435 208.77 152.552C209.108 151.051 209.073 149.497 208.668 148.011C207.835 145.118 205.052 142.226 202.066 139.536C200.634 138.263 199.263 137.068 197.922 135.872C193.859 132.314 189.42 128.072 186.505 123.647C183.58 128.072 179.1 132.324 175.088 135.872L170.934 139.536C167.958 142.216 165.175 145.128 164.332 148.011C163.927 149.497 163.892 151.051 164.23 152.552C164.581 154.435 165.445 156.197 166.738 157.663C168.031 159.13 169.707 160.248 171.597 160.907C173.488 161.565 175.528 161.742 177.513 161.418C179.498 161.094 181.359 160.281 182.909 159.06C183.692 158.405 184.397 157.671 185.012 156.872C182.93 161.48 180.025 164.643 175.87 166.108V168.519H197.048V166.108C192.985 164.672 190.08 161.596 188.008 157.132H188.059Z" fill="black"/>
<path d="M188.059 99.2971C188.664 100.005 189.345 100.651 190.091 101.225C191.641 102.446 193.502 103.259 195.487 103.583C197.472 103.907 199.512 103.731 201.403 103.072C203.293 102.413 204.969 101.295 206.262 99.8287C207.555 98.3626 208.419 96.6001 208.77 94.7174C209.108 93.2167 209.073 91.6619 208.668 90.1762C207.835 87.2837 205.052 84.3912 202.066 81.7012C200.634 80.4286 199.263 79.233 197.922 78.0375C193.859 74.4797 189.42 70.2374 186.505 65.812C183.58 70.2374 179.1 74.4894 175.088 78.0375L170.934 81.7012C167.958 84.3816 165.175 87.2934 164.332 90.1762C163.927 91.6619 163.892 93.2167 164.23 94.7174C164.581 96.6001 165.445 98.3626 166.738 99.8287C168.031 101.295 169.707 102.413 171.597 103.072C173.488 103.731 175.528 103.907 177.513 103.583C179.498 103.259 181.359 102.446 182.909 101.225C183.692 100.571 184.397 99.8367 185.012 99.0368C182.93 103.645 180.025 106.808 175.87 108.273V110.684H197.048V108.273C192.985 106.837 190.08 103.761 188.008 99.2971H188.059Z" fill="black"/>
<path d="M126.059 141.177C126.664 141.885 127.345 142.531 128.091 143.106C129.641 144.326 131.502 145.139 133.487 145.463C135.472 145.787 137.512 145.611 139.403 144.952C141.293 144.293 142.969 143.175 144.262 141.709C145.555 140.243 146.419 138.48 146.77 136.598C147.108 135.097 147.073 133.542 146.668 132.057C145.835 129.164 143.052 126.272 140.066 123.582C138.634 122.309 137.263 121.113 135.922 119.918C131.859 116.36 127.42 112.118 124.505 107.692C121.58 112.118 117.1 116.37 113.088 119.918L108.934 123.582C105.958 126.262 103.175 129.174 102.332 132.057C101.927 133.542 101.892 135.097 102.23 136.598C102.581 138.48 103.445 140.243 104.738 141.709C106.031 143.175 107.707 144.293 109.597 144.952C111.488 145.611 113.528 145.787 115.513 145.463C117.498 145.139 119.359 144.326 120.909 143.106C121.692 142.451 122.397 141.717 123.012 140.917C120.93 145.526 118.025 148.688 113.87 150.154V152.564H135.048V150.154C130.985 148.717 128.08 145.641 126.008 141.177H126.059Z" fill="black"/>
<path d="M122.941 208.823C122.336 208.115 121.655 207.469 120.909 206.894C119.359 205.674 117.498 204.861 115.513 204.537C113.528 204.213 111.488 204.389 109.597 205.048C107.707 205.707 106.031 206.825 104.738 208.291C103.445 209.757 102.581 211.52 102.23 213.402C101.892 214.903 101.927 216.458 102.332 217.943C103.165 220.836 105.948 223.728 108.934 226.418C110.366 227.691 111.737 228.887 113.078 230.082C117.141 233.64 121.58 237.882 124.495 242.308C127.42 237.882 131.9 233.63 135.912 230.082L140.066 226.418C143.042 223.738 145.825 220.826 146.668 217.943C147.073 216.458 147.108 214.903 146.77 213.402C146.419 211.52 145.555 209.757 144.262 208.291C142.969 206.825 141.293 205.707 139.403 205.048C137.512 204.389 135.472 204.213 133.487 204.537C131.502 204.861 129.641 205.674 128.091 206.894C127.308 207.549 126.603 208.283 125.988 209.083C128.07 204.474 130.975 201.312 135.13 199.846V197.436H113.952V199.846C118.015 201.283 120.92 204.359 122.992 208.823H122.941Z" fill="black"/>
<path d="M60.9409 249.706C60.3358 248.998 59.655 248.352 58.9094 247.777C57.359 246.557 55.4983 245.744 53.5133 245.42C51.5282 245.096 49.4883 245.272 47.5975 245.931C45.7066 246.59 44.0311 247.708 42.7382 249.174C41.4454 250.64 40.5805 252.403 40.2301 254.286C39.8921 255.786 39.9269 257.341 40.3317 258.827C41.1646 261.719 43.9477 264.612 46.934 267.302C48.3661 268.574 49.7374 269.77 51.0781 270.965C55.141 274.523 59.5798 278.765 62.4949 283.191C65.4202 278.765 69.8996 274.513 73.9117 270.965L78.066 267.302C81.0421 264.621 83.8252 261.71 84.6683 258.827C85.0731 257.341 85.1079 255.786 84.7699 254.286C84.4195 252.403 83.5546 250.64 82.2618 249.174C80.9689 247.708 79.2933 246.59 77.4025 245.931C75.5117 245.272 73.4718 245.096 71.4867 245.42C69.5017 245.744 67.641 246.557 66.0906 247.777C65.308 248.432 64.603 249.166 63.988 249.966C66.0703 245.357 68.9753 242.195 73.1296 240.729V238.319H51.9517V240.729C56.0146 242.166 58.9196 245.242 60.9916 249.706H60.9409Z" fill="black"/>
<path d="M7.94922 18.7706C7.61068 18.1326 7.83854 17.6378 8.63281 17.2862C9.38802 16.9477 10.1758 16.4724 10.9961 15.8604C11.8164 15.2484 12.487 14.6169 13.0078 13.9659C13.5938 13.2367 14.1536 12.8721 14.6875 12.8721H17.793C18.5742 12.8721 18.9648 13.2628 18.9648 14.044V39.8253C18.9648 40.6065 18.5742 40.9971 17.793 40.9971H14.668C13.8867 40.9971 13.4961 40.6065 13.4961 39.8253V21.2511C13.4961 20.7302 13.5221 20.2094 13.5742 19.6886H13.4961C13.0924 20.1964 12.6497 20.6326 12.168 20.9971C11.6862 21.3617 11.1979 21.6482 10.7031 21.8565C10.0911 22.1169 9.62891 21.9477 9.31641 21.3487L7.94922 18.7706ZM23.8672 27.1104C23.8672 21.837 24.6875 18.0935 26.3281 15.88C27.9688 13.6664 30.4818 12.5596 33.8672 12.5596C37.2526 12.5596 39.7656 13.6664 41.4062 15.88C43.0469 18.0935 43.8672 21.837 43.8672 27.1104C43.8672 32.3839 43.0469 36.1274 41.4062 38.3409C39.7656 40.5544 37.2526 41.6612 33.8672 41.6612C30.4818 41.6612 27.9688 40.5544 26.3281 38.3409C24.6875 36.1274 23.8672 32.3839 23.8672 27.1104ZM29.6484 27.1104C29.6484 29.5193 29.8438 31.837 30.2344 34.0636C30.638 36.2901 31.849 37.4034 33.8672 37.4034C35.8854 37.4034 37.0898 36.2901 37.4805 34.0636C37.8841 31.837 38.0859 29.5193 38.0859 27.1104C38.0859 24.7016 37.8841 22.3839 37.4805 20.1573C37.0898 17.9307 35.8854 16.8175 33.8672 16.8175C31.849 16.8175 30.638 17.9307 30.2344 20.1573C29.8438 22.3839 29.6484 24.7016 29.6484 27.1104Z" fill="black"/>
<path d="M244.051 331.229C244.389 331.867 244.161 332.362 243.367 332.714C242.612 333.052 241.824 333.528 241.004 334.14C240.184 334.752 239.513 335.383 238.992 336.034C238.406 336.763 237.846 337.128 237.312 337.128H234.207C233.426 337.128 233.035 336.737 233.035 335.956V310.175C233.035 309.393 233.426 309.003 234.207 309.003H237.332C238.113 309.003 238.504 309.393 238.504 310.175V328.749C238.504 329.27 238.478 329.791 238.426 330.311H238.504C238.908 329.804 239.35 329.367 239.832 329.003C240.314 328.638 240.802 328.352 241.297 328.143C241.909 327.883 242.371 328.052 242.684 328.651L244.051 331.229ZM228.133 322.89C228.133 328.163 227.312 331.906 225.672 334.12C224.031 336.334 221.518 337.44 218.133 337.44C214.747 337.44 212.234 336.334 210.594 334.12C208.953 331.906 208.133 328.163 208.133 322.89C208.133 317.616 208.953 313.873 210.594 311.659C212.234 309.446 214.747 308.339 218.133 308.339C221.518 308.339 224.031 309.446 225.672 311.659C227.312 313.873 228.133 317.616 228.133 322.89ZM222.352 322.89C222.352 320.481 222.156 318.163 221.766 315.936C221.362 313.71 220.151 312.597 218.133 312.597C216.115 312.597 214.91 313.71 214.52 315.936C214.116 318.163 213.914 320.481 213.914 322.89C213.914 325.298 214.116 327.616 214.52 329.843C214.91 332.069 216.115 333.182 218.133 333.182C220.151 333.182 221.362 332.069 221.766 329.843C222.156 327.616 222.352 325.298 222.352 322.89Z" fill="black"/>
<path d="M64.0591 99.2971C64.6642 100.005 65.345 100.651 66.0906 101.225C67.641 102.446 69.5017 103.259 71.4867 103.583C73.4718 103.907 75.5117 103.731 77.4025 103.072C79.2934 102.413 80.9689 101.295 82.2618 99.8287C83.5546 98.3626 84.4195 96.6001 84.7699 94.7174C85.1079 93.2167 85.0731 91.6619 84.6683 90.1762C83.8354 87.2837 81.0523 84.3912 78.066 81.7012C76.6339 80.4286 75.2626 79.233 73.9219 78.0375C69.859 74.4797 65.4202 70.2374 62.5051 65.812C59.5798 70.2374 55.1004 74.4894 51.0883 78.0375L46.934 81.7012C43.9579 84.3816 41.1748 87.2934 40.3317 90.1762C39.9269 91.6619 39.8921 93.2167 40.2301 94.7174C40.5805 96.6001 41.4454 98.3626 42.7382 99.8287C44.0311 101.295 45.7067 102.413 47.5975 103.072C49.4883 103.731 51.5282 103.907 53.5133 103.583C55.4983 103.259 57.359 102.446 58.9094 101.225C59.692 100.571 60.397 99.8367 61.012 99.0368C58.9297 103.645 56.0247 106.808 51.8704 108.273V110.684H73.0483V108.273C68.9854 106.837 66.0804 103.761 64.0084 99.2971H64.0591Z" fill="black"/>
<path d="M64.0591 156.135C64.6642 156.842 65.345 157.489 66.0906 158.063C67.641 159.284 69.5017 160.096 71.4867 160.42C73.4718 160.744 75.5117 160.568 77.4025 159.909C79.2934 159.251 80.9689 158.132 82.2618 156.666C83.5546 155.2 84.4195 153.438 84.7699 151.555C85.1079 150.054 85.0731 148.499 84.6683 147.014C83.8354 144.121 81.0523 141.229 78.066 138.539C76.6339 137.266 75.2626 136.071 73.9219 134.875C69.859 131.317 65.4202 127.075 62.5051 122.65C59.5798 127.075 55.1004 131.327 51.0883 134.875L46.934 138.539C43.9579 141.219 41.1748 144.131 40.3317 147.014C39.9269 148.499 39.8921 150.054 40.2301 151.555C40.5805 153.438 41.4454 155.2 42.7382 156.666C44.0311 158.132 45.7067 159.251 47.5975 159.909C49.4883 160.568 51.5282 160.744 53.5133 160.42C55.4983 160.096 57.359 159.284 58.9094 158.063C59.692 157.408 60.397 156.674 61.012 155.874C58.9297 160.483 56.0247 163.645 51.8704 165.111V167.521H73.0483V165.111C68.9854 163.674 66.0804 160.599 64.0084 156.135H64.0591Z" fill="black"/>
<path d="M60.9409 190.874C60.3358 190.166 59.655 189.52 58.9094 188.946C57.359 187.725 55.4983 186.912 53.5133 186.588C51.5282 186.264 49.4883 186.44 47.5975 187.099C45.7066 187.758 44.0311 188.876 42.7382 190.342C41.4454 191.808 40.5805 193.571 40.2301 195.454C39.8921 196.954 39.9269 198.509 40.3317 199.995C41.1646 202.887 43.9477 205.78 46.934 208.47C48.3661 209.742 49.7374 210.938 51.0781 212.133C55.141 215.691 59.5798 219.934 62.4949 224.359C65.4202 219.934 69.8996 215.682 73.9117 212.133L78.066 208.47C81.0421 205.789 83.8252 202.878 84.6683 199.995C85.0731 198.509 85.1079 196.954 84.7699 195.454C84.4195 193.571 83.5546 191.808 82.2618 190.342C80.9689 188.876 79.2933 187.758 77.4025 187.099C75.5117 186.44 73.4718 186.264 71.4867 186.588C69.5017 186.912 67.641 187.725 66.0906 188.946C65.308 189.6 64.603 190.334 63.988 191.134C66.0703 186.526 68.9753 183.363 73.1296 181.898V179.487H51.9517V181.898C56.0146 183.334 58.9196 186.41 60.9916 190.874H60.9409Z" fill="black"/>
<path d="M223.961 276.822C223.557 276.35 223.103 275.919 222.606 275.536C221.573 274.723 220.332 274.181 219.009 273.965C217.685 273.749 216.326 273.866 215.065 274.305C213.804 274.745 212.687 275.49 211.825 276.467C210.964 277.445 210.387 278.62 210.153 279.875C209.928 280.875 209.951 281.912 210.221 282.902C210.776 284.831 212.632 286.759 214.623 288.552C215.577 289.401 216.492 290.198 217.385 290.995C220.094 293.367 223.053 296.195 224.997 299.145C226.947 296.195 229.933 293.36 232.608 290.995L235.377 288.552C237.361 286.766 239.217 284.824 239.779 282.902C240.049 281.912 240.072 280.875 239.847 279.875C239.613 278.62 239.036 277.445 238.175 276.467C237.313 275.49 236.196 274.745 234.935 274.305C233.674 273.866 232.315 273.749 230.991 273.965C229.668 274.181 228.427 274.723 227.394 275.536C226.872 275.973 226.402 276.462 225.992 276.995C227.38 273.923 229.317 271.815 232.086 270.838V269.231H217.968V270.838C220.676 271.795 222.613 273.846 223.994 276.822H223.961Z" fill="black"/>
<path d="M26.0394 72.181C26.4428 72.6528 26.8967 73.0836 27.3937 73.4665C28.4273 74.2802 29.6678 74.8221 30.9912 75.0381C32.3145 75.2541 33.6744 75.1367 34.935 74.6975C36.1956 74.2583 37.3126 73.5128 38.1745 72.5354C39.0364 71.558 39.613 70.383 39.8466 69.1278C40.0719 68.1273 40.0488 67.0908 39.7789 66.1004C39.2236 64.172 37.3682 62.2437 35.3774 60.4504C34.4226 59.6019 33.5084 58.8049 32.6146 58.0079C29.906 55.636 26.9468 52.8079 25.0034 49.8575C23.0532 52.8079 20.0669 55.6425 17.3922 58.0079L14.6226 60.4504C12.6386 62.2373 10.7832 64.1785 10.2211 66.1004C9.95125 67.0908 9.92806 68.1273 10.1534 69.1278C10.387 70.383 10.9636 71.558 11.8255 72.5354C12.6874 73.5128 13.8044 74.2583 15.065 74.6975C16.3256 75.1367 17.6855 75.2541 19.0088 75.0381C20.3322 74.8221 21.5727 74.2802 22.6063 73.4665C23.128 73.0299 23.598 72.5407 24.008 72.0074C22.6198 75.0798 20.6832 77.1881 17.9136 78.1651V79.7721H32.0322V78.1651C29.3236 77.2074 27.387 75.157 26.0056 72.181H26.0394Z" fill="black"/>
</svg>
