<svg width="250" height="350" viewBox="0 0 250 350" fill="none" xmlns="http://www.w3.org/2000/svg">
<rect width="250" height="350" rx="12.5" fill="white"/>
<path d="M184.941 249.706C184.336 248.998 183.655 248.352 182.909 247.777C181.359 246.557 179.498 245.744 177.513 245.42C175.528 245.096 173.488 245.272 171.597 245.931C169.707 246.59 168.031 247.708 166.738 249.174C165.445 250.64 164.581 252.403 164.23 254.285C163.892 255.786 163.927 257.341 164.332 258.827C165.165 261.719 167.948 264.612 170.934 267.302C172.366 268.574 173.737 269.77 175.078 270.965C179.141 274.523 183.58 278.765 186.495 283.191C189.42 278.765 193.9 274.513 197.912 270.965L202.066 267.302C205.042 264.621 207.825 261.709 208.668 258.827C209.073 257.341 209.108 255.786 208.77 254.285C208.419 252.403 207.555 250.64 206.262 249.174C204.969 247.708 203.293 246.59 201.403 245.931C199.512 245.272 197.472 245.096 195.487 245.42C193.502 245.744 191.641 246.557 190.091 247.777C189.308 248.432 188.603 249.166 187.988 249.966C190.07 245.357 192.975 242.195 197.13 240.729V238.319H175.952V240.729C180.015 242.166 182.92 245.242 184.992 249.706H184.941Z" fill="black"/>
<path d="M184.941 191.871C184.336 191.163 183.655 190.517 182.909 189.943C181.359 188.722 179.498 187.909 177.513 187.585C175.528 187.261 173.488 187.437 171.597 188.096C169.707 188.755 168.031 189.873 166.738 191.339C165.445 192.805 164.581 194.568 164.23 196.451C163.892 197.951 163.927 199.506 164.332 200.992C165.165 203.884 167.948 206.777 170.934 209.467C172.366 210.74 173.737 211.935 175.078 213.131C179.141 216.688 183.58 220.931 186.495 225.356C189.42 220.931 193.9 216.679 197.912 213.131L202.066 209.467C205.042 206.787 207.825 203.875 208.668 200.992C209.073 199.506 209.108 197.951 208.77 196.451C208.419 194.568 207.555 192.805 206.262 191.339C204.969 189.873 203.293 188.755 201.403 188.096C199.512 187.437 197.472 187.261 195.487 187.585C193.502 187.909 191.641 188.722 190.091 189.943C189.308 190.598 188.603 191.331 187.988 192.131C190.07 187.523 192.975 184.36 197.13 182.895V180.484H175.952V182.895C180.015 184.331 182.92 187.407 184.992 191.871H184.941Z" fill="black"/>
<path d="M188.059 100.294C188.664 101.002 189.345 101.648 190.091 102.223C191.641 103.443 193.502 104.256 195.487 104.58C197.472 104.904 199.512 104.728 201.403 104.069C203.293 103.41 204.969 102.292 206.262 100.826C207.555 99.3598 208.419 97.5973 208.77 95.7145C209.108 94.2138 209.073 92.659 208.668 91.1733C207.835 88.2809 205.052 85.3884 202.066 82.6984C200.634 81.4257 199.263 80.2302 197.922 79.0346C193.859 75.4769 189.42 71.2346 186.505 66.8091C183.58 71.2346 179.1 75.4865 175.088 79.0346L170.934 82.6984C167.958 85.3787 165.175 88.2905 164.332 91.1733C163.927 92.659 163.892 94.2138 164.23 95.7145C164.581 97.5973 165.445 99.3598 166.738 100.826C168.031 102.292 169.707 103.41 171.597 104.069C173.488 104.728 175.528 104.904 177.513 104.58C179.498 104.256 181.359 103.443 182.909 102.223C183.692 101.568 184.397 100.834 185.012 100.034C182.93 104.643 180.025 107.805 175.87 109.271V111.681H197.048V109.271C192.985 107.834 190.08 104.758 188.008 100.294H188.059Z" fill="black"/>
<path d="M188.059 156.135C188.664 156.842 189.345 157.489 190.091 158.063C191.641 159.284 193.502 160.096 195.487 160.42C197.472 160.744 199.512 160.568 201.403 159.909C203.293 159.251 204.969 158.132 206.262 156.666C207.555 155.2 208.419 153.438 208.77 151.555C209.108 150.054 209.073 148.499 208.668 147.014C207.835 144.121 205.052 141.229 202.066 138.539C200.634 137.266 199.263 136.071 197.922 134.875C193.859 131.317 189.42 127.075 186.505 122.65C183.58 127.075 179.1 131.327 175.088 134.875L170.934 138.539C167.958 141.219 165.175 144.131 164.332 147.014C163.927 148.499 163.892 150.054 164.23 151.555C164.581 153.438 165.445 155.2 166.738 156.666C168.031 158.132 169.707 159.251 171.597 159.909C173.488 160.568 175.528 160.744 177.513 160.42C179.498 160.096 181.359 159.284 182.909 158.063C183.692 157.408 184.397 156.674 185.012 155.874C182.93 160.483 180.025 163.645 175.87 165.111V167.521H197.048V165.111C192.985 163.674 190.08 160.599 188.008 156.135H188.059Z" fill="black"/>
<path d="M126.059 186.049C126.664 186.757 127.345 187.403 128.091 187.978C129.641 189.198 131.502 190.011 133.487 190.335C135.472 190.659 137.512 190.483 139.403 189.824C141.293 189.165 142.969 188.047 144.262 186.581C145.555 185.115 146.419 183.352 146.77 181.469C147.108 179.969 147.073 178.414 146.668 176.928C145.835 174.036 143.052 171.143 140.066 168.453C138.634 167.181 137.263 165.985 135.922 164.79C131.859 161.232 127.42 156.99 124.505 152.564C121.58 156.99 117.1 161.241 113.088 164.79L108.934 168.453C105.958 171.134 103.175 174.045 102.332 176.928C101.927 178.414 101.892 179.969 102.23 181.469C102.581 183.352 103.445 185.115 104.738 186.581C106.031 188.047 107.707 189.165 109.597 189.824C111.488 190.483 113.528 190.659 115.513 190.335C117.498 190.011 119.359 189.198 120.909 187.978C121.692 187.323 122.397 186.589 123.012 185.789C120.93 190.398 118.025 193.56 113.87 195.025V197.436H135.048V195.025C130.985 193.589 128.08 190.513 126.008 186.049H126.059Z" fill="black"/>
<path d="M60.9409 249.706C60.3358 248.998 59.655 248.352 58.9094 247.777C57.359 246.557 55.4983 245.744 53.5133 245.42C51.5282 245.096 49.4883 245.272 47.5975 245.931C45.7066 246.59 44.0311 247.708 42.7382 249.174C41.4454 250.64 40.5805 252.403 40.2301 254.285C39.8921 255.786 39.9269 257.341 40.3317 258.827C41.1646 261.719 43.9477 264.612 46.934 267.302C48.3661 268.574 49.7374 269.77 51.0781 270.965C55.141 274.523 59.5798 278.765 62.4949 283.191C65.4202 278.765 69.8996 274.513 73.9117 270.965L78.066 267.302C81.0421 264.621 83.8252 261.709 84.6683 258.827C85.0731 257.341 85.1079 255.786 84.7699 254.285C84.4195 252.403 83.5546 250.64 82.2618 249.174C80.9689 247.708 79.2933 246.59 77.4025 245.931C75.5117 245.272 73.4718 245.096 71.4867 245.42C69.5017 245.744 67.641 246.557 66.0906 247.777C65.308 248.432 64.603 249.166 63.988 249.966C66.0703 245.357 68.9753 242.195 73.1296 240.729V238.319H51.9517V240.729C56.0146 242.166 58.9196 245.242 60.9916 249.706H60.9409Z" fill="black"/>
<path d="M64.0591 100.294C64.6642 101.002 65.345 101.648 66.0906 102.223C67.641 103.443 69.5017 104.256 71.4867 104.58C73.4718 104.904 75.5117 104.728 77.4025 104.069C79.2934 103.41 80.9689 102.292 82.2618 100.826C83.5546 99.3598 84.4195 97.5973 84.7699 95.7145C85.1079 94.2138 85.0731 92.659 84.6683 91.1733C83.8354 88.2809 81.0523 85.3884 78.066 82.6984C76.6339 81.4257 75.2626 80.2302 73.9219 79.0346C69.859 75.4769 65.4202 71.2346 62.5051 66.8091C59.5798 71.2346 55.1004 75.4865 51.0883 79.0346L46.934 82.6984C43.9579 85.3787 41.1748 88.2905 40.3317 91.1733C39.9269 92.659 39.8921 94.2138 40.2301 95.7145C40.5805 97.5973 41.4454 99.3598 42.7382 100.826C44.0311 102.292 45.7067 103.41 47.5975 104.069C49.4883 104.728 51.5282 104.904 53.5133 104.58C55.4983 104.256 57.359 103.443 58.9094 102.223C59.692 101.568 60.397 100.834 61.012 100.034C58.9297 104.643 56.0247 107.805 51.8704 109.271V111.681H73.0483V109.271C68.9854 107.834 66.0804 104.758 64.0084 100.294H64.0591Z" fill="black"/>
<path d="M64.0591 156.135C64.6642 156.842 65.345 157.489 66.0906 158.063C67.641 159.284 69.5017 160.096 71.4867 160.42C73.4718 160.744 75.5117 160.568 77.4025 159.909C79.2934 159.251 80.9689 158.132 82.2618 156.666C83.5546 155.2 84.4195 153.438 84.7699 151.555C85.1079 150.054 85.0731 148.499 84.6683 147.014C83.8354 144.121 81.0523 141.229 78.066 138.539C76.6339 137.266 75.2626 136.071 73.9219 134.875C69.859 131.317 65.4202 127.075 62.5051 122.65C59.5798 127.075 55.1004 131.327 51.0883 134.875L46.934 138.539C43.9579 141.219 41.1748 144.131 40.3317 147.014C39.9269 148.499 39.8921 150.054 40.2301 151.555C40.5805 153.438 41.4454 155.2 42.7382 156.666C44.0311 158.132 45.7067 159.251 47.5975 159.909C49.4883 160.568 51.5282 160.744 53.5133 160.42C55.4983 160.096 57.359 159.284 58.9094 158.063C59.692 157.408 60.397 156.674 61.012 155.874C58.9297 160.483 56.0247 163.645 51.8704 165.111V167.521H73.0483V165.111C68.9854 163.674 66.0804 160.599 64.0084 156.135H64.0591Z" fill="black"/>
<path d="M60.9409 191.871C60.3358 191.163 59.655 190.517 58.9094 189.943C57.359 188.722 55.4983 187.909 53.5133 187.585C51.5282 187.261 49.4883 187.437 47.5975 188.096C45.7066 188.755 44.0311 189.873 42.7382 191.339C41.4454 192.805 40.5805 194.568 40.2301 196.451C39.8921 197.951 39.9269 199.506 40.3317 200.992C41.1646 203.884 43.9477 206.777 46.934 209.467C48.3661 210.74 49.7374 211.935 51.0781 213.131C55.141 216.688 59.5798 220.931 62.4949 225.356C65.4202 220.931 69.8996 216.679 73.9117 213.131L78.066 209.467C81.0421 206.787 83.8252 203.875 84.6683 200.992C85.0731 199.506 85.1079 197.951 84.7699 196.451C84.4195 194.568 83.5546 192.805 82.2618 191.339C80.9689 189.873 79.2933 188.755 77.4025 188.096C75.5117 187.437 73.4718 187.261 71.4867 187.585C69.5017 187.909 67.641 188.722 66.0906 189.943C65.308 190.598 64.603 191.331 63.988 192.131C66.0703 187.523 68.9753 184.36 73.1296 182.895V180.484H51.9517V182.895C56.0146 184.331 58.9196 187.407 60.9916 191.871H60.9409Z" fill="black"/>
<path d="M14.9609 21.9737C14.9609 19.1091 15.7747 16.824 17.4023 15.1182C19.0299 13.4125 21.5169 12.5596 24.8633 12.5596C28.431 12.5596 31.0091 13.7576 32.5977 16.1534C34.1992 18.5362 35 21.9281 35 26.3292C35 32.2016 33.9453 36.225 31.8359 38.3995C29.7396 40.574 27.0898 41.6612 23.8867 41.6612C22.6367 41.6612 21.3932 41.4789 20.1562 41.1143C18.9193 40.7628 17.9688 40.294 17.3047 39.7081C16.6797 39.1482 16.543 38.6013 16.8945 38.0675L18.1836 36.1339C18.6003 35.4958 19.2057 35.4958 20 36.1339C20.3906 36.4464 20.957 36.7198 21.6992 36.9542C22.4544 37.1755 23.2422 37.2862 24.0625 37.2862C25.4297 37.2862 26.6862 36.6482 27.832 35.3721C28.9779 34.0831 29.5508 31.9021 29.5508 28.8292H29.4727C28.8867 29.7146 28.0729 30.3526 27.0312 30.7432C25.9896 31.1208 24.7201 31.3096 23.2227 31.3096C20.5013 31.3096 18.444 30.4177 17.0508 28.6339C15.6576 26.837 14.9609 24.6169 14.9609 21.9737ZM20.8203 22.0128C20.8203 23.7315 21.1458 24.9815 21.7969 25.7628C22.4479 26.544 23.3594 26.9346 24.5312 26.9346C25.8203 26.9346 26.8164 26.4073 27.5195 25.3526C28.2357 24.2979 28.5938 23.1391 28.5938 21.8761C28.5938 20.2875 28.2682 19.0701 27.6172 18.2237C26.9661 17.3643 26.0156 16.9346 24.7656 16.9346C23.4375 16.9346 22.4479 17.2927 21.7969 18.0089C21.1458 18.725 20.8203 20.0596 20.8203 22.0128Z" fill="black"/>
<path d="M237.039 329.023C237.039 331.888 236.225 334.173 234.598 335.879C232.97 337.585 230.483 338.438 227.137 338.438C223.569 338.438 220.991 337.24 219.402 334.844C217.801 332.461 217 329.069 217 324.668C217 318.796 218.055 314.772 220.164 312.598C222.26 310.423 224.91 309.336 228.113 309.336C229.363 309.336 230.607 309.518 231.844 309.883C233.081 310.234 234.031 310.703 234.695 311.289C235.32 311.849 235.457 312.396 235.105 312.93L233.816 314.863C233.4 315.501 232.794 315.501 232 314.863C231.609 314.551 231.043 314.277 230.301 314.043C229.546 313.822 228.758 313.711 227.938 313.711C226.57 313.711 225.314 314.349 224.168 315.625C223.022 316.914 222.449 319.095 222.449 322.168H222.527C223.113 321.283 223.927 320.645 224.969 320.254C226.01 319.876 227.28 319.688 228.777 319.688C231.499 319.688 233.556 320.579 234.949 322.363C236.342 324.16 237.039 326.38 237.039 329.023ZM231.18 328.984C231.18 327.266 230.854 326.016 230.203 325.234C229.552 324.453 228.641 324.062 227.469 324.062C226.18 324.062 225.184 324.59 224.48 325.645C223.764 326.699 223.406 327.858 223.406 329.121C223.406 330.71 223.732 331.927 224.383 332.773C225.034 333.633 225.984 334.062 227.234 334.062C228.562 334.062 229.552 333.704 230.203 332.988C230.854 332.272 231.18 330.938 231.18 328.984Z" fill="black"/>
<path d="M223.961 277.819C223.557 277.347 223.103 276.916 222.606 276.534C221.573 275.72 220.332 275.178 219.009 274.962C217.685 274.746 216.326 274.863 215.065 275.303C213.804 275.742 212.687 276.487 211.825 277.465C210.964 278.442 210.387 279.617 210.153 280.872C209.928 281.873 209.951 282.909 210.221 283.9C210.776 285.828 212.632 287.756 214.623 289.55C215.577 290.398 216.492 291.195 217.385 291.992C220.094 294.364 223.053 297.192 224.997 300.142C226.947 297.192 229.933 294.358 232.608 291.992L235.377 289.55C237.361 287.763 239.217 285.822 239.779 283.9C240.049 282.909 240.072 281.873 239.847 280.872C239.613 279.617 239.036 278.442 238.175 277.465C237.313 276.487 236.196 275.742 234.935 275.303C233.674 274.863 232.315 274.746 230.991 274.962C229.668 275.178 228.427 275.72 227.394 276.534C226.872 276.97 226.402 277.459 225.992 277.993C227.38 274.92 229.317 272.812 232.086 271.835V270.228H217.968V271.835C220.676 272.793 222.613 274.843 223.994 277.819H223.961Z" fill="black"/>
<path d="M26.0394 73.1781C26.4428 73.65 26.8967 74.0808 27.3937 74.4637C28.4273 75.2773 29.6678 75.8193 30.9912 76.0353C32.3145 76.2513 33.6744 76.1339 34.935 75.6947C36.1956 75.2555 37.3126 74.5099 38.1745 73.5325C39.0364 72.5551 39.613 71.3801 39.8466 70.125C40.0719 69.1245 40.0488 68.088 39.7789 67.0975C39.2236 65.1692 37.3682 63.2409 35.3774 61.4476C34.4226 60.5991 33.5084 59.8021 32.6146 59.005C29.906 56.6332 26.9468 53.805 25.0034 50.8547C23.0532 53.805 20.0669 56.6396 17.3922 59.005L14.6226 61.4476C12.6386 63.2345 10.7832 65.1756 10.2211 67.0975C9.95125 68.088 9.92806 69.1245 10.1534 70.125C10.387 71.3801 10.9636 72.5551 11.8255 73.5325C12.6874 74.5099 13.8044 75.2555 15.065 75.6947C16.3256 76.1339 17.6855 76.2513 19.0088 76.0353C20.3322 75.8193 21.5727 75.2773 22.6063 74.4637C23.128 74.0271 23.598 73.5378 24.008 73.0046C22.6198 76.077 20.6832 78.1853 17.9136 79.1623V80.7692H32.0322V79.1623C29.3236 78.2046 27.387 76.1541 26.0056 73.1781H26.0394Z" fill="black"/>
</svg>
