<svg width="250" height="350" viewBox="0 0 250 350" fill="none" xmlns="http://www.w3.org/2000/svg">
<rect width="250" height="350" rx="12.5" fill="white"/>
<path d="M126.059 99.5808C126.664 100.291 127.345 100.939 128.091 101.515C129.641 102.739 131.502 103.554 133.487 103.879C135.472 104.204 137.512 104.027 139.403 103.366C141.293 102.706 142.969 101.584 144.262 100.114C145.555 98.6437 146.419 96.8761 146.77 94.988C147.108 93.483 147.073 91.9238 146.668 90.4338C145.835 87.5331 143.052 84.6324 140.066 81.9347C138.634 80.6584 137.263 79.4594 135.922 78.2604C131.859 74.6925 127.42 70.4381 124.505 66C121.58 70.4381 117.1 74.7022 113.088 78.2604L108.934 81.9347C105.958 84.6227 103.175 87.5428 102.332 90.4338C101.927 91.9238 101.892 93.483 102.23 94.988C102.581 96.8761 103.445 98.6437 104.738 100.114C106.031 101.584 107.707 102.706 109.597 103.366C111.488 104.027 113.528 104.204 115.513 103.879C117.498 103.554 119.359 102.739 120.909 101.515C121.692 100.858 122.397 100.122 123.012 99.3197C120.93 103.942 118.025 107.113 113.87 108.583V111H135.048V108.583C130.985 107.142 128.08 104.058 126.008 99.5808H126.059Z" fill="black"/>
<path d="M122.941 249.419C122.336 248.709 121.655 248.061 120.909 247.485C119.359 246.261 117.498 245.446 115.513 245.121C113.528 244.796 111.488 244.973 109.597 245.634C107.707 246.294 106.031 247.416 104.738 248.886C103.445 250.356 102.581 252.124 102.23 254.012C101.892 255.517 101.927 257.076 102.332 258.566C103.165 261.467 105.948 264.368 108.934 267.065C110.366 268.342 111.737 269.541 113.078 270.74C117.141 274.307 121.58 278.562 124.495 283C127.42 278.562 131.9 274.298 135.912 270.74L140.066 267.065C143.042 264.377 145.825 261.457 146.668 258.566C147.073 257.076 147.108 255.517 146.77 254.012C146.419 252.124 145.555 250.356 144.262 248.886C142.969 247.416 141.293 246.294 139.403 245.634C137.512 244.973 135.472 244.796 133.487 245.121C131.502 245.446 129.641 246.261 128.091 247.485C127.308 248.142 126.603 248.878 125.988 249.68C128.07 245.058 130.975 241.887 135.13 240.417V238H113.952V240.417C118.015 241.858 120.92 244.942 122.992 249.419H122.941Z" fill="black"/>
<path d="M16.4648 40C15.4883 40 15 39.5768 15 38.7305V37.793C15 37.1159 15.3125 36.4453 15.9375 35.7812L21.7773 29.6289C23.5352 27.7669 25.1432 26.1133 26.6016 24.668C28.0599 23.2096 28.7891 21.7383 28.7891 20.2539C28.7891 18.7695 28.418 17.6823 27.6758 16.9922C26.9466 16.2891 26.0156 15.9375 24.8828 15.9375C23.0859 15.9375 21.8359 16.3542 21.1328 17.1875C20.4297 18.0208 19.9219 18.9128 19.6094 19.8633C19.3099 20.7878 18.763 21.1198 17.9688 20.8594L15.9961 20.1953C15.3581 19.974 15.1758 19.362 15.4492 18.3594C15.957 16.4974 16.9922 14.9023 18.5547 13.5742C20.1172 12.2331 22.4349 11.5625 25.5078 11.5625C28.7109 11.5625 31.0352 12.3893 32.4805 14.043C33.9258 15.6836 34.6484 17.4674 34.6484 19.3945C34.6484 21.9206 33.5938 24.1406 31.4844 26.0547C29.375 27.9557 27.4609 29.8112 25.7422 31.6211L22.4219 35.1172V35.2344C23.2031 35.1823 23.8542 35.1562 24.375 35.1562H33.4961C34.4727 35.1562 34.9609 35.5794 34.9609 36.4258V38.7305C34.9609 39.5768 34.4727 40 33.4961 40H16.4648Z" fill="black"/>
<path d="M233.535 310C234.512 310 235 310.423 235 311.27V312.207C235 312.884 234.688 313.555 234.062 314.219L228.223 320.371C226.465 322.233 224.857 323.887 223.398 325.332C221.94 326.79 221.211 328.262 221.211 329.746C221.211 331.23 221.582 332.318 222.324 333.008C223.053 333.711 223.984 334.062 225.117 334.062C226.914 334.062 228.164 333.646 228.867 332.812C229.57 331.979 230.078 331.087 230.391 330.137C230.69 329.212 231.237 328.88 232.031 329.141L234.004 329.805C234.642 330.026 234.824 330.638 234.551 331.641C234.043 333.503 233.008 335.098 231.445 336.426C229.883 337.767 227.565 338.438 224.492 338.438C221.289 338.438 218.965 337.611 217.52 335.957C216.074 334.316 215.352 332.533 215.352 330.605C215.352 328.079 216.406 325.859 218.516 323.945C220.625 322.044 222.539 320.189 224.258 318.379L227.578 314.883V314.766C226.797 314.818 226.146 314.844 225.625 314.844H216.504C215.527 314.844 215.039 314.421 215.039 313.574V311.27C215.039 310.423 215.527 310 216.504 310H233.535Z" fill="black"/>
<path d="M223.961 277.613C223.557 277.14 223.103 276.708 222.606 276.324C221.573 275.508 220.332 274.964 219.009 274.747C217.685 274.531 216.326 274.649 215.065 275.089C213.804 275.53 212.687 276.277 211.825 277.257C210.964 278.238 210.387 279.416 210.153 280.675C209.928 281.678 209.951 282.717 210.221 283.711C210.776 285.645 212.632 287.578 214.623 289.377C215.577 290.228 216.492 291.027 217.385 291.826C220.094 294.205 223.053 297.041 224.997 300C226.947 297.041 229.933 294.199 232.608 291.826L235.377 289.377C237.361 287.585 239.217 285.638 239.779 283.711C240.049 282.717 240.072 281.678 239.847 280.675C239.613 279.416 239.036 278.238 238.175 277.257C237.313 276.277 236.196 275.53 234.935 275.089C233.674 274.649 232.315 274.531 230.991 274.747C229.668 274.964 228.427 275.508 227.394 276.324C226.872 276.761 226.402 277.252 225.992 277.787C227.38 274.706 229.317 272.591 232.086 271.612V270H217.968V271.612C220.676 272.572 222.613 274.628 223.994 277.613H223.961Z" fill="black"/>
<path d="M26.0394 72.3872C26.4428 72.8604 26.8967 73.2925 27.3937 73.6764C28.4273 74.4924 29.6678 75.0359 30.9912 75.2525C32.3145 75.4692 33.6744 75.3514 34.935 74.9109C36.1956 74.4705 37.3126 73.7228 38.1745 72.7426C39.0364 71.7624 39.613 70.5841 39.8466 69.3253C40.0719 68.322 40.0488 67.2825 39.7789 66.2892C39.2236 64.3554 37.3682 62.4216 35.3774 60.6231C34.4226 59.7723 33.5084 58.9729 32.6146 58.1736C29.906 55.795 26.9468 52.9588 25.0034 50C23.0532 52.9588 20.0669 55.8015 17.3922 58.1736L14.6226 60.6231C12.6386 62.4151 10.7832 64.3619 10.2211 66.2892C9.95125 67.2825 9.92806 68.322 10.1534 69.3253C10.387 70.5841 10.9636 71.7624 11.8255 72.7426C12.6874 73.7228 13.8044 74.4705 15.065 74.9109C16.3256 75.3514 17.6855 75.4692 19.0088 75.2525C20.3322 75.0359 21.5727 74.4924 22.6063 73.6764C23.128 73.2386 23.598 72.748 24.008 72.2132C22.6198 75.2944 20.6832 77.4087 17.9136 78.3885V80H32.0322V78.3885C29.3236 77.428 27.387 75.3717 26.0056 72.3872H26.0394Z" fill="black"/>
</svg>
